%TF.GenerationSoftware,KiCad,Pcbnew,(7.0.0)*%
%TF.CreationDate,2023-03-30T13:35:51-06:00*%
%TF.ProjectId,Phase_A_UnoShield,50686173-655f-4415-9f55-6e6f53686965,rev?*%
%TF.SameCoordinates,Original*%
%TF.FileFunction,Soldermask,Bot*%
%TF.FilePolarity,Negative*%
%FSLAX46Y46*%
G04 Gerber Fmt 4.6, Leading zero omitted, Abs format (unit mm)*
G04 Created by KiCad (PCBNEW (7.0.0)) date 2023-03-30 13:35:51*
%MOMM*%
%LPD*%
G01*
G04 APERTURE LIST*
%ADD10R,1.700000X1.700000*%
%ADD11O,1.700000X1.700000*%
%ADD12R,1.800000X1.800000*%
%ADD13C,1.800000*%
%ADD14R,2.400000X1.600000*%
%ADD15O,2.400000X1.600000*%
%ADD16C,1.600000*%
%ADD17O,1.600000X1.600000*%
%ADD18R,2.000000X2.000000*%
%ADD19C,2.000000*%
%ADD20O,3.048000X1.850000*%
%ADD21C,1.500000*%
%ADD22R,1.500000X1.500000*%
G04 APERTURE END LIST*
D10*
%TO.C,J1*%
X127939999Y-97459999D03*
D11*
X130479999Y-97459999D03*
X133019999Y-97459999D03*
X135559999Y-97459999D03*
X138099999Y-97459999D03*
X140639999Y-97459999D03*
X143179999Y-97459999D03*
X145719999Y-97459999D03*
%TD*%
D10*
%TO.C,J3*%
X150799999Y-97459999D03*
D11*
X153339999Y-97459999D03*
X155879999Y-97459999D03*
X158419999Y-97459999D03*
X160959999Y-97459999D03*
X163499999Y-97459999D03*
%TD*%
D10*
%TO.C,J2*%
X118795999Y-49199999D03*
D11*
X121335999Y-49199999D03*
X123875999Y-49199999D03*
X126415999Y-49199999D03*
X128955999Y-49199999D03*
X131495999Y-49199999D03*
X134035999Y-49199999D03*
X136575999Y-49199999D03*
X139115999Y-49199999D03*
X141655999Y-49199999D03*
%TD*%
D10*
%TO.C,J4*%
X145719999Y-49199999D03*
D11*
X148259999Y-49199999D03*
X150799999Y-49199999D03*
X153339999Y-49199999D03*
X155879999Y-49199999D03*
X158419999Y-49199999D03*
X160959999Y-49199999D03*
X163499999Y-49199999D03*
%TD*%
D12*
%TO.C,D2*%
X167799999Y-75319999D03*
D13*
X165260000Y-75320000D03*
%TD*%
D14*
%TO.C,U2*%
X129219999Y-63159999D03*
D15*
X129219999Y-65699999D03*
X129219999Y-68239999D03*
X129219999Y-70779999D03*
X129219999Y-73319999D03*
X129219999Y-75859999D03*
X129219999Y-78399999D03*
X129219999Y-80939999D03*
X136839999Y-80939999D03*
X136839999Y-78399999D03*
X136839999Y-75859999D03*
X136839999Y-73319999D03*
X136839999Y-70779999D03*
X136839999Y-68239999D03*
X136839999Y-65699999D03*
X136839999Y-63159999D03*
%TD*%
D16*
%TO.C,R8*%
X122860000Y-69520000D03*
D17*
X112699999Y-69519999D03*
%TD*%
D16*
%TO.C,R5*%
X122860000Y-54280000D03*
D17*
X112699999Y-54279999D03*
%TD*%
D12*
%TO.C,D1*%
X175299999Y-75319999D03*
D13*
X172760000Y-75320000D03*
%TD*%
D17*
%TO.C,R1*%
X178739999Y-54279999D03*
D16*
X168580000Y-54280000D03*
%TD*%
D18*
%TO.C,LS1*%
X143179999Y-59359999D03*
D19*
X150780000Y-59360000D03*
%TD*%
D17*
%TO.C,R2*%
X178739999Y-58329999D03*
D16*
X168580000Y-58330000D03*
%TD*%
D20*
%TO.C,SW1*%
X158419999Y-76289999D03*
X145919999Y-76289999D03*
X158419999Y-71289999D03*
X145919999Y-71289999D03*
%TD*%
%TO.C,SW2*%
X158419999Y-89839999D03*
X145919999Y-89839999D03*
X158419999Y-84839999D03*
X145919999Y-84839999D03*
%TD*%
D21*
%TO.C,U1*%
X89840000Y-79680000D03*
X89840000Y-77140000D03*
X89840000Y-74600000D03*
X89840000Y-72060000D03*
X89840000Y-69520000D03*
X89840000Y-66980000D03*
X105080000Y-66980000D03*
X105080000Y-69520000D03*
X105080000Y-72060000D03*
X105080000Y-74600000D03*
X105080000Y-77140000D03*
D22*
X105079999Y-79679999D03*
%TD*%
D16*
%TO.C,R12*%
X122860000Y-89840000D03*
D17*
X112699999Y-89839999D03*
%TD*%
D16*
%TO.C,R10*%
X122860000Y-79680000D03*
D17*
X112699999Y-79679999D03*
%TD*%
D16*
%TO.C,R9*%
X122860000Y-74600000D03*
D17*
X112699999Y-74599999D03*
%TD*%
D16*
%TO.C,R6*%
X122860000Y-59360000D03*
D17*
X112699999Y-59359999D03*
%TD*%
D16*
%TO.C,R3*%
X176200000Y-69520000D03*
D17*
X166039999Y-69519999D03*
%TD*%
D16*
%TO.C,R7*%
X122860000Y-64440000D03*
D17*
X112699999Y-64439999D03*
%TD*%
D16*
%TO.C,R11*%
X122860000Y-84760000D03*
D17*
X112699999Y-84759999D03*
%TD*%
D16*
%TO.C,R4*%
X176200000Y-65470000D03*
D17*
X166039999Y-65469999D03*
%TD*%
M02*
