%TF.GenerationSoftware,KiCad,Pcbnew,(7.0.0)*%
%TF.CreationDate,2023-04-20T13:59:00-06:00*%
%TF.ProjectId,Phase_B_ATMEGA_v3,50686173-655f-4425-9f41-544d4547415f,rev?*%
%TF.SameCoordinates,Original*%
%TF.FileFunction,Paste,Top*%
%TF.FilePolarity,Positive*%
%FSLAX46Y46*%
G04 Gerber Fmt 4.6, Leading zero omitted, Abs format (unit mm)*
G04 Created by KiCad (PCBNEW (7.0.0)) date 2023-04-20 13:59:00*
%MOMM*%
%LPD*%
G01*
G04 APERTURE LIST*
G04 Aperture macros list*
%AMRoundRect*
0 Rectangle with rounded corners*
0 $1 Rounding radius*
0 $2 $3 $4 $5 $6 $7 $8 $9 X,Y pos of 4 corners*
0 Add a 4 corners polygon primitive as box body*
4,1,4,$2,$3,$4,$5,$6,$7,$8,$9,$2,$3,0*
0 Add four circle primitives for the rounded corners*
1,1,$1+$1,$2,$3*
1,1,$1+$1,$4,$5*
1,1,$1+$1,$6,$7*
1,1,$1+$1,$8,$9*
0 Add four rect primitives between the rounded corners*
20,1,$1+$1,$2,$3,$4,$5,0*
20,1,$1+$1,$4,$5,$6,$7,0*
20,1,$1+$1,$6,$7,$8,$9,0*
20,1,$1+$1,$8,$9,$2,$3,0*%
G04 Aperture macros list end*
%ADD10RoundRect,0.200000X-0.200000X-0.275000X0.200000X-0.275000X0.200000X0.275000X-0.200000X0.275000X0*%
%ADD11RoundRect,0.200000X0.200000X0.275000X-0.200000X0.275000X-0.200000X-0.275000X0.200000X-0.275000X0*%
%ADD12RoundRect,0.243750X-0.243750X-0.456250X0.243750X-0.456250X0.243750X0.456250X-0.243750X0.456250X0*%
%ADD13RoundRect,0.250000X0.450000X-0.262500X0.450000X0.262500X-0.450000X0.262500X-0.450000X-0.262500X0*%
%ADD14RoundRect,0.225000X0.250000X-0.225000X0.250000X0.225000X-0.250000X0.225000X-0.250000X-0.225000X0*%
%ADD15RoundRect,0.250000X0.262500X0.450000X-0.262500X0.450000X-0.262500X-0.450000X0.262500X-0.450000X0*%
%ADD16R,2.000000X1.500000*%
%ADD17RoundRect,0.250000X0.250000X0.475000X-0.250000X0.475000X-0.250000X-0.475000X0.250000X-0.475000X0*%
%ADD18R,1.500000X0.550000*%
%ADD19R,0.550000X1.500000*%
%ADD20RoundRect,0.225000X-0.225000X-0.250000X0.225000X-0.250000X0.225000X0.250000X-0.225000X0.250000X0*%
%ADD21RoundRect,0.225000X0.225000X0.250000X-0.225000X0.250000X-0.225000X-0.250000X0.225000X-0.250000X0*%
%ADD22RoundRect,0.100000X0.637500X0.100000X-0.637500X0.100000X-0.637500X-0.100000X0.637500X-0.100000X0*%
%ADD23RoundRect,0.250000X-0.312500X-1.450000X0.312500X-1.450000X0.312500X1.450000X-0.312500X1.450000X0*%
%ADD24RoundRect,0.225000X-0.250000X0.225000X-0.250000X-0.225000X0.250000X-0.225000X0.250000X0.225000X0*%
%ADD25R,1.400000X1.200000*%
%ADD26RoundRect,0.150000X-0.512500X-0.150000X0.512500X-0.150000X0.512500X0.150000X-0.512500X0.150000X0*%
%ADD27RoundRect,0.150000X-0.150000X0.512500X-0.150000X-0.512500X0.150000X-0.512500X0.150000X0.512500X0*%
%ADD28R,2.000000X0.500000*%
%ADD29R,1.700000X2.000000*%
%ADD30R,1.000000X0.700000*%
%TA.AperFunction,Profile*%
%ADD31C,0.100000*%
%TD*%
%ADD32C,0.050000*%
%ADD33C,0.100000*%
G04 APERTURE END LIST*
D10*
%TO.C,R14*%
X108675000Y-115500000D03*
X110325000Y-115500000D03*
%TD*%
D11*
%TO.C,R13*%
X128000000Y-141000000D03*
X126350000Y-141000000D03*
%TD*%
D12*
%TO.C,D3*%
X108500000Y-100500000D03*
X110375000Y-100500000D03*
%TD*%
D13*
%TO.C,R12*%
X105000000Y-69162500D03*
X105000000Y-67337500D03*
%TD*%
D12*
%TO.C,D1*%
X155125000Y-82500000D03*
X157000000Y-82500000D03*
%TD*%
D14*
%TO.C,C2*%
X143500000Y-129775000D03*
X143500000Y-128225000D03*
%TD*%
%TO.C,C10*%
X135800000Y-108195000D03*
X135800000Y-106645000D03*
%TD*%
%TO.C,C12*%
X137500000Y-108275000D03*
X137500000Y-106725000D03*
%TD*%
D15*
%TO.C,R4*%
X161385000Y-85405000D03*
X159560000Y-85405000D03*
%TD*%
D16*
%TO.C,S2*%
X185149999Y-125499999D03*
X170849999Y-125499999D03*
X185149999Y-120499999D03*
X170849999Y-120499999D03*
%TD*%
D11*
%TO.C,R16*%
X114325000Y-100500000D03*
X112675000Y-100500000D03*
%TD*%
D13*
%TO.C,R7*%
X105000000Y-63912500D03*
X105000000Y-62087500D03*
%TD*%
D17*
%TO.C,C8*%
X131800000Y-110600000D03*
X129900000Y-110600000D03*
%TD*%
D18*
%TO.C,U3*%
X133999999Y-112099999D03*
X133999999Y-112899999D03*
X133999999Y-113699999D03*
X133999999Y-114499999D03*
X133999999Y-115299999D03*
X133999999Y-116099999D03*
X133999999Y-116899999D03*
X133999999Y-117699999D03*
X133999999Y-118499999D03*
X133999999Y-119299999D03*
X133999999Y-120099999D03*
D19*
X135699999Y-121799999D03*
X136499999Y-121799999D03*
X137299999Y-121799999D03*
X138099999Y-121799999D03*
X138899999Y-121799999D03*
X139699999Y-121799999D03*
X140499999Y-121799999D03*
X141299999Y-121799999D03*
X142099999Y-121799999D03*
X142899999Y-121799999D03*
X143699999Y-121799999D03*
D18*
X145399999Y-120099999D03*
X145399999Y-119299999D03*
X145399999Y-118499999D03*
X145399999Y-117699999D03*
X145399999Y-116899999D03*
X145399999Y-116099999D03*
X145399999Y-115299999D03*
X145399999Y-114499999D03*
X145399999Y-113699999D03*
X145399999Y-112899999D03*
X145399999Y-112099999D03*
D19*
X143699999Y-110399999D03*
X142899999Y-110399999D03*
X142099999Y-110399999D03*
X141299999Y-110399999D03*
X140499999Y-110399999D03*
X139699999Y-110399999D03*
X138899999Y-110399999D03*
X138099999Y-110399999D03*
X137299999Y-110399999D03*
X136499999Y-110399999D03*
X135699999Y-110399999D03*
%TD*%
D16*
%TO.C,S1*%
X185299999Y-105999999D03*
X170999999Y-105999999D03*
X185299999Y-100999999D03*
X170999999Y-100999999D03*
%TD*%
D20*
%TO.C,C11*%
X144025000Y-107920000D03*
X145575000Y-107920000D03*
%TD*%
D21*
%TO.C,C5*%
X131475000Y-112600000D03*
X129925000Y-112600000D03*
%TD*%
D22*
%TO.C,U2*%
X139862500Y-87775000D03*
X139862500Y-87125000D03*
X139862500Y-86475000D03*
X139862500Y-85825000D03*
X139862500Y-85175000D03*
X139862500Y-84525000D03*
X139862500Y-83875000D03*
X139862500Y-83225000D03*
X134137500Y-83225000D03*
X134137500Y-83875000D03*
X134137500Y-84525000D03*
X134137500Y-85175000D03*
X134137500Y-85825000D03*
X134137500Y-86475000D03*
X134137500Y-87125000D03*
X134137500Y-87775000D03*
%TD*%
D14*
%TO.C,C3*%
X135500000Y-129775000D03*
X135500000Y-128225000D03*
%TD*%
D20*
%TO.C,C7*%
X147700000Y-119100000D03*
X149250000Y-119100000D03*
%TD*%
D23*
%TO.C,F1*%
X109862500Y-107500000D03*
X114137500Y-107500000D03*
%TD*%
D24*
%TO.C,C14*%
X120500000Y-126225000D03*
X120500000Y-127775000D03*
%TD*%
D12*
%TO.C,D2*%
X155125000Y-85540000D03*
X157000000Y-85540000D03*
%TD*%
D25*
%TO.C,Y1*%
X140599999Y-128149999D03*
X138399999Y-128149999D03*
X138399999Y-129849999D03*
X140599999Y-129849999D03*
%TD*%
D10*
%TO.C,R15*%
X108675000Y-114000000D03*
X110325000Y-114000000D03*
%TD*%
D13*
%TO.C,R5*%
X146200000Y-77312500D03*
X146200000Y-75487500D03*
%TD*%
D26*
%TO.C,U4*%
X113862500Y-113550000D03*
X113862500Y-114500000D03*
X113862500Y-115450000D03*
X116137500Y-115450000D03*
X116137500Y-114500000D03*
X116137500Y-113550000D03*
%TD*%
D21*
%TO.C,C1*%
X131775000Y-87500000D03*
X130225000Y-87500000D03*
%TD*%
%TO.C,C15*%
X113275000Y-125000000D03*
X111725000Y-125000000D03*
%TD*%
D13*
%TO.C,R8*%
X105000000Y-75825000D03*
X105000000Y-74000000D03*
%TD*%
D15*
%TO.C,R1*%
X166062500Y-106000000D03*
X164237500Y-106000000D03*
%TD*%
D14*
%TO.C,C13*%
X113000000Y-122275000D03*
X113000000Y-120725000D03*
%TD*%
D15*
%TO.C,R3*%
X161385000Y-82455000D03*
X159560000Y-82455000D03*
%TD*%
D27*
%TO.C,U5*%
X116950000Y-122862500D03*
X116000000Y-122862500D03*
X115050000Y-122862500D03*
X115050000Y-125137500D03*
X116950000Y-125137500D03*
%TD*%
D13*
%TO.C,R11*%
X104500000Y-58912500D03*
X104500000Y-57087500D03*
%TD*%
D21*
%TO.C,C9*%
X131543330Y-115795791D03*
X129993330Y-115795791D03*
%TD*%
D13*
%TO.C,R10*%
X140000000Y-74912500D03*
X140000000Y-73087500D03*
%TD*%
D28*
%TO.C,J2*%
X105274999Y-113399999D03*
X105274999Y-114199999D03*
X105274999Y-114999999D03*
X105274999Y-115799999D03*
X105274999Y-116599999D03*
D29*
X105174999Y-110549999D03*
X99724999Y-110549999D03*
X105174999Y-119449999D03*
X99724999Y-119449999D03*
%TD*%
D13*
%TO.C,R6*%
X150500000Y-85412500D03*
X150500000Y-83587500D03*
%TD*%
D11*
%TO.C,R17*%
X108000000Y-130000000D03*
X106350000Y-130000000D03*
%TD*%
D30*
%TO.C,S3*%
X123999999Y-134649999D03*
X129999999Y-134649999D03*
X123999999Y-138349999D03*
X129999999Y-138349999D03*
%TD*%
D21*
%TO.C,C6*%
X131575000Y-117500000D03*
X130025000Y-117500000D03*
%TD*%
D24*
%TO.C,C4*%
X137300000Y-123870000D03*
X137300000Y-125420000D03*
%TD*%
D15*
%TO.C,R2*%
X166562500Y-125500000D03*
X164737500Y-125500000D03*
%TD*%
D13*
%TO.C,R9*%
X105500000Y-83162500D03*
X105500000Y-81337500D03*
%TD*%
D31*
X200100000Y-50480000D02*
G75*
G03*
X196100000Y-46480000I-4000000J0D01*
G01*
X102100000Y-46480000D02*
G75*
G03*
X98100000Y-50480000I0J-4000000D01*
G01*
X98100000Y-144480000D02*
X98100000Y-50480000D01*
X98100000Y-144480000D02*
G75*
G03*
X102100000Y-148480000I4000000J0D01*
G01*
X102100000Y-46480000D02*
X196100000Y-46480000D01*
X196100000Y-148480000D02*
G75*
G03*
X200100000Y-144480000I0J4000000D01*
G01*
X200100000Y-144480000D02*
X200100000Y-50480000D01*
X102100000Y-148480000D02*
X196100000Y-148480000D01*
D32*
%TO.C,LS1*%
X185750000Y-66500000D02*
G75*
G03*
X185750000Y-66500000I-6250000J0D01*
G01*
%TO.C,H5*%
X156350000Y-102400000D02*
G75*
G03*
X156350000Y-102400000I-2450000J0D01*
G01*
%TO.C,R14*%
X108020000Y-114770000D02*
X110980000Y-114770000D01*
X108020000Y-116230000D02*
X108020000Y-114770000D01*
X110980000Y-114770000D02*
X110980000Y-116230000D01*
X110980000Y-116230000D02*
X108020000Y-116230000D01*
%TO.C,R13*%
X128655000Y-141730000D02*
X125695000Y-141730000D01*
X128655000Y-140270000D02*
X128655000Y-141730000D01*
X125695000Y-141730000D02*
X125695000Y-140270000D01*
X125695000Y-140270000D02*
X128655000Y-140270000D01*
%TO.C,D3*%
X107757500Y-99550000D02*
X111117500Y-99550000D01*
X107757500Y-101450000D02*
X107757500Y-99550000D01*
X111117500Y-99550000D02*
X111117500Y-101450000D01*
X111117500Y-101450000D02*
X107757500Y-101450000D01*
%TO.C,R12*%
X104050000Y-69930000D02*
X104050000Y-66570000D01*
X105950000Y-69930000D02*
X104050000Y-69930000D01*
X104050000Y-66570000D02*
X105950000Y-66570000D01*
X105950000Y-66570000D02*
X105950000Y-69930000D01*
%TO.C,D1*%
X154382500Y-81550000D02*
X157742500Y-81550000D01*
X154382500Y-83450000D02*
X154382500Y-81550000D01*
X157742500Y-81550000D02*
X157742500Y-83450000D01*
X157742500Y-83450000D02*
X154382500Y-83450000D01*
%TO.C,C2*%
X142770000Y-130480000D02*
X142770000Y-127520000D01*
X144230000Y-130480000D02*
X142770000Y-130480000D01*
X142770000Y-127520000D02*
X144230000Y-127520000D01*
X144230000Y-127520000D02*
X144230000Y-130480000D01*
%TO.C,C10*%
X135070000Y-108900000D02*
X135070000Y-105940000D01*
X136530000Y-108900000D02*
X135070000Y-108900000D01*
X135070000Y-105940000D02*
X136530000Y-105940000D01*
X136530000Y-105940000D02*
X136530000Y-108900000D01*
%TO.C,C12*%
X136770000Y-108980000D02*
X136770000Y-106020000D01*
X138230000Y-108980000D02*
X136770000Y-108980000D01*
X136770000Y-106020000D02*
X138230000Y-106020000D01*
X138230000Y-106020000D02*
X138230000Y-108980000D01*
%TO.C,R4*%
X162152500Y-86355000D02*
X158792500Y-86355000D01*
X162152500Y-84455000D02*
X162152500Y-86355000D01*
X158792500Y-86355000D02*
X158792500Y-84455000D01*
X158792500Y-84455000D02*
X162152500Y-84455000D01*
D33*
%TO.C,S2*%
X187150000Y-130000000D02*
X168850000Y-130000000D01*
X187150000Y-130000000D02*
X168850000Y-130000000D01*
X187150000Y-116000000D02*
X187150000Y-130000000D01*
X187150000Y-116000000D02*
X187150000Y-130000000D01*
X168850000Y-130000000D02*
X168850000Y-116000000D01*
X168850000Y-130000000D02*
X168850000Y-116000000D01*
X168850000Y-116000000D02*
X187150000Y-116000000D01*
X168850000Y-116000000D02*
X187150000Y-116000000D01*
D32*
%TO.C,R16*%
X114980000Y-101230000D02*
X112020000Y-101230000D01*
X114980000Y-99770000D02*
X114980000Y-101230000D01*
X112020000Y-101230000D02*
X112020000Y-99770000D01*
X112020000Y-99770000D02*
X114980000Y-99770000D01*
%TO.C,R7*%
X104050000Y-64680000D02*
X104050000Y-61320000D01*
X105950000Y-64680000D02*
X104050000Y-64680000D01*
X104050000Y-61320000D02*
X105950000Y-61320000D01*
X105950000Y-61320000D02*
X105950000Y-64680000D01*
%TO.C,C8*%
X132550000Y-111580000D02*
X129150000Y-111580000D01*
X132550000Y-109620000D02*
X132550000Y-111580000D01*
X129150000Y-111580000D02*
X129150000Y-109620000D01*
X129150000Y-109620000D02*
X132550000Y-109620000D01*
%TO.C,U3*%
X133000000Y-109400000D02*
X133000000Y-122800000D01*
X133000000Y-109400000D02*
X146400000Y-109400000D01*
X133000000Y-122800000D02*
X146400000Y-122800000D01*
X146400000Y-109400000D02*
X146400000Y-122800000D01*
D33*
%TO.C,S1*%
X187300000Y-110500000D02*
X169000000Y-110500000D01*
X187300000Y-110500000D02*
X169000000Y-110500000D01*
X187300000Y-96500000D02*
X187300000Y-110500000D01*
X187300000Y-96500000D02*
X187300000Y-110500000D01*
X169000000Y-110500000D02*
X169000000Y-96500000D01*
X169000000Y-110500000D02*
X169000000Y-96500000D01*
X169000000Y-96500000D02*
X187300000Y-96500000D01*
X169000000Y-96500000D02*
X187300000Y-96500000D01*
D32*
%TO.C,C11*%
X143320000Y-107190000D02*
X146280000Y-107190000D01*
X143320000Y-108650000D02*
X143320000Y-107190000D01*
X146280000Y-107190000D02*
X146280000Y-108650000D01*
X146280000Y-108650000D02*
X143320000Y-108650000D01*
%TO.C,C5*%
X132180000Y-113330000D02*
X129220000Y-113330000D01*
X132180000Y-111870000D02*
X132180000Y-113330000D01*
X129220000Y-113330000D02*
X129220000Y-111870000D01*
X129220000Y-111870000D02*
X132180000Y-111870000D01*
%TO.C,U2*%
X140850000Y-88250000D02*
X140850000Y-82750000D01*
X140850000Y-82750000D02*
X133150000Y-82750000D01*
X133150000Y-88250000D02*
X140850000Y-88250000D01*
X133150000Y-82750000D02*
X133150000Y-88250000D01*
%TO.C,J3*%
X101120000Y-138550000D02*
X101120000Y-132450000D01*
X112320000Y-138550000D02*
X101120000Y-138550000D01*
X101120000Y-132450000D02*
X112320000Y-132450000D01*
X112320000Y-132450000D02*
X112320000Y-138550000D01*
%TO.C,C3*%
X134770000Y-130480000D02*
X134770000Y-127520000D01*
X136230000Y-130480000D02*
X134770000Y-130480000D01*
X134770000Y-127520000D02*
X136230000Y-127520000D01*
X136230000Y-127520000D02*
X136230000Y-130480000D01*
%TO.C,C7*%
X146995000Y-118370000D02*
X149955000Y-118370000D01*
X146995000Y-119830000D02*
X146995000Y-118370000D01*
X149955000Y-118370000D02*
X149955000Y-119830000D01*
X149955000Y-119830000D02*
X146995000Y-119830000D01*
%TO.C,F1*%
X109050000Y-105550000D02*
X114950000Y-105550000D01*
X109050000Y-109450000D02*
X109050000Y-105550000D01*
X114950000Y-105550000D02*
X114950000Y-109450000D01*
X114950000Y-109450000D02*
X109050000Y-109450000D01*
%TO.C,J1*%
X131840000Y-121700000D02*
X131840000Y-127800000D01*
X123190000Y-121700000D02*
X131840000Y-121700000D01*
X131840000Y-127800000D02*
X123190000Y-127800000D01*
X123190000Y-127800000D02*
X123190000Y-121700000D01*
%TO.C,C14*%
X121230000Y-125520000D02*
X121230000Y-128480000D01*
X119770000Y-125520000D02*
X121230000Y-125520000D01*
X121230000Y-128480000D02*
X119770000Y-128480000D01*
X119770000Y-128480000D02*
X119770000Y-125520000D01*
%TO.C,U1*%
X162900000Y-52392500D02*
X162900000Y-71892500D01*
X112100000Y-52392500D02*
X162900000Y-52392500D01*
X162900000Y-71892500D02*
X112100000Y-71892500D01*
X112100000Y-71892500D02*
X112100000Y-52392500D01*
%TO.C,D2*%
X154382500Y-84590000D02*
X157742500Y-84590000D01*
X154382500Y-86490000D02*
X154382500Y-84590000D01*
X157742500Y-84590000D02*
X157742500Y-86490000D01*
X157742500Y-86490000D02*
X154382500Y-86490000D01*
%TO.C,Y1*%
X141600000Y-130700000D02*
X141600000Y-127300000D01*
X141600000Y-127300000D02*
X137400000Y-127300000D01*
X137400000Y-130700000D02*
X141600000Y-130700000D01*
X137400000Y-127300000D02*
X137400000Y-130700000D01*
%TO.C,R15*%
X108020000Y-113270000D02*
X110980000Y-113270000D01*
X108020000Y-114730000D02*
X108020000Y-113270000D01*
X110980000Y-113270000D02*
X110980000Y-114730000D01*
X110980000Y-114730000D02*
X108020000Y-114730000D01*
%TO.C,R5*%
X145250000Y-78080000D02*
X145250000Y-74720000D01*
X147150000Y-78080000D02*
X145250000Y-78080000D01*
X145250000Y-74720000D02*
X147150000Y-74720000D01*
X147150000Y-74720000D02*
X147150000Y-78080000D01*
%TO.C,U4*%
X112950000Y-112800000D02*
X112950000Y-116200000D01*
X112950000Y-116200000D02*
X117050000Y-116200000D01*
X117050000Y-112800000D02*
X112950000Y-112800000D01*
X117050000Y-116200000D02*
X117050000Y-112800000D01*
%TO.C,C1*%
X132480000Y-88230000D02*
X129520000Y-88230000D01*
X132480000Y-86770000D02*
X132480000Y-88230000D01*
X129520000Y-88230000D02*
X129520000Y-86770000D01*
X129520000Y-86770000D02*
X132480000Y-86770000D01*
%TO.C,C15*%
X113980000Y-125730000D02*
X111020000Y-125730000D01*
X113980000Y-124270000D02*
X113980000Y-125730000D01*
X111020000Y-125730000D02*
X111020000Y-124270000D01*
X111020000Y-124270000D02*
X113980000Y-124270000D01*
%TO.C,R8*%
X104050000Y-76592500D02*
X104050000Y-73232500D01*
X105950000Y-76592500D02*
X104050000Y-76592500D01*
X104050000Y-73232500D02*
X105950000Y-73232500D01*
X105950000Y-73232500D02*
X105950000Y-76592500D01*
%TO.C,H3*%
X104550000Y-144480000D02*
G75*
G03*
X104550000Y-144480000I-2450000J0D01*
G01*
%TO.C,R1*%
X166830000Y-106950000D02*
X163470000Y-106950000D01*
X166830000Y-105050000D02*
X166830000Y-106950000D01*
X163470000Y-106950000D02*
X163470000Y-105050000D01*
X163470000Y-105050000D02*
X166830000Y-105050000D01*
%TO.C,C13*%
X112270000Y-122980000D02*
X112270000Y-120020000D01*
X113730000Y-122980000D02*
X112270000Y-122980000D01*
X112270000Y-120020000D02*
X113730000Y-120020000D01*
X113730000Y-120020000D02*
X113730000Y-122980000D01*
%TO.C,R3*%
X162152500Y-83405000D02*
X158792500Y-83405000D01*
X162152500Y-81505000D02*
X162152500Y-83405000D01*
X158792500Y-83405000D02*
X158792500Y-81505000D01*
X158792500Y-81505000D02*
X162152500Y-81505000D01*
%TO.C,U5*%
X117700000Y-121950000D02*
X114300000Y-121950000D01*
X114300000Y-121950000D02*
X114300000Y-126050000D01*
X117700000Y-126050000D02*
X117700000Y-121950000D01*
X114300000Y-126050000D02*
X117700000Y-126050000D01*
%TO.C,R11*%
X103550000Y-59680000D02*
X103550000Y-56320000D01*
X105450000Y-59680000D02*
X103550000Y-59680000D01*
X103550000Y-56320000D02*
X105450000Y-56320000D01*
X105450000Y-56320000D02*
X105450000Y-59680000D01*
%TO.C,H2*%
X198550000Y-50480000D02*
G75*
G03*
X198550000Y-50480000I-2450000J0D01*
G01*
%TO.C,C9*%
X132248330Y-116525791D02*
X129288330Y-116525791D01*
X132248330Y-115065791D02*
X132248330Y-116525791D01*
X129288330Y-116525791D02*
X129288330Y-115065791D01*
X129288330Y-115065791D02*
X132248330Y-115065791D01*
%TO.C,H4*%
X198550000Y-144480000D02*
G75*
G03*
X198550000Y-144480000I-2450000J0D01*
G01*
%TO.C,R10*%
X139050000Y-75680000D02*
X139050000Y-72320000D01*
X140950000Y-75680000D02*
X139050000Y-75680000D01*
X139050000Y-72320000D02*
X140950000Y-72320000D01*
X140950000Y-72320000D02*
X140950000Y-75680000D01*
%TO.C,J2*%
X106525000Y-109050000D02*
X103825000Y-109050000D01*
X106525000Y-109050000D02*
X106525000Y-112650000D01*
X101075000Y-109050000D02*
X98375000Y-109050000D01*
X103825000Y-110650000D02*
X103825000Y-109050000D01*
X103825000Y-110650000D02*
X101075000Y-110650000D01*
X101075000Y-110650000D02*
X101075000Y-109050000D01*
X98375000Y-110650000D02*
X98375000Y-109050000D01*
X96225000Y-110650000D02*
X98375000Y-110650000D01*
X96225000Y-110650000D02*
X96225000Y-119350000D01*
X106525000Y-112650000D02*
X106775000Y-112650000D01*
X106775000Y-117350000D02*
X106775000Y-112650000D01*
X106525000Y-117350000D02*
X106775000Y-117350000D01*
X103825000Y-119350000D02*
X101075000Y-119350000D01*
X103825000Y-119350000D02*
X103825000Y-120950000D01*
X101075000Y-119350000D02*
X101075000Y-120950000D01*
X98375000Y-119350000D02*
X98375000Y-120950000D01*
X96225000Y-119350000D02*
X98375000Y-119350000D01*
X106525000Y-120950000D02*
X106525000Y-117350000D01*
X106525000Y-120950000D02*
X103825000Y-120950000D01*
X101075000Y-120950000D02*
X98375000Y-120950000D01*
%TO.C,R6*%
X149550000Y-86180000D02*
X149550000Y-82820000D01*
X151450000Y-86180000D02*
X149550000Y-86180000D01*
X149550000Y-82820000D02*
X151450000Y-82820000D01*
X151450000Y-82820000D02*
X151450000Y-86180000D01*
%TO.C,R17*%
X108655000Y-130730000D02*
X105695000Y-130730000D01*
X108655000Y-129270000D02*
X108655000Y-130730000D01*
X105695000Y-130730000D02*
X105695000Y-129270000D01*
X105695000Y-129270000D02*
X108655000Y-129270000D01*
%TO.C,S3*%
X123250000Y-133850000D02*
X130750000Y-133850000D01*
X123250000Y-139150000D02*
X123250000Y-133850000D01*
X130750000Y-133850000D02*
X130750000Y-139150000D01*
X130750000Y-139150000D02*
X123250000Y-139150000D01*
%TO.C,C6*%
X132280000Y-118230000D02*
X129320000Y-118230000D01*
X132280000Y-116770000D02*
X132280000Y-118230000D01*
X129320000Y-118230000D02*
X129320000Y-116770000D01*
X129320000Y-116770000D02*
X132280000Y-116770000D01*
%TO.C,C4*%
X138030000Y-123165000D02*
X138030000Y-126125000D01*
X136570000Y-123165000D02*
X138030000Y-123165000D01*
X138030000Y-126125000D02*
X136570000Y-126125000D01*
X136570000Y-126125000D02*
X136570000Y-123165000D01*
%TO.C,R2*%
X167330000Y-126450000D02*
X163970000Y-126450000D01*
X167330000Y-124550000D02*
X167330000Y-126450000D01*
X163970000Y-126450000D02*
X163970000Y-124550000D01*
X163970000Y-124550000D02*
X167330000Y-124550000D01*
%TO.C,R9*%
X104550000Y-83930000D02*
X104550000Y-80570000D01*
X106450000Y-83930000D02*
X104550000Y-83930000D01*
X104550000Y-80570000D02*
X106450000Y-80570000D01*
X106450000Y-80570000D02*
X106450000Y-83930000D01*
%TO.C,H1*%
X104550000Y-50480000D02*
G75*
G03*
X104550000Y-50480000I-2450000J0D01*
G01*
%TD*%
M02*
