%TF.GenerationSoftware,KiCad,Pcbnew,(7.0.0)*%
%TF.CreationDate,2023-04-20T13:59:00-06:00*%
%TF.ProjectId,Phase_B_ATMEGA_v3,50686173-655f-4425-9f41-544d4547415f,rev?*%
%TF.SameCoordinates,Original*%
%TF.FileFunction,Profile,NP*%
%FSLAX46Y46*%
G04 Gerber Fmt 4.6, Leading zero omitted, Abs format (unit mm)*
G04 Created by KiCad (PCBNEW (7.0.0)) date 2023-04-20 13:59:00*
%MOMM*%
%LPD*%
G01*
G04 APERTURE LIST*
%TA.AperFunction,Profile*%
%ADD10C,0.100000*%
%TD*%
%ADD11C,0.050000*%
%ADD12C,0.100000*%
G04 APERTURE END LIST*
D10*
X200100000Y-50480000D02*
G75*
G03*
X196100000Y-46480000I-4000000J0D01*
G01*
X102100000Y-46480000D02*
G75*
G03*
X98100000Y-50480000I0J-4000000D01*
G01*
X98100000Y-144480000D02*
X98100000Y-50480000D01*
X98100000Y-144480000D02*
G75*
G03*
X102100000Y-148480000I4000000J0D01*
G01*
X102100000Y-46480000D02*
X196100000Y-46480000D01*
X196100000Y-148480000D02*
G75*
G03*
X200100000Y-144480000I0J4000000D01*
G01*
X200100000Y-144480000D02*
X200100000Y-50480000D01*
X102100000Y-148480000D02*
X196100000Y-148480000D01*
D11*
%TO.C,LS1*%
X185750000Y-66500000D02*
G75*
G03*
X185750000Y-66500000I-6250000J0D01*
G01*
%TO.C,H5*%
X156350000Y-102400000D02*
G75*
G03*
X156350000Y-102400000I-2450000J0D01*
G01*
%TO.C,R14*%
X108020000Y-114770000D02*
X110980000Y-114770000D01*
X108020000Y-116230000D02*
X108020000Y-114770000D01*
X110980000Y-114770000D02*
X110980000Y-116230000D01*
X110980000Y-116230000D02*
X108020000Y-116230000D01*
%TO.C,R13*%
X128655000Y-141730000D02*
X125695000Y-141730000D01*
X128655000Y-140270000D02*
X128655000Y-141730000D01*
X125695000Y-141730000D02*
X125695000Y-140270000D01*
X125695000Y-140270000D02*
X128655000Y-140270000D01*
%TO.C,D3*%
X107757500Y-99550000D02*
X111117500Y-99550000D01*
X107757500Y-101450000D02*
X107757500Y-99550000D01*
X111117500Y-99550000D02*
X111117500Y-101450000D01*
X111117500Y-101450000D02*
X107757500Y-101450000D01*
%TO.C,R12*%
X104050000Y-69930000D02*
X104050000Y-66570000D01*
X105950000Y-69930000D02*
X104050000Y-69930000D01*
X104050000Y-66570000D02*
X105950000Y-66570000D01*
X105950000Y-66570000D02*
X105950000Y-69930000D01*
%TO.C,D1*%
X154382500Y-81550000D02*
X157742500Y-81550000D01*
X154382500Y-83450000D02*
X154382500Y-81550000D01*
X157742500Y-81550000D02*
X157742500Y-83450000D01*
X157742500Y-83450000D02*
X154382500Y-83450000D01*
%TO.C,C2*%
X142770000Y-130480000D02*
X142770000Y-127520000D01*
X144230000Y-130480000D02*
X142770000Y-130480000D01*
X142770000Y-127520000D02*
X144230000Y-127520000D01*
X144230000Y-127520000D02*
X144230000Y-130480000D01*
%TO.C,C10*%
X135070000Y-108900000D02*
X135070000Y-105940000D01*
X136530000Y-108900000D02*
X135070000Y-108900000D01*
X135070000Y-105940000D02*
X136530000Y-105940000D01*
X136530000Y-105940000D02*
X136530000Y-108900000D01*
%TO.C,C12*%
X136770000Y-108980000D02*
X136770000Y-106020000D01*
X138230000Y-108980000D02*
X136770000Y-108980000D01*
X136770000Y-106020000D02*
X138230000Y-106020000D01*
X138230000Y-106020000D02*
X138230000Y-108980000D01*
%TO.C,R4*%
X162152500Y-86355000D02*
X158792500Y-86355000D01*
X162152500Y-84455000D02*
X162152500Y-86355000D01*
X158792500Y-86355000D02*
X158792500Y-84455000D01*
X158792500Y-84455000D02*
X162152500Y-84455000D01*
D12*
%TO.C,S2*%
X187150000Y-130000000D02*
X168850000Y-130000000D01*
X187150000Y-130000000D02*
X168850000Y-130000000D01*
X187150000Y-116000000D02*
X187150000Y-130000000D01*
X187150000Y-116000000D02*
X187150000Y-130000000D01*
X168850000Y-130000000D02*
X168850000Y-116000000D01*
X168850000Y-130000000D02*
X168850000Y-116000000D01*
X168850000Y-116000000D02*
X187150000Y-116000000D01*
X168850000Y-116000000D02*
X187150000Y-116000000D01*
D11*
%TO.C,R16*%
X114980000Y-101230000D02*
X112020000Y-101230000D01*
X114980000Y-99770000D02*
X114980000Y-101230000D01*
X112020000Y-101230000D02*
X112020000Y-99770000D01*
X112020000Y-99770000D02*
X114980000Y-99770000D01*
%TO.C,R7*%
X104050000Y-64680000D02*
X104050000Y-61320000D01*
X105950000Y-64680000D02*
X104050000Y-64680000D01*
X104050000Y-61320000D02*
X105950000Y-61320000D01*
X105950000Y-61320000D02*
X105950000Y-64680000D01*
%TO.C,C8*%
X132550000Y-111580000D02*
X129150000Y-111580000D01*
X132550000Y-109620000D02*
X132550000Y-111580000D01*
X129150000Y-111580000D02*
X129150000Y-109620000D01*
X129150000Y-109620000D02*
X132550000Y-109620000D01*
%TO.C,U3*%
X133000000Y-109400000D02*
X133000000Y-122800000D01*
X133000000Y-109400000D02*
X146400000Y-109400000D01*
X133000000Y-122800000D02*
X146400000Y-122800000D01*
X146400000Y-109400000D02*
X146400000Y-122800000D01*
D12*
%TO.C,S1*%
X187300000Y-110500000D02*
X169000000Y-110500000D01*
X187300000Y-110500000D02*
X169000000Y-110500000D01*
X187300000Y-96500000D02*
X187300000Y-110500000D01*
X187300000Y-96500000D02*
X187300000Y-110500000D01*
X169000000Y-110500000D02*
X169000000Y-96500000D01*
X169000000Y-110500000D02*
X169000000Y-96500000D01*
X169000000Y-96500000D02*
X187300000Y-96500000D01*
X169000000Y-96500000D02*
X187300000Y-96500000D01*
D11*
%TO.C,C11*%
X143320000Y-107190000D02*
X146280000Y-107190000D01*
X143320000Y-108650000D02*
X143320000Y-107190000D01*
X146280000Y-107190000D02*
X146280000Y-108650000D01*
X146280000Y-108650000D02*
X143320000Y-108650000D01*
%TO.C,C5*%
X132180000Y-113330000D02*
X129220000Y-113330000D01*
X132180000Y-111870000D02*
X132180000Y-113330000D01*
X129220000Y-113330000D02*
X129220000Y-111870000D01*
X129220000Y-111870000D02*
X132180000Y-111870000D01*
%TO.C,U2*%
X140850000Y-88250000D02*
X140850000Y-82750000D01*
X140850000Y-82750000D02*
X133150000Y-82750000D01*
X133150000Y-88250000D02*
X140850000Y-88250000D01*
X133150000Y-82750000D02*
X133150000Y-88250000D01*
%TO.C,J3*%
X101120000Y-138550000D02*
X101120000Y-132450000D01*
X112320000Y-138550000D02*
X101120000Y-138550000D01*
X101120000Y-132450000D02*
X112320000Y-132450000D01*
X112320000Y-132450000D02*
X112320000Y-138550000D01*
%TO.C,C3*%
X134770000Y-130480000D02*
X134770000Y-127520000D01*
X136230000Y-130480000D02*
X134770000Y-130480000D01*
X134770000Y-127520000D02*
X136230000Y-127520000D01*
X136230000Y-127520000D02*
X136230000Y-130480000D01*
%TO.C,C7*%
X146995000Y-118370000D02*
X149955000Y-118370000D01*
X146995000Y-119830000D02*
X146995000Y-118370000D01*
X149955000Y-118370000D02*
X149955000Y-119830000D01*
X149955000Y-119830000D02*
X146995000Y-119830000D01*
%TO.C,F1*%
X109050000Y-105550000D02*
X114950000Y-105550000D01*
X109050000Y-109450000D02*
X109050000Y-105550000D01*
X114950000Y-105550000D02*
X114950000Y-109450000D01*
X114950000Y-109450000D02*
X109050000Y-109450000D01*
%TO.C,J1*%
X131840000Y-121700000D02*
X131840000Y-127800000D01*
X123190000Y-121700000D02*
X131840000Y-121700000D01*
X131840000Y-127800000D02*
X123190000Y-127800000D01*
X123190000Y-127800000D02*
X123190000Y-121700000D01*
%TO.C,C14*%
X121230000Y-125520000D02*
X121230000Y-128480000D01*
X119770000Y-125520000D02*
X121230000Y-125520000D01*
X121230000Y-128480000D02*
X119770000Y-128480000D01*
X119770000Y-128480000D02*
X119770000Y-125520000D01*
%TO.C,U1*%
X162900000Y-52392500D02*
X162900000Y-71892500D01*
X112100000Y-52392500D02*
X162900000Y-52392500D01*
X162900000Y-71892500D02*
X112100000Y-71892500D01*
X112100000Y-71892500D02*
X112100000Y-52392500D01*
%TO.C,D2*%
X154382500Y-84590000D02*
X157742500Y-84590000D01*
X154382500Y-86490000D02*
X154382500Y-84590000D01*
X157742500Y-84590000D02*
X157742500Y-86490000D01*
X157742500Y-86490000D02*
X154382500Y-86490000D01*
%TO.C,Y1*%
X141600000Y-130700000D02*
X141600000Y-127300000D01*
X141600000Y-127300000D02*
X137400000Y-127300000D01*
X137400000Y-130700000D02*
X141600000Y-130700000D01*
X137400000Y-127300000D02*
X137400000Y-130700000D01*
%TO.C,R15*%
X108020000Y-113270000D02*
X110980000Y-113270000D01*
X108020000Y-114730000D02*
X108020000Y-113270000D01*
X110980000Y-113270000D02*
X110980000Y-114730000D01*
X110980000Y-114730000D02*
X108020000Y-114730000D01*
%TO.C,R5*%
X145250000Y-78080000D02*
X145250000Y-74720000D01*
X147150000Y-78080000D02*
X145250000Y-78080000D01*
X145250000Y-74720000D02*
X147150000Y-74720000D01*
X147150000Y-74720000D02*
X147150000Y-78080000D01*
%TO.C,U4*%
X112950000Y-112800000D02*
X112950000Y-116200000D01*
X112950000Y-116200000D02*
X117050000Y-116200000D01*
X117050000Y-112800000D02*
X112950000Y-112800000D01*
X117050000Y-116200000D02*
X117050000Y-112800000D01*
%TO.C,C1*%
X132480000Y-88230000D02*
X129520000Y-88230000D01*
X132480000Y-86770000D02*
X132480000Y-88230000D01*
X129520000Y-88230000D02*
X129520000Y-86770000D01*
X129520000Y-86770000D02*
X132480000Y-86770000D01*
%TO.C,C15*%
X113980000Y-125730000D02*
X111020000Y-125730000D01*
X113980000Y-124270000D02*
X113980000Y-125730000D01*
X111020000Y-125730000D02*
X111020000Y-124270000D01*
X111020000Y-124270000D02*
X113980000Y-124270000D01*
%TO.C,R8*%
X104050000Y-76592500D02*
X104050000Y-73232500D01*
X105950000Y-76592500D02*
X104050000Y-76592500D01*
X104050000Y-73232500D02*
X105950000Y-73232500D01*
X105950000Y-73232500D02*
X105950000Y-76592500D01*
%TO.C,H3*%
X104550000Y-144480000D02*
G75*
G03*
X104550000Y-144480000I-2450000J0D01*
G01*
%TO.C,R1*%
X166830000Y-106950000D02*
X163470000Y-106950000D01*
X166830000Y-105050000D02*
X166830000Y-106950000D01*
X163470000Y-106950000D02*
X163470000Y-105050000D01*
X163470000Y-105050000D02*
X166830000Y-105050000D01*
%TO.C,C13*%
X112270000Y-122980000D02*
X112270000Y-120020000D01*
X113730000Y-122980000D02*
X112270000Y-122980000D01*
X112270000Y-120020000D02*
X113730000Y-120020000D01*
X113730000Y-120020000D02*
X113730000Y-122980000D01*
%TO.C,R3*%
X162152500Y-83405000D02*
X158792500Y-83405000D01*
X162152500Y-81505000D02*
X162152500Y-83405000D01*
X158792500Y-83405000D02*
X158792500Y-81505000D01*
X158792500Y-81505000D02*
X162152500Y-81505000D01*
%TO.C,U5*%
X117700000Y-121950000D02*
X114300000Y-121950000D01*
X114300000Y-121950000D02*
X114300000Y-126050000D01*
X117700000Y-126050000D02*
X117700000Y-121950000D01*
X114300000Y-126050000D02*
X117700000Y-126050000D01*
%TO.C,R11*%
X103550000Y-59680000D02*
X103550000Y-56320000D01*
X105450000Y-59680000D02*
X103550000Y-59680000D01*
X103550000Y-56320000D02*
X105450000Y-56320000D01*
X105450000Y-56320000D02*
X105450000Y-59680000D01*
%TO.C,H2*%
X198550000Y-50480000D02*
G75*
G03*
X198550000Y-50480000I-2450000J0D01*
G01*
%TO.C,C9*%
X132248330Y-116525791D02*
X129288330Y-116525791D01*
X132248330Y-115065791D02*
X132248330Y-116525791D01*
X129288330Y-116525791D02*
X129288330Y-115065791D01*
X129288330Y-115065791D02*
X132248330Y-115065791D01*
%TO.C,H4*%
X198550000Y-144480000D02*
G75*
G03*
X198550000Y-144480000I-2450000J0D01*
G01*
%TO.C,R10*%
X139050000Y-75680000D02*
X139050000Y-72320000D01*
X140950000Y-75680000D02*
X139050000Y-75680000D01*
X139050000Y-72320000D02*
X140950000Y-72320000D01*
X140950000Y-72320000D02*
X140950000Y-75680000D01*
%TO.C,J2*%
X106525000Y-109050000D02*
X103825000Y-109050000D01*
X106525000Y-109050000D02*
X106525000Y-112650000D01*
X101075000Y-109050000D02*
X98375000Y-109050000D01*
X103825000Y-110650000D02*
X103825000Y-109050000D01*
X103825000Y-110650000D02*
X101075000Y-110650000D01*
X101075000Y-110650000D02*
X101075000Y-109050000D01*
X98375000Y-110650000D02*
X98375000Y-109050000D01*
X96225000Y-110650000D02*
X98375000Y-110650000D01*
X96225000Y-110650000D02*
X96225000Y-119350000D01*
X106525000Y-112650000D02*
X106775000Y-112650000D01*
X106775000Y-117350000D02*
X106775000Y-112650000D01*
X106525000Y-117350000D02*
X106775000Y-117350000D01*
X103825000Y-119350000D02*
X101075000Y-119350000D01*
X103825000Y-119350000D02*
X103825000Y-120950000D01*
X101075000Y-119350000D02*
X101075000Y-120950000D01*
X98375000Y-119350000D02*
X98375000Y-120950000D01*
X96225000Y-119350000D02*
X98375000Y-119350000D01*
X106525000Y-120950000D02*
X106525000Y-117350000D01*
X106525000Y-120950000D02*
X103825000Y-120950000D01*
X101075000Y-120950000D02*
X98375000Y-120950000D01*
%TO.C,R6*%
X149550000Y-86180000D02*
X149550000Y-82820000D01*
X151450000Y-86180000D02*
X149550000Y-86180000D01*
X149550000Y-82820000D02*
X151450000Y-82820000D01*
X151450000Y-82820000D02*
X151450000Y-86180000D01*
%TO.C,R17*%
X108655000Y-130730000D02*
X105695000Y-130730000D01*
X108655000Y-129270000D02*
X108655000Y-130730000D01*
X105695000Y-130730000D02*
X105695000Y-129270000D01*
X105695000Y-129270000D02*
X108655000Y-129270000D01*
%TO.C,S3*%
X123250000Y-133850000D02*
X130750000Y-133850000D01*
X123250000Y-139150000D02*
X123250000Y-133850000D01*
X130750000Y-133850000D02*
X130750000Y-139150000D01*
X130750000Y-139150000D02*
X123250000Y-139150000D01*
%TO.C,C6*%
X132280000Y-118230000D02*
X129320000Y-118230000D01*
X132280000Y-116770000D02*
X132280000Y-118230000D01*
X129320000Y-118230000D02*
X129320000Y-116770000D01*
X129320000Y-116770000D02*
X132280000Y-116770000D01*
%TO.C,C4*%
X138030000Y-123165000D02*
X138030000Y-126125000D01*
X136570000Y-123165000D02*
X138030000Y-123165000D01*
X138030000Y-126125000D02*
X136570000Y-126125000D01*
X136570000Y-126125000D02*
X136570000Y-123165000D01*
%TO.C,R2*%
X167330000Y-126450000D02*
X163970000Y-126450000D01*
X167330000Y-124550000D02*
X167330000Y-126450000D01*
X163970000Y-126450000D02*
X163970000Y-124550000D01*
X163970000Y-124550000D02*
X167330000Y-124550000D01*
%TO.C,R9*%
X104550000Y-83930000D02*
X104550000Y-80570000D01*
X106450000Y-83930000D02*
X104550000Y-83930000D01*
X104550000Y-80570000D02*
X106450000Y-80570000D01*
X106450000Y-80570000D02*
X106450000Y-83930000D01*
%TO.C,H1*%
X104550000Y-50480000D02*
G75*
G03*
X104550000Y-50480000I-2450000J0D01*
G01*
%TD*%
M02*
