%TF.GenerationSoftware,KiCad,Pcbnew,(7.0.0)*%
%TF.CreationDate,2023-04-24T10:14:55-06:00*%
%TF.ProjectId,Phase_B_ATMEGA_v3,50686173-655f-4425-9f41-544d4547415f,rev?*%
%TF.SameCoordinates,Original*%
%TF.FileFunction,Legend,Top*%
%TF.FilePolarity,Positive*%
%FSLAX46Y46*%
G04 Gerber Fmt 4.6, Leading zero omitted, Abs format (unit mm)*
G04 Created by KiCad (PCBNEW (7.0.0)) date 2023-04-24 10:14:55*
%MOMM*%
%LPD*%
G01*
G04 APERTURE LIST*
%ADD10C,0.150000*%
%ADD11C,0.254000*%
%ADD12C,0.120000*%
%ADD13C,0.100000*%
%ADD14C,0.200000*%
%ADD15C,0.127000*%
G04 APERTURE END LIST*
D10*
X176314285Y-140422380D02*
X175838095Y-140422380D01*
X175838095Y-140422380D02*
X175838095Y-139422380D01*
X177028571Y-140374761D02*
X176933333Y-140422380D01*
X176933333Y-140422380D02*
X176742857Y-140422380D01*
X176742857Y-140422380D02*
X176647619Y-140374761D01*
X176647619Y-140374761D02*
X176600000Y-140279523D01*
X176600000Y-140279523D02*
X176600000Y-139898571D01*
X176600000Y-139898571D02*
X176647619Y-139803333D01*
X176647619Y-139803333D02*
X176742857Y-139755714D01*
X176742857Y-139755714D02*
X176933333Y-139755714D01*
X176933333Y-139755714D02*
X177028571Y-139803333D01*
X177028571Y-139803333D02*
X177076190Y-139898571D01*
X177076190Y-139898571D02*
X177076190Y-139993809D01*
X177076190Y-139993809D02*
X176600000Y-140089047D01*
X177647619Y-140422380D02*
X177552381Y-140374761D01*
X177552381Y-140374761D02*
X177504762Y-140327142D01*
X177504762Y-140327142D02*
X177457143Y-140231904D01*
X177457143Y-140231904D02*
X177457143Y-139946190D01*
X177457143Y-139946190D02*
X177504762Y-139850952D01*
X177504762Y-139850952D02*
X177552381Y-139803333D01*
X177552381Y-139803333D02*
X177647619Y-139755714D01*
X177647619Y-139755714D02*
X177790476Y-139755714D01*
X177790476Y-139755714D02*
X177885714Y-139803333D01*
X177885714Y-139803333D02*
X177933333Y-139850952D01*
X177933333Y-139850952D02*
X177980952Y-139946190D01*
X177980952Y-139946190D02*
X177980952Y-140231904D01*
X177980952Y-140231904D02*
X177933333Y-140327142D01*
X177933333Y-140327142D02*
X177885714Y-140374761D01*
X177885714Y-140374761D02*
X177790476Y-140422380D01*
X177790476Y-140422380D02*
X177647619Y-140422380D01*
X178409524Y-139755714D02*
X178409524Y-140422380D01*
X178409524Y-139850952D02*
X178457143Y-139803333D01*
X178457143Y-139803333D02*
X178552381Y-139755714D01*
X178552381Y-139755714D02*
X178695238Y-139755714D01*
X178695238Y-139755714D02*
X178790476Y-139803333D01*
X178790476Y-139803333D02*
X178838095Y-139898571D01*
X178838095Y-139898571D02*
X178838095Y-140422380D01*
X179695238Y-140374761D02*
X179600000Y-140422380D01*
X179600000Y-140422380D02*
X179409524Y-140422380D01*
X179409524Y-140422380D02*
X179314286Y-140374761D01*
X179314286Y-140374761D02*
X179266667Y-140279523D01*
X179266667Y-140279523D02*
X179266667Y-139898571D01*
X179266667Y-139898571D02*
X179314286Y-139803333D01*
X179314286Y-139803333D02*
X179409524Y-139755714D01*
X179409524Y-139755714D02*
X179600000Y-139755714D01*
X179600000Y-139755714D02*
X179695238Y-139803333D01*
X179695238Y-139803333D02*
X179742857Y-139898571D01*
X179742857Y-139898571D02*
X179742857Y-139993809D01*
X179742857Y-139993809D02*
X179266667Y-140089047D01*
X180314286Y-140422380D02*
X180219048Y-140374761D01*
X180219048Y-140374761D02*
X180171429Y-140279523D01*
X180171429Y-140279523D02*
X180171429Y-139422380D01*
X181819048Y-139470000D02*
X181723810Y-139422380D01*
X181723810Y-139422380D02*
X181580953Y-139422380D01*
X181580953Y-139422380D02*
X181438096Y-139470000D01*
X181438096Y-139470000D02*
X181342858Y-139565238D01*
X181342858Y-139565238D02*
X181295239Y-139660476D01*
X181295239Y-139660476D02*
X181247620Y-139850952D01*
X181247620Y-139850952D02*
X181247620Y-139993809D01*
X181247620Y-139993809D02*
X181295239Y-140184285D01*
X181295239Y-140184285D02*
X181342858Y-140279523D01*
X181342858Y-140279523D02*
X181438096Y-140374761D01*
X181438096Y-140374761D02*
X181580953Y-140422380D01*
X181580953Y-140422380D02*
X181676191Y-140422380D01*
X181676191Y-140422380D02*
X181819048Y-140374761D01*
X181819048Y-140374761D02*
X181866667Y-140327142D01*
X181866667Y-140327142D02*
X181866667Y-139993809D01*
X181866667Y-139993809D02*
X181676191Y-139993809D01*
X182438096Y-140422380D02*
X182342858Y-140374761D01*
X182342858Y-140374761D02*
X182295239Y-140327142D01*
X182295239Y-140327142D02*
X182247620Y-140231904D01*
X182247620Y-140231904D02*
X182247620Y-139946190D01*
X182247620Y-139946190D02*
X182295239Y-139850952D01*
X182295239Y-139850952D02*
X182342858Y-139803333D01*
X182342858Y-139803333D02*
X182438096Y-139755714D01*
X182438096Y-139755714D02*
X182580953Y-139755714D01*
X182580953Y-139755714D02*
X182676191Y-139803333D01*
X182676191Y-139803333D02*
X182723810Y-139850952D01*
X182723810Y-139850952D02*
X182771429Y-139946190D01*
X182771429Y-139946190D02*
X182771429Y-140231904D01*
X182771429Y-140231904D02*
X182723810Y-140327142D01*
X182723810Y-140327142D02*
X182676191Y-140374761D01*
X182676191Y-140374761D02*
X182580953Y-140422380D01*
X182580953Y-140422380D02*
X182438096Y-140422380D01*
X183200001Y-140422380D02*
X183200001Y-139755714D01*
X183200001Y-139850952D02*
X183247620Y-139803333D01*
X183247620Y-139803333D02*
X183342858Y-139755714D01*
X183342858Y-139755714D02*
X183485715Y-139755714D01*
X183485715Y-139755714D02*
X183580953Y-139803333D01*
X183580953Y-139803333D02*
X183628572Y-139898571D01*
X183628572Y-139898571D02*
X183628572Y-140422380D01*
X183628572Y-139898571D02*
X183676191Y-139803333D01*
X183676191Y-139803333D02*
X183771429Y-139755714D01*
X183771429Y-139755714D02*
X183914286Y-139755714D01*
X183914286Y-139755714D02*
X184009525Y-139803333D01*
X184009525Y-139803333D02*
X184057144Y-139898571D01*
X184057144Y-139898571D02*
X184057144Y-140422380D01*
X184914286Y-140374761D02*
X184819048Y-140422380D01*
X184819048Y-140422380D02*
X184628572Y-140422380D01*
X184628572Y-140422380D02*
X184533334Y-140374761D01*
X184533334Y-140374761D02*
X184485715Y-140279523D01*
X184485715Y-140279523D02*
X184485715Y-139898571D01*
X184485715Y-139898571D02*
X184533334Y-139803333D01*
X184533334Y-139803333D02*
X184628572Y-139755714D01*
X184628572Y-139755714D02*
X184819048Y-139755714D01*
X184819048Y-139755714D02*
X184914286Y-139803333D01*
X184914286Y-139803333D02*
X184961905Y-139898571D01*
X184961905Y-139898571D02*
X184961905Y-139993809D01*
X184961905Y-139993809D02*
X184485715Y-140089047D01*
X185295239Y-139755714D02*
X185819048Y-139755714D01*
X185819048Y-139755714D02*
X185295239Y-140422380D01*
X185295239Y-140422380D02*
X185819048Y-140422380D01*
X175838095Y-141518571D02*
X176171428Y-141518571D01*
X176314285Y-142042380D02*
X175838095Y-142042380D01*
X175838095Y-142042380D02*
X175838095Y-141042380D01*
X175838095Y-141042380D02*
X176314285Y-141042380D01*
X176742857Y-142042380D02*
X176742857Y-141375714D01*
X176742857Y-141470952D02*
X176790476Y-141423333D01*
X176790476Y-141423333D02*
X176885714Y-141375714D01*
X176885714Y-141375714D02*
X177028571Y-141375714D01*
X177028571Y-141375714D02*
X177123809Y-141423333D01*
X177123809Y-141423333D02*
X177171428Y-141518571D01*
X177171428Y-141518571D02*
X177171428Y-142042380D01*
X177171428Y-141518571D02*
X177219047Y-141423333D01*
X177219047Y-141423333D02*
X177314285Y-141375714D01*
X177314285Y-141375714D02*
X177457142Y-141375714D01*
X177457142Y-141375714D02*
X177552381Y-141423333D01*
X177552381Y-141423333D02*
X177600000Y-141518571D01*
X177600000Y-141518571D02*
X177600000Y-142042380D01*
X178076190Y-142042380D02*
X178076190Y-141042380D01*
X178076190Y-141423333D02*
X178171428Y-141375714D01*
X178171428Y-141375714D02*
X178361904Y-141375714D01*
X178361904Y-141375714D02*
X178457142Y-141423333D01*
X178457142Y-141423333D02*
X178504761Y-141470952D01*
X178504761Y-141470952D02*
X178552380Y-141566190D01*
X178552380Y-141566190D02*
X178552380Y-141851904D01*
X178552380Y-141851904D02*
X178504761Y-141947142D01*
X178504761Y-141947142D02*
X178457142Y-141994761D01*
X178457142Y-141994761D02*
X178361904Y-142042380D01*
X178361904Y-142042380D02*
X178171428Y-142042380D01*
X178171428Y-142042380D02*
X178076190Y-141994761D01*
X179361904Y-141994761D02*
X179266666Y-142042380D01*
X179266666Y-142042380D02*
X179076190Y-142042380D01*
X179076190Y-142042380D02*
X178980952Y-141994761D01*
X178980952Y-141994761D02*
X178933333Y-141899523D01*
X178933333Y-141899523D02*
X178933333Y-141518571D01*
X178933333Y-141518571D02*
X178980952Y-141423333D01*
X178980952Y-141423333D02*
X179076190Y-141375714D01*
X179076190Y-141375714D02*
X179266666Y-141375714D01*
X179266666Y-141375714D02*
X179361904Y-141423333D01*
X179361904Y-141423333D02*
X179409523Y-141518571D01*
X179409523Y-141518571D02*
X179409523Y-141613809D01*
X179409523Y-141613809D02*
X178933333Y-141709047D01*
X180266666Y-142042380D02*
X180266666Y-141042380D01*
X180266666Y-141994761D02*
X180171428Y-142042380D01*
X180171428Y-142042380D02*
X179980952Y-142042380D01*
X179980952Y-142042380D02*
X179885714Y-141994761D01*
X179885714Y-141994761D02*
X179838095Y-141947142D01*
X179838095Y-141947142D02*
X179790476Y-141851904D01*
X179790476Y-141851904D02*
X179790476Y-141566190D01*
X179790476Y-141566190D02*
X179838095Y-141470952D01*
X179838095Y-141470952D02*
X179885714Y-141423333D01*
X179885714Y-141423333D02*
X179980952Y-141375714D01*
X179980952Y-141375714D02*
X180171428Y-141375714D01*
X180171428Y-141375714D02*
X180266666Y-141423333D01*
X181171428Y-142042380D02*
X181171428Y-141042380D01*
X181171428Y-141994761D02*
X181076190Y-142042380D01*
X181076190Y-142042380D02*
X180885714Y-142042380D01*
X180885714Y-142042380D02*
X180790476Y-141994761D01*
X180790476Y-141994761D02*
X180742857Y-141947142D01*
X180742857Y-141947142D02*
X180695238Y-141851904D01*
X180695238Y-141851904D02*
X180695238Y-141566190D01*
X180695238Y-141566190D02*
X180742857Y-141470952D01*
X180742857Y-141470952D02*
X180790476Y-141423333D01*
X180790476Y-141423333D02*
X180885714Y-141375714D01*
X180885714Y-141375714D02*
X181076190Y-141375714D01*
X181076190Y-141375714D02*
X181171428Y-141423333D01*
X182028571Y-141994761D02*
X181933333Y-142042380D01*
X181933333Y-142042380D02*
X181742857Y-142042380D01*
X181742857Y-142042380D02*
X181647619Y-141994761D01*
X181647619Y-141994761D02*
X181600000Y-141899523D01*
X181600000Y-141899523D02*
X181600000Y-141518571D01*
X181600000Y-141518571D02*
X181647619Y-141423333D01*
X181647619Y-141423333D02*
X181742857Y-141375714D01*
X181742857Y-141375714D02*
X181933333Y-141375714D01*
X181933333Y-141375714D02*
X182028571Y-141423333D01*
X182028571Y-141423333D02*
X182076190Y-141518571D01*
X182076190Y-141518571D02*
X182076190Y-141613809D01*
X182076190Y-141613809D02*
X181600000Y-141709047D01*
X182933333Y-142042380D02*
X182933333Y-141042380D01*
X182933333Y-141994761D02*
X182838095Y-142042380D01*
X182838095Y-142042380D02*
X182647619Y-142042380D01*
X182647619Y-142042380D02*
X182552381Y-141994761D01*
X182552381Y-141994761D02*
X182504762Y-141947142D01*
X182504762Y-141947142D02*
X182457143Y-141851904D01*
X182457143Y-141851904D02*
X182457143Y-141566190D01*
X182457143Y-141566190D02*
X182504762Y-141470952D01*
X182504762Y-141470952D02*
X182552381Y-141423333D01*
X182552381Y-141423333D02*
X182647619Y-141375714D01*
X182647619Y-141375714D02*
X182838095Y-141375714D01*
X182838095Y-141375714D02*
X182933333Y-141423333D01*
X183961905Y-141994761D02*
X184104762Y-142042380D01*
X184104762Y-142042380D02*
X184342857Y-142042380D01*
X184342857Y-142042380D02*
X184438095Y-141994761D01*
X184438095Y-141994761D02*
X184485714Y-141947142D01*
X184485714Y-141947142D02*
X184533333Y-141851904D01*
X184533333Y-141851904D02*
X184533333Y-141756666D01*
X184533333Y-141756666D02*
X184485714Y-141661428D01*
X184485714Y-141661428D02*
X184438095Y-141613809D01*
X184438095Y-141613809D02*
X184342857Y-141566190D01*
X184342857Y-141566190D02*
X184152381Y-141518571D01*
X184152381Y-141518571D02*
X184057143Y-141470952D01*
X184057143Y-141470952D02*
X184009524Y-141423333D01*
X184009524Y-141423333D02*
X183961905Y-141328095D01*
X183961905Y-141328095D02*
X183961905Y-141232857D01*
X183961905Y-141232857D02*
X184009524Y-141137619D01*
X184009524Y-141137619D02*
X184057143Y-141090000D01*
X184057143Y-141090000D02*
X184152381Y-141042380D01*
X184152381Y-141042380D02*
X184390476Y-141042380D01*
X184390476Y-141042380D02*
X184533333Y-141090000D01*
X184866667Y-141375714D02*
X185104762Y-142042380D01*
X185342857Y-141375714D02*
X185104762Y-142042380D01*
X185104762Y-142042380D02*
X185009524Y-142280476D01*
X185009524Y-142280476D02*
X184961905Y-142328095D01*
X184961905Y-142328095D02*
X184866667Y-142375714D01*
X185676191Y-141994761D02*
X185771429Y-142042380D01*
X185771429Y-142042380D02*
X185961905Y-142042380D01*
X185961905Y-142042380D02*
X186057143Y-141994761D01*
X186057143Y-141994761D02*
X186104762Y-141899523D01*
X186104762Y-141899523D02*
X186104762Y-141851904D01*
X186104762Y-141851904D02*
X186057143Y-141756666D01*
X186057143Y-141756666D02*
X185961905Y-141709047D01*
X185961905Y-141709047D02*
X185819048Y-141709047D01*
X185819048Y-141709047D02*
X185723810Y-141661428D01*
X185723810Y-141661428D02*
X185676191Y-141566190D01*
X185676191Y-141566190D02*
X185676191Y-141518571D01*
X185676191Y-141518571D02*
X185723810Y-141423333D01*
X185723810Y-141423333D02*
X185819048Y-141375714D01*
X185819048Y-141375714D02*
X185961905Y-141375714D01*
X185961905Y-141375714D02*
X186057143Y-141423333D01*
X186390477Y-141375714D02*
X186771429Y-141375714D01*
X186533334Y-141042380D02*
X186533334Y-141899523D01*
X186533334Y-141899523D02*
X186580953Y-141994761D01*
X186580953Y-141994761D02*
X186676191Y-142042380D01*
X186676191Y-142042380D02*
X186771429Y-142042380D01*
X187485715Y-141994761D02*
X187390477Y-142042380D01*
X187390477Y-142042380D02*
X187200001Y-142042380D01*
X187200001Y-142042380D02*
X187104763Y-141994761D01*
X187104763Y-141994761D02*
X187057144Y-141899523D01*
X187057144Y-141899523D02*
X187057144Y-141518571D01*
X187057144Y-141518571D02*
X187104763Y-141423333D01*
X187104763Y-141423333D02*
X187200001Y-141375714D01*
X187200001Y-141375714D02*
X187390477Y-141375714D01*
X187390477Y-141375714D02*
X187485715Y-141423333D01*
X187485715Y-141423333D02*
X187533334Y-141518571D01*
X187533334Y-141518571D02*
X187533334Y-141613809D01*
X187533334Y-141613809D02*
X187057144Y-141709047D01*
X187961906Y-142042380D02*
X187961906Y-141375714D01*
X187961906Y-141470952D02*
X188009525Y-141423333D01*
X188009525Y-141423333D02*
X188104763Y-141375714D01*
X188104763Y-141375714D02*
X188247620Y-141375714D01*
X188247620Y-141375714D02*
X188342858Y-141423333D01*
X188342858Y-141423333D02*
X188390477Y-141518571D01*
X188390477Y-141518571D02*
X188390477Y-142042380D01*
X188390477Y-141518571D02*
X188438096Y-141423333D01*
X188438096Y-141423333D02*
X188533334Y-141375714D01*
X188533334Y-141375714D02*
X188676191Y-141375714D01*
X188676191Y-141375714D02*
X188771430Y-141423333D01*
X188771430Y-141423333D02*
X188819049Y-141518571D01*
X188819049Y-141518571D02*
X188819049Y-142042380D01*
X189247620Y-141994761D02*
X189342858Y-142042380D01*
X189342858Y-142042380D02*
X189533334Y-142042380D01*
X189533334Y-142042380D02*
X189628572Y-141994761D01*
X189628572Y-141994761D02*
X189676191Y-141899523D01*
X189676191Y-141899523D02*
X189676191Y-141851904D01*
X189676191Y-141851904D02*
X189628572Y-141756666D01*
X189628572Y-141756666D02*
X189533334Y-141709047D01*
X189533334Y-141709047D02*
X189390477Y-141709047D01*
X189390477Y-141709047D02*
X189295239Y-141661428D01*
X189295239Y-141661428D02*
X189247620Y-141566190D01*
X189247620Y-141566190D02*
X189247620Y-141518571D01*
X189247620Y-141518571D02*
X189295239Y-141423333D01*
X189295239Y-141423333D02*
X189390477Y-141375714D01*
X189390477Y-141375714D02*
X189533334Y-141375714D01*
X189533334Y-141375714D02*
X189628572Y-141423333D01*
X175838095Y-143662380D02*
X175838095Y-142662380D01*
X176409523Y-143662380D02*
X175980952Y-143090952D01*
X176409523Y-142662380D02*
X175838095Y-143233809D01*
X176838095Y-143662380D02*
X176838095Y-142995714D01*
X176838095Y-142662380D02*
X176790476Y-142710000D01*
X176790476Y-142710000D02*
X176838095Y-142757619D01*
X176838095Y-142757619D02*
X176885714Y-142710000D01*
X176885714Y-142710000D02*
X176838095Y-142662380D01*
X176838095Y-142662380D02*
X176838095Y-142757619D01*
X177171428Y-142995714D02*
X177552380Y-142995714D01*
X177314285Y-142662380D02*
X177314285Y-143519523D01*
X177314285Y-143519523D02*
X177361904Y-143614761D01*
X177361904Y-143614761D02*
X177457142Y-143662380D01*
X177457142Y-143662380D02*
X177552380Y-143662380D01*
X178314285Y-143614761D02*
X178219047Y-143662380D01*
X178219047Y-143662380D02*
X178028571Y-143662380D01*
X178028571Y-143662380D02*
X177933333Y-143614761D01*
X177933333Y-143614761D02*
X177885714Y-143567142D01*
X177885714Y-143567142D02*
X177838095Y-143471904D01*
X177838095Y-143471904D02*
X177838095Y-143186190D01*
X177838095Y-143186190D02*
X177885714Y-143090952D01*
X177885714Y-143090952D02*
X177933333Y-143043333D01*
X177933333Y-143043333D02*
X178028571Y-142995714D01*
X178028571Y-142995714D02*
X178219047Y-142995714D01*
X178219047Y-142995714D02*
X178314285Y-143043333D01*
X178742857Y-143662380D02*
X178742857Y-142662380D01*
X179171428Y-143662380D02*
X179171428Y-143138571D01*
X179171428Y-143138571D02*
X179123809Y-143043333D01*
X179123809Y-143043333D02*
X179028571Y-142995714D01*
X179028571Y-142995714D02*
X178885714Y-142995714D01*
X178885714Y-142995714D02*
X178790476Y-143043333D01*
X178790476Y-143043333D02*
X178742857Y-143090952D01*
X180028571Y-143614761D02*
X179933333Y-143662380D01*
X179933333Y-143662380D02*
X179742857Y-143662380D01*
X179742857Y-143662380D02*
X179647619Y-143614761D01*
X179647619Y-143614761D02*
X179600000Y-143519523D01*
X179600000Y-143519523D02*
X179600000Y-143138571D01*
X179600000Y-143138571D02*
X179647619Y-143043333D01*
X179647619Y-143043333D02*
X179742857Y-142995714D01*
X179742857Y-142995714D02*
X179933333Y-142995714D01*
X179933333Y-142995714D02*
X180028571Y-143043333D01*
X180028571Y-143043333D02*
X180076190Y-143138571D01*
X180076190Y-143138571D02*
X180076190Y-143233809D01*
X180076190Y-143233809D02*
X179600000Y-143329047D01*
X180504762Y-142995714D02*
X180504762Y-143662380D01*
X180504762Y-143090952D02*
X180552381Y-143043333D01*
X180552381Y-143043333D02*
X180647619Y-142995714D01*
X180647619Y-142995714D02*
X180790476Y-142995714D01*
X180790476Y-142995714D02*
X180885714Y-143043333D01*
X180885714Y-143043333D02*
X180933333Y-143138571D01*
X180933333Y-143138571D02*
X180933333Y-143662380D01*
X181866667Y-142662380D02*
X182438095Y-142662380D01*
X182152381Y-143662380D02*
X182152381Y-142662380D01*
X182771429Y-143662380D02*
X182771429Y-142995714D01*
X182771429Y-142662380D02*
X182723810Y-142710000D01*
X182723810Y-142710000D02*
X182771429Y-142757619D01*
X182771429Y-142757619D02*
X182819048Y-142710000D01*
X182819048Y-142710000D02*
X182771429Y-142662380D01*
X182771429Y-142662380D02*
X182771429Y-142757619D01*
X183247619Y-143662380D02*
X183247619Y-142995714D01*
X183247619Y-143090952D02*
X183295238Y-143043333D01*
X183295238Y-143043333D02*
X183390476Y-142995714D01*
X183390476Y-142995714D02*
X183533333Y-142995714D01*
X183533333Y-142995714D02*
X183628571Y-143043333D01*
X183628571Y-143043333D02*
X183676190Y-143138571D01*
X183676190Y-143138571D02*
X183676190Y-143662380D01*
X183676190Y-143138571D02*
X183723809Y-143043333D01*
X183723809Y-143043333D02*
X183819047Y-142995714D01*
X183819047Y-142995714D02*
X183961904Y-142995714D01*
X183961904Y-142995714D02*
X184057143Y-143043333D01*
X184057143Y-143043333D02*
X184104762Y-143138571D01*
X184104762Y-143138571D02*
X184104762Y-143662380D01*
X184961904Y-143614761D02*
X184866666Y-143662380D01*
X184866666Y-143662380D02*
X184676190Y-143662380D01*
X184676190Y-143662380D02*
X184580952Y-143614761D01*
X184580952Y-143614761D02*
X184533333Y-143519523D01*
X184533333Y-143519523D02*
X184533333Y-143138571D01*
X184533333Y-143138571D02*
X184580952Y-143043333D01*
X184580952Y-143043333D02*
X184676190Y-142995714D01*
X184676190Y-142995714D02*
X184866666Y-142995714D01*
X184866666Y-142995714D02*
X184961904Y-143043333D01*
X184961904Y-143043333D02*
X185009523Y-143138571D01*
X185009523Y-143138571D02*
X185009523Y-143233809D01*
X185009523Y-143233809D02*
X184533333Y-143329047D01*
X185438095Y-143662380D02*
X185438095Y-142995714D01*
X185438095Y-143186190D02*
X185485714Y-143090952D01*
X185485714Y-143090952D02*
X185533333Y-143043333D01*
X185533333Y-143043333D02*
X185628571Y-142995714D01*
X185628571Y-142995714D02*
X185723809Y-142995714D01*
X186561905Y-142995714D02*
X186800000Y-143662380D01*
X186800000Y-143662380D02*
X187038095Y-142995714D01*
X187371429Y-142757619D02*
X187419048Y-142710000D01*
X187419048Y-142710000D02*
X187514286Y-142662380D01*
X187514286Y-142662380D02*
X187752381Y-142662380D01*
X187752381Y-142662380D02*
X187847619Y-142710000D01*
X187847619Y-142710000D02*
X187895238Y-142757619D01*
X187895238Y-142757619D02*
X187942857Y-142852857D01*
X187942857Y-142852857D02*
X187942857Y-142948095D01*
X187942857Y-142948095D02*
X187895238Y-143090952D01*
X187895238Y-143090952D02*
X187323810Y-143662380D01*
X187323810Y-143662380D02*
X187942857Y-143662380D01*
X188371429Y-143567142D02*
X188419048Y-143614761D01*
X188419048Y-143614761D02*
X188371429Y-143662380D01*
X188371429Y-143662380D02*
X188323810Y-143614761D01*
X188323810Y-143614761D02*
X188371429Y-143567142D01*
X188371429Y-143567142D02*
X188371429Y-143662380D01*
X189038095Y-142662380D02*
X189133333Y-142662380D01*
X189133333Y-142662380D02*
X189228571Y-142710000D01*
X189228571Y-142710000D02*
X189276190Y-142757619D01*
X189276190Y-142757619D02*
X189323809Y-142852857D01*
X189323809Y-142852857D02*
X189371428Y-143043333D01*
X189371428Y-143043333D02*
X189371428Y-143281428D01*
X189371428Y-143281428D02*
X189323809Y-143471904D01*
X189323809Y-143471904D02*
X189276190Y-143567142D01*
X189276190Y-143567142D02*
X189228571Y-143614761D01*
X189228571Y-143614761D02*
X189133333Y-143662380D01*
X189133333Y-143662380D02*
X189038095Y-143662380D01*
X189038095Y-143662380D02*
X188942857Y-143614761D01*
X188942857Y-143614761D02*
X188895238Y-143567142D01*
X188895238Y-143567142D02*
X188847619Y-143471904D01*
X188847619Y-143471904D02*
X188800000Y-143281428D01*
X188800000Y-143281428D02*
X188800000Y-143043333D01*
X188800000Y-143043333D02*
X188847619Y-142852857D01*
X188847619Y-142852857D02*
X188895238Y-142757619D01*
X188895238Y-142757619D02*
X188942857Y-142710000D01*
X188942857Y-142710000D02*
X189038095Y-142662380D01*
X176028571Y-144282380D02*
X176123809Y-144282380D01*
X176123809Y-144282380D02*
X176219047Y-144330000D01*
X176219047Y-144330000D02*
X176266666Y-144377619D01*
X176266666Y-144377619D02*
X176314285Y-144472857D01*
X176314285Y-144472857D02*
X176361904Y-144663333D01*
X176361904Y-144663333D02*
X176361904Y-144901428D01*
X176361904Y-144901428D02*
X176314285Y-145091904D01*
X176314285Y-145091904D02*
X176266666Y-145187142D01*
X176266666Y-145187142D02*
X176219047Y-145234761D01*
X176219047Y-145234761D02*
X176123809Y-145282380D01*
X176123809Y-145282380D02*
X176028571Y-145282380D01*
X176028571Y-145282380D02*
X175933333Y-145234761D01*
X175933333Y-145234761D02*
X175885714Y-145187142D01*
X175885714Y-145187142D02*
X175838095Y-145091904D01*
X175838095Y-145091904D02*
X175790476Y-144901428D01*
X175790476Y-144901428D02*
X175790476Y-144663333D01*
X175790476Y-144663333D02*
X175838095Y-144472857D01*
X175838095Y-144472857D02*
X175885714Y-144377619D01*
X175885714Y-144377619D02*
X175933333Y-144330000D01*
X175933333Y-144330000D02*
X176028571Y-144282380D01*
X177219047Y-144615714D02*
X177219047Y-145282380D01*
X176980952Y-144234761D02*
X176742857Y-144949047D01*
X176742857Y-144949047D02*
X177361904Y-144949047D01*
X177742857Y-144901428D02*
X178504762Y-144901428D01*
X178933333Y-144377619D02*
X178980952Y-144330000D01*
X178980952Y-144330000D02*
X179076190Y-144282380D01*
X179076190Y-144282380D02*
X179314285Y-144282380D01*
X179314285Y-144282380D02*
X179409523Y-144330000D01*
X179409523Y-144330000D02*
X179457142Y-144377619D01*
X179457142Y-144377619D02*
X179504761Y-144472857D01*
X179504761Y-144472857D02*
X179504761Y-144568095D01*
X179504761Y-144568095D02*
X179457142Y-144710952D01*
X179457142Y-144710952D02*
X178885714Y-145282380D01*
X178885714Y-145282380D02*
X179504761Y-145282380D01*
X180123809Y-144282380D02*
X180219047Y-144282380D01*
X180219047Y-144282380D02*
X180314285Y-144330000D01*
X180314285Y-144330000D02*
X180361904Y-144377619D01*
X180361904Y-144377619D02*
X180409523Y-144472857D01*
X180409523Y-144472857D02*
X180457142Y-144663333D01*
X180457142Y-144663333D02*
X180457142Y-144901428D01*
X180457142Y-144901428D02*
X180409523Y-145091904D01*
X180409523Y-145091904D02*
X180361904Y-145187142D01*
X180361904Y-145187142D02*
X180314285Y-145234761D01*
X180314285Y-145234761D02*
X180219047Y-145282380D01*
X180219047Y-145282380D02*
X180123809Y-145282380D01*
X180123809Y-145282380D02*
X180028571Y-145234761D01*
X180028571Y-145234761D02*
X179980952Y-145187142D01*
X179980952Y-145187142D02*
X179933333Y-145091904D01*
X179933333Y-145091904D02*
X179885714Y-144901428D01*
X179885714Y-144901428D02*
X179885714Y-144663333D01*
X179885714Y-144663333D02*
X179933333Y-144472857D01*
X179933333Y-144472857D02*
X179980952Y-144377619D01*
X179980952Y-144377619D02*
X180028571Y-144330000D01*
X180028571Y-144330000D02*
X180123809Y-144282380D01*
X180885714Y-144901428D02*
X181647619Y-144901428D01*
X182076190Y-144377619D02*
X182123809Y-144330000D01*
X182123809Y-144330000D02*
X182219047Y-144282380D01*
X182219047Y-144282380D02*
X182457142Y-144282380D01*
X182457142Y-144282380D02*
X182552380Y-144330000D01*
X182552380Y-144330000D02*
X182599999Y-144377619D01*
X182599999Y-144377619D02*
X182647618Y-144472857D01*
X182647618Y-144472857D02*
X182647618Y-144568095D01*
X182647618Y-144568095D02*
X182599999Y-144710952D01*
X182599999Y-144710952D02*
X182028571Y-145282380D01*
X182028571Y-145282380D02*
X182647618Y-145282380D01*
X183266666Y-144282380D02*
X183361904Y-144282380D01*
X183361904Y-144282380D02*
X183457142Y-144330000D01*
X183457142Y-144330000D02*
X183504761Y-144377619D01*
X183504761Y-144377619D02*
X183552380Y-144472857D01*
X183552380Y-144472857D02*
X183599999Y-144663333D01*
X183599999Y-144663333D02*
X183599999Y-144901428D01*
X183599999Y-144901428D02*
X183552380Y-145091904D01*
X183552380Y-145091904D02*
X183504761Y-145187142D01*
X183504761Y-145187142D02*
X183457142Y-145234761D01*
X183457142Y-145234761D02*
X183361904Y-145282380D01*
X183361904Y-145282380D02*
X183266666Y-145282380D01*
X183266666Y-145282380D02*
X183171428Y-145234761D01*
X183171428Y-145234761D02*
X183123809Y-145187142D01*
X183123809Y-145187142D02*
X183076190Y-145091904D01*
X183076190Y-145091904D02*
X183028571Y-144901428D01*
X183028571Y-144901428D02*
X183028571Y-144663333D01*
X183028571Y-144663333D02*
X183076190Y-144472857D01*
X183076190Y-144472857D02*
X183123809Y-144377619D01*
X183123809Y-144377619D02*
X183171428Y-144330000D01*
X183171428Y-144330000D02*
X183266666Y-144282380D01*
X183980952Y-144377619D02*
X184028571Y-144330000D01*
X184028571Y-144330000D02*
X184123809Y-144282380D01*
X184123809Y-144282380D02*
X184361904Y-144282380D01*
X184361904Y-144282380D02*
X184457142Y-144330000D01*
X184457142Y-144330000D02*
X184504761Y-144377619D01*
X184504761Y-144377619D02*
X184552380Y-144472857D01*
X184552380Y-144472857D02*
X184552380Y-144568095D01*
X184552380Y-144568095D02*
X184504761Y-144710952D01*
X184504761Y-144710952D02*
X183933333Y-145282380D01*
X183933333Y-145282380D02*
X184552380Y-145282380D01*
X184885714Y-144282380D02*
X185504761Y-144282380D01*
X185504761Y-144282380D02*
X185171428Y-144663333D01*
X185171428Y-144663333D02*
X185314285Y-144663333D01*
X185314285Y-144663333D02*
X185409523Y-144710952D01*
X185409523Y-144710952D02*
X185457142Y-144758571D01*
X185457142Y-144758571D02*
X185504761Y-144853809D01*
X185504761Y-144853809D02*
X185504761Y-145091904D01*
X185504761Y-145091904D02*
X185457142Y-145187142D01*
X185457142Y-145187142D02*
X185409523Y-145234761D01*
X185409523Y-145234761D02*
X185314285Y-145282380D01*
X185314285Y-145282380D02*
X185028571Y-145282380D01*
X185028571Y-145282380D02*
X184933333Y-145234761D01*
X184933333Y-145234761D02*
X184885714Y-145187142D01*
%TO.C,H4*%
X102338095Y-123067380D02*
X102338095Y-122067380D01*
X102338095Y-122543571D02*
X102909523Y-122543571D01*
X102909523Y-123067380D02*
X102909523Y-122067380D01*
X103814285Y-122400714D02*
X103814285Y-123067380D01*
X103576190Y-122019761D02*
X103338095Y-122734047D01*
X103338095Y-122734047D02*
X103957142Y-122734047D01*
X190638095Y-133967380D02*
X190638095Y-132967380D01*
X190638095Y-133443571D02*
X191209523Y-133443571D01*
X191209523Y-133967380D02*
X191209523Y-132967380D01*
X192114285Y-133300714D02*
X192114285Y-133967380D01*
X191876190Y-132919761D02*
X191638095Y-133634047D01*
X191638095Y-133634047D02*
X192257142Y-133634047D01*
%TO.C,LS1*%
X178857142Y-74067380D02*
X178380952Y-74067380D01*
X178380952Y-74067380D02*
X178380952Y-73067380D01*
X179142857Y-74019761D02*
X179285714Y-74067380D01*
X179285714Y-74067380D02*
X179523809Y-74067380D01*
X179523809Y-74067380D02*
X179619047Y-74019761D01*
X179619047Y-74019761D02*
X179666666Y-73972142D01*
X179666666Y-73972142D02*
X179714285Y-73876904D01*
X179714285Y-73876904D02*
X179714285Y-73781666D01*
X179714285Y-73781666D02*
X179666666Y-73686428D01*
X179666666Y-73686428D02*
X179619047Y-73638809D01*
X179619047Y-73638809D02*
X179523809Y-73591190D01*
X179523809Y-73591190D02*
X179333333Y-73543571D01*
X179333333Y-73543571D02*
X179238095Y-73495952D01*
X179238095Y-73495952D02*
X179190476Y-73448333D01*
X179190476Y-73448333D02*
X179142857Y-73353095D01*
X179142857Y-73353095D02*
X179142857Y-73257857D01*
X179142857Y-73257857D02*
X179190476Y-73162619D01*
X179190476Y-73162619D02*
X179238095Y-73115000D01*
X179238095Y-73115000D02*
X179333333Y-73067380D01*
X179333333Y-73067380D02*
X179571428Y-73067380D01*
X179571428Y-73067380D02*
X179714285Y-73115000D01*
X180666666Y-74067380D02*
X180095238Y-74067380D01*
X180380952Y-74067380D02*
X180380952Y-73067380D01*
X180380952Y-73067380D02*
X180285714Y-73210238D01*
X180285714Y-73210238D02*
X180190476Y-73305476D01*
X180190476Y-73305476D02*
X180095238Y-73353095D01*
X182929048Y-69026428D02*
X183690953Y-69026428D01*
X183310000Y-69407380D02*
X183310000Y-68645476D01*
%TO.C,H5*%
X153138095Y-99567380D02*
X153138095Y-98567380D01*
X153138095Y-99043571D02*
X153709523Y-99043571D01*
X153709523Y-99567380D02*
X153709523Y-98567380D01*
X154661904Y-98567380D02*
X154185714Y-98567380D01*
X154185714Y-98567380D02*
X154138095Y-99043571D01*
X154138095Y-99043571D02*
X154185714Y-98995952D01*
X154185714Y-98995952D02*
X154280952Y-98948333D01*
X154280952Y-98948333D02*
X154519047Y-98948333D01*
X154519047Y-98948333D02*
X154614285Y-98995952D01*
X154614285Y-98995952D02*
X154661904Y-99043571D01*
X154661904Y-99043571D02*
X154709523Y-99138809D01*
X154709523Y-99138809D02*
X154709523Y-99376904D01*
X154709523Y-99376904D02*
X154661904Y-99472142D01*
X154661904Y-99472142D02*
X154614285Y-99519761D01*
X154614285Y-99519761D02*
X154519047Y-99567380D01*
X154519047Y-99567380D02*
X154280952Y-99567380D01*
X154280952Y-99567380D02*
X154185714Y-99519761D01*
X154185714Y-99519761D02*
X154138095Y-99472142D01*
%TO.C,R14*%
X108857142Y-117867380D02*
X108523809Y-117391190D01*
X108285714Y-117867380D02*
X108285714Y-116867380D01*
X108285714Y-116867380D02*
X108666666Y-116867380D01*
X108666666Y-116867380D02*
X108761904Y-116915000D01*
X108761904Y-116915000D02*
X108809523Y-116962619D01*
X108809523Y-116962619D02*
X108857142Y-117057857D01*
X108857142Y-117057857D02*
X108857142Y-117200714D01*
X108857142Y-117200714D02*
X108809523Y-117295952D01*
X108809523Y-117295952D02*
X108761904Y-117343571D01*
X108761904Y-117343571D02*
X108666666Y-117391190D01*
X108666666Y-117391190D02*
X108285714Y-117391190D01*
X109809523Y-117867380D02*
X109238095Y-117867380D01*
X109523809Y-117867380D02*
X109523809Y-116867380D01*
X109523809Y-116867380D02*
X109428571Y-117010238D01*
X109428571Y-117010238D02*
X109333333Y-117105476D01*
X109333333Y-117105476D02*
X109238095Y-117153095D01*
X110666666Y-117200714D02*
X110666666Y-117867380D01*
X110428571Y-116819761D02*
X110190476Y-117534047D01*
X110190476Y-117534047D02*
X110809523Y-117534047D01*
%TO.C,R13*%
X122757142Y-141567380D02*
X122423809Y-141091190D01*
X122185714Y-141567380D02*
X122185714Y-140567380D01*
X122185714Y-140567380D02*
X122566666Y-140567380D01*
X122566666Y-140567380D02*
X122661904Y-140615000D01*
X122661904Y-140615000D02*
X122709523Y-140662619D01*
X122709523Y-140662619D02*
X122757142Y-140757857D01*
X122757142Y-140757857D02*
X122757142Y-140900714D01*
X122757142Y-140900714D02*
X122709523Y-140995952D01*
X122709523Y-140995952D02*
X122661904Y-141043571D01*
X122661904Y-141043571D02*
X122566666Y-141091190D01*
X122566666Y-141091190D02*
X122185714Y-141091190D01*
X123709523Y-141567380D02*
X123138095Y-141567380D01*
X123423809Y-141567380D02*
X123423809Y-140567380D01*
X123423809Y-140567380D02*
X123328571Y-140710238D01*
X123328571Y-140710238D02*
X123233333Y-140805476D01*
X123233333Y-140805476D02*
X123138095Y-140853095D01*
X124042857Y-140567380D02*
X124661904Y-140567380D01*
X124661904Y-140567380D02*
X124328571Y-140948333D01*
X124328571Y-140948333D02*
X124471428Y-140948333D01*
X124471428Y-140948333D02*
X124566666Y-140995952D01*
X124566666Y-140995952D02*
X124614285Y-141043571D01*
X124614285Y-141043571D02*
X124661904Y-141138809D01*
X124661904Y-141138809D02*
X124661904Y-141376904D01*
X124661904Y-141376904D02*
X124614285Y-141472142D01*
X124614285Y-141472142D02*
X124566666Y-141519761D01*
X124566666Y-141519761D02*
X124471428Y-141567380D01*
X124471428Y-141567380D02*
X124185714Y-141567380D01*
X124185714Y-141567380D02*
X124090476Y-141519761D01*
X124090476Y-141519761D02*
X124042857Y-141472142D01*
%TO.C,D3*%
X104961905Y-98767380D02*
X104961905Y-97767380D01*
X104961905Y-97767380D02*
X105200000Y-97767380D01*
X105200000Y-97767380D02*
X105342857Y-97815000D01*
X105342857Y-97815000D02*
X105438095Y-97910238D01*
X105438095Y-97910238D02*
X105485714Y-98005476D01*
X105485714Y-98005476D02*
X105533333Y-98195952D01*
X105533333Y-98195952D02*
X105533333Y-98338809D01*
X105533333Y-98338809D02*
X105485714Y-98529285D01*
X105485714Y-98529285D02*
X105438095Y-98624523D01*
X105438095Y-98624523D02*
X105342857Y-98719761D01*
X105342857Y-98719761D02*
X105200000Y-98767380D01*
X105200000Y-98767380D02*
X104961905Y-98767380D01*
X105866667Y-97767380D02*
X106485714Y-97767380D01*
X106485714Y-97767380D02*
X106152381Y-98148333D01*
X106152381Y-98148333D02*
X106295238Y-98148333D01*
X106295238Y-98148333D02*
X106390476Y-98195952D01*
X106390476Y-98195952D02*
X106438095Y-98243571D01*
X106438095Y-98243571D02*
X106485714Y-98338809D01*
X106485714Y-98338809D02*
X106485714Y-98576904D01*
X106485714Y-98576904D02*
X106438095Y-98672142D01*
X106438095Y-98672142D02*
X106390476Y-98719761D01*
X106390476Y-98719761D02*
X106295238Y-98767380D01*
X106295238Y-98767380D02*
X106009524Y-98767380D01*
X106009524Y-98767380D02*
X105914286Y-98719761D01*
X105914286Y-98719761D02*
X105866667Y-98672142D01*
%TO.C,R12*%
X103717380Y-68892857D02*
X103241190Y-69226190D01*
X103717380Y-69464285D02*
X102717380Y-69464285D01*
X102717380Y-69464285D02*
X102717380Y-69083333D01*
X102717380Y-69083333D02*
X102765000Y-68988095D01*
X102765000Y-68988095D02*
X102812619Y-68940476D01*
X102812619Y-68940476D02*
X102907857Y-68892857D01*
X102907857Y-68892857D02*
X103050714Y-68892857D01*
X103050714Y-68892857D02*
X103145952Y-68940476D01*
X103145952Y-68940476D02*
X103193571Y-68988095D01*
X103193571Y-68988095D02*
X103241190Y-69083333D01*
X103241190Y-69083333D02*
X103241190Y-69464285D01*
X103717380Y-67940476D02*
X103717380Y-68511904D01*
X103717380Y-68226190D02*
X102717380Y-68226190D01*
X102717380Y-68226190D02*
X102860238Y-68321428D01*
X102860238Y-68321428D02*
X102955476Y-68416666D01*
X102955476Y-68416666D02*
X103003095Y-68511904D01*
X102812619Y-67559523D02*
X102765000Y-67511904D01*
X102765000Y-67511904D02*
X102717380Y-67416666D01*
X102717380Y-67416666D02*
X102717380Y-67178571D01*
X102717380Y-67178571D02*
X102765000Y-67083333D01*
X102765000Y-67083333D02*
X102812619Y-67035714D01*
X102812619Y-67035714D02*
X102907857Y-66988095D01*
X102907857Y-66988095D02*
X103003095Y-66988095D01*
X103003095Y-66988095D02*
X103145952Y-67035714D01*
X103145952Y-67035714D02*
X103717380Y-67607142D01*
X103717380Y-67607142D02*
X103717380Y-66988095D01*
%TO.C,D1*%
X155324405Y-81217380D02*
X155324405Y-80217380D01*
X155324405Y-80217380D02*
X155562500Y-80217380D01*
X155562500Y-80217380D02*
X155705357Y-80265000D01*
X155705357Y-80265000D02*
X155800595Y-80360238D01*
X155800595Y-80360238D02*
X155848214Y-80455476D01*
X155848214Y-80455476D02*
X155895833Y-80645952D01*
X155895833Y-80645952D02*
X155895833Y-80788809D01*
X155895833Y-80788809D02*
X155848214Y-80979285D01*
X155848214Y-80979285D02*
X155800595Y-81074523D01*
X155800595Y-81074523D02*
X155705357Y-81169761D01*
X155705357Y-81169761D02*
X155562500Y-81217380D01*
X155562500Y-81217380D02*
X155324405Y-81217380D01*
X156848214Y-81217380D02*
X156276786Y-81217380D01*
X156562500Y-81217380D02*
X156562500Y-80217380D01*
X156562500Y-80217380D02*
X156467262Y-80360238D01*
X156467262Y-80360238D02*
X156372024Y-80455476D01*
X156372024Y-80455476D02*
X156276786Y-80503095D01*
%TO.C,C2*%
X145772142Y-129166666D02*
X145819761Y-129214285D01*
X145819761Y-129214285D02*
X145867380Y-129357142D01*
X145867380Y-129357142D02*
X145867380Y-129452380D01*
X145867380Y-129452380D02*
X145819761Y-129595237D01*
X145819761Y-129595237D02*
X145724523Y-129690475D01*
X145724523Y-129690475D02*
X145629285Y-129738094D01*
X145629285Y-129738094D02*
X145438809Y-129785713D01*
X145438809Y-129785713D02*
X145295952Y-129785713D01*
X145295952Y-129785713D02*
X145105476Y-129738094D01*
X145105476Y-129738094D02*
X145010238Y-129690475D01*
X145010238Y-129690475D02*
X144915000Y-129595237D01*
X144915000Y-129595237D02*
X144867380Y-129452380D01*
X144867380Y-129452380D02*
X144867380Y-129357142D01*
X144867380Y-129357142D02*
X144915000Y-129214285D01*
X144915000Y-129214285D02*
X144962619Y-129166666D01*
X144962619Y-128785713D02*
X144915000Y-128738094D01*
X144915000Y-128738094D02*
X144867380Y-128642856D01*
X144867380Y-128642856D02*
X144867380Y-128404761D01*
X144867380Y-128404761D02*
X144915000Y-128309523D01*
X144915000Y-128309523D02*
X144962619Y-128261904D01*
X144962619Y-128261904D02*
X145057857Y-128214285D01*
X145057857Y-128214285D02*
X145153095Y-128214285D01*
X145153095Y-128214285D02*
X145295952Y-128261904D01*
X145295952Y-128261904D02*
X145867380Y-128833332D01*
X145867380Y-128833332D02*
X145867380Y-128214285D01*
%TO.C,C10*%
X135157142Y-104772142D02*
X135109523Y-104819761D01*
X135109523Y-104819761D02*
X134966666Y-104867380D01*
X134966666Y-104867380D02*
X134871428Y-104867380D01*
X134871428Y-104867380D02*
X134728571Y-104819761D01*
X134728571Y-104819761D02*
X134633333Y-104724523D01*
X134633333Y-104724523D02*
X134585714Y-104629285D01*
X134585714Y-104629285D02*
X134538095Y-104438809D01*
X134538095Y-104438809D02*
X134538095Y-104295952D01*
X134538095Y-104295952D02*
X134585714Y-104105476D01*
X134585714Y-104105476D02*
X134633333Y-104010238D01*
X134633333Y-104010238D02*
X134728571Y-103915000D01*
X134728571Y-103915000D02*
X134871428Y-103867380D01*
X134871428Y-103867380D02*
X134966666Y-103867380D01*
X134966666Y-103867380D02*
X135109523Y-103915000D01*
X135109523Y-103915000D02*
X135157142Y-103962619D01*
X136109523Y-104867380D02*
X135538095Y-104867380D01*
X135823809Y-104867380D02*
X135823809Y-103867380D01*
X135823809Y-103867380D02*
X135728571Y-104010238D01*
X135728571Y-104010238D02*
X135633333Y-104105476D01*
X135633333Y-104105476D02*
X135538095Y-104153095D01*
X136728571Y-103867380D02*
X136823809Y-103867380D01*
X136823809Y-103867380D02*
X136919047Y-103915000D01*
X136919047Y-103915000D02*
X136966666Y-103962619D01*
X136966666Y-103962619D02*
X137014285Y-104057857D01*
X137014285Y-104057857D02*
X137061904Y-104248333D01*
X137061904Y-104248333D02*
X137061904Y-104486428D01*
X137061904Y-104486428D02*
X137014285Y-104676904D01*
X137014285Y-104676904D02*
X136966666Y-104772142D01*
X136966666Y-104772142D02*
X136919047Y-104819761D01*
X136919047Y-104819761D02*
X136823809Y-104867380D01*
X136823809Y-104867380D02*
X136728571Y-104867380D01*
X136728571Y-104867380D02*
X136633333Y-104819761D01*
X136633333Y-104819761D02*
X136585714Y-104772142D01*
X136585714Y-104772142D02*
X136538095Y-104676904D01*
X136538095Y-104676904D02*
X136490476Y-104486428D01*
X136490476Y-104486428D02*
X136490476Y-104248333D01*
X136490476Y-104248333D02*
X136538095Y-104057857D01*
X136538095Y-104057857D02*
X136585714Y-103962619D01*
X136585714Y-103962619D02*
X136633333Y-103915000D01*
X136633333Y-103915000D02*
X136728571Y-103867380D01*
%TO.C,C12*%
X138857142Y-104872142D02*
X138809523Y-104919761D01*
X138809523Y-104919761D02*
X138666666Y-104967380D01*
X138666666Y-104967380D02*
X138571428Y-104967380D01*
X138571428Y-104967380D02*
X138428571Y-104919761D01*
X138428571Y-104919761D02*
X138333333Y-104824523D01*
X138333333Y-104824523D02*
X138285714Y-104729285D01*
X138285714Y-104729285D02*
X138238095Y-104538809D01*
X138238095Y-104538809D02*
X138238095Y-104395952D01*
X138238095Y-104395952D02*
X138285714Y-104205476D01*
X138285714Y-104205476D02*
X138333333Y-104110238D01*
X138333333Y-104110238D02*
X138428571Y-104015000D01*
X138428571Y-104015000D02*
X138571428Y-103967380D01*
X138571428Y-103967380D02*
X138666666Y-103967380D01*
X138666666Y-103967380D02*
X138809523Y-104015000D01*
X138809523Y-104015000D02*
X138857142Y-104062619D01*
X139809523Y-104967380D02*
X139238095Y-104967380D01*
X139523809Y-104967380D02*
X139523809Y-103967380D01*
X139523809Y-103967380D02*
X139428571Y-104110238D01*
X139428571Y-104110238D02*
X139333333Y-104205476D01*
X139333333Y-104205476D02*
X139238095Y-104253095D01*
X140190476Y-104062619D02*
X140238095Y-104015000D01*
X140238095Y-104015000D02*
X140333333Y-103967380D01*
X140333333Y-103967380D02*
X140571428Y-103967380D01*
X140571428Y-103967380D02*
X140666666Y-104015000D01*
X140666666Y-104015000D02*
X140714285Y-104062619D01*
X140714285Y-104062619D02*
X140761904Y-104157857D01*
X140761904Y-104157857D02*
X140761904Y-104253095D01*
X140761904Y-104253095D02*
X140714285Y-104395952D01*
X140714285Y-104395952D02*
X140142857Y-104967380D01*
X140142857Y-104967380D02*
X140761904Y-104967380D01*
%TO.C,R4*%
X160305833Y-88067380D02*
X159972500Y-87591190D01*
X159734405Y-88067380D02*
X159734405Y-87067380D01*
X159734405Y-87067380D02*
X160115357Y-87067380D01*
X160115357Y-87067380D02*
X160210595Y-87115000D01*
X160210595Y-87115000D02*
X160258214Y-87162619D01*
X160258214Y-87162619D02*
X160305833Y-87257857D01*
X160305833Y-87257857D02*
X160305833Y-87400714D01*
X160305833Y-87400714D02*
X160258214Y-87495952D01*
X160258214Y-87495952D02*
X160210595Y-87543571D01*
X160210595Y-87543571D02*
X160115357Y-87591190D01*
X160115357Y-87591190D02*
X159734405Y-87591190D01*
X161162976Y-87400714D02*
X161162976Y-88067380D01*
X160924881Y-87019761D02*
X160686786Y-87734047D01*
X160686786Y-87734047D02*
X161305833Y-87734047D01*
D11*
%TO.C,S2*%
X177032380Y-123406097D02*
X177213809Y-123466573D01*
X177213809Y-123466573D02*
X177516190Y-123466573D01*
X177516190Y-123466573D02*
X177637142Y-123406097D01*
X177637142Y-123406097D02*
X177697618Y-123345621D01*
X177697618Y-123345621D02*
X177758095Y-123224669D01*
X177758095Y-123224669D02*
X177758095Y-123103716D01*
X177758095Y-123103716D02*
X177697618Y-122982764D01*
X177697618Y-122982764D02*
X177637142Y-122922288D01*
X177637142Y-122922288D02*
X177516190Y-122861811D01*
X177516190Y-122861811D02*
X177274285Y-122801335D01*
X177274285Y-122801335D02*
X177153333Y-122740859D01*
X177153333Y-122740859D02*
X177092856Y-122680383D01*
X177092856Y-122680383D02*
X177032380Y-122559430D01*
X177032380Y-122559430D02*
X177032380Y-122438478D01*
X177032380Y-122438478D02*
X177092856Y-122317526D01*
X177092856Y-122317526D02*
X177153333Y-122257050D01*
X177153333Y-122257050D02*
X177274285Y-122196573D01*
X177274285Y-122196573D02*
X177576666Y-122196573D01*
X177576666Y-122196573D02*
X177758095Y-122257050D01*
X178241904Y-122317526D02*
X178302380Y-122257050D01*
X178302380Y-122257050D02*
X178423333Y-122196573D01*
X178423333Y-122196573D02*
X178725714Y-122196573D01*
X178725714Y-122196573D02*
X178846666Y-122257050D01*
X178846666Y-122257050D02*
X178907142Y-122317526D01*
X178907142Y-122317526D02*
X178967619Y-122438478D01*
X178967619Y-122438478D02*
X178967619Y-122559430D01*
X178967619Y-122559430D02*
X178907142Y-122740859D01*
X178907142Y-122740859D02*
X178181428Y-123466573D01*
X178181428Y-123466573D02*
X178967619Y-123466573D01*
D10*
%TO.C,R16*%
X116357142Y-99467380D02*
X116023809Y-98991190D01*
X115785714Y-99467380D02*
X115785714Y-98467380D01*
X115785714Y-98467380D02*
X116166666Y-98467380D01*
X116166666Y-98467380D02*
X116261904Y-98515000D01*
X116261904Y-98515000D02*
X116309523Y-98562619D01*
X116309523Y-98562619D02*
X116357142Y-98657857D01*
X116357142Y-98657857D02*
X116357142Y-98800714D01*
X116357142Y-98800714D02*
X116309523Y-98895952D01*
X116309523Y-98895952D02*
X116261904Y-98943571D01*
X116261904Y-98943571D02*
X116166666Y-98991190D01*
X116166666Y-98991190D02*
X115785714Y-98991190D01*
X117309523Y-99467380D02*
X116738095Y-99467380D01*
X117023809Y-99467380D02*
X117023809Y-98467380D01*
X117023809Y-98467380D02*
X116928571Y-98610238D01*
X116928571Y-98610238D02*
X116833333Y-98705476D01*
X116833333Y-98705476D02*
X116738095Y-98753095D01*
X118166666Y-98467380D02*
X117976190Y-98467380D01*
X117976190Y-98467380D02*
X117880952Y-98515000D01*
X117880952Y-98515000D02*
X117833333Y-98562619D01*
X117833333Y-98562619D02*
X117738095Y-98705476D01*
X117738095Y-98705476D02*
X117690476Y-98895952D01*
X117690476Y-98895952D02*
X117690476Y-99276904D01*
X117690476Y-99276904D02*
X117738095Y-99372142D01*
X117738095Y-99372142D02*
X117785714Y-99419761D01*
X117785714Y-99419761D02*
X117880952Y-99467380D01*
X117880952Y-99467380D02*
X118071428Y-99467380D01*
X118071428Y-99467380D02*
X118166666Y-99419761D01*
X118166666Y-99419761D02*
X118214285Y-99372142D01*
X118214285Y-99372142D02*
X118261904Y-99276904D01*
X118261904Y-99276904D02*
X118261904Y-99038809D01*
X118261904Y-99038809D02*
X118214285Y-98943571D01*
X118214285Y-98943571D02*
X118166666Y-98895952D01*
X118166666Y-98895952D02*
X118071428Y-98848333D01*
X118071428Y-98848333D02*
X117880952Y-98848333D01*
X117880952Y-98848333D02*
X117785714Y-98895952D01*
X117785714Y-98895952D02*
X117738095Y-98943571D01*
X117738095Y-98943571D02*
X117690476Y-99038809D01*
%TO.C,R7*%
X103717380Y-63166666D02*
X103241190Y-63499999D01*
X103717380Y-63738094D02*
X102717380Y-63738094D01*
X102717380Y-63738094D02*
X102717380Y-63357142D01*
X102717380Y-63357142D02*
X102765000Y-63261904D01*
X102765000Y-63261904D02*
X102812619Y-63214285D01*
X102812619Y-63214285D02*
X102907857Y-63166666D01*
X102907857Y-63166666D02*
X103050714Y-63166666D01*
X103050714Y-63166666D02*
X103145952Y-63214285D01*
X103145952Y-63214285D02*
X103193571Y-63261904D01*
X103193571Y-63261904D02*
X103241190Y-63357142D01*
X103241190Y-63357142D02*
X103241190Y-63738094D01*
X102717380Y-62833332D02*
X102717380Y-62166666D01*
X102717380Y-62166666D02*
X103717380Y-62595237D01*
%TO.C,C8*%
X127133333Y-110772142D02*
X127085714Y-110819761D01*
X127085714Y-110819761D02*
X126942857Y-110867380D01*
X126942857Y-110867380D02*
X126847619Y-110867380D01*
X126847619Y-110867380D02*
X126704762Y-110819761D01*
X126704762Y-110819761D02*
X126609524Y-110724523D01*
X126609524Y-110724523D02*
X126561905Y-110629285D01*
X126561905Y-110629285D02*
X126514286Y-110438809D01*
X126514286Y-110438809D02*
X126514286Y-110295952D01*
X126514286Y-110295952D02*
X126561905Y-110105476D01*
X126561905Y-110105476D02*
X126609524Y-110010238D01*
X126609524Y-110010238D02*
X126704762Y-109915000D01*
X126704762Y-109915000D02*
X126847619Y-109867380D01*
X126847619Y-109867380D02*
X126942857Y-109867380D01*
X126942857Y-109867380D02*
X127085714Y-109915000D01*
X127085714Y-109915000D02*
X127133333Y-109962619D01*
X127704762Y-110295952D02*
X127609524Y-110248333D01*
X127609524Y-110248333D02*
X127561905Y-110200714D01*
X127561905Y-110200714D02*
X127514286Y-110105476D01*
X127514286Y-110105476D02*
X127514286Y-110057857D01*
X127514286Y-110057857D02*
X127561905Y-109962619D01*
X127561905Y-109962619D02*
X127609524Y-109915000D01*
X127609524Y-109915000D02*
X127704762Y-109867380D01*
X127704762Y-109867380D02*
X127895238Y-109867380D01*
X127895238Y-109867380D02*
X127990476Y-109915000D01*
X127990476Y-109915000D02*
X128038095Y-109962619D01*
X128038095Y-109962619D02*
X128085714Y-110057857D01*
X128085714Y-110057857D02*
X128085714Y-110105476D01*
X128085714Y-110105476D02*
X128038095Y-110200714D01*
X128038095Y-110200714D02*
X127990476Y-110248333D01*
X127990476Y-110248333D02*
X127895238Y-110295952D01*
X127895238Y-110295952D02*
X127704762Y-110295952D01*
X127704762Y-110295952D02*
X127609524Y-110343571D01*
X127609524Y-110343571D02*
X127561905Y-110391190D01*
X127561905Y-110391190D02*
X127514286Y-110486428D01*
X127514286Y-110486428D02*
X127514286Y-110676904D01*
X127514286Y-110676904D02*
X127561905Y-110772142D01*
X127561905Y-110772142D02*
X127609524Y-110819761D01*
X127609524Y-110819761D02*
X127704762Y-110867380D01*
X127704762Y-110867380D02*
X127895238Y-110867380D01*
X127895238Y-110867380D02*
X127990476Y-110819761D01*
X127990476Y-110819761D02*
X128038095Y-110772142D01*
X128038095Y-110772142D02*
X128085714Y-110676904D01*
X128085714Y-110676904D02*
X128085714Y-110486428D01*
X128085714Y-110486428D02*
X128038095Y-110391190D01*
X128038095Y-110391190D02*
X127990476Y-110343571D01*
X127990476Y-110343571D02*
X127895238Y-110295952D01*
%TO.C,U3*%
X138938095Y-108017380D02*
X138938095Y-108826904D01*
X138938095Y-108826904D02*
X138985714Y-108922142D01*
X138985714Y-108922142D02*
X139033333Y-108969761D01*
X139033333Y-108969761D02*
X139128571Y-109017380D01*
X139128571Y-109017380D02*
X139319047Y-109017380D01*
X139319047Y-109017380D02*
X139414285Y-108969761D01*
X139414285Y-108969761D02*
X139461904Y-108922142D01*
X139461904Y-108922142D02*
X139509523Y-108826904D01*
X139509523Y-108826904D02*
X139509523Y-108017380D01*
X139890476Y-108017380D02*
X140509523Y-108017380D01*
X140509523Y-108017380D02*
X140176190Y-108398333D01*
X140176190Y-108398333D02*
X140319047Y-108398333D01*
X140319047Y-108398333D02*
X140414285Y-108445952D01*
X140414285Y-108445952D02*
X140461904Y-108493571D01*
X140461904Y-108493571D02*
X140509523Y-108588809D01*
X140509523Y-108588809D02*
X140509523Y-108826904D01*
X140509523Y-108826904D02*
X140461904Y-108922142D01*
X140461904Y-108922142D02*
X140414285Y-108969761D01*
X140414285Y-108969761D02*
X140319047Y-109017380D01*
X140319047Y-109017380D02*
X140033333Y-109017380D01*
X140033333Y-109017380D02*
X139938095Y-108969761D01*
X139938095Y-108969761D02*
X139890476Y-108922142D01*
D11*
%TO.C,S1*%
X176882380Y-103206097D02*
X177063809Y-103266573D01*
X177063809Y-103266573D02*
X177366190Y-103266573D01*
X177366190Y-103266573D02*
X177487142Y-103206097D01*
X177487142Y-103206097D02*
X177547618Y-103145621D01*
X177547618Y-103145621D02*
X177608095Y-103024669D01*
X177608095Y-103024669D02*
X177608095Y-102903716D01*
X177608095Y-102903716D02*
X177547618Y-102782764D01*
X177547618Y-102782764D02*
X177487142Y-102722288D01*
X177487142Y-102722288D02*
X177366190Y-102661811D01*
X177366190Y-102661811D02*
X177124285Y-102601335D01*
X177124285Y-102601335D02*
X177003333Y-102540859D01*
X177003333Y-102540859D02*
X176942856Y-102480383D01*
X176942856Y-102480383D02*
X176882380Y-102359430D01*
X176882380Y-102359430D02*
X176882380Y-102238478D01*
X176882380Y-102238478D02*
X176942856Y-102117526D01*
X176942856Y-102117526D02*
X177003333Y-102057050D01*
X177003333Y-102057050D02*
X177124285Y-101996573D01*
X177124285Y-101996573D02*
X177426666Y-101996573D01*
X177426666Y-101996573D02*
X177608095Y-102057050D01*
X178817619Y-103266573D02*
X178091904Y-103266573D01*
X178454761Y-103266573D02*
X178454761Y-101996573D01*
X178454761Y-101996573D02*
X178333809Y-102178002D01*
X178333809Y-102178002D02*
X178212857Y-102298954D01*
X178212857Y-102298954D02*
X178091904Y-102359430D01*
D10*
%TO.C,C11*%
X144157142Y-106762142D02*
X144109523Y-106809761D01*
X144109523Y-106809761D02*
X143966666Y-106857380D01*
X143966666Y-106857380D02*
X143871428Y-106857380D01*
X143871428Y-106857380D02*
X143728571Y-106809761D01*
X143728571Y-106809761D02*
X143633333Y-106714523D01*
X143633333Y-106714523D02*
X143585714Y-106619285D01*
X143585714Y-106619285D02*
X143538095Y-106428809D01*
X143538095Y-106428809D02*
X143538095Y-106285952D01*
X143538095Y-106285952D02*
X143585714Y-106095476D01*
X143585714Y-106095476D02*
X143633333Y-106000238D01*
X143633333Y-106000238D02*
X143728571Y-105905000D01*
X143728571Y-105905000D02*
X143871428Y-105857380D01*
X143871428Y-105857380D02*
X143966666Y-105857380D01*
X143966666Y-105857380D02*
X144109523Y-105905000D01*
X144109523Y-105905000D02*
X144157142Y-105952619D01*
X145109523Y-106857380D02*
X144538095Y-106857380D01*
X144823809Y-106857380D02*
X144823809Y-105857380D01*
X144823809Y-105857380D02*
X144728571Y-106000238D01*
X144728571Y-106000238D02*
X144633333Y-106095476D01*
X144633333Y-106095476D02*
X144538095Y-106143095D01*
X146061904Y-106857380D02*
X145490476Y-106857380D01*
X145776190Y-106857380D02*
X145776190Y-105857380D01*
X145776190Y-105857380D02*
X145680952Y-106000238D01*
X145680952Y-106000238D02*
X145585714Y-106095476D01*
X145585714Y-106095476D02*
X145490476Y-106143095D01*
%TO.C,C5*%
X127133333Y-112772142D02*
X127085714Y-112819761D01*
X127085714Y-112819761D02*
X126942857Y-112867380D01*
X126942857Y-112867380D02*
X126847619Y-112867380D01*
X126847619Y-112867380D02*
X126704762Y-112819761D01*
X126704762Y-112819761D02*
X126609524Y-112724523D01*
X126609524Y-112724523D02*
X126561905Y-112629285D01*
X126561905Y-112629285D02*
X126514286Y-112438809D01*
X126514286Y-112438809D02*
X126514286Y-112295952D01*
X126514286Y-112295952D02*
X126561905Y-112105476D01*
X126561905Y-112105476D02*
X126609524Y-112010238D01*
X126609524Y-112010238D02*
X126704762Y-111915000D01*
X126704762Y-111915000D02*
X126847619Y-111867380D01*
X126847619Y-111867380D02*
X126942857Y-111867380D01*
X126942857Y-111867380D02*
X127085714Y-111915000D01*
X127085714Y-111915000D02*
X127133333Y-111962619D01*
X128038095Y-111867380D02*
X127561905Y-111867380D01*
X127561905Y-111867380D02*
X127514286Y-112343571D01*
X127514286Y-112343571D02*
X127561905Y-112295952D01*
X127561905Y-112295952D02*
X127657143Y-112248333D01*
X127657143Y-112248333D02*
X127895238Y-112248333D01*
X127895238Y-112248333D02*
X127990476Y-112295952D01*
X127990476Y-112295952D02*
X128038095Y-112343571D01*
X128038095Y-112343571D02*
X128085714Y-112438809D01*
X128085714Y-112438809D02*
X128085714Y-112676904D01*
X128085714Y-112676904D02*
X128038095Y-112772142D01*
X128038095Y-112772142D02*
X127990476Y-112819761D01*
X127990476Y-112819761D02*
X127895238Y-112867380D01*
X127895238Y-112867380D02*
X127657143Y-112867380D01*
X127657143Y-112867380D02*
X127561905Y-112819761D01*
X127561905Y-112819761D02*
X127514286Y-112772142D01*
%TO.C,U2*%
X132438095Y-89967380D02*
X132438095Y-90776904D01*
X132438095Y-90776904D02*
X132485714Y-90872142D01*
X132485714Y-90872142D02*
X132533333Y-90919761D01*
X132533333Y-90919761D02*
X132628571Y-90967380D01*
X132628571Y-90967380D02*
X132819047Y-90967380D01*
X132819047Y-90967380D02*
X132914285Y-90919761D01*
X132914285Y-90919761D02*
X132961904Y-90872142D01*
X132961904Y-90872142D02*
X133009523Y-90776904D01*
X133009523Y-90776904D02*
X133009523Y-89967380D01*
X133438095Y-90062619D02*
X133485714Y-90015000D01*
X133485714Y-90015000D02*
X133580952Y-89967380D01*
X133580952Y-89967380D02*
X133819047Y-89967380D01*
X133819047Y-89967380D02*
X133914285Y-90015000D01*
X133914285Y-90015000D02*
X133961904Y-90062619D01*
X133961904Y-90062619D02*
X134009523Y-90157857D01*
X134009523Y-90157857D02*
X134009523Y-90253095D01*
X134009523Y-90253095D02*
X133961904Y-90395952D01*
X133961904Y-90395952D02*
X133390476Y-90967380D01*
X133390476Y-90967380D02*
X134009523Y-90967380D01*
%TO.C,J3*%
X105966666Y-139567380D02*
X105966666Y-140281666D01*
X105966666Y-140281666D02*
X105919047Y-140424523D01*
X105919047Y-140424523D02*
X105823809Y-140519761D01*
X105823809Y-140519761D02*
X105680952Y-140567380D01*
X105680952Y-140567380D02*
X105585714Y-140567380D01*
X106347619Y-139567380D02*
X106966666Y-139567380D01*
X106966666Y-139567380D02*
X106633333Y-139948333D01*
X106633333Y-139948333D02*
X106776190Y-139948333D01*
X106776190Y-139948333D02*
X106871428Y-139995952D01*
X106871428Y-139995952D02*
X106919047Y-140043571D01*
X106919047Y-140043571D02*
X106966666Y-140138809D01*
X106966666Y-140138809D02*
X106966666Y-140376904D01*
X106966666Y-140376904D02*
X106919047Y-140472142D01*
X106919047Y-140472142D02*
X106871428Y-140519761D01*
X106871428Y-140519761D02*
X106776190Y-140567380D01*
X106776190Y-140567380D02*
X106490476Y-140567380D01*
X106490476Y-140567380D02*
X106395238Y-140519761D01*
X106395238Y-140519761D02*
X106347619Y-140472142D01*
%TO.C,C3*%
X133772142Y-129166666D02*
X133819761Y-129214285D01*
X133819761Y-129214285D02*
X133867380Y-129357142D01*
X133867380Y-129357142D02*
X133867380Y-129452380D01*
X133867380Y-129452380D02*
X133819761Y-129595237D01*
X133819761Y-129595237D02*
X133724523Y-129690475D01*
X133724523Y-129690475D02*
X133629285Y-129738094D01*
X133629285Y-129738094D02*
X133438809Y-129785713D01*
X133438809Y-129785713D02*
X133295952Y-129785713D01*
X133295952Y-129785713D02*
X133105476Y-129738094D01*
X133105476Y-129738094D02*
X133010238Y-129690475D01*
X133010238Y-129690475D02*
X132915000Y-129595237D01*
X132915000Y-129595237D02*
X132867380Y-129452380D01*
X132867380Y-129452380D02*
X132867380Y-129357142D01*
X132867380Y-129357142D02*
X132915000Y-129214285D01*
X132915000Y-129214285D02*
X132962619Y-129166666D01*
X132867380Y-128833332D02*
X132867380Y-128214285D01*
X132867380Y-128214285D02*
X133248333Y-128547618D01*
X133248333Y-128547618D02*
X133248333Y-128404761D01*
X133248333Y-128404761D02*
X133295952Y-128309523D01*
X133295952Y-128309523D02*
X133343571Y-128261904D01*
X133343571Y-128261904D02*
X133438809Y-128214285D01*
X133438809Y-128214285D02*
X133676904Y-128214285D01*
X133676904Y-128214285D02*
X133772142Y-128261904D01*
X133772142Y-128261904D02*
X133819761Y-128309523D01*
X133819761Y-128309523D02*
X133867380Y-128404761D01*
X133867380Y-128404761D02*
X133867380Y-128690475D01*
X133867380Y-128690475D02*
X133819761Y-128785713D01*
X133819761Y-128785713D02*
X133772142Y-128833332D01*
%TO.C,C7*%
X151308333Y-119372142D02*
X151260714Y-119419761D01*
X151260714Y-119419761D02*
X151117857Y-119467380D01*
X151117857Y-119467380D02*
X151022619Y-119467380D01*
X151022619Y-119467380D02*
X150879762Y-119419761D01*
X150879762Y-119419761D02*
X150784524Y-119324523D01*
X150784524Y-119324523D02*
X150736905Y-119229285D01*
X150736905Y-119229285D02*
X150689286Y-119038809D01*
X150689286Y-119038809D02*
X150689286Y-118895952D01*
X150689286Y-118895952D02*
X150736905Y-118705476D01*
X150736905Y-118705476D02*
X150784524Y-118610238D01*
X150784524Y-118610238D02*
X150879762Y-118515000D01*
X150879762Y-118515000D02*
X151022619Y-118467380D01*
X151022619Y-118467380D02*
X151117857Y-118467380D01*
X151117857Y-118467380D02*
X151260714Y-118515000D01*
X151260714Y-118515000D02*
X151308333Y-118562619D01*
X151641667Y-118467380D02*
X152308333Y-118467380D01*
X152308333Y-118467380D02*
X151879762Y-119467380D01*
%TO.C,F1*%
X107166666Y-106843571D02*
X106833333Y-106843571D01*
X106833333Y-107367380D02*
X106833333Y-106367380D01*
X106833333Y-106367380D02*
X107309523Y-106367380D01*
X108214285Y-107367380D02*
X107642857Y-107367380D01*
X107928571Y-107367380D02*
X107928571Y-106367380D01*
X107928571Y-106367380D02*
X107833333Y-106510238D01*
X107833333Y-106510238D02*
X107738095Y-106605476D01*
X107738095Y-106605476D02*
X107642857Y-106653095D01*
%TO.C,J1*%
X127166666Y-128867380D02*
X127166666Y-129581666D01*
X127166666Y-129581666D02*
X127119047Y-129724523D01*
X127119047Y-129724523D02*
X127023809Y-129819761D01*
X127023809Y-129819761D02*
X126880952Y-129867380D01*
X126880952Y-129867380D02*
X126785714Y-129867380D01*
X128166666Y-129867380D02*
X127595238Y-129867380D01*
X127880952Y-129867380D02*
X127880952Y-128867380D01*
X127880952Y-128867380D02*
X127785714Y-129010238D01*
X127785714Y-129010238D02*
X127690476Y-129105476D01*
X127690476Y-129105476D02*
X127595238Y-129153095D01*
%TO.C,C14*%
X122202142Y-127642857D02*
X122249761Y-127690476D01*
X122249761Y-127690476D02*
X122297380Y-127833333D01*
X122297380Y-127833333D02*
X122297380Y-127928571D01*
X122297380Y-127928571D02*
X122249761Y-128071428D01*
X122249761Y-128071428D02*
X122154523Y-128166666D01*
X122154523Y-128166666D02*
X122059285Y-128214285D01*
X122059285Y-128214285D02*
X121868809Y-128261904D01*
X121868809Y-128261904D02*
X121725952Y-128261904D01*
X121725952Y-128261904D02*
X121535476Y-128214285D01*
X121535476Y-128214285D02*
X121440238Y-128166666D01*
X121440238Y-128166666D02*
X121345000Y-128071428D01*
X121345000Y-128071428D02*
X121297380Y-127928571D01*
X121297380Y-127928571D02*
X121297380Y-127833333D01*
X121297380Y-127833333D02*
X121345000Y-127690476D01*
X121345000Y-127690476D02*
X121392619Y-127642857D01*
X122297380Y-126690476D02*
X122297380Y-127261904D01*
X122297380Y-126976190D02*
X121297380Y-126976190D01*
X121297380Y-126976190D02*
X121440238Y-127071428D01*
X121440238Y-127071428D02*
X121535476Y-127166666D01*
X121535476Y-127166666D02*
X121583095Y-127261904D01*
X121630714Y-125833333D02*
X122297380Y-125833333D01*
X121249761Y-126071428D02*
X121964047Y-126309523D01*
X121964047Y-126309523D02*
X121964047Y-125690476D01*
%TO.C,U1*%
X163527380Y-54884404D02*
X164336904Y-54884404D01*
X164336904Y-54884404D02*
X164432142Y-54836785D01*
X164432142Y-54836785D02*
X164479761Y-54789166D01*
X164479761Y-54789166D02*
X164527380Y-54693928D01*
X164527380Y-54693928D02*
X164527380Y-54503452D01*
X164527380Y-54503452D02*
X164479761Y-54408214D01*
X164479761Y-54408214D02*
X164432142Y-54360595D01*
X164432142Y-54360595D02*
X164336904Y-54312976D01*
X164336904Y-54312976D02*
X163527380Y-54312976D01*
X164527380Y-53312976D02*
X164527380Y-53884404D01*
X164527380Y-53598690D02*
X163527380Y-53598690D01*
X163527380Y-53598690D02*
X163670238Y-53693928D01*
X163670238Y-53693928D02*
X163765476Y-53789166D01*
X163765476Y-53789166D02*
X163813095Y-53884404D01*
%TO.C,D2*%
X155261905Y-87867380D02*
X155261905Y-86867380D01*
X155261905Y-86867380D02*
X155500000Y-86867380D01*
X155500000Y-86867380D02*
X155642857Y-86915000D01*
X155642857Y-86915000D02*
X155738095Y-87010238D01*
X155738095Y-87010238D02*
X155785714Y-87105476D01*
X155785714Y-87105476D02*
X155833333Y-87295952D01*
X155833333Y-87295952D02*
X155833333Y-87438809D01*
X155833333Y-87438809D02*
X155785714Y-87629285D01*
X155785714Y-87629285D02*
X155738095Y-87724523D01*
X155738095Y-87724523D02*
X155642857Y-87819761D01*
X155642857Y-87819761D02*
X155500000Y-87867380D01*
X155500000Y-87867380D02*
X155261905Y-87867380D01*
X156214286Y-86962619D02*
X156261905Y-86915000D01*
X156261905Y-86915000D02*
X156357143Y-86867380D01*
X156357143Y-86867380D02*
X156595238Y-86867380D01*
X156595238Y-86867380D02*
X156690476Y-86915000D01*
X156690476Y-86915000D02*
X156738095Y-86962619D01*
X156738095Y-86962619D02*
X156785714Y-87057857D01*
X156785714Y-87057857D02*
X156785714Y-87153095D01*
X156785714Y-87153095D02*
X156738095Y-87295952D01*
X156738095Y-87295952D02*
X156166667Y-87867380D01*
X156166667Y-87867380D02*
X156785714Y-87867380D01*
%TO.C,Y1*%
X139523809Y-132391190D02*
X139523809Y-132867380D01*
X139190476Y-131867380D02*
X139523809Y-132391190D01*
X139523809Y-132391190D02*
X139857142Y-131867380D01*
X140714285Y-132867380D02*
X140142857Y-132867380D01*
X140428571Y-132867380D02*
X140428571Y-131867380D01*
X140428571Y-131867380D02*
X140333333Y-132010238D01*
X140333333Y-132010238D02*
X140238095Y-132105476D01*
X140238095Y-132105476D02*
X140142857Y-132153095D01*
%TO.C,R15*%
X108857142Y-112867380D02*
X108523809Y-112391190D01*
X108285714Y-112867380D02*
X108285714Y-111867380D01*
X108285714Y-111867380D02*
X108666666Y-111867380D01*
X108666666Y-111867380D02*
X108761904Y-111915000D01*
X108761904Y-111915000D02*
X108809523Y-111962619D01*
X108809523Y-111962619D02*
X108857142Y-112057857D01*
X108857142Y-112057857D02*
X108857142Y-112200714D01*
X108857142Y-112200714D02*
X108809523Y-112295952D01*
X108809523Y-112295952D02*
X108761904Y-112343571D01*
X108761904Y-112343571D02*
X108666666Y-112391190D01*
X108666666Y-112391190D02*
X108285714Y-112391190D01*
X109809523Y-112867380D02*
X109238095Y-112867380D01*
X109523809Y-112867380D02*
X109523809Y-111867380D01*
X109523809Y-111867380D02*
X109428571Y-112010238D01*
X109428571Y-112010238D02*
X109333333Y-112105476D01*
X109333333Y-112105476D02*
X109238095Y-112153095D01*
X110714285Y-111867380D02*
X110238095Y-111867380D01*
X110238095Y-111867380D02*
X110190476Y-112343571D01*
X110190476Y-112343571D02*
X110238095Y-112295952D01*
X110238095Y-112295952D02*
X110333333Y-112248333D01*
X110333333Y-112248333D02*
X110571428Y-112248333D01*
X110571428Y-112248333D02*
X110666666Y-112295952D01*
X110666666Y-112295952D02*
X110714285Y-112343571D01*
X110714285Y-112343571D02*
X110761904Y-112438809D01*
X110761904Y-112438809D02*
X110761904Y-112676904D01*
X110761904Y-112676904D02*
X110714285Y-112772142D01*
X110714285Y-112772142D02*
X110666666Y-112819761D01*
X110666666Y-112819761D02*
X110571428Y-112867380D01*
X110571428Y-112867380D02*
X110333333Y-112867380D01*
X110333333Y-112867380D02*
X110238095Y-112819761D01*
X110238095Y-112819761D02*
X110190476Y-112772142D01*
%TO.C,R5*%
X144917380Y-76566666D02*
X144441190Y-76899999D01*
X144917380Y-77138094D02*
X143917380Y-77138094D01*
X143917380Y-77138094D02*
X143917380Y-76757142D01*
X143917380Y-76757142D02*
X143965000Y-76661904D01*
X143965000Y-76661904D02*
X144012619Y-76614285D01*
X144012619Y-76614285D02*
X144107857Y-76566666D01*
X144107857Y-76566666D02*
X144250714Y-76566666D01*
X144250714Y-76566666D02*
X144345952Y-76614285D01*
X144345952Y-76614285D02*
X144393571Y-76661904D01*
X144393571Y-76661904D02*
X144441190Y-76757142D01*
X144441190Y-76757142D02*
X144441190Y-77138094D01*
X143917380Y-75661904D02*
X143917380Y-76138094D01*
X143917380Y-76138094D02*
X144393571Y-76185713D01*
X144393571Y-76185713D02*
X144345952Y-76138094D01*
X144345952Y-76138094D02*
X144298333Y-76042856D01*
X144298333Y-76042856D02*
X144298333Y-75804761D01*
X144298333Y-75804761D02*
X144345952Y-75709523D01*
X144345952Y-75709523D02*
X144393571Y-75661904D01*
X144393571Y-75661904D02*
X144488809Y-75614285D01*
X144488809Y-75614285D02*
X144726904Y-75614285D01*
X144726904Y-75614285D02*
X144822142Y-75661904D01*
X144822142Y-75661904D02*
X144869761Y-75709523D01*
X144869761Y-75709523D02*
X144917380Y-75804761D01*
X144917380Y-75804761D02*
X144917380Y-76042856D01*
X144917380Y-76042856D02*
X144869761Y-76138094D01*
X144869761Y-76138094D02*
X144822142Y-76185713D01*
%TO.C,U4*%
X114238095Y-111467380D02*
X114238095Y-112276904D01*
X114238095Y-112276904D02*
X114285714Y-112372142D01*
X114285714Y-112372142D02*
X114333333Y-112419761D01*
X114333333Y-112419761D02*
X114428571Y-112467380D01*
X114428571Y-112467380D02*
X114619047Y-112467380D01*
X114619047Y-112467380D02*
X114714285Y-112419761D01*
X114714285Y-112419761D02*
X114761904Y-112372142D01*
X114761904Y-112372142D02*
X114809523Y-112276904D01*
X114809523Y-112276904D02*
X114809523Y-111467380D01*
X115714285Y-111800714D02*
X115714285Y-112467380D01*
X115476190Y-111419761D02*
X115238095Y-112134047D01*
X115238095Y-112134047D02*
X115857142Y-112134047D01*
%TO.C,C1*%
X129733333Y-89672142D02*
X129685714Y-89719761D01*
X129685714Y-89719761D02*
X129542857Y-89767380D01*
X129542857Y-89767380D02*
X129447619Y-89767380D01*
X129447619Y-89767380D02*
X129304762Y-89719761D01*
X129304762Y-89719761D02*
X129209524Y-89624523D01*
X129209524Y-89624523D02*
X129161905Y-89529285D01*
X129161905Y-89529285D02*
X129114286Y-89338809D01*
X129114286Y-89338809D02*
X129114286Y-89195952D01*
X129114286Y-89195952D02*
X129161905Y-89005476D01*
X129161905Y-89005476D02*
X129209524Y-88910238D01*
X129209524Y-88910238D02*
X129304762Y-88815000D01*
X129304762Y-88815000D02*
X129447619Y-88767380D01*
X129447619Y-88767380D02*
X129542857Y-88767380D01*
X129542857Y-88767380D02*
X129685714Y-88815000D01*
X129685714Y-88815000D02*
X129733333Y-88862619D01*
X130685714Y-89767380D02*
X130114286Y-89767380D01*
X130400000Y-89767380D02*
X130400000Y-88767380D01*
X130400000Y-88767380D02*
X130304762Y-88910238D01*
X130304762Y-88910238D02*
X130209524Y-89005476D01*
X130209524Y-89005476D02*
X130114286Y-89053095D01*
%TO.C,C15*%
X111857142Y-126702142D02*
X111809523Y-126749761D01*
X111809523Y-126749761D02*
X111666666Y-126797380D01*
X111666666Y-126797380D02*
X111571428Y-126797380D01*
X111571428Y-126797380D02*
X111428571Y-126749761D01*
X111428571Y-126749761D02*
X111333333Y-126654523D01*
X111333333Y-126654523D02*
X111285714Y-126559285D01*
X111285714Y-126559285D02*
X111238095Y-126368809D01*
X111238095Y-126368809D02*
X111238095Y-126225952D01*
X111238095Y-126225952D02*
X111285714Y-126035476D01*
X111285714Y-126035476D02*
X111333333Y-125940238D01*
X111333333Y-125940238D02*
X111428571Y-125845000D01*
X111428571Y-125845000D02*
X111571428Y-125797380D01*
X111571428Y-125797380D02*
X111666666Y-125797380D01*
X111666666Y-125797380D02*
X111809523Y-125845000D01*
X111809523Y-125845000D02*
X111857142Y-125892619D01*
X112809523Y-126797380D02*
X112238095Y-126797380D01*
X112523809Y-126797380D02*
X112523809Y-125797380D01*
X112523809Y-125797380D02*
X112428571Y-125940238D01*
X112428571Y-125940238D02*
X112333333Y-126035476D01*
X112333333Y-126035476D02*
X112238095Y-126083095D01*
X113714285Y-125797380D02*
X113238095Y-125797380D01*
X113238095Y-125797380D02*
X113190476Y-126273571D01*
X113190476Y-126273571D02*
X113238095Y-126225952D01*
X113238095Y-126225952D02*
X113333333Y-126178333D01*
X113333333Y-126178333D02*
X113571428Y-126178333D01*
X113571428Y-126178333D02*
X113666666Y-126225952D01*
X113666666Y-126225952D02*
X113714285Y-126273571D01*
X113714285Y-126273571D02*
X113761904Y-126368809D01*
X113761904Y-126368809D02*
X113761904Y-126606904D01*
X113761904Y-126606904D02*
X113714285Y-126702142D01*
X113714285Y-126702142D02*
X113666666Y-126749761D01*
X113666666Y-126749761D02*
X113571428Y-126797380D01*
X113571428Y-126797380D02*
X113333333Y-126797380D01*
X113333333Y-126797380D02*
X113238095Y-126749761D01*
X113238095Y-126749761D02*
X113190476Y-126702142D01*
%TO.C,R8*%
X103717380Y-75079166D02*
X103241190Y-75412499D01*
X103717380Y-75650594D02*
X102717380Y-75650594D01*
X102717380Y-75650594D02*
X102717380Y-75269642D01*
X102717380Y-75269642D02*
X102765000Y-75174404D01*
X102765000Y-75174404D02*
X102812619Y-75126785D01*
X102812619Y-75126785D02*
X102907857Y-75079166D01*
X102907857Y-75079166D02*
X103050714Y-75079166D01*
X103050714Y-75079166D02*
X103145952Y-75126785D01*
X103145952Y-75126785D02*
X103193571Y-75174404D01*
X103193571Y-75174404D02*
X103241190Y-75269642D01*
X103241190Y-75269642D02*
X103241190Y-75650594D01*
X103145952Y-74507737D02*
X103098333Y-74602975D01*
X103098333Y-74602975D02*
X103050714Y-74650594D01*
X103050714Y-74650594D02*
X102955476Y-74698213D01*
X102955476Y-74698213D02*
X102907857Y-74698213D01*
X102907857Y-74698213D02*
X102812619Y-74650594D01*
X102812619Y-74650594D02*
X102765000Y-74602975D01*
X102765000Y-74602975D02*
X102717380Y-74507737D01*
X102717380Y-74507737D02*
X102717380Y-74317261D01*
X102717380Y-74317261D02*
X102765000Y-74222023D01*
X102765000Y-74222023D02*
X102812619Y-74174404D01*
X102812619Y-74174404D02*
X102907857Y-74126785D01*
X102907857Y-74126785D02*
X102955476Y-74126785D01*
X102955476Y-74126785D02*
X103050714Y-74174404D01*
X103050714Y-74174404D02*
X103098333Y-74222023D01*
X103098333Y-74222023D02*
X103145952Y-74317261D01*
X103145952Y-74317261D02*
X103145952Y-74507737D01*
X103145952Y-74507737D02*
X103193571Y-74602975D01*
X103193571Y-74602975D02*
X103241190Y-74650594D01*
X103241190Y-74650594D02*
X103336428Y-74698213D01*
X103336428Y-74698213D02*
X103526904Y-74698213D01*
X103526904Y-74698213D02*
X103622142Y-74650594D01*
X103622142Y-74650594D02*
X103669761Y-74602975D01*
X103669761Y-74602975D02*
X103717380Y-74507737D01*
X103717380Y-74507737D02*
X103717380Y-74317261D01*
X103717380Y-74317261D02*
X103669761Y-74222023D01*
X103669761Y-74222023D02*
X103622142Y-74174404D01*
X103622142Y-74174404D02*
X103526904Y-74126785D01*
X103526904Y-74126785D02*
X103336428Y-74126785D01*
X103336428Y-74126785D02*
X103241190Y-74174404D01*
X103241190Y-74174404D02*
X103193571Y-74222023D01*
X103193571Y-74222023D02*
X103145952Y-74317261D01*
%TO.C,R1*%
X164895833Y-104367380D02*
X164562500Y-103891190D01*
X164324405Y-104367380D02*
X164324405Y-103367380D01*
X164324405Y-103367380D02*
X164705357Y-103367380D01*
X164705357Y-103367380D02*
X164800595Y-103415000D01*
X164800595Y-103415000D02*
X164848214Y-103462619D01*
X164848214Y-103462619D02*
X164895833Y-103557857D01*
X164895833Y-103557857D02*
X164895833Y-103700714D01*
X164895833Y-103700714D02*
X164848214Y-103795952D01*
X164848214Y-103795952D02*
X164800595Y-103843571D01*
X164800595Y-103843571D02*
X164705357Y-103891190D01*
X164705357Y-103891190D02*
X164324405Y-103891190D01*
X165848214Y-104367380D02*
X165276786Y-104367380D01*
X165562500Y-104367380D02*
X165562500Y-103367380D01*
X165562500Y-103367380D02*
X165467262Y-103510238D01*
X165467262Y-103510238D02*
X165372024Y-103605476D01*
X165372024Y-103605476D02*
X165276786Y-103653095D01*
%TO.C,C13*%
X111842142Y-122142857D02*
X111889761Y-122190476D01*
X111889761Y-122190476D02*
X111937380Y-122333333D01*
X111937380Y-122333333D02*
X111937380Y-122428571D01*
X111937380Y-122428571D02*
X111889761Y-122571428D01*
X111889761Y-122571428D02*
X111794523Y-122666666D01*
X111794523Y-122666666D02*
X111699285Y-122714285D01*
X111699285Y-122714285D02*
X111508809Y-122761904D01*
X111508809Y-122761904D02*
X111365952Y-122761904D01*
X111365952Y-122761904D02*
X111175476Y-122714285D01*
X111175476Y-122714285D02*
X111080238Y-122666666D01*
X111080238Y-122666666D02*
X110985000Y-122571428D01*
X110985000Y-122571428D02*
X110937380Y-122428571D01*
X110937380Y-122428571D02*
X110937380Y-122333333D01*
X110937380Y-122333333D02*
X110985000Y-122190476D01*
X110985000Y-122190476D02*
X111032619Y-122142857D01*
X111937380Y-121190476D02*
X111937380Y-121761904D01*
X111937380Y-121476190D02*
X110937380Y-121476190D01*
X110937380Y-121476190D02*
X111080238Y-121571428D01*
X111080238Y-121571428D02*
X111175476Y-121666666D01*
X111175476Y-121666666D02*
X111223095Y-121761904D01*
X110937380Y-120857142D02*
X110937380Y-120238095D01*
X110937380Y-120238095D02*
X111318333Y-120571428D01*
X111318333Y-120571428D02*
X111318333Y-120428571D01*
X111318333Y-120428571D02*
X111365952Y-120333333D01*
X111365952Y-120333333D02*
X111413571Y-120285714D01*
X111413571Y-120285714D02*
X111508809Y-120238095D01*
X111508809Y-120238095D02*
X111746904Y-120238095D01*
X111746904Y-120238095D02*
X111842142Y-120285714D01*
X111842142Y-120285714D02*
X111889761Y-120333333D01*
X111889761Y-120333333D02*
X111937380Y-120428571D01*
X111937380Y-120428571D02*
X111937380Y-120714285D01*
X111937380Y-120714285D02*
X111889761Y-120809523D01*
X111889761Y-120809523D02*
X111842142Y-120857142D01*
%TO.C,R3*%
X160333333Y-81167380D02*
X160000000Y-80691190D01*
X159761905Y-81167380D02*
X159761905Y-80167380D01*
X159761905Y-80167380D02*
X160142857Y-80167380D01*
X160142857Y-80167380D02*
X160238095Y-80215000D01*
X160238095Y-80215000D02*
X160285714Y-80262619D01*
X160285714Y-80262619D02*
X160333333Y-80357857D01*
X160333333Y-80357857D02*
X160333333Y-80500714D01*
X160333333Y-80500714D02*
X160285714Y-80595952D01*
X160285714Y-80595952D02*
X160238095Y-80643571D01*
X160238095Y-80643571D02*
X160142857Y-80691190D01*
X160142857Y-80691190D02*
X159761905Y-80691190D01*
X160666667Y-80167380D02*
X161285714Y-80167380D01*
X161285714Y-80167380D02*
X160952381Y-80548333D01*
X160952381Y-80548333D02*
X161095238Y-80548333D01*
X161095238Y-80548333D02*
X161190476Y-80595952D01*
X161190476Y-80595952D02*
X161238095Y-80643571D01*
X161238095Y-80643571D02*
X161285714Y-80738809D01*
X161285714Y-80738809D02*
X161285714Y-80976904D01*
X161285714Y-80976904D02*
X161238095Y-81072142D01*
X161238095Y-81072142D02*
X161190476Y-81119761D01*
X161190476Y-81119761D02*
X161095238Y-81167380D01*
X161095238Y-81167380D02*
X160809524Y-81167380D01*
X160809524Y-81167380D02*
X160714286Y-81119761D01*
X160714286Y-81119761D02*
X160666667Y-81072142D01*
%TO.C,U5*%
X115238095Y-126867380D02*
X115238095Y-127676904D01*
X115238095Y-127676904D02*
X115285714Y-127772142D01*
X115285714Y-127772142D02*
X115333333Y-127819761D01*
X115333333Y-127819761D02*
X115428571Y-127867380D01*
X115428571Y-127867380D02*
X115619047Y-127867380D01*
X115619047Y-127867380D02*
X115714285Y-127819761D01*
X115714285Y-127819761D02*
X115761904Y-127772142D01*
X115761904Y-127772142D02*
X115809523Y-127676904D01*
X115809523Y-127676904D02*
X115809523Y-126867380D01*
X116761904Y-126867380D02*
X116285714Y-126867380D01*
X116285714Y-126867380D02*
X116238095Y-127343571D01*
X116238095Y-127343571D02*
X116285714Y-127295952D01*
X116285714Y-127295952D02*
X116380952Y-127248333D01*
X116380952Y-127248333D02*
X116619047Y-127248333D01*
X116619047Y-127248333D02*
X116714285Y-127295952D01*
X116714285Y-127295952D02*
X116761904Y-127343571D01*
X116761904Y-127343571D02*
X116809523Y-127438809D01*
X116809523Y-127438809D02*
X116809523Y-127676904D01*
X116809523Y-127676904D02*
X116761904Y-127772142D01*
X116761904Y-127772142D02*
X116714285Y-127819761D01*
X116714285Y-127819761D02*
X116619047Y-127867380D01*
X116619047Y-127867380D02*
X116380952Y-127867380D01*
X116380952Y-127867380D02*
X116285714Y-127819761D01*
X116285714Y-127819761D02*
X116238095Y-127772142D01*
%TO.C,R11*%
X103217380Y-58642857D02*
X102741190Y-58976190D01*
X103217380Y-59214285D02*
X102217380Y-59214285D01*
X102217380Y-59214285D02*
X102217380Y-58833333D01*
X102217380Y-58833333D02*
X102265000Y-58738095D01*
X102265000Y-58738095D02*
X102312619Y-58690476D01*
X102312619Y-58690476D02*
X102407857Y-58642857D01*
X102407857Y-58642857D02*
X102550714Y-58642857D01*
X102550714Y-58642857D02*
X102645952Y-58690476D01*
X102645952Y-58690476D02*
X102693571Y-58738095D01*
X102693571Y-58738095D02*
X102741190Y-58833333D01*
X102741190Y-58833333D02*
X102741190Y-59214285D01*
X103217380Y-57690476D02*
X103217380Y-58261904D01*
X103217380Y-57976190D02*
X102217380Y-57976190D01*
X102217380Y-57976190D02*
X102360238Y-58071428D01*
X102360238Y-58071428D02*
X102455476Y-58166666D01*
X102455476Y-58166666D02*
X102503095Y-58261904D01*
X103217380Y-56738095D02*
X103217380Y-57309523D01*
X103217380Y-57023809D02*
X102217380Y-57023809D01*
X102217380Y-57023809D02*
X102360238Y-57119047D01*
X102360238Y-57119047D02*
X102455476Y-57214285D01*
X102455476Y-57214285D02*
X102503095Y-57309523D01*
%TO.C,H2*%
X188438095Y-57167380D02*
X188438095Y-56167380D01*
X188438095Y-56643571D02*
X189009523Y-56643571D01*
X189009523Y-57167380D02*
X189009523Y-56167380D01*
X189438095Y-56262619D02*
X189485714Y-56215000D01*
X189485714Y-56215000D02*
X189580952Y-56167380D01*
X189580952Y-56167380D02*
X189819047Y-56167380D01*
X189819047Y-56167380D02*
X189914285Y-56215000D01*
X189914285Y-56215000D02*
X189961904Y-56262619D01*
X189961904Y-56262619D02*
X190009523Y-56357857D01*
X190009523Y-56357857D02*
X190009523Y-56453095D01*
X190009523Y-56453095D02*
X189961904Y-56595952D01*
X189961904Y-56595952D02*
X189390476Y-57167380D01*
X189390476Y-57167380D02*
X190009523Y-57167380D01*
%TO.C,C9*%
X127033333Y-115972142D02*
X126985714Y-116019761D01*
X126985714Y-116019761D02*
X126842857Y-116067380D01*
X126842857Y-116067380D02*
X126747619Y-116067380D01*
X126747619Y-116067380D02*
X126604762Y-116019761D01*
X126604762Y-116019761D02*
X126509524Y-115924523D01*
X126509524Y-115924523D02*
X126461905Y-115829285D01*
X126461905Y-115829285D02*
X126414286Y-115638809D01*
X126414286Y-115638809D02*
X126414286Y-115495952D01*
X126414286Y-115495952D02*
X126461905Y-115305476D01*
X126461905Y-115305476D02*
X126509524Y-115210238D01*
X126509524Y-115210238D02*
X126604762Y-115115000D01*
X126604762Y-115115000D02*
X126747619Y-115067380D01*
X126747619Y-115067380D02*
X126842857Y-115067380D01*
X126842857Y-115067380D02*
X126985714Y-115115000D01*
X126985714Y-115115000D02*
X127033333Y-115162619D01*
X127509524Y-116067380D02*
X127700000Y-116067380D01*
X127700000Y-116067380D02*
X127795238Y-116019761D01*
X127795238Y-116019761D02*
X127842857Y-115972142D01*
X127842857Y-115972142D02*
X127938095Y-115829285D01*
X127938095Y-115829285D02*
X127985714Y-115638809D01*
X127985714Y-115638809D02*
X127985714Y-115257857D01*
X127985714Y-115257857D02*
X127938095Y-115162619D01*
X127938095Y-115162619D02*
X127890476Y-115115000D01*
X127890476Y-115115000D02*
X127795238Y-115067380D01*
X127795238Y-115067380D02*
X127604762Y-115067380D01*
X127604762Y-115067380D02*
X127509524Y-115115000D01*
X127509524Y-115115000D02*
X127461905Y-115162619D01*
X127461905Y-115162619D02*
X127414286Y-115257857D01*
X127414286Y-115257857D02*
X127414286Y-115495952D01*
X127414286Y-115495952D02*
X127461905Y-115591190D01*
X127461905Y-115591190D02*
X127509524Y-115638809D01*
X127509524Y-115638809D02*
X127604762Y-115686428D01*
X127604762Y-115686428D02*
X127795238Y-115686428D01*
X127795238Y-115686428D02*
X127890476Y-115638809D01*
X127890476Y-115638809D02*
X127938095Y-115591190D01*
X127938095Y-115591190D02*
X127985714Y-115495952D01*
%TO.C,R10*%
X138717380Y-74642857D02*
X138241190Y-74976190D01*
X138717380Y-75214285D02*
X137717380Y-75214285D01*
X137717380Y-75214285D02*
X137717380Y-74833333D01*
X137717380Y-74833333D02*
X137765000Y-74738095D01*
X137765000Y-74738095D02*
X137812619Y-74690476D01*
X137812619Y-74690476D02*
X137907857Y-74642857D01*
X137907857Y-74642857D02*
X138050714Y-74642857D01*
X138050714Y-74642857D02*
X138145952Y-74690476D01*
X138145952Y-74690476D02*
X138193571Y-74738095D01*
X138193571Y-74738095D02*
X138241190Y-74833333D01*
X138241190Y-74833333D02*
X138241190Y-75214285D01*
X138717380Y-73690476D02*
X138717380Y-74261904D01*
X138717380Y-73976190D02*
X137717380Y-73976190D01*
X137717380Y-73976190D02*
X137860238Y-74071428D01*
X137860238Y-74071428D02*
X137955476Y-74166666D01*
X137955476Y-74166666D02*
X138003095Y-74261904D01*
X137717380Y-73071428D02*
X137717380Y-72976190D01*
X137717380Y-72976190D02*
X137765000Y-72880952D01*
X137765000Y-72880952D02*
X137812619Y-72833333D01*
X137812619Y-72833333D02*
X137907857Y-72785714D01*
X137907857Y-72785714D02*
X138098333Y-72738095D01*
X138098333Y-72738095D02*
X138336428Y-72738095D01*
X138336428Y-72738095D02*
X138526904Y-72785714D01*
X138526904Y-72785714D02*
X138622142Y-72833333D01*
X138622142Y-72833333D02*
X138669761Y-72880952D01*
X138669761Y-72880952D02*
X138717380Y-72976190D01*
X138717380Y-72976190D02*
X138717380Y-73071428D01*
X138717380Y-73071428D02*
X138669761Y-73166666D01*
X138669761Y-73166666D02*
X138622142Y-73214285D01*
X138622142Y-73214285D02*
X138526904Y-73261904D01*
X138526904Y-73261904D02*
X138336428Y-73309523D01*
X138336428Y-73309523D02*
X138098333Y-73309523D01*
X138098333Y-73309523D02*
X137907857Y-73261904D01*
X137907857Y-73261904D02*
X137812619Y-73214285D01*
X137812619Y-73214285D02*
X137765000Y-73166666D01*
X137765000Y-73166666D02*
X137717380Y-73071428D01*
%TO.C,J2*%
X102166666Y-108367380D02*
X102166666Y-109081666D01*
X102166666Y-109081666D02*
X102119047Y-109224523D01*
X102119047Y-109224523D02*
X102023809Y-109319761D01*
X102023809Y-109319761D02*
X101880952Y-109367380D01*
X101880952Y-109367380D02*
X101785714Y-109367380D01*
X102595238Y-108462619D02*
X102642857Y-108415000D01*
X102642857Y-108415000D02*
X102738095Y-108367380D01*
X102738095Y-108367380D02*
X102976190Y-108367380D01*
X102976190Y-108367380D02*
X103071428Y-108415000D01*
X103071428Y-108415000D02*
X103119047Y-108462619D01*
X103119047Y-108462619D02*
X103166666Y-108557857D01*
X103166666Y-108557857D02*
X103166666Y-108653095D01*
X103166666Y-108653095D02*
X103119047Y-108795952D01*
X103119047Y-108795952D02*
X102547619Y-109367380D01*
X102547619Y-109367380D02*
X103166666Y-109367380D01*
%TO.C,R6*%
X149217380Y-89166666D02*
X148741190Y-89499999D01*
X149217380Y-89738094D02*
X148217380Y-89738094D01*
X148217380Y-89738094D02*
X148217380Y-89357142D01*
X148217380Y-89357142D02*
X148265000Y-89261904D01*
X148265000Y-89261904D02*
X148312619Y-89214285D01*
X148312619Y-89214285D02*
X148407857Y-89166666D01*
X148407857Y-89166666D02*
X148550714Y-89166666D01*
X148550714Y-89166666D02*
X148645952Y-89214285D01*
X148645952Y-89214285D02*
X148693571Y-89261904D01*
X148693571Y-89261904D02*
X148741190Y-89357142D01*
X148741190Y-89357142D02*
X148741190Y-89738094D01*
X148217380Y-88309523D02*
X148217380Y-88499999D01*
X148217380Y-88499999D02*
X148265000Y-88595237D01*
X148265000Y-88595237D02*
X148312619Y-88642856D01*
X148312619Y-88642856D02*
X148455476Y-88738094D01*
X148455476Y-88738094D02*
X148645952Y-88785713D01*
X148645952Y-88785713D02*
X149026904Y-88785713D01*
X149026904Y-88785713D02*
X149122142Y-88738094D01*
X149122142Y-88738094D02*
X149169761Y-88690475D01*
X149169761Y-88690475D02*
X149217380Y-88595237D01*
X149217380Y-88595237D02*
X149217380Y-88404761D01*
X149217380Y-88404761D02*
X149169761Y-88309523D01*
X149169761Y-88309523D02*
X149122142Y-88261904D01*
X149122142Y-88261904D02*
X149026904Y-88214285D01*
X149026904Y-88214285D02*
X148788809Y-88214285D01*
X148788809Y-88214285D02*
X148693571Y-88261904D01*
X148693571Y-88261904D02*
X148645952Y-88309523D01*
X148645952Y-88309523D02*
X148598333Y-88404761D01*
X148598333Y-88404761D02*
X148598333Y-88595237D01*
X148598333Y-88595237D02*
X148645952Y-88690475D01*
X148645952Y-88690475D02*
X148693571Y-88738094D01*
X148693571Y-88738094D02*
X148788809Y-88785713D01*
%TO.C,R17*%
X106532142Y-131797380D02*
X106198809Y-131321190D01*
X105960714Y-131797380D02*
X105960714Y-130797380D01*
X105960714Y-130797380D02*
X106341666Y-130797380D01*
X106341666Y-130797380D02*
X106436904Y-130845000D01*
X106436904Y-130845000D02*
X106484523Y-130892619D01*
X106484523Y-130892619D02*
X106532142Y-130987857D01*
X106532142Y-130987857D02*
X106532142Y-131130714D01*
X106532142Y-131130714D02*
X106484523Y-131225952D01*
X106484523Y-131225952D02*
X106436904Y-131273571D01*
X106436904Y-131273571D02*
X106341666Y-131321190D01*
X106341666Y-131321190D02*
X105960714Y-131321190D01*
X107484523Y-131797380D02*
X106913095Y-131797380D01*
X107198809Y-131797380D02*
X107198809Y-130797380D01*
X107198809Y-130797380D02*
X107103571Y-130940238D01*
X107103571Y-130940238D02*
X107008333Y-131035476D01*
X107008333Y-131035476D02*
X106913095Y-131083095D01*
X107817857Y-130797380D02*
X108484523Y-130797380D01*
X108484523Y-130797380D02*
X108055952Y-131797380D01*
%TO.C,S3*%
X125476095Y-133009761D02*
X125618952Y-133057380D01*
X125618952Y-133057380D02*
X125857047Y-133057380D01*
X125857047Y-133057380D02*
X125952285Y-133009761D01*
X125952285Y-133009761D02*
X125999904Y-132962142D01*
X125999904Y-132962142D02*
X126047523Y-132866904D01*
X126047523Y-132866904D02*
X126047523Y-132771666D01*
X126047523Y-132771666D02*
X125999904Y-132676428D01*
X125999904Y-132676428D02*
X125952285Y-132628809D01*
X125952285Y-132628809D02*
X125857047Y-132581190D01*
X125857047Y-132581190D02*
X125666571Y-132533571D01*
X125666571Y-132533571D02*
X125571333Y-132485952D01*
X125571333Y-132485952D02*
X125523714Y-132438333D01*
X125523714Y-132438333D02*
X125476095Y-132343095D01*
X125476095Y-132343095D02*
X125476095Y-132247857D01*
X125476095Y-132247857D02*
X125523714Y-132152619D01*
X125523714Y-132152619D02*
X125571333Y-132105000D01*
X125571333Y-132105000D02*
X125666571Y-132057380D01*
X125666571Y-132057380D02*
X125904666Y-132057380D01*
X125904666Y-132057380D02*
X126047523Y-132105000D01*
X126380857Y-132057380D02*
X126999904Y-132057380D01*
X126999904Y-132057380D02*
X126666571Y-132438333D01*
X126666571Y-132438333D02*
X126809428Y-132438333D01*
X126809428Y-132438333D02*
X126904666Y-132485952D01*
X126904666Y-132485952D02*
X126952285Y-132533571D01*
X126952285Y-132533571D02*
X126999904Y-132628809D01*
X126999904Y-132628809D02*
X126999904Y-132866904D01*
X126999904Y-132866904D02*
X126952285Y-132962142D01*
X126952285Y-132962142D02*
X126904666Y-133009761D01*
X126904666Y-133009761D02*
X126809428Y-133057380D01*
X126809428Y-133057380D02*
X126523714Y-133057380D01*
X126523714Y-133057380D02*
X126428476Y-133009761D01*
X126428476Y-133009761D02*
X126380857Y-132962142D01*
%TO.C,C6*%
X126933333Y-117472142D02*
X126885714Y-117519761D01*
X126885714Y-117519761D02*
X126742857Y-117567380D01*
X126742857Y-117567380D02*
X126647619Y-117567380D01*
X126647619Y-117567380D02*
X126504762Y-117519761D01*
X126504762Y-117519761D02*
X126409524Y-117424523D01*
X126409524Y-117424523D02*
X126361905Y-117329285D01*
X126361905Y-117329285D02*
X126314286Y-117138809D01*
X126314286Y-117138809D02*
X126314286Y-116995952D01*
X126314286Y-116995952D02*
X126361905Y-116805476D01*
X126361905Y-116805476D02*
X126409524Y-116710238D01*
X126409524Y-116710238D02*
X126504762Y-116615000D01*
X126504762Y-116615000D02*
X126647619Y-116567380D01*
X126647619Y-116567380D02*
X126742857Y-116567380D01*
X126742857Y-116567380D02*
X126885714Y-116615000D01*
X126885714Y-116615000D02*
X126933333Y-116662619D01*
X127790476Y-116567380D02*
X127600000Y-116567380D01*
X127600000Y-116567380D02*
X127504762Y-116615000D01*
X127504762Y-116615000D02*
X127457143Y-116662619D01*
X127457143Y-116662619D02*
X127361905Y-116805476D01*
X127361905Y-116805476D02*
X127314286Y-116995952D01*
X127314286Y-116995952D02*
X127314286Y-117376904D01*
X127314286Y-117376904D02*
X127361905Y-117472142D01*
X127361905Y-117472142D02*
X127409524Y-117519761D01*
X127409524Y-117519761D02*
X127504762Y-117567380D01*
X127504762Y-117567380D02*
X127695238Y-117567380D01*
X127695238Y-117567380D02*
X127790476Y-117519761D01*
X127790476Y-117519761D02*
X127838095Y-117472142D01*
X127838095Y-117472142D02*
X127885714Y-117376904D01*
X127885714Y-117376904D02*
X127885714Y-117138809D01*
X127885714Y-117138809D02*
X127838095Y-117043571D01*
X127838095Y-117043571D02*
X127790476Y-116995952D01*
X127790476Y-116995952D02*
X127695238Y-116948333D01*
X127695238Y-116948333D02*
X127504762Y-116948333D01*
X127504762Y-116948333D02*
X127409524Y-116995952D01*
X127409524Y-116995952D02*
X127361905Y-117043571D01*
X127361905Y-117043571D02*
X127314286Y-117138809D01*
%TO.C,C4*%
X136072142Y-124811666D02*
X136119761Y-124859285D01*
X136119761Y-124859285D02*
X136167380Y-125002142D01*
X136167380Y-125002142D02*
X136167380Y-125097380D01*
X136167380Y-125097380D02*
X136119761Y-125240237D01*
X136119761Y-125240237D02*
X136024523Y-125335475D01*
X136024523Y-125335475D02*
X135929285Y-125383094D01*
X135929285Y-125383094D02*
X135738809Y-125430713D01*
X135738809Y-125430713D02*
X135595952Y-125430713D01*
X135595952Y-125430713D02*
X135405476Y-125383094D01*
X135405476Y-125383094D02*
X135310238Y-125335475D01*
X135310238Y-125335475D02*
X135215000Y-125240237D01*
X135215000Y-125240237D02*
X135167380Y-125097380D01*
X135167380Y-125097380D02*
X135167380Y-125002142D01*
X135167380Y-125002142D02*
X135215000Y-124859285D01*
X135215000Y-124859285D02*
X135262619Y-124811666D01*
X135500714Y-123954523D02*
X136167380Y-123954523D01*
X135119761Y-124192618D02*
X135834047Y-124430713D01*
X135834047Y-124430713D02*
X135834047Y-123811666D01*
%TO.C,R2*%
X168983333Y-125367380D02*
X168650000Y-124891190D01*
X168411905Y-125367380D02*
X168411905Y-124367380D01*
X168411905Y-124367380D02*
X168792857Y-124367380D01*
X168792857Y-124367380D02*
X168888095Y-124415000D01*
X168888095Y-124415000D02*
X168935714Y-124462619D01*
X168935714Y-124462619D02*
X168983333Y-124557857D01*
X168983333Y-124557857D02*
X168983333Y-124700714D01*
X168983333Y-124700714D02*
X168935714Y-124795952D01*
X168935714Y-124795952D02*
X168888095Y-124843571D01*
X168888095Y-124843571D02*
X168792857Y-124891190D01*
X168792857Y-124891190D02*
X168411905Y-124891190D01*
X169364286Y-124462619D02*
X169411905Y-124415000D01*
X169411905Y-124415000D02*
X169507143Y-124367380D01*
X169507143Y-124367380D02*
X169745238Y-124367380D01*
X169745238Y-124367380D02*
X169840476Y-124415000D01*
X169840476Y-124415000D02*
X169888095Y-124462619D01*
X169888095Y-124462619D02*
X169935714Y-124557857D01*
X169935714Y-124557857D02*
X169935714Y-124653095D01*
X169935714Y-124653095D02*
X169888095Y-124795952D01*
X169888095Y-124795952D02*
X169316667Y-125367380D01*
X169316667Y-125367380D02*
X169935714Y-125367380D01*
%TO.C,R9*%
X104217380Y-82416666D02*
X103741190Y-82749999D01*
X104217380Y-82988094D02*
X103217380Y-82988094D01*
X103217380Y-82988094D02*
X103217380Y-82607142D01*
X103217380Y-82607142D02*
X103265000Y-82511904D01*
X103265000Y-82511904D02*
X103312619Y-82464285D01*
X103312619Y-82464285D02*
X103407857Y-82416666D01*
X103407857Y-82416666D02*
X103550714Y-82416666D01*
X103550714Y-82416666D02*
X103645952Y-82464285D01*
X103645952Y-82464285D02*
X103693571Y-82511904D01*
X103693571Y-82511904D02*
X103741190Y-82607142D01*
X103741190Y-82607142D02*
X103741190Y-82988094D01*
X104217380Y-81940475D02*
X104217380Y-81749999D01*
X104217380Y-81749999D02*
X104169761Y-81654761D01*
X104169761Y-81654761D02*
X104122142Y-81607142D01*
X104122142Y-81607142D02*
X103979285Y-81511904D01*
X103979285Y-81511904D02*
X103788809Y-81464285D01*
X103788809Y-81464285D02*
X103407857Y-81464285D01*
X103407857Y-81464285D02*
X103312619Y-81511904D01*
X103312619Y-81511904D02*
X103265000Y-81559523D01*
X103265000Y-81559523D02*
X103217380Y-81654761D01*
X103217380Y-81654761D02*
X103217380Y-81845237D01*
X103217380Y-81845237D02*
X103265000Y-81940475D01*
X103265000Y-81940475D02*
X103312619Y-81988094D01*
X103312619Y-81988094D02*
X103407857Y-82035713D01*
X103407857Y-82035713D02*
X103645952Y-82035713D01*
X103645952Y-82035713D02*
X103741190Y-81988094D01*
X103741190Y-81988094D02*
X103788809Y-81940475D01*
X103788809Y-81940475D02*
X103836428Y-81845237D01*
X103836428Y-81845237D02*
X103836428Y-81654761D01*
X103836428Y-81654761D02*
X103788809Y-81559523D01*
X103788809Y-81559523D02*
X103741190Y-81511904D01*
X103741190Y-81511904D02*
X103645952Y-81464285D01*
%TO.C,H1*%
X103238095Y-49367380D02*
X103238095Y-48367380D01*
X103238095Y-48843571D02*
X103809523Y-48843571D01*
X103809523Y-49367380D02*
X103809523Y-48367380D01*
X104809523Y-49367380D02*
X104238095Y-49367380D01*
X104523809Y-49367380D02*
X104523809Y-48367380D01*
X104523809Y-48367380D02*
X104428571Y-48510238D01*
X104428571Y-48510238D02*
X104333333Y-48605476D01*
X104333333Y-48605476D02*
X104238095Y-48653095D01*
D12*
%TO.C,LS1*%
X185600000Y-66500000D02*
G75*
G03*
X185600000Y-66500000I-6100000J0D01*
G01*
%TO.C,R14*%
X109262742Y-114977500D02*
X109737258Y-114977500D01*
X109262742Y-116022500D02*
X109737258Y-116022500D01*
%TO.C,R13*%
X127412258Y-141522500D02*
X126937742Y-141522500D01*
X127412258Y-140477500D02*
X126937742Y-140477500D01*
%TO.C,D3*%
X107752500Y-99540000D02*
X107752500Y-101460000D01*
X107752500Y-101460000D02*
X110437500Y-101460000D01*
X110437500Y-99540000D02*
X107752500Y-99540000D01*
%TO.C,R12*%
X104265000Y-68477064D02*
X104265000Y-68022936D01*
X105735000Y-68477064D02*
X105735000Y-68022936D01*
%TO.C,D1*%
X154377500Y-81540000D02*
X154377500Y-83460000D01*
X154377500Y-83460000D02*
X157062500Y-83460000D01*
X157062500Y-81540000D02*
X154377500Y-81540000D01*
%TO.C,C2*%
X142990000Y-129140580D02*
X142990000Y-128859420D01*
X144010000Y-129140580D02*
X144010000Y-128859420D01*
%TO.C,C10*%
X135290000Y-107560580D02*
X135290000Y-107279420D01*
X136310000Y-107560580D02*
X136310000Y-107279420D01*
%TO.C,C12*%
X136990000Y-107640580D02*
X136990000Y-107359420D01*
X138010000Y-107640580D02*
X138010000Y-107359420D01*
%TO.C,R4*%
X160699564Y-86140000D02*
X160245436Y-86140000D01*
X160699564Y-84670000D02*
X160245436Y-84670000D01*
D13*
%TO.C,S2*%
X186600000Y-125600000D02*
X186600000Y-125600000D01*
X186600000Y-125500000D02*
X186600000Y-125500000D01*
D14*
X184000000Y-129000000D02*
X172000000Y-129000000D01*
X184000000Y-126600000D02*
X184000000Y-129000000D01*
X184000000Y-126600000D02*
X184000000Y-126600000D01*
X184000000Y-124400000D02*
X184000000Y-121600000D01*
X184000000Y-119400000D02*
X184000000Y-117000000D01*
X184000000Y-117000000D02*
X172000000Y-117000000D01*
X172000000Y-129000000D02*
X172000000Y-126600000D01*
X172000000Y-124400000D02*
X172000000Y-121600000D01*
X172000000Y-117000000D02*
X172000000Y-119400000D01*
D13*
X186600000Y-125500000D02*
G75*
G03*
X186600000Y-125600000I0J-50000D01*
G01*
X186600000Y-125600000D02*
G75*
G03*
X186600000Y-125500000I0J50000D01*
G01*
D12*
%TO.C,R16*%
X113737258Y-101022500D02*
X113262742Y-101022500D01*
X113737258Y-99977500D02*
X113262742Y-99977500D01*
%TO.C,R7*%
X104265000Y-63227064D02*
X104265000Y-62772936D01*
X105735000Y-63227064D02*
X105735000Y-62772936D01*
%TO.C,C8*%
X131111252Y-111335000D02*
X130588748Y-111335000D01*
X131111252Y-109865000D02*
X130588748Y-109865000D01*
D10*
%TO.C,U3*%
X134525000Y-110925000D02*
X134525000Y-111500000D01*
X134525000Y-110925000D02*
X135200000Y-110925000D01*
X134525000Y-111500000D02*
X133250000Y-111500000D01*
X134525000Y-121275000D02*
X134525000Y-120600000D01*
X134525000Y-121275000D02*
X135200000Y-121275000D01*
X144875000Y-110925000D02*
X144200000Y-110925000D01*
X144875000Y-110925000D02*
X144875000Y-111600000D01*
X144875000Y-121275000D02*
X144200000Y-121275000D01*
X144875000Y-121275000D02*
X144875000Y-120600000D01*
D13*
%TO.C,S1*%
X186750000Y-106100000D02*
X186750000Y-106100000D01*
X186750000Y-106000000D02*
X186750000Y-106000000D01*
D14*
X184150000Y-109500000D02*
X172150000Y-109500000D01*
X184150000Y-107100000D02*
X184150000Y-109500000D01*
X184150000Y-107100000D02*
X184150000Y-107100000D01*
X184150000Y-104900000D02*
X184150000Y-102100000D01*
X184150000Y-99900000D02*
X184150000Y-97500000D01*
X184150000Y-97500000D02*
X172150000Y-97500000D01*
X172150000Y-109500000D02*
X172150000Y-107100000D01*
X172150000Y-104900000D02*
X172150000Y-102100000D01*
X172150000Y-97500000D02*
X172150000Y-99900000D01*
D13*
X186750000Y-106000000D02*
G75*
G03*
X186750000Y-106100000I0J-50000D01*
G01*
X186750000Y-106100000D02*
G75*
G03*
X186750000Y-106000000I0J50000D01*
G01*
D12*
%TO.C,C11*%
X144659420Y-107410000D02*
X144940580Y-107410000D01*
X144659420Y-108430000D02*
X144940580Y-108430000D01*
%TO.C,C5*%
X130840580Y-113110000D02*
X130559420Y-113110000D01*
X130840580Y-112090000D02*
X130559420Y-112090000D01*
%TO.C,U2*%
X137000000Y-88235000D02*
X140600000Y-88235000D01*
X137000000Y-88235000D02*
X134800000Y-88235000D01*
X137000000Y-82765000D02*
X139200000Y-82765000D01*
X137000000Y-82765000D02*
X134800000Y-82765000D01*
%TO.C,J3*%
X101590000Y-138080000D02*
X111870000Y-138080000D01*
X101590000Y-138080000D02*
X101590000Y-135480000D01*
X111870000Y-138080000D02*
X111870000Y-132880000D01*
X101590000Y-135480000D02*
X104190000Y-135480000D01*
X104190000Y-135480000D02*
X104190000Y-132880000D01*
X101590000Y-134210000D02*
X101590000Y-132880000D01*
X101590000Y-132880000D02*
X102920000Y-132880000D01*
X104190000Y-132880000D02*
X111870000Y-132880000D01*
%TO.C,C3*%
X134990000Y-129140580D02*
X134990000Y-128859420D01*
X136010000Y-129140580D02*
X136010000Y-128859420D01*
%TO.C,C7*%
X148334420Y-118590000D02*
X148615580Y-118590000D01*
X148334420Y-119610000D02*
X148615580Y-119610000D01*
%TO.C,F1*%
X110613748Y-105790000D02*
X113386252Y-105790000D01*
X110613748Y-109210000D02*
X113386252Y-109210000D01*
%TO.C,J1*%
X131370000Y-122170000D02*
X123630000Y-122170000D01*
X131370000Y-122170000D02*
X131370000Y-124770000D01*
X123630000Y-122170000D02*
X123630000Y-127370000D01*
X131370000Y-124770000D02*
X128770000Y-124770000D01*
X128770000Y-124770000D02*
X128770000Y-127370000D01*
X131370000Y-126040000D02*
X131370000Y-127370000D01*
X131370000Y-127370000D02*
X130040000Y-127370000D01*
X128770000Y-127370000D02*
X123630000Y-127370000D01*
%TO.C,C14*%
X121010000Y-126859420D02*
X121010000Y-127140580D01*
X119990000Y-126859420D02*
X119990000Y-127140580D01*
%TO.C,U1*%
X144850000Y-52142500D02*
X142850000Y-52142500D01*
X162770000Y-52522500D02*
X112230000Y-52522500D01*
X162770000Y-52522500D02*
X162770000Y-71762500D01*
X112230000Y-52522500D02*
X112230000Y-71762500D01*
X112230000Y-71762500D02*
X162770000Y-71762500D01*
%TO.C,D2*%
X154377500Y-84580000D02*
X154377500Y-86500000D01*
X154377500Y-86500000D02*
X157062500Y-86500000D01*
X157062500Y-84580000D02*
X154377500Y-84580000D01*
%TO.C,Y1*%
X141500000Y-130650000D02*
X141500000Y-127350000D01*
X141500000Y-127350000D02*
X137500000Y-127350000D01*
%TO.C,R15*%
X109262742Y-113477500D02*
X109737258Y-113477500D01*
X109262742Y-114522500D02*
X109737258Y-114522500D01*
%TO.C,R5*%
X145465000Y-76627064D02*
X145465000Y-76172936D01*
X146935000Y-76627064D02*
X146935000Y-76172936D01*
%TO.C,U4*%
X115000000Y-112940000D02*
X113200000Y-112940000D01*
X115000000Y-112940000D02*
X115800000Y-112940000D01*
X115000000Y-116060000D02*
X114200000Y-116060000D01*
X115000000Y-116060000D02*
X115800000Y-116060000D01*
%TO.C,C1*%
X131140580Y-88010000D02*
X130859420Y-88010000D01*
X131140580Y-86990000D02*
X130859420Y-86990000D01*
%TO.C,C15*%
X112640580Y-125510000D02*
X112359420Y-125510000D01*
X112640580Y-124490000D02*
X112359420Y-124490000D01*
%TO.C,R8*%
X104265000Y-75139564D02*
X104265000Y-74685436D01*
X105735000Y-75139564D02*
X105735000Y-74685436D01*
%TO.C,R1*%
X165377064Y-106735000D02*
X164922936Y-106735000D01*
X165377064Y-105265000D02*
X164922936Y-105265000D01*
%TO.C,C13*%
X112490000Y-121640580D02*
X112490000Y-121359420D01*
X113510000Y-121640580D02*
X113510000Y-121359420D01*
%TO.C,R3*%
X160699564Y-83190000D02*
X160245436Y-83190000D01*
X160699564Y-81720000D02*
X160245436Y-81720000D01*
%TO.C,U5*%
X117560000Y-124000000D02*
X117560000Y-122200000D01*
X117560000Y-124000000D02*
X117560000Y-124800000D01*
X114440000Y-124000000D02*
X114440000Y-123200000D01*
X114440000Y-124000000D02*
X114440000Y-124800000D01*
%TO.C,R11*%
X103765000Y-58227064D02*
X103765000Y-57772936D01*
X105235000Y-58227064D02*
X105235000Y-57772936D01*
%TO.C,C9*%
X130908910Y-116305791D02*
X130627750Y-116305791D01*
X130908910Y-115285791D02*
X130627750Y-115285791D01*
%TO.C,R10*%
X139265000Y-74227064D02*
X139265000Y-73772936D01*
X140735000Y-74227064D02*
X140735000Y-73772936D01*
%TO.C,J2*%
X100835000Y-111090000D02*
X104065000Y-111090000D01*
X96665000Y-111090000D02*
X98615000Y-111090000D01*
X105985000Y-111810000D02*
X105985000Y-112890000D01*
X105985000Y-112890000D02*
X106415000Y-112890000D01*
X105985000Y-117110000D02*
X105985000Y-118190000D01*
X100835000Y-118910000D02*
X104065000Y-118910000D01*
X96665000Y-118910000D02*
X96665000Y-111090000D01*
X96665000Y-118910000D02*
X98615000Y-118910000D01*
%TO.C,R6*%
X149765000Y-84727064D02*
X149765000Y-84272936D01*
X151235000Y-84727064D02*
X151235000Y-84272936D01*
%TO.C,R17*%
X107412258Y-130522500D02*
X106937742Y-130522500D01*
X107412258Y-129477500D02*
X106937742Y-129477500D01*
D15*
%TO.C,S3*%
X124600000Y-135500000D02*
X124600000Y-137500000D01*
X124900000Y-138300000D02*
X125500000Y-138900000D01*
X125500000Y-134100000D02*
X124900000Y-134700000D01*
X125500000Y-138900000D02*
X128500000Y-138900000D01*
X128500000Y-134100000D02*
X125500000Y-134100000D01*
X128500000Y-134100000D02*
X129100000Y-134700000D01*
X128500000Y-138900000D02*
X129100000Y-138300000D01*
X129400000Y-135500000D02*
X129400000Y-137500000D01*
D14*
X122700000Y-134600000D02*
G75*
G03*
X122700000Y-134600000I-100000J0D01*
G01*
D12*
%TO.C,C6*%
X130940580Y-118010000D02*
X130659420Y-118010000D01*
X130940580Y-116990000D02*
X130659420Y-116990000D01*
%TO.C,C4*%
X137810000Y-124504420D02*
X137810000Y-124785580D01*
X136790000Y-124504420D02*
X136790000Y-124785580D01*
%TO.C,R2*%
X165877064Y-126235000D02*
X165422936Y-126235000D01*
X165877064Y-124765000D02*
X165422936Y-124765000D01*
%TO.C,R9*%
X104765000Y-82477064D02*
X104765000Y-82022936D01*
X106235000Y-82477064D02*
X106235000Y-82022936D01*
%TD*%
M02*
