%TF.GenerationSoftware,KiCad,Pcbnew,(7.0.0)*%
%TF.CreationDate,2023-04-20T13:59:00-06:00*%
%TF.ProjectId,Phase_B_ATMEGA_v3,50686173-655f-4425-9f41-544d4547415f,rev?*%
%TF.SameCoordinates,Original*%
%TF.FileFunction,Copper,L1,Top*%
%TF.FilePolarity,Positive*%
%FSLAX46Y46*%
G04 Gerber Fmt 4.6, Leading zero omitted, Abs format (unit mm)*
G04 Created by KiCad (PCBNEW (7.0.0)) date 2023-04-20 13:59:00*
%MOMM*%
%LPD*%
G01*
G04 APERTURE LIST*
G04 Aperture macros list*
%AMRoundRect*
0 Rectangle with rounded corners*
0 $1 Rounding radius*
0 $2 $3 $4 $5 $6 $7 $8 $9 X,Y pos of 4 corners*
0 Add a 4 corners polygon primitive as box body*
4,1,4,$2,$3,$4,$5,$6,$7,$8,$9,$2,$3,0*
0 Add four circle primitives for the rounded corners*
1,1,$1+$1,$2,$3*
1,1,$1+$1,$4,$5*
1,1,$1+$1,$6,$7*
1,1,$1+$1,$8,$9*
0 Add four rect primitives between the rounded corners*
20,1,$1+$1,$2,$3,$4,$5,0*
20,1,$1+$1,$4,$5,$6,$7,0*
20,1,$1+$1,$6,$7,$8,$9,0*
20,1,$1+$1,$8,$9,$2,$3,0*%
G04 Aperture macros list end*
%TA.AperFunction,ComponentPad*%
%ADD10R,2.000000X2.000000*%
%TD*%
%TA.AperFunction,ComponentPad*%
%ADD11C,2.000000*%
%TD*%
%TA.AperFunction,SMDPad,CuDef*%
%ADD12RoundRect,0.200000X-0.200000X-0.275000X0.200000X-0.275000X0.200000X0.275000X-0.200000X0.275000X0*%
%TD*%
%TA.AperFunction,SMDPad,CuDef*%
%ADD13RoundRect,0.200000X0.200000X0.275000X-0.200000X0.275000X-0.200000X-0.275000X0.200000X-0.275000X0*%
%TD*%
%TA.AperFunction,SMDPad,CuDef*%
%ADD14RoundRect,0.243750X-0.243750X-0.456250X0.243750X-0.456250X0.243750X0.456250X-0.243750X0.456250X0*%
%TD*%
%TA.AperFunction,SMDPad,CuDef*%
%ADD15RoundRect,0.250000X0.450000X-0.262500X0.450000X0.262500X-0.450000X0.262500X-0.450000X-0.262500X0*%
%TD*%
%TA.AperFunction,SMDPad,CuDef*%
%ADD16RoundRect,0.225000X0.250000X-0.225000X0.250000X0.225000X-0.250000X0.225000X-0.250000X-0.225000X0*%
%TD*%
%TA.AperFunction,SMDPad,CuDef*%
%ADD17RoundRect,0.250000X0.262500X0.450000X-0.262500X0.450000X-0.262500X-0.450000X0.262500X-0.450000X0*%
%TD*%
%TA.AperFunction,SMDPad,CuDef*%
%ADD18R,2.000000X1.500000*%
%TD*%
%TA.AperFunction,SMDPad,CuDef*%
%ADD19RoundRect,0.250000X0.250000X0.475000X-0.250000X0.475000X-0.250000X-0.475000X0.250000X-0.475000X0*%
%TD*%
%TA.AperFunction,SMDPad,CuDef*%
%ADD20R,1.500000X0.550000*%
%TD*%
%TA.AperFunction,SMDPad,CuDef*%
%ADD21R,0.550000X1.500000*%
%TD*%
%TA.AperFunction,SMDPad,CuDef*%
%ADD22RoundRect,0.225000X-0.225000X-0.250000X0.225000X-0.250000X0.225000X0.250000X-0.225000X0.250000X0*%
%TD*%
%TA.AperFunction,SMDPad,CuDef*%
%ADD23RoundRect,0.225000X0.225000X0.250000X-0.225000X0.250000X-0.225000X-0.250000X0.225000X-0.250000X0*%
%TD*%
%TA.AperFunction,SMDPad,CuDef*%
%ADD24RoundRect,0.100000X0.637500X0.100000X-0.637500X0.100000X-0.637500X-0.100000X0.637500X-0.100000X0*%
%TD*%
%TA.AperFunction,ComponentPad*%
%ADD25R,1.700000X1.700000*%
%TD*%
%TA.AperFunction,ComponentPad*%
%ADD26O,1.700000X1.700000*%
%TD*%
%TA.AperFunction,SMDPad,CuDef*%
%ADD27RoundRect,0.250000X-0.312500X-1.450000X0.312500X-1.450000X0.312500X1.450000X-0.312500X1.450000X0*%
%TD*%
%TA.AperFunction,SMDPad,CuDef*%
%ADD28RoundRect,0.225000X-0.250000X0.225000X-0.250000X-0.225000X0.250000X-0.225000X0.250000X0.225000X0*%
%TD*%
%TA.AperFunction,ComponentPad*%
%ADD29R,1.500000X1.500000*%
%TD*%
%TA.AperFunction,ComponentPad*%
%ADD30C,1.500000*%
%TD*%
%TA.AperFunction,SMDPad,CuDef*%
%ADD31R,1.400000X1.200000*%
%TD*%
%TA.AperFunction,SMDPad,CuDef*%
%ADD32RoundRect,0.150000X-0.512500X-0.150000X0.512500X-0.150000X0.512500X0.150000X-0.512500X0.150000X0*%
%TD*%
%TA.AperFunction,SMDPad,CuDef*%
%ADD33RoundRect,0.150000X-0.150000X0.512500X-0.150000X-0.512500X0.150000X-0.512500X0.150000X0.512500X0*%
%TD*%
%TA.AperFunction,SMDPad,CuDef*%
%ADD34R,2.000000X0.500000*%
%TD*%
%TA.AperFunction,SMDPad,CuDef*%
%ADD35R,1.700000X2.000000*%
%TD*%
%TA.AperFunction,SMDPad,CuDef*%
%ADD36R,1.000000X0.700000*%
%TD*%
%TA.AperFunction,ViaPad*%
%ADD37C,0.800000*%
%TD*%
%TA.AperFunction,Conductor*%
%ADD38C,0.508000*%
%TD*%
%TA.AperFunction,Conductor*%
%ADD39C,0.304800*%
%TD*%
%TA.AperFunction,Conductor*%
%ADD40C,0.381000*%
%TD*%
%TA.AperFunction,Conductor*%
%ADD41C,0.203200*%
%TD*%
%TA.AperFunction,Conductor*%
%ADD42C,0.250000*%
%TD*%
%TA.AperFunction,Conductor*%
%ADD43C,0.254000*%
%TD*%
%TA.AperFunction,Conductor*%
%ADD44C,0.200000*%
%TD*%
%TA.AperFunction,Profile*%
%ADD45C,0.100000*%
%TD*%
%ADD46C,0.050000*%
%ADD47C,0.100000*%
G04 APERTURE END LIST*
D10*
%TO.P,LS1,1,1*%
%TO.N,Buzzer*%
X183299999Y-66499999D03*
D11*
%TO.P,LS1,2,2*%
%TO.N,GND*%
X175700000Y-66500000D03*
%TD*%
D12*
%TO.P,R14,1*%
%TO.N,Net-(J2-D+)*%
X108675000Y-115500000D03*
%TO.P,R14,2*%
%TO.N,USB_CONN_D+*%
X110325000Y-115500000D03*
%TD*%
D13*
%TO.P,R13,1*%
%TO.N,+5V*%
X128000000Y-141000000D03*
%TO.P,R13,2*%
%TO.N,RST*%
X126350000Y-141000000D03*
%TD*%
D14*
%TO.P,D3,1,K*%
%TO.N,GND*%
X108500000Y-100500000D03*
%TO.P,D3,2,A*%
%TO.N,Net-(D3-A)*%
X110375000Y-100500000D03*
%TD*%
D15*
%TO.P,R12,1*%
%TO.N,dp*%
X105000000Y-69162500D03*
%TO.P,R12,2*%
%TO.N,Net-(U1-DPX)*%
X105000000Y-67337500D03*
%TD*%
D14*
%TO.P,D1,1,K*%
%TO.N,GND*%
X155125000Y-82500000D03*
%TO.P,D1,2,A*%
%TO.N,Net-(D1-A)*%
X157000000Y-82500000D03*
%TD*%
D16*
%TO.P,C2,1*%
%TO.N,GND*%
X143500000Y-129775000D03*
%TO.P,C2,2*%
%TO.N,XTAL1*%
X143500000Y-128225000D03*
%TD*%
%TO.P,C10,1*%
%TO.N,+5V*%
X135800000Y-108195000D03*
%TO.P,C10,2*%
%TO.N,GND*%
X135800000Y-106645000D03*
%TD*%
%TO.P,C12,1*%
%TO.N,/AREF*%
X137500000Y-108275000D03*
%TO.P,C12,2*%
%TO.N,GND*%
X137500000Y-106725000D03*
%TD*%
D17*
%TO.P,R4,1*%
%TO.N,GREEN_LED*%
X161385000Y-85405000D03*
%TO.P,R4,2*%
%TO.N,Net-(D2-A)*%
X159560000Y-85405000D03*
%TD*%
D18*
%TO.P,S2,A1,NO_1*%
%TO.N,unconnected-(S2-NO_1-PadA1)*%
X185149999Y-125499999D03*
%TO.P,S2,B1,NO_2*%
%TO.N,Button_2*%
X170849999Y-125499999D03*
%TO.P,S2,C1,COM_1*%
%TO.N,+5V*%
X185149999Y-120499999D03*
%TO.P,S2,D1,COM_2*%
%TO.N,unconnected-(S2-COM_2-PadD1)*%
X170849999Y-120499999D03*
%TD*%
D13*
%TO.P,R16,1*%
%TO.N,+5V*%
X114325000Y-100500000D03*
%TO.P,R16,2*%
%TO.N,Net-(D3-A)*%
X112675000Y-100500000D03*
%TD*%
D15*
%TO.P,R7,1*%
%TO.N,c*%
X105000000Y-63912500D03*
%TO.P,R7,2*%
%TO.N,Net-(U1-c)*%
X105000000Y-62087500D03*
%TD*%
D19*
%TO.P,C8,1*%
%TO.N,+5V*%
X131800000Y-110600000D03*
%TO.P,C8,2*%
%TO.N,GND*%
X129900000Y-110600000D03*
%TD*%
D20*
%TO.P,U3,1,PE6*%
%TO.N,SH_CP*%
X133999999Y-112099999D03*
%TO.P,U3,2,UVCC*%
%TO.N,+5V*%
X133999999Y-112899999D03*
%TO.P,U3,3,D-*%
%TO.N,USB_D-*%
X133999999Y-113699999D03*
%TO.P,U3,4,D+*%
%TO.N,USB_D+*%
X133999999Y-114499999D03*
%TO.P,U3,5,UGND*%
%TO.N,GND*%
X133999999Y-115299999D03*
%TO.P,U3,6,UCAP*%
%TO.N,/UCAP*%
X133999999Y-116099999D03*
%TO.P,U3,7,VBUS*%
%TO.N,+5V*%
X133999999Y-116899999D03*
%TO.P,U3,8,PB0*%
%TO.N,unconnected-(U3-PB0-Pad8)*%
X133999999Y-117699999D03*
%TO.P,U3,9,PB1*%
%TO.N,SCK*%
X133999999Y-118499999D03*
%TO.P,U3,10,PB2*%
%TO.N,MOSI*%
X133999999Y-119299999D03*
%TO.P,U3,11,PB3*%
%TO.N,MISO*%
X133999999Y-120099999D03*
D21*
%TO.P,U3,12,PB7*%
%TO.N,Dig3*%
X135699999Y-121799999D03*
%TO.P,U3,13,~{RESET}*%
%TO.N,RST*%
X136499999Y-121799999D03*
%TO.P,U3,14,VCC*%
%TO.N,+5V*%
X137299999Y-121799999D03*
%TO.P,U3,15,GND*%
%TO.N,GND*%
X138099999Y-121799999D03*
%TO.P,U3,16,XTAL2*%
%TO.N,XTAL2*%
X138899999Y-121799999D03*
%TO.P,U3,17,XTAL1*%
%TO.N,XTAL1*%
X139699999Y-121799999D03*
%TO.P,U3,18,PD0*%
%TO.N,Button_2*%
X140499999Y-121799999D03*
%TO.P,U3,19,PD1*%
%TO.N,Button_1*%
X141299999Y-121799999D03*
%TO.P,U3,20,PD2*%
%TO.N,TX*%
X142099999Y-121799999D03*
%TO.P,U3,21,PD3*%
%TO.N,RX*%
X142899999Y-121799999D03*
%TO.P,U3,22,PD5*%
%TO.N,unconnected-(U3-PD5-Pad22)*%
X143699999Y-121799999D03*
D20*
%TO.P,U3,23,GND*%
%TO.N,GND*%
X145399999Y-120099999D03*
%TO.P,U3,24,AVCC*%
%TO.N,+5V*%
X145399999Y-119299999D03*
%TO.P,U3,25,PD4*%
%TO.N,GREEN_LED*%
X145399999Y-118499999D03*
%TO.P,U3,26,PD6*%
%TO.N,Dig2*%
X145399999Y-117699999D03*
%TO.P,U3,27,PD7*%
%TO.N,Buzzer*%
X145399999Y-116899999D03*
%TO.P,U3,28,PB4*%
%TO.N,ST_CP*%
X145399999Y-116099999D03*
%TO.P,U3,29,PB5*%
%TO.N,DS*%
X145399999Y-115299999D03*
%TO.P,U3,30,PB6*%
%TO.N,Dig4*%
X145399999Y-114499999D03*
%TO.P,U3,31,PC6*%
%TO.N,RED_LED*%
X145399999Y-113699999D03*
%TO.P,U3,32,PC7*%
%TO.N,Dig1*%
X145399999Y-112899999D03*
%TO.P,U3,33,~{HWB}/PE2*%
%TO.N,GND*%
X145399999Y-112099999D03*
D21*
%TO.P,U3,34,VCC*%
%TO.N,+5V*%
X143699999Y-110399999D03*
%TO.P,U3,35,GND*%
%TO.N,GND*%
X142899999Y-110399999D03*
%TO.P,U3,36,PF7*%
%TO.N,unconnected-(U3-PF7-Pad36)*%
X142099999Y-110399999D03*
%TO.P,U3,37,PF6*%
%TO.N,unconnected-(U3-PF6-Pad37)*%
X141299999Y-110399999D03*
%TO.P,U3,38,PF5*%
%TO.N,unconnected-(U3-PF5-Pad38)*%
X140499999Y-110399999D03*
%TO.P,U3,39,PF4*%
%TO.N,unconnected-(U3-PF4-Pad39)*%
X139699999Y-110399999D03*
%TO.P,U3,40,PF1*%
%TO.N,unconnected-(U3-PF1-Pad40)*%
X138899999Y-110399999D03*
%TO.P,U3,41,PF0*%
%TO.N,unconnected-(U3-PF0-Pad41)*%
X138099999Y-110399999D03*
%TO.P,U3,42,AREF*%
%TO.N,/AREF*%
X137299999Y-110399999D03*
%TO.P,U3,43,GND*%
%TO.N,GND*%
X136499999Y-110399999D03*
%TO.P,U3,44,AVCC*%
%TO.N,+5V*%
X135699999Y-110399999D03*
%TD*%
D18*
%TO.P,S1,A1,NO_1*%
%TO.N,unconnected-(S1-NO_1-PadA1)*%
X185299999Y-105999999D03*
%TO.P,S1,B1,NO_2*%
%TO.N,Button_1*%
X170999999Y-105999999D03*
%TO.P,S1,C1,COM_1*%
%TO.N,+5V*%
X185299999Y-100999999D03*
%TO.P,S1,D1,COM_2*%
%TO.N,unconnected-(S1-COM_2-PadD1)*%
X170999999Y-100999999D03*
%TD*%
D22*
%TO.P,C11,1*%
%TO.N,+5V*%
X144025000Y-107920000D03*
%TO.P,C11,2*%
%TO.N,GND*%
X145575000Y-107920000D03*
%TD*%
D23*
%TO.P,C5,1*%
%TO.N,+5V*%
X131475000Y-112600000D03*
%TO.P,C5,2*%
%TO.N,GND*%
X129925000Y-112600000D03*
%TD*%
D24*
%TO.P,U2,1,QB*%
%TO.N,b*%
X139862500Y-87775000D03*
%TO.P,U2,2,QC*%
%TO.N,c*%
X139862500Y-87125000D03*
%TO.P,U2,3,QD*%
%TO.N,d*%
X139862500Y-86475000D03*
%TO.P,U2,4,QE*%
%TO.N,e*%
X139862500Y-85825000D03*
%TO.P,U2,5,QF*%
%TO.N,f*%
X139862500Y-85175000D03*
%TO.P,U2,6,QG*%
%TO.N,g*%
X139862500Y-84525000D03*
%TO.P,U2,7,QH*%
%TO.N,dp*%
X139862500Y-83875000D03*
%TO.P,U2,8,GND*%
%TO.N,GND*%
X139862500Y-83225000D03*
%TO.P,U2,9,QH'*%
%TO.N,unconnected-(U2-QH'-Pad9)*%
X134137500Y-83225000D03*
%TO.P,U2,10,~{SRCLR}*%
%TO.N,+5V*%
X134137500Y-83875000D03*
%TO.P,U2,11,SRCLK*%
%TO.N,SH_CP*%
X134137500Y-84525000D03*
%TO.P,U2,12,RCLK*%
%TO.N,ST_CP*%
X134137500Y-85175000D03*
%TO.P,U2,13,~{OE}*%
%TO.N,GND*%
X134137500Y-85825000D03*
%TO.P,U2,14,SER*%
%TO.N,DS*%
X134137500Y-86475000D03*
%TO.P,U2,15,QA*%
%TO.N,a*%
X134137500Y-87125000D03*
%TO.P,U2,16,VCC*%
%TO.N,+5V*%
X134137500Y-87775000D03*
%TD*%
D25*
%TO.P,J3,1,Pin_1*%
%TO.N,GND*%
X102919999Y-134209999D03*
D26*
%TO.P,J3,2,Pin_2*%
%TO.N,TX*%
X102919999Y-136749999D03*
%TO.P,J3,3,Pin_3*%
%TO.N,unconnected-(J3-Pin_3-Pad3)*%
X105459999Y-134209999D03*
%TO.P,J3,4,Pin_4*%
%TO.N,+3.3V*%
X105459999Y-136749999D03*
%TO.P,J3,5,Pin_5*%
%TO.N,Net-(J3-Pin_5)*%
X107999999Y-134209999D03*
%TO.P,J3,6,Pin_6*%
%TO.N,+3.3V*%
X107999999Y-136749999D03*
%TO.P,J3,7,Pin_7*%
%TO.N,RX*%
X110539999Y-134209999D03*
%TO.P,J3,8,Pin_8*%
%TO.N,+3.3V*%
X110539999Y-136749999D03*
%TD*%
D16*
%TO.P,C3,1*%
%TO.N,XTAL2*%
X135500000Y-129775000D03*
%TO.P,C3,2*%
%TO.N,GND*%
X135500000Y-128225000D03*
%TD*%
D22*
%TO.P,C7,1*%
%TO.N,+5V*%
X147700000Y-119100000D03*
%TO.P,C7,2*%
%TO.N,GND*%
X149250000Y-119100000D03*
%TD*%
D27*
%TO.P,F1,1*%
%TO.N,Net-(J2-VBUS)*%
X109862500Y-107500000D03*
%TO.P,F1,2*%
%TO.N,+5V*%
X114137500Y-107500000D03*
%TD*%
D25*
%TO.P,J1,1,MISO*%
%TO.N,MISO*%
X130039999Y-126039999D03*
D26*
%TO.P,J1,2,VCC*%
%TO.N,+5V*%
X130039999Y-123499999D03*
%TO.P,J1,3,SCK*%
%TO.N,SCK*%
X127499999Y-126039999D03*
%TO.P,J1,4,MOSI*%
%TO.N,MOSI*%
X127499999Y-123499999D03*
%TO.P,J1,5,~{RST}*%
%TO.N,RST*%
X124959999Y-126039999D03*
%TO.P,J1,6,GND*%
%TO.N,GND*%
X124959999Y-123499999D03*
%TD*%
D28*
%TO.P,C14,1*%
%TO.N,+3.3V*%
X120500000Y-126225000D03*
%TO.P,C14,2*%
%TO.N,GND*%
X120500000Y-127775000D03*
%TD*%
D29*
%TO.P,U1,1,e*%
%TO.N,Net-(U1-e)*%
X143849999Y-54522499D03*
D30*
%TO.P,U1,2,d*%
%TO.N,Net-(U1-d)*%
X141310000Y-54522500D03*
%TO.P,U1,3,DPX*%
%TO.N,Net-(U1-DPX)*%
X138770000Y-54522500D03*
%TO.P,U1,4,c*%
%TO.N,Net-(U1-c)*%
X136230000Y-54522500D03*
%TO.P,U1,5,g*%
%TO.N,Net-(U1-g)*%
X133690000Y-54522500D03*
%TO.P,U1,6,CA4*%
%TO.N,Dig4*%
X131150000Y-54522500D03*
%TO.P,U1,7,b*%
%TO.N,Net-(U1-b)*%
X131150000Y-69762500D03*
%TO.P,U1,8,CA3*%
%TO.N,Dig3*%
X133690000Y-69762500D03*
%TO.P,U1,9,CA2*%
%TO.N,Dig2*%
X136230000Y-69762500D03*
%TO.P,U1,10,f*%
%TO.N,Net-(U1-f)*%
X138770000Y-69762500D03*
%TO.P,U1,11,a*%
%TO.N,Net-(U1-a)*%
X141310000Y-69762500D03*
%TO.P,U1,12,CA1*%
%TO.N,Dig1*%
X143850000Y-69762500D03*
%TD*%
D14*
%TO.P,D2,1,K*%
%TO.N,GND*%
X155125000Y-85540000D03*
%TO.P,D2,2,A*%
%TO.N,Net-(D2-A)*%
X157000000Y-85540000D03*
%TD*%
D31*
%TO.P,Y1,1,1*%
%TO.N,XTAL1*%
X140599999Y-128149999D03*
%TO.P,Y1,2,2*%
%TO.N,GND*%
X138399999Y-128149999D03*
%TO.P,Y1,3,3*%
%TO.N,XTAL2*%
X138399999Y-129849999D03*
%TO.P,Y1,4,4*%
%TO.N,GND*%
X140599999Y-129849999D03*
%TD*%
D12*
%TO.P,R15,1*%
%TO.N,Net-(J2-D-)*%
X108675000Y-114000000D03*
%TO.P,R15,2*%
%TO.N,USB_CONN_D-*%
X110325000Y-114000000D03*
%TD*%
D15*
%TO.P,R5,1*%
%TO.N,a*%
X146200000Y-77312500D03*
%TO.P,R5,2*%
%TO.N,Net-(U1-a)*%
X146200000Y-75487500D03*
%TD*%
D32*
%TO.P,U4,1,I/O1*%
%TO.N,USB_CONN_D-*%
X113862500Y-113550000D03*
%TO.P,U4,2,GND*%
%TO.N,GND*%
X113862500Y-114500000D03*
%TO.P,U4,3,I/O2*%
%TO.N,USB_CONN_D+*%
X113862500Y-115450000D03*
%TO.P,U4,4,I/O2*%
%TO.N,USB_D+*%
X116137500Y-115450000D03*
%TO.P,U4,5,VBUS*%
%TO.N,+5V*%
X116137500Y-114500000D03*
%TO.P,U4,6,I/O1*%
%TO.N,USB_D-*%
X116137500Y-113550000D03*
%TD*%
D23*
%TO.P,C1,1*%
%TO.N,+5V*%
X131775000Y-87500000D03*
%TO.P,C1,2*%
%TO.N,GND*%
X130225000Y-87500000D03*
%TD*%
%TO.P,C15,1*%
%TO.N,Net-(U5-BP)*%
X113275000Y-125000000D03*
%TO.P,C15,2*%
%TO.N,GND*%
X111725000Y-125000000D03*
%TD*%
D15*
%TO.P,R8,1*%
%TO.N,d*%
X105000000Y-75825000D03*
%TO.P,R8,2*%
%TO.N,Net-(U1-d)*%
X105000000Y-74000000D03*
%TD*%
D17*
%TO.P,R1,1*%
%TO.N,Button_1*%
X166062500Y-106000000D03*
%TO.P,R1,2*%
%TO.N,GND*%
X164237500Y-106000000D03*
%TD*%
D16*
%TO.P,C13,1*%
%TO.N,+5V*%
X113000000Y-122275000D03*
%TO.P,C13,2*%
%TO.N,GND*%
X113000000Y-120725000D03*
%TD*%
D17*
%TO.P,R3,1*%
%TO.N,RED_LED*%
X161385000Y-82455000D03*
%TO.P,R3,2*%
%TO.N,Net-(D1-A)*%
X159560000Y-82455000D03*
%TD*%
D33*
%TO.P,U5,1,VIN*%
%TO.N,+5V*%
X116950000Y-122862500D03*
%TO.P,U5,2,GND*%
%TO.N,GND*%
X116000000Y-122862500D03*
%TO.P,U5,3,ON/~{OFF}*%
%TO.N,+5V*%
X115050000Y-122862500D03*
%TO.P,U5,4,BP*%
%TO.N,Net-(U5-BP)*%
X115050000Y-125137500D03*
%TO.P,U5,5,VOUT*%
%TO.N,+3.3V*%
X116950000Y-125137500D03*
%TD*%
D15*
%TO.P,R11,1*%
%TO.N,g*%
X104500000Y-58912500D03*
%TO.P,R11,2*%
%TO.N,Net-(U1-g)*%
X104500000Y-57087500D03*
%TD*%
D23*
%TO.P,C9,1*%
%TO.N,/UCAP*%
X131543330Y-115795791D03*
%TO.P,C9,2*%
%TO.N,GND*%
X129993330Y-115795791D03*
%TD*%
D15*
%TO.P,R10,1*%
%TO.N,f*%
X140000000Y-74912500D03*
%TO.P,R10,2*%
%TO.N,Net-(U1-f)*%
X140000000Y-73087500D03*
%TD*%
D34*
%TO.P,J2,1,VBUS*%
%TO.N,Net-(J2-VBUS)*%
X105274999Y-113399999D03*
%TO.P,J2,2,D-*%
%TO.N,Net-(J2-D-)*%
X105274999Y-114199999D03*
%TO.P,J2,3,D+*%
%TO.N,Net-(J2-D+)*%
X105274999Y-114999999D03*
%TO.P,J2,4,ID*%
%TO.N,unconnected-(J2-ID-Pad4)*%
X105274999Y-115799999D03*
%TO.P,J2,5,GND*%
%TO.N,GND*%
X105274999Y-116599999D03*
D35*
%TO.P,J2,6,Shield*%
%TO.N,unconnected-(J2-Shield-Pad6)*%
X105174999Y-110549999D03*
X99724999Y-110549999D03*
X105174999Y-119449999D03*
X99724999Y-119449999D03*
%TD*%
D15*
%TO.P,R6,1*%
%TO.N,b*%
X150500000Y-85412500D03*
%TO.P,R6,2*%
%TO.N,Net-(U1-b)*%
X150500000Y-83587500D03*
%TD*%
D13*
%TO.P,R17,1*%
%TO.N,+3.3V*%
X108000000Y-130000000D03*
%TO.P,R17,2*%
%TO.N,Net-(J3-Pin_5)*%
X106350000Y-130000000D03*
%TD*%
D36*
%TO.P,S3,1*%
%TO.N,GND*%
X123999999Y-134649999D03*
%TO.P,S3,2*%
%TO.N,N/C*%
X129999999Y-134649999D03*
%TO.P,S3,3*%
%TO.N,RST*%
X123999999Y-138349999D03*
%TO.P,S3,4*%
%TO.N,N/C*%
X129999999Y-138349999D03*
%TD*%
D23*
%TO.P,C6,1*%
%TO.N,+5V*%
X131575000Y-117500000D03*
%TO.P,C6,2*%
%TO.N,GND*%
X130025000Y-117500000D03*
%TD*%
D28*
%TO.P,C4,1*%
%TO.N,+5V*%
X137300000Y-123870000D03*
%TO.P,C4,2*%
%TO.N,GND*%
X137300000Y-125420000D03*
%TD*%
D17*
%TO.P,R2,1*%
%TO.N,Button_2*%
X166562500Y-125500000D03*
%TO.P,R2,2*%
%TO.N,GND*%
X164737500Y-125500000D03*
%TD*%
D15*
%TO.P,R9,1*%
%TO.N,e*%
X105500000Y-83162500D03*
%TO.P,R9,2*%
%TO.N,Net-(U1-e)*%
X105500000Y-81337500D03*
%TD*%
D37*
%TO.N,+5V*%
X136400000Y-84300000D03*
X142500000Y-103000000D03*
X132900000Y-103000000D03*
X134698900Y-90100000D03*
X137400000Y-88600000D03*
X134900000Y-103000000D03*
X119500000Y-113500000D03*
X119500000Y-115500000D03*
X116000000Y-114500000D03*
X140200000Y-103000000D03*
X136400000Y-86000000D03*
%TO.N,GND*%
X146500000Y-111500000D03*
X107478760Y-100414063D03*
X163220300Y-106037450D03*
X137468831Y-105774904D03*
X106770126Y-116607533D03*
X142906265Y-111585106D03*
X146465353Y-107912307D03*
X144213488Y-120085106D03*
X129071879Y-115764520D03*
X143537450Y-130714060D03*
X163621749Y-125621550D03*
X123974770Y-133814980D03*
X138398290Y-127065701D03*
X128976566Y-110607533D03*
X136501578Y-111624353D03*
X135505252Y-127259131D03*
X137319579Y-126310380D03*
X138113140Y-120550459D03*
X120503737Y-128705577D03*
X110810619Y-124985598D03*
X150154795Y-119162810D03*
X132898428Y-85808181D03*
X129033639Y-112537377D03*
X116014234Y-121704860D03*
X135786946Y-105769119D03*
X114875500Y-114500000D03*
X154144692Y-85504091D03*
X141057313Y-83209316D03*
X154200000Y-82500000D03*
X129000000Y-117500000D03*
X129181210Y-87505124D03*
X135247700Y-115259920D03*
X140702629Y-130951118D03*
X113011213Y-119776740D03*
%TO.N,XTAL2*%
X140500000Y-126000000D03*
X138975500Y-126000000D03*
%TO.N,MISO*%
X128500000Y-129500000D03*
X128500000Y-127750000D03*
X133727997Y-125977997D03*
X133750000Y-130500000D03*
X133750000Y-128000000D03*
X130490500Y-130500000D03*
%TO.N,SCK*%
X123916484Y-118709750D03*
X126500000Y-118500000D03*
%TO.N,MOSI*%
X125500000Y-120500000D03*
X127623516Y-119876484D03*
%TO.N,RST*%
X132197500Y-128500000D03*
X130490500Y-128500000D03*
%TO.N,TX*%
X147000000Y-128701100D03*
X147000000Y-127298900D03*
X145000000Y-141853500D03*
X145000000Y-140000000D03*
%TO.N,RX*%
X144000000Y-145500000D03*
X116000000Y-134500000D03*
X114000000Y-134500000D03*
X150000000Y-142000000D03*
X150000000Y-128701100D03*
X146000000Y-145500000D03*
X150000000Y-127000000D03*
X150000000Y-140000000D03*
%TO.N,Buzzer*%
X196500000Y-83898900D03*
X187900000Y-112900000D03*
X185500000Y-112900000D03*
X196500000Y-85301100D03*
%TO.N,Button_1*%
X141250000Y-120082500D03*
X141250000Y-118375500D03*
%TO.N,RED_LED*%
X166600000Y-81500000D03*
X169200000Y-81500000D03*
X181300000Y-87500000D03*
X181200000Y-83800000D03*
X181300000Y-90900000D03*
X181300000Y-85400000D03*
%TO.N,GREEN_LED*%
X168700000Y-84600000D03*
X166400000Y-84600000D03*
X188000000Y-114900000D03*
X185500000Y-114900000D03*
%TO.N,b*%
X142750000Y-89000000D03*
X139750000Y-89000000D03*
%TO.N,c*%
X128000000Y-92750000D03*
X132000000Y-92750000D03*
%TO.N,d*%
X109500000Y-77750000D03*
X107500000Y-76750000D03*
%TO.N,f*%
X145900000Y-85300000D03*
X143500000Y-85200000D03*
X147400000Y-82886400D03*
X147600000Y-84400000D03*
%TO.N,g*%
X138300000Y-81800000D03*
X138200000Y-79900000D03*
%TO.N,Dig4*%
X172000000Y-56301100D03*
X183100000Y-87798900D03*
X183100000Y-83898900D03*
X183100000Y-91300000D03*
X172000000Y-54898900D03*
X183100000Y-85301100D03*
%TO.N,Dig3*%
X141200000Y-112000000D03*
X137600000Y-116200000D03*
X141300000Y-108900000D03*
X136200000Y-117800000D03*
%TO.N,Dig2*%
X197500000Y-83300000D03*
X197600000Y-85900000D03*
X148600000Y-57701100D03*
X189000000Y-114000000D03*
X184200000Y-114100000D03*
X148600000Y-55700000D03*
%TO.N,Dig1*%
X173800000Y-83700000D03*
X166500000Y-78000000D03*
X173800000Y-91200000D03*
X173800000Y-85500000D03*
X173700000Y-82200000D03*
X173800000Y-87600000D03*
X173700000Y-80500000D03*
X168600000Y-78200000D03*
%TO.N,SH_CP*%
X123800000Y-93600000D03*
X129900000Y-94700000D03*
X127189352Y-87389352D03*
X131900000Y-84900000D03*
X128100000Y-88600000D03*
X127300000Y-94700000D03*
X123800000Y-92048900D03*
X129700000Y-84800000D03*
%TO.N,ST_CP*%
X166800000Y-88500000D03*
X168400000Y-88500000D03*
X184400000Y-112000000D03*
X140600000Y-90800000D03*
X187789623Y-111906611D03*
X149000000Y-91800000D03*
X147000000Y-91300000D03*
X139229247Y-90029247D03*
%TO.N,DS*%
X135400000Y-89000000D03*
X188300000Y-110800000D03*
X166600000Y-90100000D03*
X136129727Y-87470273D03*
X135500000Y-94152700D03*
X135400000Y-91300000D03*
X185600000Y-111298900D03*
X168800000Y-90100000D03*
%TD*%
D38*
%TO.N,+5V*%
X118000000Y-112000000D02*
X118000000Y-107500000D01*
X131800000Y-110600000D02*
X131800000Y-112275000D01*
X144025000Y-107920000D02*
X144025000Y-110075000D01*
X132900000Y-109500000D02*
X131800000Y-110600000D01*
X145400000Y-119300000D02*
X147500000Y-119300000D01*
D39*
X136400000Y-86000000D02*
X137400000Y-87000000D01*
D38*
X185150000Y-120500000D02*
X186754000Y-118896000D01*
X144025000Y-110075000D02*
X143700000Y-110400000D01*
D40*
X135800000Y-108195000D02*
X135800000Y-110300000D01*
D38*
X117856250Y-117856250D02*
X124396250Y-117856250D01*
D41*
X131575000Y-117500000D02*
X132175000Y-116900000D01*
D38*
X137300000Y-123870000D02*
X137300000Y-121800000D01*
X137259140Y-121759140D02*
X137259140Y-117259140D01*
X135000000Y-103100000D02*
X134900000Y-103000000D01*
D39*
X134698900Y-90100000D02*
X134137500Y-89538600D01*
D40*
X135800000Y-110300000D02*
X135700000Y-110400000D01*
D39*
X135975000Y-83875000D02*
X136400000Y-84300000D01*
D38*
X137259140Y-117259140D02*
X136900000Y-116900000D01*
X131344000Y-124804000D02*
X131344000Y-140844000D01*
X147500000Y-119300000D02*
X147700000Y-119100000D01*
D39*
X134137500Y-89538600D02*
X134137500Y-87775000D01*
D38*
X145400000Y-119300000D02*
X145329000Y-119229000D01*
X131800000Y-112275000D02*
X131475000Y-112600000D01*
X132900000Y-103000000D02*
X132900000Y-109500000D01*
X114325000Y-107312500D02*
X114137500Y-107500000D01*
X135258000Y-112900000D02*
X136200000Y-113842000D01*
X128700000Y-107500000D02*
X128700000Y-94083474D01*
X128700000Y-94083474D02*
X131775000Y-91008474D01*
X145329000Y-119229000D02*
X139229000Y-119229000D01*
X128000000Y-141000000D02*
X131500000Y-141000000D01*
X131475000Y-112600000D02*
X131775000Y-112900000D01*
X131500000Y-141000000D02*
X166992000Y-141000000D01*
X114325000Y-100500000D02*
X114325000Y-107312500D01*
X114462500Y-122275000D02*
X115050000Y-122862500D01*
D39*
X137400000Y-87000000D02*
X137400000Y-88600000D01*
D38*
X144025000Y-104525000D02*
X142500000Y-103000000D01*
X186754000Y-102454000D02*
X185300000Y-101000000D01*
X144025000Y-107920000D02*
X144025000Y-104525000D01*
X116950000Y-122862500D02*
X116950000Y-118762500D01*
X140200000Y-103000000D02*
X135900000Y-103000000D01*
X135800000Y-103100000D02*
X135000000Y-103100000D01*
X118000000Y-107500000D02*
X128700000Y-107500000D01*
X137300000Y-121800000D02*
X137259140Y-121759140D01*
X119500000Y-113500000D02*
X118000000Y-112000000D01*
D40*
X135700000Y-112458000D02*
X135258000Y-112900000D01*
D39*
X134137500Y-83875000D02*
X135975000Y-83875000D01*
D38*
X139229000Y-119229000D02*
X137259140Y-117259140D01*
X131775000Y-91008474D02*
X131775000Y-87500000D01*
X166992000Y-141000000D02*
X185150000Y-122842000D01*
D39*
X132050000Y-87775000D02*
X131775000Y-87500000D01*
D38*
X136200000Y-116900000D02*
X134000000Y-116900000D01*
X116950000Y-118762500D02*
X117856250Y-117856250D01*
X136200000Y-113842000D02*
X136200000Y-116900000D01*
X124396250Y-117856250D02*
X130040000Y-123500000D01*
X113000000Y-122275000D02*
X114462500Y-122275000D01*
X119500000Y-116212500D02*
X119500000Y-115500000D01*
X130040000Y-123500000D02*
X131344000Y-124804000D01*
D39*
X134137500Y-87775000D02*
X132050000Y-87775000D01*
D38*
X186754000Y-118896000D02*
X186754000Y-102454000D01*
X185150000Y-122842000D02*
X185150000Y-120500000D01*
X117856250Y-117856250D02*
X119500000Y-116212500D01*
D40*
X135700000Y-110400000D02*
X135700000Y-112458000D01*
D38*
X135900000Y-103000000D02*
X135800000Y-103100000D01*
X128700000Y-107500000D02*
X131800000Y-110600000D01*
X136900000Y-116900000D02*
X136200000Y-116900000D01*
X131344000Y-140844000D02*
X131500000Y-141000000D01*
X131775000Y-112900000D02*
X134000000Y-112900000D01*
X116137500Y-114500000D02*
X116000000Y-114500000D01*
D41*
X132175000Y-116900000D02*
X134000000Y-116900000D01*
D38*
X134000000Y-112900000D02*
X135258000Y-112900000D01*
X114137500Y-107500000D02*
X118000000Y-107500000D01*
%TO.N,GND*%
X113000000Y-119787953D02*
X113011213Y-119776740D01*
X150091985Y-119100000D02*
X150154795Y-119162810D01*
X145575000Y-107920000D02*
X146457660Y-107920000D01*
X137500000Y-106725000D02*
X137500000Y-105806073D01*
X116000000Y-121719094D02*
X116014234Y-121704860D01*
X124000000Y-133840210D02*
X123974770Y-133814980D01*
X138400000Y-127067411D02*
X138398290Y-127065701D01*
X107564697Y-100500000D02*
X107478760Y-100414063D01*
X164615950Y-125621550D02*
X164737500Y-125500000D01*
X163621749Y-125621550D02*
X164615950Y-125621550D01*
X164237500Y-106000000D02*
X163257750Y-106000000D01*
X128984099Y-110600000D02*
X128976566Y-110607533D01*
X149250000Y-119100000D02*
X150091985Y-119100000D01*
X111725000Y-125000000D02*
X110825021Y-125000000D01*
X135247700Y-115259920D02*
X134040080Y-115259920D01*
X138113140Y-120550459D02*
X138113140Y-121786860D01*
X144213488Y-120085106D02*
X145385106Y-120085106D01*
X136501578Y-110401578D02*
X136500000Y-110400000D01*
X140600000Y-130848489D02*
X140702629Y-130951118D01*
X135500000Y-128225000D02*
X135500000Y-127264383D01*
X129071879Y-115764520D02*
X129962059Y-115764520D01*
X129181210Y-87505124D02*
X130219876Y-87505124D01*
X138400000Y-128150000D02*
X138400000Y-127067411D01*
X140600000Y-129850000D02*
X140600000Y-130848489D01*
X137300000Y-125420000D02*
X137300000Y-126290801D01*
X113862500Y-114500000D02*
X114875500Y-114500000D01*
X105275000Y-116600000D02*
X106762593Y-116600000D01*
X138113140Y-121786860D02*
X138100000Y-121800000D01*
X113000000Y-120725000D02*
X113000000Y-119787953D01*
X145900000Y-112100000D02*
X146500000Y-111500000D01*
X142906265Y-110406265D02*
X142900000Y-110400000D01*
X145400000Y-112100000D02*
X145900000Y-112100000D01*
X143500000Y-129775000D02*
X143500000Y-130676610D01*
X136501578Y-111624353D02*
X136501578Y-110401578D01*
X154144692Y-85504091D02*
X155089091Y-85504091D01*
D39*
X141041629Y-83225000D02*
X141057313Y-83209316D01*
D38*
X137500000Y-105806073D02*
X137468831Y-105774904D01*
X120503737Y-128705577D02*
X120503737Y-127778737D01*
X134040080Y-115259920D02*
X134000000Y-115300000D01*
X129925000Y-112600000D02*
X129096262Y-112600000D01*
X130219876Y-87505124D02*
X130225000Y-87500000D01*
X129962059Y-115764520D02*
X129993330Y-115795791D01*
X106762593Y-116600000D02*
X106770126Y-116607533D01*
X155089091Y-85504091D02*
X155125000Y-85540000D01*
X163257750Y-106000000D02*
X163220300Y-106037450D01*
X129000000Y-117500000D02*
X130025000Y-117500000D01*
X124000000Y-134650000D02*
X124000000Y-133840210D01*
X129900000Y-110600000D02*
X128984099Y-110600000D01*
X108500000Y-100500000D02*
X107564697Y-100500000D01*
X116000000Y-122862500D02*
X116000000Y-121719094D01*
X146457660Y-107920000D02*
X146465353Y-107912307D01*
X142906265Y-111585106D02*
X142906265Y-110406265D01*
D41*
X134137500Y-85825000D02*
X132915247Y-85825000D01*
D38*
X135500000Y-127264383D02*
X135505252Y-127259131D01*
X120503737Y-127778737D02*
X120500000Y-127775000D01*
X110825021Y-125000000D02*
X110810619Y-124985598D01*
X135800000Y-105782173D02*
X135786946Y-105769119D01*
X143500000Y-130676610D02*
X143537450Y-130714060D01*
X129096262Y-112600000D02*
X129033639Y-112537377D01*
D39*
X139862500Y-83225000D02*
X141041629Y-83225000D01*
D38*
X145385106Y-120085106D02*
X145400000Y-120100000D01*
X135800000Y-106645000D02*
X135800000Y-105782173D01*
D41*
X132915247Y-85825000D02*
X132898428Y-85808181D01*
D38*
X137300000Y-126290801D02*
X137319579Y-126310380D01*
X155125000Y-82500000D02*
X154200000Y-82500000D01*
D42*
%TO.N,XTAL1*%
X139700000Y-127250000D02*
X139700000Y-121800000D01*
X143425000Y-128150000D02*
X140600000Y-128150000D01*
X143500000Y-128225000D02*
X143425000Y-128150000D01*
X140600000Y-128150000D02*
X139700000Y-127250000D01*
%TO.N,XTAL2*%
X144300000Y-130976815D02*
X144300000Y-127300000D01*
X143600697Y-131676118D02*
X144300000Y-130976815D01*
X143000000Y-126000000D02*
X140500000Y-126000000D01*
X138400000Y-129850000D02*
X140226118Y-131676118D01*
X138900000Y-125924500D02*
X138900000Y-121800000D01*
X138975500Y-126000000D02*
X138900000Y-125924500D01*
X135575000Y-129850000D02*
X138400000Y-129850000D01*
X144300000Y-127300000D02*
X143000000Y-126000000D01*
X140226118Y-131676118D02*
X143600697Y-131676118D01*
X135500000Y-129775000D02*
X135575000Y-129850000D01*
D41*
%TO.N,/UCAP*%
X131543330Y-115795791D02*
X131847539Y-116100000D01*
X131847539Y-116100000D02*
X134000000Y-116100000D01*
D39*
%TO.N,/AREF*%
X137300000Y-108475000D02*
X137500000Y-108275000D01*
X137300000Y-110400000D02*
X137300000Y-108475000D01*
D38*
%TO.N,+3.3V*%
X105460000Y-136750000D02*
X108710000Y-140000000D01*
X110540000Y-136750000D02*
X108000000Y-136750000D01*
X108000000Y-130000000D02*
X112087500Y-130000000D01*
X115000000Y-128000000D02*
X114543750Y-127543750D01*
X116950000Y-125137500D02*
X119412500Y-125137500D01*
X119412500Y-125137500D02*
X120500000Y-126225000D01*
X115000000Y-140000000D02*
X115000000Y-128000000D01*
X112087500Y-130000000D02*
X114543750Y-127543750D01*
X108710000Y-140000000D02*
X115000000Y-140000000D01*
X105460000Y-136750000D02*
X108000000Y-136750000D01*
X114543750Y-127543750D02*
X116950000Y-125137500D01*
D41*
%TO.N,Net-(U5-BP)*%
X113275000Y-125000000D02*
X114912500Y-125000000D01*
X114912500Y-125000000D02*
X115050000Y-125137500D01*
%TO.N,Net-(D1-A)*%
X157000000Y-82500000D02*
X159515000Y-82500000D01*
X159515000Y-82500000D02*
X159560000Y-82455000D01*
%TO.N,Net-(D2-A)*%
X157000000Y-85540000D02*
X159425000Y-85540000D01*
X159425000Y-85540000D02*
X159560000Y-85405000D01*
%TO.N,Net-(D3-A)*%
X110375000Y-100500000D02*
X112675000Y-100500000D01*
%TO.N,Net-(J2-VBUS)*%
X105275000Y-113400000D02*
X109862500Y-108812500D01*
X109862500Y-108812500D02*
X109862500Y-107500000D01*
%TO.N,MISO*%
X129500000Y-130500000D02*
X130490500Y-130500000D01*
X130040000Y-126040000D02*
X128500000Y-127580000D01*
X128500000Y-127580000D02*
X128500000Y-127750000D01*
X128500000Y-129500000D02*
X129500000Y-130500000D01*
X133727997Y-125977997D02*
X133727997Y-123477997D01*
X133727997Y-123477997D02*
X133000000Y-122750000D01*
X133000000Y-122750000D02*
X134000000Y-121750000D01*
X133750000Y-130500000D02*
X133750000Y-128000000D01*
X134000000Y-121750000D02*
X134000000Y-120100000D01*
%TO.N,SCK*%
X126348400Y-124888400D02*
X126348400Y-123022991D01*
X123916484Y-120591075D02*
X123916484Y-118709750D01*
X127500000Y-126040000D02*
X126348400Y-124888400D01*
X126348400Y-123022991D02*
X123916484Y-120591075D01*
X126500000Y-118500000D02*
X134000000Y-118500000D01*
%TO.N,MOSI*%
X125500000Y-121500000D02*
X125500000Y-120500000D01*
X128200000Y-119300000D02*
X134000000Y-119300000D01*
X127623516Y-119876484D02*
X128200000Y-119300000D01*
X127500000Y-123500000D02*
X125500000Y-121500000D01*
%TO.N,RST*%
X135753200Y-123500000D02*
X136500000Y-122753200D01*
X134500000Y-126197500D02*
X134500000Y-123500000D01*
X126350000Y-141000000D02*
X124000000Y-138650000D01*
X124960000Y-137540000D02*
X124960000Y-126040000D01*
X127420000Y-128500000D02*
X130490500Y-128500000D01*
X124000000Y-138350000D02*
X124150000Y-138350000D01*
X136500000Y-122753200D02*
X136500000Y-121800000D01*
X124960000Y-126040000D02*
X127420000Y-128500000D01*
X132197500Y-128500000D02*
X134500000Y-126197500D01*
X134500000Y-123500000D02*
X135753200Y-123500000D01*
X124150000Y-138350000D02*
X124960000Y-137540000D01*
X124000000Y-138650000D02*
X124000000Y-138350000D01*
%TO.N,Net-(J2-D-)*%
X108675000Y-114000000D02*
X108475000Y-114200000D01*
X108475000Y-114200000D02*
X105275000Y-114200000D01*
%TO.N,Net-(J2-D+)*%
X108175000Y-115000000D02*
X105275000Y-115000000D01*
X108675000Y-115500000D02*
X108175000Y-115000000D01*
D39*
%TO.N,unconnected-(J2-Shield-Pad6)*%
X99725000Y-110550000D02*
X105175000Y-110550000D01*
X99725000Y-119450000D02*
X105175000Y-119450000D01*
X99725000Y-119450000D02*
X99725000Y-110550000D01*
D41*
%TO.N,TX*%
X146645700Y-127298900D02*
X142100000Y-122753200D01*
X147000000Y-127298900D02*
X146645700Y-127298900D01*
X145000000Y-146500000D02*
X145000000Y-141853500D01*
X144500000Y-147000000D02*
X145000000Y-146500000D01*
X142100000Y-122753200D02*
X142100000Y-121800000D01*
X147000000Y-138000000D02*
X147000000Y-128701100D01*
X102920000Y-136750000D02*
X102920000Y-138920000D01*
X111000000Y-147000000D02*
X144500000Y-147000000D01*
X102920000Y-138920000D02*
X111000000Y-147000000D01*
X145000000Y-140000000D02*
X147000000Y-138000000D01*
D38*
%TO.N,Net-(J3-Pin_5)*%
X106350000Y-130000000D02*
X106350000Y-132560000D01*
X106350000Y-132560000D02*
X108000000Y-134210000D01*
D41*
%TO.N,RX*%
X148500000Y-127000000D02*
X144351600Y-122851600D01*
X150000000Y-140000000D02*
X150000000Y-128701100D01*
X144351600Y-122851600D02*
X142998400Y-122851600D01*
X142998400Y-122851600D02*
X142900000Y-122753200D01*
X150000000Y-127000000D02*
X148500000Y-127000000D01*
X146000000Y-145500000D02*
X146500000Y-145500000D01*
X116000000Y-145500000D02*
X144000000Y-145500000D01*
X142900000Y-122753200D02*
X142900000Y-121800000D01*
X113710000Y-134210000D02*
X114000000Y-134500000D01*
X146500000Y-145500000D02*
X150000000Y-142000000D01*
X110540000Y-134210000D02*
X113710000Y-134210000D01*
X116000000Y-134500000D02*
X116000000Y-136000000D01*
X116000000Y-136000000D02*
X116000000Y-145500000D01*
%TO.N,Buzzer*%
X145400000Y-116900000D02*
X146353200Y-116900000D01*
X187900000Y-112900000D02*
X196500000Y-112900000D01*
X150353200Y-112900000D02*
X185500000Y-112900000D01*
X146353200Y-116900000D02*
X150353200Y-112900000D01*
X196200000Y-66500000D02*
X183300000Y-66500000D01*
X196500000Y-112900000D02*
X196500000Y-85301100D01*
X196500000Y-66200000D02*
X196200000Y-66500000D01*
X196500000Y-83898900D02*
X196500000Y-66200000D01*
D40*
%TO.N,Button_1*%
X141250000Y-118375500D02*
X141250000Y-114444000D01*
X141300000Y-120132500D02*
X141250000Y-120082500D01*
X146694000Y-109000000D02*
X166250000Y-109000000D01*
X141300000Y-121800000D02*
X141300000Y-120132500D01*
X166250000Y-109000000D02*
X166250000Y-106187500D01*
X166250000Y-106187500D02*
X166062500Y-106000000D01*
X141250000Y-114444000D02*
X146694000Y-109000000D01*
D41*
X166062500Y-106000000D02*
X171000000Y-106000000D01*
%TO.N,Button_2*%
X166500000Y-125562500D02*
X166562500Y-125500000D01*
X145746800Y-128000000D02*
X166500000Y-128000000D01*
X140500000Y-122753200D02*
X145746800Y-128000000D01*
X166500000Y-128000000D02*
X166500000Y-125562500D01*
X166562500Y-125500000D02*
X170850000Y-125500000D01*
X140500000Y-121800000D02*
X140500000Y-122753200D01*
%TO.N,RED_LED*%
X182100000Y-110200000D02*
X182100000Y-91700000D01*
X166600000Y-81500000D02*
X162340000Y-81500000D01*
X169296800Y-81403200D02*
X169200000Y-81500000D01*
X146500000Y-113700000D02*
X150000000Y-110200000D01*
X182100000Y-91700000D02*
X181300000Y-90900000D01*
X162340000Y-81500000D02*
X161385000Y-82455000D01*
X181200000Y-83800000D02*
X181200000Y-82100000D01*
X145400000Y-113700000D02*
X146500000Y-113700000D01*
X180503200Y-81403200D02*
X169296800Y-81403200D01*
X150000000Y-110200000D02*
X182100000Y-110200000D01*
X181200000Y-82100000D02*
X180503200Y-81403200D01*
X181300000Y-87500000D02*
X181300000Y-85400000D01*
%TO.N,GREEN_LED*%
X166400000Y-84600000D02*
X162190000Y-84600000D01*
X145400000Y-118500000D02*
X146353200Y-118500000D01*
X198600000Y-114800000D02*
X198600000Y-85000000D01*
X149953200Y-114900000D02*
X185500000Y-114900000D01*
X162190000Y-84600000D02*
X161385000Y-85405000D01*
X198500000Y-114900000D02*
X198600000Y-114800000D01*
X146353200Y-118500000D02*
X149953200Y-114900000D01*
X188000000Y-114900000D02*
X198500000Y-114900000D01*
X198200000Y-84600000D02*
X168700000Y-84600000D01*
X198600000Y-85000000D02*
X198200000Y-84600000D01*
%TO.N,a*%
X136083652Y-92048400D02*
X131709387Y-92048400D01*
X152800000Y-79600000D02*
X150512500Y-77312500D01*
X131298400Y-92459387D02*
X131298400Y-93040613D01*
X146048400Y-93451600D02*
X152800000Y-86700000D01*
X131298400Y-93040613D02*
X131709387Y-93451600D01*
X152800000Y-86700000D02*
X152800000Y-79600000D01*
X134137500Y-87125000D02*
X134792948Y-87125000D01*
X134792948Y-87125000D02*
X137900000Y-90232052D01*
X131709387Y-93451600D02*
X146048400Y-93451600D01*
X137900000Y-90232052D02*
X136083652Y-92048400D01*
X131709387Y-92048400D02*
X131298400Y-92459387D01*
X150512500Y-77312500D02*
X146200000Y-77312500D01*
%TO.N,Net-(U1-a)*%
X141310000Y-69762500D02*
X146200000Y-74652500D01*
X146200000Y-74652500D02*
X146200000Y-75487500D01*
%TO.N,b*%
X139862500Y-87775000D02*
X139862500Y-88887500D01*
X139862500Y-88887500D02*
X139750000Y-89000000D01*
X146912500Y-89000000D02*
X150500000Y-85412500D01*
X142750000Y-89000000D02*
X146912500Y-89000000D01*
%TO.N,Net-(U1-b)*%
X144975000Y-83587500D02*
X131150000Y-69762500D01*
X150500000Y-83587500D02*
X144975000Y-83587500D01*
%TO.N,c*%
X105000000Y-63912500D02*
X99837500Y-63912500D01*
X99750000Y-64000000D02*
X99750000Y-89750000D01*
X99750000Y-92750000D02*
X128000000Y-92750000D01*
X99837500Y-63912500D02*
X99750000Y-64000000D01*
X137500000Y-92750000D02*
X143000000Y-87250000D01*
X143000000Y-87250000D02*
X139987500Y-87250000D01*
X139987500Y-87250000D02*
X139862500Y-87125000D01*
X132000000Y-92750000D02*
X137500000Y-92750000D01*
X99750000Y-89750000D02*
X99750000Y-92750000D01*
%TO.N,Net-(U1-c)*%
X105000000Y-62087500D02*
X109087500Y-58000000D01*
X109087500Y-58000000D02*
X132752500Y-58000000D01*
X132752500Y-58000000D02*
X136230000Y-54522500D01*
%TO.N,d*%
X106575000Y-75825000D02*
X107500000Y-76750000D01*
X109500000Y-77750000D02*
X109500000Y-78000000D01*
X140500000Y-80750000D02*
X145000000Y-85250000D01*
X109500000Y-78000000D02*
X113000000Y-81500000D01*
X113000000Y-81500000D02*
X132000000Y-81500000D01*
X105000000Y-75825000D02*
X106575000Y-75825000D01*
X132750000Y-80750000D02*
X140500000Y-80750000D01*
X132000000Y-81500000D02*
X132750000Y-80750000D01*
X143775000Y-86475000D02*
X139862500Y-86475000D01*
X145000000Y-85250000D02*
X143775000Y-86475000D01*
%TO.N,Net-(U1-d)*%
X118750000Y-60250000D02*
X135582500Y-60250000D01*
X135582500Y-60250000D02*
X141310000Y-54522500D01*
X105000000Y-74000000D02*
X118750000Y-60250000D01*
%TO.N,e*%
X135382052Y-82000000D02*
X139207052Y-85825000D01*
X105500000Y-83162500D02*
X105939100Y-82723400D01*
X105939100Y-82723400D02*
X132276600Y-82723400D01*
X132276600Y-82723400D02*
X133000000Y-82000000D01*
X139207052Y-85825000D02*
X139862500Y-85825000D01*
X133000000Y-82000000D02*
X135382052Y-82000000D01*
%TO.N,Net-(U1-e)*%
X124000000Y-61500000D02*
X136872500Y-61500000D01*
X136872500Y-61500000D02*
X143850000Y-54522500D01*
X105500000Y-81337500D02*
X105500000Y-80000000D01*
X105500000Y-80000000D02*
X124000000Y-61500000D01*
D43*
%TO.N,f*%
X147400000Y-82886400D02*
X140000000Y-75486400D01*
X139862500Y-85175000D02*
X139887500Y-85200000D01*
X145900000Y-85300000D02*
X146700000Y-85300000D01*
X139887500Y-85200000D02*
X143500000Y-85200000D01*
X140000000Y-75486400D02*
X140000000Y-74912500D01*
X146700000Y-85300000D02*
X147600000Y-84400000D01*
D41*
%TO.N,Net-(U1-f)*%
X138770000Y-71857500D02*
X140000000Y-73087500D01*
X138770000Y-69762500D02*
X138770000Y-71857500D01*
D43*
%TO.N,g*%
X127800000Y-65600000D02*
X128000000Y-65400000D01*
X103473000Y-57885500D02*
X104500000Y-58912500D01*
X135976391Y-50327000D02*
X132227000Y-54076391D01*
X135226500Y-65300000D02*
X149726500Y-50800000D01*
X138200000Y-79900000D02*
X127800000Y-69500000D01*
X103473000Y-56527000D02*
X103473000Y-57885500D01*
X140900000Y-81800000D02*
X138300000Y-81800000D01*
X149327000Y-50327000D02*
X135976391Y-50327000D01*
X132227000Y-54968609D02*
X130947609Y-56248000D01*
X140769763Y-84525000D02*
X141821934Y-83472829D01*
X139862500Y-84525000D02*
X140769763Y-84525000D01*
X141821934Y-82721934D02*
X140900000Y-81800000D01*
X134300000Y-65400000D02*
X134400000Y-65300000D01*
X130947609Y-56248000D02*
X103752000Y-56248000D01*
X149726500Y-50800000D02*
X149800000Y-50800000D01*
X149800000Y-50800000D02*
X149327000Y-50327000D01*
X134400000Y-65300000D02*
X135226500Y-65300000D01*
X141821934Y-83472829D02*
X141821934Y-82721934D01*
X127800000Y-69500000D02*
X127800000Y-65600000D01*
X103752000Y-56248000D02*
X103473000Y-56527000D01*
X128000000Y-65400000D02*
X134300000Y-65400000D01*
X132227000Y-54076391D02*
X132227000Y-54968609D01*
D41*
%TO.N,Net-(U1-g)*%
X104500000Y-57087500D02*
X131125000Y-57087500D01*
X131125000Y-57087500D02*
X133690000Y-54522500D01*
%TO.N,dp*%
X101750000Y-91000000D02*
X124570210Y-91000000D01*
X137827262Y-83875000D02*
X139862500Y-83875000D01*
X104849720Y-82320200D02*
X132109590Y-82320200D01*
X131593610Y-83976600D02*
X104821520Y-83976600D01*
X132109590Y-82320200D02*
X132832990Y-81596800D01*
X135549063Y-81596800D02*
X137827262Y-83875000D01*
X104821520Y-83976600D02*
X104498400Y-83653480D01*
X104498400Y-82671520D02*
X104849720Y-82320200D01*
X101750000Y-72412500D02*
X101750000Y-91000000D01*
X124570210Y-91000000D02*
X131593610Y-83976600D01*
X105000000Y-69162500D02*
X101750000Y-72412500D01*
X104498400Y-83653480D02*
X104498400Y-82671520D01*
X132832990Y-81596800D02*
X135549063Y-81596800D01*
%TO.N,Net-(U1-DPX)*%
X113250000Y-59000000D02*
X134292500Y-59000000D01*
X105000000Y-67337500D02*
X113250000Y-59087500D01*
X134292500Y-59000000D02*
X138770000Y-54522500D01*
X113250000Y-59087500D02*
X113250000Y-59000000D01*
D44*
%TO.N,USB_CONN_D+*%
X111824999Y-114000001D02*
X110325000Y-115500000D01*
X113163604Y-115100000D02*
X112900000Y-114836396D01*
X112412501Y-114000001D02*
X111824999Y-114000001D01*
X113512500Y-115100000D02*
X113163604Y-115100000D01*
X112900000Y-114487500D02*
X112412501Y-114000001D01*
X113862500Y-115450000D02*
X113512500Y-115100000D01*
X112900000Y-114836396D02*
X112900000Y-114487500D01*
%TO.N,USB_CONN_D-*%
X111638603Y-113550000D02*
X111188603Y-114000000D01*
X111188603Y-114000000D02*
X110325000Y-114000000D01*
X113862500Y-113550000D02*
X111638603Y-113550000D01*
D41*
%TO.N,Dig4*%
X146353200Y-114500000D02*
X150100000Y-110753200D01*
X183100000Y-87798900D02*
X183100000Y-85301100D01*
X131150000Y-48250000D02*
X131150000Y-54522500D01*
X172000000Y-54898900D02*
X172000000Y-48000000D01*
X183100000Y-110800000D02*
X183100000Y-91300000D01*
X183000000Y-110700000D02*
X183100000Y-110800000D01*
X150100000Y-110753200D02*
X150100000Y-110700000D01*
X130900000Y-48000000D02*
X131150000Y-48250000D01*
X183100000Y-80900000D02*
X171800000Y-69600000D01*
X172000000Y-48000000D02*
X130900000Y-48000000D01*
X171800000Y-69600000D02*
X171800000Y-56501100D01*
X171800000Y-56501100D02*
X172000000Y-56301100D01*
X183100000Y-83898900D02*
X183100000Y-80900000D01*
X145400000Y-114500000D02*
X146353200Y-114500000D01*
X150100000Y-110700000D02*
X183000000Y-110700000D01*
%TO.N,Dig3*%
X167600000Y-57100000D02*
X167500000Y-57000000D01*
X167600000Y-96300000D02*
X167600000Y-57100000D01*
X141300000Y-96400000D02*
X167500000Y-96400000D01*
X167500000Y-96400000D02*
X167600000Y-96300000D01*
X135700000Y-118300000D02*
X136200000Y-117800000D01*
X146452500Y-57000000D02*
X133690000Y-69762500D01*
X137600000Y-116200000D02*
X137600000Y-115600000D01*
X141300000Y-108900000D02*
X141300000Y-96400000D01*
X135700000Y-121800000D02*
X135700000Y-118300000D01*
X167500000Y-57000000D02*
X146452500Y-57000000D01*
X137600000Y-115600000D02*
X141200000Y-112000000D01*
%TO.N,Dig2*%
X145400000Y-117700000D02*
X146353200Y-117700000D01*
X148700000Y-55600000D02*
X148600000Y-55700000D01*
X197700000Y-114000000D02*
X197700000Y-86000000D01*
X197500000Y-55600000D02*
X148700000Y-55600000D01*
X189000000Y-114000000D02*
X197700000Y-114000000D01*
X197500000Y-83300000D02*
X197500000Y-74500000D01*
X146353200Y-117700000D02*
X149953200Y-114100000D01*
X149953200Y-114100000D02*
X150200000Y-114100000D01*
X197500000Y-74500000D02*
X197500000Y-55600000D01*
X148291400Y-57701100D02*
X136230000Y-69762500D01*
X148600000Y-57701100D02*
X148291400Y-57701100D01*
X197700000Y-86000000D02*
X197600000Y-85900000D01*
X150200000Y-114100000D02*
X184200000Y-114100000D01*
D43*
%TO.N,Dig1*%
X149532600Y-109771400D02*
X171728600Y-109771400D01*
X173800000Y-83700000D02*
X173800000Y-82300000D01*
X173800000Y-82300000D02*
X173700000Y-82200000D01*
X166500000Y-78000000D02*
X152087500Y-78000000D01*
X146404000Y-112900000D02*
X149532600Y-109771400D01*
X145400000Y-112900000D02*
X146404000Y-112900000D01*
X170900000Y-80500000D02*
X168600000Y-78200000D01*
X173800000Y-107700000D02*
X173800000Y-91200000D01*
X152087500Y-78000000D02*
X143850000Y-69762500D01*
X171728600Y-109771400D02*
X173800000Y-107700000D01*
X173700000Y-80500000D02*
X170900000Y-80500000D01*
X173800000Y-87600000D02*
X173800000Y-85500000D01*
D39*
%TO.N,SH_CP*%
X127300000Y-94700000D02*
X124900000Y-94700000D01*
X132275000Y-84525000D02*
X134137500Y-84525000D01*
X134000000Y-95800000D02*
X134000000Y-112100000D01*
X124900000Y-94700000D02*
X123800000Y-93600000D01*
X129900000Y-94700000D02*
X132900000Y-94700000D01*
X132900000Y-94700000D02*
X134000000Y-95800000D01*
X127000000Y-87200000D02*
X127000000Y-84800000D01*
X131900000Y-84900000D02*
X132275000Y-84525000D01*
X127000000Y-84800000D02*
X129700000Y-84800000D01*
X127189352Y-87389352D02*
X127000000Y-87200000D01*
X124651100Y-92048900D02*
X128100000Y-88600000D01*
X123800000Y-92048900D02*
X124651100Y-92048900D01*
D41*
%TO.N,ST_CP*%
X195300000Y-88500000D02*
X168400000Y-88500000D01*
X147000000Y-91300000D02*
X141100000Y-91300000D01*
X166800000Y-88500000D02*
X152400000Y-88500000D01*
X141100000Y-91300000D02*
X140600000Y-90800000D01*
X137425000Y-85175000D02*
X134137500Y-85175000D01*
X152400000Y-88500000D02*
X149100000Y-91800000D01*
X150453200Y-112000000D02*
X184400000Y-112000000D01*
X187789623Y-111906611D02*
X195493389Y-111906611D01*
X138500000Y-85800000D02*
X137700000Y-85000000D01*
X146353200Y-116100000D02*
X150453200Y-112000000D01*
X139229247Y-90029247D02*
X138500000Y-89300000D01*
X138500000Y-89300000D02*
X138500000Y-85800000D01*
X137700000Y-85000000D02*
X137600000Y-85000000D01*
X195500000Y-111900000D02*
X195500000Y-88700000D01*
X145400000Y-116100000D02*
X146353200Y-116100000D01*
X149100000Y-91800000D02*
X149000000Y-91800000D01*
X137600000Y-85000000D02*
X137425000Y-85175000D01*
X195500000Y-88700000D02*
X195300000Y-88500000D01*
X195493389Y-111906611D02*
X195500000Y-111900000D01*
%TO.N,DS*%
X194500000Y-110800000D02*
X194600000Y-110900000D01*
X136129727Y-87470273D02*
X135134454Y-86475000D01*
X194600000Y-110900000D02*
X194600000Y-90200000D01*
X194500000Y-90100000D02*
X168800000Y-90100000D01*
X152500000Y-90200000D02*
X148200000Y-94500000D01*
X135500000Y-94500000D02*
X135500000Y-94152700D01*
X194600000Y-90200000D02*
X194500000Y-90100000D01*
X146400000Y-115300000D02*
X150400000Y-111300000D01*
X152600000Y-90100000D02*
X152500000Y-90200000D01*
X147900000Y-94500000D02*
X135500000Y-94500000D01*
X135134454Y-86475000D02*
X134137500Y-86475000D01*
X135400000Y-91300000D02*
X135400000Y-89000000D01*
X166600000Y-90100000D02*
X152600000Y-90100000D01*
X150401600Y-111298400D02*
X185599500Y-111298400D01*
X148200000Y-94500000D02*
X147900000Y-94500000D01*
X145400000Y-115300000D02*
X146400000Y-115300000D01*
X188300000Y-110800000D02*
X194500000Y-110800000D01*
X150400000Y-111300000D02*
X150401600Y-111298400D01*
X185599500Y-111298400D02*
X185600000Y-111298900D01*
D44*
%TO.N,USB_D-*%
X132950000Y-113925000D02*
X133775000Y-113925000D01*
X116137500Y-113550000D02*
X116487500Y-113900000D01*
X116836396Y-113900000D02*
X117211395Y-114274999D01*
X133775000Y-113925000D02*
X134000000Y-113700000D01*
X117211395Y-114274999D02*
X132950000Y-114274999D01*
X116487500Y-113900000D02*
X116836396Y-113900000D01*
X132950000Y-114274999D02*
X132950000Y-113925000D01*
%TO.N,USB_D+*%
X116137500Y-115450000D02*
X116487500Y-115100000D01*
X116487500Y-115100000D02*
X116836396Y-115100000D01*
X116836396Y-115100000D02*
X117211395Y-114725001D01*
X133836397Y-114500000D02*
X134000000Y-114500000D01*
X117211395Y-114725001D02*
X133611396Y-114725001D01*
X133611396Y-114725001D02*
X133836397Y-114500000D01*
%TD*%
D45*
X200100000Y-50480000D02*
G75*
G03*
X196100000Y-46480000I-4000000J0D01*
G01*
X102100000Y-46480000D02*
G75*
G03*
X98100000Y-50480000I0J-4000000D01*
G01*
X98100000Y-144480000D02*
X98100000Y-50480000D01*
X98100000Y-144480000D02*
G75*
G03*
X102100000Y-148480000I4000000J0D01*
G01*
X102100000Y-46480000D02*
X196100000Y-46480000D01*
X196100000Y-148480000D02*
G75*
G03*
X200100000Y-144480000I0J4000000D01*
G01*
X200100000Y-144480000D02*
X200100000Y-50480000D01*
X102100000Y-148480000D02*
X196100000Y-148480000D01*
D46*
%TO.C,LS1*%
X185750000Y-66500000D02*
G75*
G03*
X185750000Y-66500000I-6250000J0D01*
G01*
%TO.C,H5*%
X156350000Y-102400000D02*
G75*
G03*
X156350000Y-102400000I-2450000J0D01*
G01*
%TO.C,R14*%
X108020000Y-114770000D02*
X110980000Y-114770000D01*
X108020000Y-116230000D02*
X108020000Y-114770000D01*
X110980000Y-114770000D02*
X110980000Y-116230000D01*
X110980000Y-116230000D02*
X108020000Y-116230000D01*
%TO.C,R13*%
X128655000Y-141730000D02*
X125695000Y-141730000D01*
X128655000Y-140270000D02*
X128655000Y-141730000D01*
X125695000Y-141730000D02*
X125695000Y-140270000D01*
X125695000Y-140270000D02*
X128655000Y-140270000D01*
%TO.C,D3*%
X107757500Y-99550000D02*
X111117500Y-99550000D01*
X107757500Y-101450000D02*
X107757500Y-99550000D01*
X111117500Y-99550000D02*
X111117500Y-101450000D01*
X111117500Y-101450000D02*
X107757500Y-101450000D01*
%TO.C,R12*%
X104050000Y-69930000D02*
X104050000Y-66570000D01*
X105950000Y-69930000D02*
X104050000Y-69930000D01*
X104050000Y-66570000D02*
X105950000Y-66570000D01*
X105950000Y-66570000D02*
X105950000Y-69930000D01*
%TO.C,D1*%
X154382500Y-81550000D02*
X157742500Y-81550000D01*
X154382500Y-83450000D02*
X154382500Y-81550000D01*
X157742500Y-81550000D02*
X157742500Y-83450000D01*
X157742500Y-83450000D02*
X154382500Y-83450000D01*
%TO.C,C2*%
X142770000Y-130480000D02*
X142770000Y-127520000D01*
X144230000Y-130480000D02*
X142770000Y-130480000D01*
X142770000Y-127520000D02*
X144230000Y-127520000D01*
X144230000Y-127520000D02*
X144230000Y-130480000D01*
%TO.C,C10*%
X135070000Y-108900000D02*
X135070000Y-105940000D01*
X136530000Y-108900000D02*
X135070000Y-108900000D01*
X135070000Y-105940000D02*
X136530000Y-105940000D01*
X136530000Y-105940000D02*
X136530000Y-108900000D01*
%TO.C,C12*%
X136770000Y-108980000D02*
X136770000Y-106020000D01*
X138230000Y-108980000D02*
X136770000Y-108980000D01*
X136770000Y-106020000D02*
X138230000Y-106020000D01*
X138230000Y-106020000D02*
X138230000Y-108980000D01*
%TO.C,R4*%
X162152500Y-86355000D02*
X158792500Y-86355000D01*
X162152500Y-84455000D02*
X162152500Y-86355000D01*
X158792500Y-86355000D02*
X158792500Y-84455000D01*
X158792500Y-84455000D02*
X162152500Y-84455000D01*
D47*
%TO.C,S2*%
X187150000Y-130000000D02*
X168850000Y-130000000D01*
X187150000Y-130000000D02*
X168850000Y-130000000D01*
X187150000Y-116000000D02*
X187150000Y-130000000D01*
X187150000Y-116000000D02*
X187150000Y-130000000D01*
X168850000Y-130000000D02*
X168850000Y-116000000D01*
X168850000Y-130000000D02*
X168850000Y-116000000D01*
X168850000Y-116000000D02*
X187150000Y-116000000D01*
X168850000Y-116000000D02*
X187150000Y-116000000D01*
D46*
%TO.C,R16*%
X114980000Y-101230000D02*
X112020000Y-101230000D01*
X114980000Y-99770000D02*
X114980000Y-101230000D01*
X112020000Y-101230000D02*
X112020000Y-99770000D01*
X112020000Y-99770000D02*
X114980000Y-99770000D01*
%TO.C,R7*%
X104050000Y-64680000D02*
X104050000Y-61320000D01*
X105950000Y-64680000D02*
X104050000Y-64680000D01*
X104050000Y-61320000D02*
X105950000Y-61320000D01*
X105950000Y-61320000D02*
X105950000Y-64680000D01*
%TO.C,C8*%
X132550000Y-111580000D02*
X129150000Y-111580000D01*
X132550000Y-109620000D02*
X132550000Y-111580000D01*
X129150000Y-111580000D02*
X129150000Y-109620000D01*
X129150000Y-109620000D02*
X132550000Y-109620000D01*
%TO.C,U3*%
X133000000Y-109400000D02*
X133000000Y-122800000D01*
X133000000Y-109400000D02*
X146400000Y-109400000D01*
X133000000Y-122800000D02*
X146400000Y-122800000D01*
X146400000Y-109400000D02*
X146400000Y-122800000D01*
D47*
%TO.C,S1*%
X187300000Y-110500000D02*
X169000000Y-110500000D01*
X187300000Y-110500000D02*
X169000000Y-110500000D01*
X187300000Y-96500000D02*
X187300000Y-110500000D01*
X187300000Y-96500000D02*
X187300000Y-110500000D01*
X169000000Y-110500000D02*
X169000000Y-96500000D01*
X169000000Y-110500000D02*
X169000000Y-96500000D01*
X169000000Y-96500000D02*
X187300000Y-96500000D01*
X169000000Y-96500000D02*
X187300000Y-96500000D01*
D46*
%TO.C,C11*%
X143320000Y-107190000D02*
X146280000Y-107190000D01*
X143320000Y-108650000D02*
X143320000Y-107190000D01*
X146280000Y-107190000D02*
X146280000Y-108650000D01*
X146280000Y-108650000D02*
X143320000Y-108650000D01*
%TO.C,C5*%
X132180000Y-113330000D02*
X129220000Y-113330000D01*
X132180000Y-111870000D02*
X132180000Y-113330000D01*
X129220000Y-113330000D02*
X129220000Y-111870000D01*
X129220000Y-111870000D02*
X132180000Y-111870000D01*
%TO.C,U2*%
X140850000Y-88250000D02*
X140850000Y-82750000D01*
X140850000Y-82750000D02*
X133150000Y-82750000D01*
X133150000Y-88250000D02*
X140850000Y-88250000D01*
X133150000Y-82750000D02*
X133150000Y-88250000D01*
%TO.C,J3*%
X101120000Y-138550000D02*
X101120000Y-132450000D01*
X112320000Y-138550000D02*
X101120000Y-138550000D01*
X101120000Y-132450000D02*
X112320000Y-132450000D01*
X112320000Y-132450000D02*
X112320000Y-138550000D01*
%TO.C,C3*%
X134770000Y-130480000D02*
X134770000Y-127520000D01*
X136230000Y-130480000D02*
X134770000Y-130480000D01*
X134770000Y-127520000D02*
X136230000Y-127520000D01*
X136230000Y-127520000D02*
X136230000Y-130480000D01*
%TO.C,C7*%
X146995000Y-118370000D02*
X149955000Y-118370000D01*
X146995000Y-119830000D02*
X146995000Y-118370000D01*
X149955000Y-118370000D02*
X149955000Y-119830000D01*
X149955000Y-119830000D02*
X146995000Y-119830000D01*
%TO.C,F1*%
X109050000Y-105550000D02*
X114950000Y-105550000D01*
X109050000Y-109450000D02*
X109050000Y-105550000D01*
X114950000Y-105550000D02*
X114950000Y-109450000D01*
X114950000Y-109450000D02*
X109050000Y-109450000D01*
%TO.C,J1*%
X131840000Y-121700000D02*
X131840000Y-127800000D01*
X123190000Y-121700000D02*
X131840000Y-121700000D01*
X131840000Y-127800000D02*
X123190000Y-127800000D01*
X123190000Y-127800000D02*
X123190000Y-121700000D01*
%TO.C,C14*%
X121230000Y-125520000D02*
X121230000Y-128480000D01*
X119770000Y-125520000D02*
X121230000Y-125520000D01*
X121230000Y-128480000D02*
X119770000Y-128480000D01*
X119770000Y-128480000D02*
X119770000Y-125520000D01*
%TO.C,U1*%
X162900000Y-52392500D02*
X162900000Y-71892500D01*
X112100000Y-52392500D02*
X162900000Y-52392500D01*
X162900000Y-71892500D02*
X112100000Y-71892500D01*
X112100000Y-71892500D02*
X112100000Y-52392500D01*
%TO.C,D2*%
X154382500Y-84590000D02*
X157742500Y-84590000D01*
X154382500Y-86490000D02*
X154382500Y-84590000D01*
X157742500Y-84590000D02*
X157742500Y-86490000D01*
X157742500Y-86490000D02*
X154382500Y-86490000D01*
%TO.C,Y1*%
X141600000Y-130700000D02*
X141600000Y-127300000D01*
X141600000Y-127300000D02*
X137400000Y-127300000D01*
X137400000Y-130700000D02*
X141600000Y-130700000D01*
X137400000Y-127300000D02*
X137400000Y-130700000D01*
%TO.C,R15*%
X108020000Y-113270000D02*
X110980000Y-113270000D01*
X108020000Y-114730000D02*
X108020000Y-113270000D01*
X110980000Y-113270000D02*
X110980000Y-114730000D01*
X110980000Y-114730000D02*
X108020000Y-114730000D01*
%TO.C,R5*%
X145250000Y-78080000D02*
X145250000Y-74720000D01*
X147150000Y-78080000D02*
X145250000Y-78080000D01*
X145250000Y-74720000D02*
X147150000Y-74720000D01*
X147150000Y-74720000D02*
X147150000Y-78080000D01*
%TO.C,U4*%
X112950000Y-112800000D02*
X112950000Y-116200000D01*
X112950000Y-116200000D02*
X117050000Y-116200000D01*
X117050000Y-112800000D02*
X112950000Y-112800000D01*
X117050000Y-116200000D02*
X117050000Y-112800000D01*
%TO.C,C1*%
X132480000Y-88230000D02*
X129520000Y-88230000D01*
X132480000Y-86770000D02*
X132480000Y-88230000D01*
X129520000Y-88230000D02*
X129520000Y-86770000D01*
X129520000Y-86770000D02*
X132480000Y-86770000D01*
%TO.C,C15*%
X113980000Y-125730000D02*
X111020000Y-125730000D01*
X113980000Y-124270000D02*
X113980000Y-125730000D01*
X111020000Y-125730000D02*
X111020000Y-124270000D01*
X111020000Y-124270000D02*
X113980000Y-124270000D01*
%TO.C,R8*%
X104050000Y-76592500D02*
X104050000Y-73232500D01*
X105950000Y-76592500D02*
X104050000Y-76592500D01*
X104050000Y-73232500D02*
X105950000Y-73232500D01*
X105950000Y-73232500D02*
X105950000Y-76592500D01*
%TO.C,H3*%
X104550000Y-144480000D02*
G75*
G03*
X104550000Y-144480000I-2450000J0D01*
G01*
%TO.C,R1*%
X166830000Y-106950000D02*
X163470000Y-106950000D01*
X166830000Y-105050000D02*
X166830000Y-106950000D01*
X163470000Y-106950000D02*
X163470000Y-105050000D01*
X163470000Y-105050000D02*
X166830000Y-105050000D01*
%TO.C,C13*%
X112270000Y-122980000D02*
X112270000Y-120020000D01*
X113730000Y-122980000D02*
X112270000Y-122980000D01*
X112270000Y-120020000D02*
X113730000Y-120020000D01*
X113730000Y-120020000D02*
X113730000Y-122980000D01*
%TO.C,R3*%
X162152500Y-83405000D02*
X158792500Y-83405000D01*
X162152500Y-81505000D02*
X162152500Y-83405000D01*
X158792500Y-83405000D02*
X158792500Y-81505000D01*
X158792500Y-81505000D02*
X162152500Y-81505000D01*
%TO.C,U5*%
X117700000Y-121950000D02*
X114300000Y-121950000D01*
X114300000Y-121950000D02*
X114300000Y-126050000D01*
X117700000Y-126050000D02*
X117700000Y-121950000D01*
X114300000Y-126050000D02*
X117700000Y-126050000D01*
%TO.C,R11*%
X103550000Y-59680000D02*
X103550000Y-56320000D01*
X105450000Y-59680000D02*
X103550000Y-59680000D01*
X103550000Y-56320000D02*
X105450000Y-56320000D01*
X105450000Y-56320000D02*
X105450000Y-59680000D01*
%TO.C,H2*%
X198550000Y-50480000D02*
G75*
G03*
X198550000Y-50480000I-2450000J0D01*
G01*
%TO.C,C9*%
X132248330Y-116525791D02*
X129288330Y-116525791D01*
X132248330Y-115065791D02*
X132248330Y-116525791D01*
X129288330Y-116525791D02*
X129288330Y-115065791D01*
X129288330Y-115065791D02*
X132248330Y-115065791D01*
%TO.C,H4*%
X198550000Y-144480000D02*
G75*
G03*
X198550000Y-144480000I-2450000J0D01*
G01*
%TO.C,R10*%
X139050000Y-75680000D02*
X139050000Y-72320000D01*
X140950000Y-75680000D02*
X139050000Y-75680000D01*
X139050000Y-72320000D02*
X140950000Y-72320000D01*
X140950000Y-72320000D02*
X140950000Y-75680000D01*
%TO.C,J2*%
X106525000Y-109050000D02*
X103825000Y-109050000D01*
X106525000Y-109050000D02*
X106525000Y-112650000D01*
X101075000Y-109050000D02*
X98375000Y-109050000D01*
X103825000Y-110650000D02*
X103825000Y-109050000D01*
X103825000Y-110650000D02*
X101075000Y-110650000D01*
X101075000Y-110650000D02*
X101075000Y-109050000D01*
X98375000Y-110650000D02*
X98375000Y-109050000D01*
X96225000Y-110650000D02*
X98375000Y-110650000D01*
X96225000Y-110650000D02*
X96225000Y-119350000D01*
X106525000Y-112650000D02*
X106775000Y-112650000D01*
X106775000Y-117350000D02*
X106775000Y-112650000D01*
X106525000Y-117350000D02*
X106775000Y-117350000D01*
X103825000Y-119350000D02*
X101075000Y-119350000D01*
X103825000Y-119350000D02*
X103825000Y-120950000D01*
X101075000Y-119350000D02*
X101075000Y-120950000D01*
X98375000Y-119350000D02*
X98375000Y-120950000D01*
X96225000Y-119350000D02*
X98375000Y-119350000D01*
X106525000Y-120950000D02*
X106525000Y-117350000D01*
X106525000Y-120950000D02*
X103825000Y-120950000D01*
X101075000Y-120950000D02*
X98375000Y-120950000D01*
%TO.C,R6*%
X149550000Y-86180000D02*
X149550000Y-82820000D01*
X151450000Y-86180000D02*
X149550000Y-86180000D01*
X149550000Y-82820000D02*
X151450000Y-82820000D01*
X151450000Y-82820000D02*
X151450000Y-86180000D01*
%TO.C,R17*%
X108655000Y-130730000D02*
X105695000Y-130730000D01*
X108655000Y-129270000D02*
X108655000Y-130730000D01*
X105695000Y-130730000D02*
X105695000Y-129270000D01*
X105695000Y-129270000D02*
X108655000Y-129270000D01*
%TO.C,S3*%
X123250000Y-133850000D02*
X130750000Y-133850000D01*
X123250000Y-139150000D02*
X123250000Y-133850000D01*
X130750000Y-133850000D02*
X130750000Y-139150000D01*
X130750000Y-139150000D02*
X123250000Y-139150000D01*
%TO.C,C6*%
X132280000Y-118230000D02*
X129320000Y-118230000D01*
X132280000Y-116770000D02*
X132280000Y-118230000D01*
X129320000Y-118230000D02*
X129320000Y-116770000D01*
X129320000Y-116770000D02*
X132280000Y-116770000D01*
%TO.C,C4*%
X138030000Y-123165000D02*
X138030000Y-126125000D01*
X136570000Y-123165000D02*
X138030000Y-123165000D01*
X138030000Y-126125000D02*
X136570000Y-126125000D01*
X136570000Y-126125000D02*
X136570000Y-123165000D01*
%TO.C,R2*%
X167330000Y-126450000D02*
X163970000Y-126450000D01*
X167330000Y-124550000D02*
X167330000Y-126450000D01*
X163970000Y-126450000D02*
X163970000Y-124550000D01*
X163970000Y-124550000D02*
X167330000Y-124550000D01*
%TO.C,R9*%
X104550000Y-83930000D02*
X104550000Y-80570000D01*
X106450000Y-83930000D02*
X104550000Y-83930000D01*
X104550000Y-80570000D02*
X106450000Y-80570000D01*
X106450000Y-80570000D02*
X106450000Y-83930000D01*
%TO.C,H1*%
X104550000Y-50480000D02*
G75*
G03*
X104550000Y-50480000I-2450000J0D01*
G01*
%TD*%
M02*
