M48
; DRILL file {KiCad (7.0.0)} date Thu Apr 20 13:58:55 2023
; FORMAT={-:-/ absolute / inch / decimal}
; #@! TF.CreationDate,2023-04-20T13:58:55-06:00
; #@! TF.GenerationSoftware,Kicad,Pcbnew,(7.0.0)
; #@! TF.FileFunction,Plated,1,2,PTH
FMAT,2
INCH
; #@! TA.AperFunction,Plated,PTH,ViaDrill
T1C0.0157
; #@! TA.AperFunction,Plated,PTH,ComponentDrill
T2C0.0394
%
G90
G05
T1
X4.2035Y-4.5908
X4.2314Y-3.9533
X4.2323Y-3.0217
X4.311Y-3.061
X4.3626Y-4.9207
X4.4493Y-4.7156
X4.4882Y-5.2953
X4.5227Y-4.5079
X4.5669Y-4.5079
X4.5669Y-5.2953
X4.5675Y-4.7915
X4.7047Y-4.4685
X4.7047Y-4.5472
X4.7442Y-5.0671
X4.874Y-3.624
X4.874Y-3.685
X4.8786Y-4.6736
X4.8809Y-5.2683
X4.9409Y-4.7441
X4.9803Y-4.6654
X5.0075Y-3.4405
X5.0118Y-3.7283
X5.0245Y-4.7195
X5.0394Y-3.6516
X5.0433Y-3.4882
X5.0591Y-5.0295
X5.0591Y-5.0984
X5.0778Y-4.3546
X5.0787Y-4.626
X5.0801Y-4.4306
X5.0816Y-4.5577
X5.0859Y-3.4451
X5.1063Y-3.3386
X5.1142Y-3.7283
X5.1374Y-5.0591
X5.1374Y-5.1378
X5.1929Y-3.3425
X5.1969Y-3.6516
X5.2046Y-5.0591
X5.2322Y-3.3783
X5.2323Y-4.0551
X5.2649Y-4.9598
X5.2657Y-5.0394
X5.2657Y-5.1378
X5.3031Y-3.5472
X5.311Y-4.0551
X5.3247Y-4.5378
X5.3307Y-3.5039
X5.3307Y-3.5945
X5.3346Y-3.7068
X5.3349Y-5.0102
X5.3459Y-4.1641
X5.3594Y-3.4437
X5.3622Y-4.6378
X5.3701Y-3.3189
X5.3701Y-3.3858
X5.3741Y-4.3947
X5.4063Y-4.9728
X5.4094Y-3.4882
X5.4122Y-4.1644
X5.4173Y-4.5748
X5.4375Y-4.7461
X5.4409Y-3.1457
X5.4449Y-3.2205
X5.4488Y-5.0026
X5.4715Y-4.9606
X5.4815Y-3.5445
X5.502Y-3.5039
X5.5197Y-4.0551
X5.5315Y-4.9606
X5.5354Y-3.5748
X5.5395Y-5.1556
X5.5534Y-3.276
X5.5591Y-4.4094
X5.561Y-4.6605
X5.561Y-4.7277
X5.563Y-4.2874
X5.6102Y-4.0551
X5.6201Y-3.5039
X5.6262Y-4.3931
X5.6496Y-3.3543
X5.6511Y-5.1462
X5.6693Y-5.7283
X5.6777Y-4.7278
X5.7087Y-5.5118
X5.7087Y-5.5848
X5.7441Y-3.3583
X5.748Y-5.7283
X5.7664Y-4.2485
X5.7677Y-4.3898
X5.7874Y-3.5945
X5.7874Y-5.0118
X5.7874Y-5.067
X5.8031Y-3.2632
X5.811Y-3.3228
X5.8504Y-2.1929
X5.8504Y-2.2717
X5.8661Y-3.6142
X5.9055Y-5.0
X5.9055Y-5.067
X5.9055Y-5.5118
X5.9055Y-5.5906
X5.9116Y-4.6914
X6.0687Y-3.3663
X6.0709Y-3.248
X6.426Y-4.1747
X6.4418Y-4.9457
X6.5512Y-3.3307
X6.5551Y-3.0709
X6.5591Y-3.2087
X6.5591Y-3.5472
X6.5669Y-3.4843
X6.6299Y-3.4843
X6.6378Y-3.0787
X6.6417Y-3.3307
X6.6457Y-3.5472
X6.6614Y-3.2087
X6.7717Y-2.1614
X6.7717Y-2.2166
X6.8386Y-3.1693
X6.8386Y-3.2362
X6.8425Y-3.2953
X6.8425Y-3.3661
X6.8425Y-3.4488
X6.8425Y-3.5906
X7.1339Y-3.2992
X7.1378Y-3.3622
X7.1378Y-3.4449
X7.1378Y-3.5787
X7.2087Y-3.3031
X7.2087Y-3.3583
X7.2087Y-3.4566
X7.2087Y-3.5945
X7.252Y-4.4921
X7.2598Y-4.4094
X7.3031Y-4.4449
X7.3031Y-4.5236
X7.3071Y-4.3818
X7.3933Y-4.4058
X7.3976Y-4.4449
X7.4016Y-4.5236
X7.4134Y-4.3622
X7.4409Y-4.4882
X7.7362Y-3.3031
X7.7362Y-3.3583
X7.7756Y-3.2795
X7.7795Y-3.3819
T2
X4.052Y-5.2839
X4.052Y-5.3839
X4.152Y-5.2839
X4.152Y-5.3839
X4.252Y-5.2839
X4.252Y-5.3839
X4.352Y-5.2839
X4.352Y-5.3839
X4.9197Y-4.8622
X4.9197Y-4.9622
X5.0197Y-4.8622
X5.0197Y-4.9622
X5.1197Y-4.8622
X5.1197Y-4.9622
X5.1634Y-2.1466
X5.1634Y-2.7466
X5.2634Y-2.1466
X5.2634Y-2.7466
X5.3634Y-2.1466
X5.3634Y-2.7466
X5.4634Y-2.1466
X5.4634Y-2.7466
X5.5634Y-2.1466
X5.5634Y-2.7466
X5.6634Y-2.1466
X5.6634Y-2.7466
X6.9173Y-2.6181
X7.2165Y-2.6181
T0
M30
