%TF.GenerationSoftware,KiCad,Pcbnew,(7.0.0)*%
%TF.CreationDate,2023-04-24T10:14:55-06:00*%
%TF.ProjectId,Phase_B_ATMEGA_v3,50686173-655f-4425-9f41-544d4547415f,rev?*%
%TF.SameCoordinates,Original*%
%TF.FileFunction,Soldermask,Top*%
%TF.FilePolarity,Negative*%
%FSLAX46Y46*%
G04 Gerber Fmt 4.6, Leading zero omitted, Abs format (unit mm)*
G04 Created by KiCad (PCBNEW (7.0.0)) date 2023-04-24 10:14:55*
%MOMM*%
%LPD*%
G01*
G04 APERTURE LIST*
G04 Aperture macros list*
%AMRoundRect*
0 Rectangle with rounded corners*
0 $1 Rounding radius*
0 $2 $3 $4 $5 $6 $7 $8 $9 X,Y pos of 4 corners*
0 Add a 4 corners polygon primitive as box body*
4,1,4,$2,$3,$4,$5,$6,$7,$8,$9,$2,$3,0*
0 Add four circle primitives for the rounded corners*
1,1,$1+$1,$2,$3*
1,1,$1+$1,$4,$5*
1,1,$1+$1,$6,$7*
1,1,$1+$1,$8,$9*
0 Add four rect primitives between the rounded corners*
20,1,$1+$1,$2,$3,$4,$5,0*
20,1,$1+$1,$4,$5,$6,$7,0*
20,1,$1+$1,$6,$7,$8,$9,0*
20,1,$1+$1,$8,$9,$2,$3,0*%
G04 Aperture macros list end*
%ADD10C,2.200000*%
%ADD11R,2.000000X2.000000*%
%ADD12C,2.000000*%
%ADD13RoundRect,0.200000X-0.200000X-0.275000X0.200000X-0.275000X0.200000X0.275000X-0.200000X0.275000X0*%
%ADD14RoundRect,0.200000X0.200000X0.275000X-0.200000X0.275000X-0.200000X-0.275000X0.200000X-0.275000X0*%
%ADD15RoundRect,0.243750X-0.243750X-0.456250X0.243750X-0.456250X0.243750X0.456250X-0.243750X0.456250X0*%
%ADD16RoundRect,0.250000X0.450000X-0.262500X0.450000X0.262500X-0.450000X0.262500X-0.450000X-0.262500X0*%
%ADD17RoundRect,0.225000X0.250000X-0.225000X0.250000X0.225000X-0.250000X0.225000X-0.250000X-0.225000X0*%
%ADD18RoundRect,0.250000X0.262500X0.450000X-0.262500X0.450000X-0.262500X-0.450000X0.262500X-0.450000X0*%
%ADD19R,2.000000X1.500000*%
%ADD20RoundRect,0.250000X0.250000X0.475000X-0.250000X0.475000X-0.250000X-0.475000X0.250000X-0.475000X0*%
%ADD21R,1.500000X0.550000*%
%ADD22R,0.550000X1.500000*%
%ADD23RoundRect,0.225000X-0.225000X-0.250000X0.225000X-0.250000X0.225000X0.250000X-0.225000X0.250000X0*%
%ADD24RoundRect,0.225000X0.225000X0.250000X-0.225000X0.250000X-0.225000X-0.250000X0.225000X-0.250000X0*%
%ADD25RoundRect,0.100000X0.637500X0.100000X-0.637500X0.100000X-0.637500X-0.100000X0.637500X-0.100000X0*%
%ADD26R,1.700000X1.700000*%
%ADD27O,1.700000X1.700000*%
%ADD28RoundRect,0.250000X-0.312500X-1.450000X0.312500X-1.450000X0.312500X1.450000X-0.312500X1.450000X0*%
%ADD29RoundRect,0.225000X-0.250000X0.225000X-0.250000X-0.225000X0.250000X-0.225000X0.250000X0.225000X0*%
%ADD30R,1.500000X1.500000*%
%ADD31C,1.500000*%
%ADD32R,1.400000X1.200000*%
%ADD33RoundRect,0.150000X-0.512500X-0.150000X0.512500X-0.150000X0.512500X0.150000X-0.512500X0.150000X0*%
%ADD34RoundRect,0.150000X-0.150000X0.512500X-0.150000X-0.512500X0.150000X-0.512500X0.150000X0.512500X0*%
%ADD35C,1.000000*%
%ADD36R,2.000000X0.500000*%
%ADD37R,1.700000X2.000000*%
%ADD38R,1.000000X0.700000*%
G04 APERTURE END LIST*
D10*
%TO.C,H4*%
X103100000Y-125900000D03*
%TD*%
%TO.C,H4*%
X191400000Y-136800000D03*
%TD*%
D11*
%TO.C,LS1*%
X183299999Y-66499999D03*
D12*
X175700000Y-66500000D03*
%TD*%
D10*
%TO.C,H5*%
X153900000Y-102400000D03*
%TD*%
D13*
%TO.C,R14*%
X108675000Y-115500000D03*
X110325000Y-115500000D03*
%TD*%
D14*
%TO.C,R13*%
X128000000Y-141000000D03*
X126350000Y-141000000D03*
%TD*%
D15*
%TO.C,D3*%
X108500000Y-100500000D03*
X110375000Y-100500000D03*
%TD*%
D16*
%TO.C,R12*%
X105000000Y-69162500D03*
X105000000Y-67337500D03*
%TD*%
D15*
%TO.C,D1*%
X155125000Y-82500000D03*
X157000000Y-82500000D03*
%TD*%
D17*
%TO.C,C2*%
X143500000Y-129775000D03*
X143500000Y-128225000D03*
%TD*%
%TO.C,C10*%
X135800000Y-108195000D03*
X135800000Y-106645000D03*
%TD*%
%TO.C,C12*%
X137500000Y-108275000D03*
X137500000Y-106725000D03*
%TD*%
D18*
%TO.C,R4*%
X161385000Y-85405000D03*
X159560000Y-85405000D03*
%TD*%
D19*
%TO.C,S2*%
X185149999Y-125499999D03*
X170849999Y-125499999D03*
X185149999Y-120499999D03*
X170849999Y-120499999D03*
%TD*%
D14*
%TO.C,R16*%
X114325000Y-100500000D03*
X112675000Y-100500000D03*
%TD*%
D16*
%TO.C,R7*%
X105000000Y-63912500D03*
X105000000Y-62087500D03*
%TD*%
D20*
%TO.C,C8*%
X131800000Y-110600000D03*
X129900000Y-110600000D03*
%TD*%
D21*
%TO.C,U3*%
X133999999Y-112099999D03*
X133999999Y-112899999D03*
X133999999Y-113699999D03*
X133999999Y-114499999D03*
X133999999Y-115299999D03*
X133999999Y-116099999D03*
X133999999Y-116899999D03*
X133999999Y-117699999D03*
X133999999Y-118499999D03*
X133999999Y-119299999D03*
X133999999Y-120099999D03*
D22*
X135699999Y-121799999D03*
X136499999Y-121799999D03*
X137299999Y-121799999D03*
X138099999Y-121799999D03*
X138899999Y-121799999D03*
X139699999Y-121799999D03*
X140499999Y-121799999D03*
X141299999Y-121799999D03*
X142099999Y-121799999D03*
X142899999Y-121799999D03*
X143699999Y-121799999D03*
D21*
X145399999Y-120099999D03*
X145399999Y-119299999D03*
X145399999Y-118499999D03*
X145399999Y-117699999D03*
X145399999Y-116899999D03*
X145399999Y-116099999D03*
X145399999Y-115299999D03*
X145399999Y-114499999D03*
X145399999Y-113699999D03*
X145399999Y-112899999D03*
X145399999Y-112099999D03*
D22*
X143699999Y-110399999D03*
X142899999Y-110399999D03*
X142099999Y-110399999D03*
X141299999Y-110399999D03*
X140499999Y-110399999D03*
X139699999Y-110399999D03*
X138899999Y-110399999D03*
X138099999Y-110399999D03*
X137299999Y-110399999D03*
X136499999Y-110399999D03*
X135699999Y-110399999D03*
%TD*%
D19*
%TO.C,S1*%
X185299999Y-105999999D03*
X170999999Y-105999999D03*
X185299999Y-100999999D03*
X170999999Y-100999999D03*
%TD*%
D23*
%TO.C,C11*%
X144025000Y-107920000D03*
X145575000Y-107920000D03*
%TD*%
D24*
%TO.C,C5*%
X131475000Y-112600000D03*
X129925000Y-112600000D03*
%TD*%
D25*
%TO.C,U2*%
X139862500Y-87775000D03*
X139862500Y-87125000D03*
X139862500Y-86475000D03*
X139862500Y-85825000D03*
X139862500Y-85175000D03*
X139862500Y-84525000D03*
X139862500Y-83875000D03*
X139862500Y-83225000D03*
X134137500Y-83225000D03*
X134137500Y-83875000D03*
X134137500Y-84525000D03*
X134137500Y-85175000D03*
X134137500Y-85825000D03*
X134137500Y-86475000D03*
X134137500Y-87125000D03*
X134137500Y-87775000D03*
%TD*%
D26*
%TO.C,J3*%
X102919999Y-134209999D03*
D27*
X102919999Y-136749999D03*
X105459999Y-134209999D03*
X105459999Y-136749999D03*
X107999999Y-134209999D03*
X107999999Y-136749999D03*
X110539999Y-134209999D03*
X110539999Y-136749999D03*
%TD*%
D17*
%TO.C,C3*%
X135500000Y-129775000D03*
X135500000Y-128225000D03*
%TD*%
D23*
%TO.C,C7*%
X147700000Y-119100000D03*
X149250000Y-119100000D03*
%TD*%
D28*
%TO.C,F1*%
X109862500Y-107500000D03*
X114137500Y-107500000D03*
%TD*%
D26*
%TO.C,J1*%
X130039999Y-126039999D03*
D27*
X130039999Y-123499999D03*
X127499999Y-126039999D03*
X127499999Y-123499999D03*
X124959999Y-126039999D03*
X124959999Y-123499999D03*
%TD*%
D29*
%TO.C,C14*%
X120500000Y-126225000D03*
X120500000Y-127775000D03*
%TD*%
D30*
%TO.C,U1*%
X143849999Y-54522499D03*
D31*
X141310000Y-54522500D03*
X138770000Y-54522500D03*
X136230000Y-54522500D03*
X133690000Y-54522500D03*
X131150000Y-54522500D03*
X131150000Y-69762500D03*
X133690000Y-69762500D03*
X136230000Y-69762500D03*
X138770000Y-69762500D03*
X141310000Y-69762500D03*
X143850000Y-69762500D03*
%TD*%
D15*
%TO.C,D2*%
X155125000Y-85540000D03*
X157000000Y-85540000D03*
%TD*%
D32*
%TO.C,Y1*%
X140599999Y-128149999D03*
X138399999Y-128149999D03*
X138399999Y-129849999D03*
X140599999Y-129849999D03*
%TD*%
D13*
%TO.C,R15*%
X108675000Y-114000000D03*
X110325000Y-114000000D03*
%TD*%
D16*
%TO.C,R5*%
X146200000Y-77312500D03*
X146200000Y-75487500D03*
%TD*%
D33*
%TO.C,U4*%
X113862500Y-113550000D03*
X113862500Y-114500000D03*
X113862500Y-115450000D03*
X116137500Y-115450000D03*
X116137500Y-114500000D03*
X116137500Y-113550000D03*
%TD*%
D24*
%TO.C,C1*%
X131775000Y-87500000D03*
X130225000Y-87500000D03*
%TD*%
%TO.C,C15*%
X113275000Y-125000000D03*
X111725000Y-125000000D03*
%TD*%
D16*
%TO.C,R8*%
X105000000Y-75825000D03*
X105000000Y-74000000D03*
%TD*%
D18*
%TO.C,R1*%
X166062500Y-106000000D03*
X164237500Y-106000000D03*
%TD*%
D17*
%TO.C,C13*%
X113000000Y-122275000D03*
X113000000Y-120725000D03*
%TD*%
D18*
%TO.C,R3*%
X161385000Y-82455000D03*
X159560000Y-82455000D03*
%TD*%
D34*
%TO.C,U5*%
X116950000Y-122862500D03*
X116000000Y-122862500D03*
X115050000Y-122862500D03*
X115050000Y-125137500D03*
X116950000Y-125137500D03*
%TD*%
D16*
%TO.C,R11*%
X104500000Y-58912500D03*
X104500000Y-57087500D03*
%TD*%
D10*
%TO.C,H2*%
X189200000Y-60000000D03*
%TD*%
D24*
%TO.C,C9*%
X131543330Y-115795791D03*
X129993330Y-115795791D03*
%TD*%
D16*
%TO.C,R10*%
X140000000Y-74912500D03*
X140000000Y-73087500D03*
%TD*%
D35*
%TO.C,J2*%
X102575000Y-112800000D03*
X102575000Y-117200000D03*
D36*
X105274999Y-113399999D03*
X105274999Y-114199999D03*
X105274999Y-114999999D03*
X105274999Y-115799999D03*
X105274999Y-116599999D03*
D37*
X105174999Y-110549999D03*
X99724999Y-110549999D03*
X105174999Y-119449999D03*
X99724999Y-119449999D03*
%TD*%
D16*
%TO.C,R6*%
X150500000Y-85412500D03*
X150500000Y-83587500D03*
%TD*%
D14*
%TO.C,R17*%
X108000000Y-130000000D03*
X106350000Y-130000000D03*
%TD*%
D38*
%TO.C,S3*%
X123999999Y-134649999D03*
X129999999Y-134649999D03*
X123999999Y-138349999D03*
X129999999Y-138349999D03*
%TD*%
D24*
%TO.C,C6*%
X131575000Y-117500000D03*
X130025000Y-117500000D03*
%TD*%
D29*
%TO.C,C4*%
X137300000Y-123870000D03*
X137300000Y-125420000D03*
%TD*%
D18*
%TO.C,R2*%
X166562500Y-125500000D03*
X164737500Y-125500000D03*
%TD*%
D16*
%TO.C,R9*%
X105500000Y-83162500D03*
X105500000Y-81337500D03*
%TD*%
D10*
%TO.C,H1*%
X104000000Y-52200000D03*
%TD*%
M02*
