M48
; DRILL file {KiCad (7.0.0)} date Mon Apr 24 10:13:47 2023
; FORMAT={-:-/ absolute / metric / decimal}
; #@! TF.CreationDate,2023-04-24T10:13:47-06:00
; #@! TF.GenerationSoftware,Kicad,Pcbnew,(7.0.0)
; #@! TF.FileFunction,Plated,1,2,PTH
FMAT,2
METRIC
; #@! TA.AperFunction,Plated,PTH,ViaDrill
T1C0.400
; #@! TA.AperFunction,Plated,PTH,ComponentDrill
T2C1.000
%
G90
G05
T1
X106.77Y-116.608
X107.479Y-100.414
X107.5Y-76.75
X109.5Y-77.75
X110.811Y-124.986
X113.011Y-119.777
X114.0Y-134.5
X114.875Y-114.5
X116.0Y-114.5
X116.0Y-134.5
X116.014Y-121.705
X119.5Y-113.5
X119.5Y-115.5
X120.504Y-128.706
X123.8Y-92.049
X123.8Y-93.6
X123.916Y-118.71
X123.975Y-133.815
X125.5Y-120.5
X126.5Y-118.5
X127.189Y-87.389
X127.3Y-94.7
X127.624Y-119.876
X128.0Y-92.75
X128.1Y-88.6
X128.5Y-127.75
X128.5Y-129.5
X128.977Y-110.608
X129.0Y-117.5
X129.034Y-112.537
X129.072Y-115.765
X129.181Y-87.505
X129.7Y-84.8
X129.9Y-94.7
X130.49Y-128.5
X130.49Y-130.5
X131.9Y-84.9
X132.0Y-92.75
X132.197Y-128.5
X132.898Y-85.808
X132.9Y-103.0
X133.728Y-125.978
X133.75Y-128.0
X133.75Y-130.5
X134.699Y-90.1
X134.9Y-103.0
X135.248Y-115.26
X135.4Y-89.0
X135.4Y-91.3
X135.5Y-94.153
X135.505Y-127.259
X135.787Y-105.769
X136.13Y-87.47
X136.2Y-117.8
X136.4Y-84.3
X136.4Y-86.0
X136.502Y-111.624
X137.32Y-126.31
X137.4Y-88.6
X137.469Y-105.775
X137.6Y-116.2
X138.113Y-120.55
X138.2Y-79.9
X138.3Y-81.8
X138.398Y-127.066
X138.975Y-126.0
X139.229Y-90.029
X139.75Y-89.0
X140.2Y-103.0
X140.5Y-126.0
X140.6Y-90.8
X140.703Y-130.951
X141.057Y-83.209
X141.2Y-112.0
X141.25Y-118.375
X141.25Y-120.082
X141.3Y-108.9
X142.5Y-103.0
X142.75Y-89.0
X142.906Y-111.585
X143.5Y-85.2
X143.537Y-130.714
X144.2Y-143.6
X144.213Y-120.085
X145.0Y-140.0
X145.0Y-141.853
X145.9Y-85.3
X146.1Y-143.6
X146.465Y-107.912
X146.5Y-111.5
X147.0Y-91.3
X147.0Y-127.299
X147.0Y-128.701
X147.4Y-82.886
X147.6Y-84.4
X148.6Y-55.7
X148.6Y-57.701
X149.0Y-91.8
X150.0Y-127.0
X150.0Y-128.701
X150.0Y-140.0
X150.0Y-142.0
X150.155Y-119.163
X154.145Y-85.504
X154.2Y-82.5
X163.22Y-106.037
X163.622Y-125.622
X166.4Y-84.6
X166.5Y-78.0
X166.6Y-81.5
X166.6Y-90.1
X166.8Y-88.5
X168.4Y-88.5
X168.6Y-78.2
X168.7Y-84.6
X168.8Y-90.1
X169.2Y-81.5
X172.0Y-54.899
X172.0Y-56.301
X173.7Y-80.5
X173.7Y-82.2
X173.8Y-83.7
X173.8Y-85.5
X173.8Y-87.6
X173.8Y-91.2
X181.2Y-83.8
X181.3Y-85.4
X181.3Y-87.5
X181.3Y-90.9
X183.1Y-83.899
X183.1Y-85.301
X183.1Y-87.799
X183.1Y-91.3
X184.2Y-114.1
X184.4Y-112.0
X185.5Y-112.9
X185.5Y-114.9
X185.6Y-111.299
X187.79Y-111.907
X187.9Y-112.9
X188.0Y-114.9
X188.3Y-110.8
X189.0Y-114.0
X192.7Y-83.7
X192.7Y-85.5
X194.4Y-83.7
X194.4Y-85.5
T2
X102.92Y-134.21
X102.92Y-136.75
X105.46Y-134.21
X105.46Y-136.75
X108.0Y-134.21
X108.0Y-136.75
X110.54Y-134.21
X110.54Y-136.75
X124.96Y-123.5
X124.96Y-126.04
X127.5Y-123.5
X127.5Y-126.04
X130.04Y-123.5
X130.04Y-126.04
X131.15Y-54.523
X131.15Y-69.763
X133.69Y-54.523
X133.69Y-69.763
X136.23Y-54.523
X136.23Y-69.763
X138.77Y-54.523
X138.77Y-69.763
X141.31Y-54.523
X141.31Y-69.763
X143.85Y-54.523
X143.85Y-69.763
X175.7Y-66.5
X183.3Y-66.5
T0
M30
