M48
; DRILL file {KiCad (7.0.0)} date Thu Mar 30 13:35:57 2023
; FORMAT={-:-/ absolute / inch / decimal}
; #@! TF.CreationDate,2023-03-30T13:35:57-06:00
; #@! TF.GenerationSoftware,Kicad,Pcbnew,(7.0.0)
; #@! TF.FileFunction,Plated,1,2,PTH
FMAT,2
INCH
; #@! TA.AperFunction,Plated,PTH,ComponentDrill
T1C0.0315
; #@! TA.AperFunction,Plated,PTH,ComponentDrill
T2C0.0354
; #@! TA.AperFunction,Plated,PTH,ComponentDrill
T3C0.0394
; #@! TA.AperFunction,Plated,PTH,ComponentDrill
T4C0.0512
%
G90
G05
T1
X4.437Y-2.137
X4.437Y-2.337
X4.437Y-2.537
X4.437Y-2.737
X4.437Y-2.937
X4.437Y-3.137
X4.437Y-3.337
X4.437Y-3.537
X4.837Y-2.137
X4.837Y-2.337
X4.837Y-2.537
X4.837Y-2.737
X4.837Y-2.937
X4.837Y-3.137
X4.837Y-3.337
X4.837Y-3.537
X5.0874Y-2.4866
X5.0874Y-2.5866
X5.0874Y-2.6866
X5.0874Y-2.7866
X5.0874Y-2.8866
X5.0874Y-2.9866
X5.0874Y-3.0866
X5.0874Y-3.1866
X5.3874Y-2.4866
X5.3874Y-2.5866
X5.3874Y-2.6866
X5.3874Y-2.7866
X5.3874Y-2.8866
X5.3874Y-2.9866
X5.3874Y-3.0866
X5.3874Y-3.1866
X6.537Y-2.5776
X6.537Y-2.737
X6.637Y-2.137
X6.637Y-2.2965
X6.937Y-2.5776
X6.937Y-2.737
X7.037Y-2.137
X7.037Y-2.2965
T2
X6.5063Y-2.9654
X6.6063Y-2.9654
X6.8016Y-2.9654
X6.9016Y-2.9654
T3
X3.537Y-2.637
X3.537Y-2.737
X3.537Y-2.837
X3.537Y-2.937
X3.537Y-3.037
X3.537Y-3.137
X4.137Y-2.637
X4.137Y-2.737
X4.137Y-2.837
X4.137Y-2.937
X4.137Y-3.037
X4.137Y-3.137
X4.677Y-1.937
X4.777Y-1.937
X4.877Y-1.937
X4.977Y-1.937
X5.037Y-3.837
X5.077Y-1.937
X5.137Y-3.837
X5.177Y-1.937
X5.237Y-3.837
X5.277Y-1.937
X5.337Y-3.837
X5.377Y-1.937
X5.437Y-3.837
X5.477Y-1.937
X5.537Y-3.837
X5.577Y-1.937
X5.637Y-2.337
X5.637Y-3.837
X5.737Y-1.937
X5.737Y-3.837
X5.837Y-1.937
X5.9362Y-2.337
X5.937Y-1.937
X5.937Y-3.837
X6.037Y-1.937
X6.037Y-3.837
X6.137Y-1.937
X6.137Y-3.837
X6.237Y-1.937
X6.237Y-3.837
X6.337Y-1.937
X6.337Y-3.837
X6.437Y-1.937
X6.437Y-3.837
T4
X5.7449Y-2.8067
X5.7449Y-3.0035
X5.7449Y-3.3402
X5.7449Y-3.537
X6.237Y-2.8067
X6.237Y-3.0035
X6.237Y-3.3402
X6.237Y-3.537
T0
M30
