  0
SECTION
  2
HEADER
  9
$ANGBASE
  50
0.0
  9
$ANGDIR
  70
1
  9
$MEASUREMENT
  70
1
  0
ENDSEC
  0
SECTION
  2
TABLES
  0
TABLE
  2
LTYPE
  70
4
  0
LTYPE
  5
40F
  2
CONTINUOUS
  70
0
  3
Solid line
  72
65
  73
0
  40
0.0
  0
LTYPE
  5
410
  2
DASHDOT
 70
0
  3
Dash Dot ____ _ ____ _
 72
65
 73
4
 40
2.0
 49
1.25
 49
-0.25
 49
0.25
 49
-0.25
  0
LTYPE
  5
411
  2
DASHED
 70
0
  3
Dashed __ __ __ __ __
 72
65
 73
2
 40
0.75
 49
0.5
 49
-0.25
  0
LTYPE
  5
43B
  2
DOTTED
 70
0
  3
Dotted .  .  .  .
 72
65
 73
2
 40
0.2
 49
0.0
 49
-0.2
  0
ENDTAB
  0
TABLE
  2
STYLE
  70
4
  0
STYLE
  2
KICAD
  70
0
  40
0
  41
1
  42
1
  50
0
  71
0
  3
isocp.shx
  0
STYLE
  2
KICADB
  70
0
  40
0
  41
1
  42
1
  50
0
  71
0
  3
isocp.shx
  0
STYLE
  2
KICADI
  70
0
  40
0
  41
1
  42
1
  50
15
  71
0
  3
isocp.shx
  0
STYLE
  2
KICADBI
  70
0
  40
0
  41
1
  42
1
  50
15
  71
0
  3
isocp.shx
  0
ENDTAB
  0
TABLE
  2
LAYER
  70
1
  0
LAYER
  2
BLACK
  70
0
  62
7
  6
CONTINUOUS
  0
ENDTAB
  0
ENDSEC
  0
SECTION
  2
ENTITIES
0
LINE
8
BLACK
6
CONTINUOUS
10
191.701
20
-135.742
11
191.89
21
-135.815
0
LINE
8
BLACK
6
CONTINUOUS
10
191.89
20
-135.815
11
192.063
21
-135.922
0
LINE
8
BLACK
6
CONTINUOUS
10
192.063
20
-135.922
11
192.213
21
-136.059
0
LINE
8
BLACK
6
CONTINUOUS
10
192.213
20
-136.059
11
192.335
21
-136.221
0
LINE
8
BLACK
6
CONTINUOUS
10
192.335
20
-136.221
11
192.426
21
-136.403
0
LINE
8
BLACK
6
CONTINUOUS
10
192.426
20
-136.403
11
192.481
21
-136.598
0
LINE
8
BLACK
6
CONTINUOUS
10
192.481
20
-136.598
11
192.5
21
-136.8
0
LINE
8
BLACK
6
CONTINUOUS
10
192.5
20
-136.8
11
192.481
21
-137.002
0
LINE
8
BLACK
6
CONTINUOUS
10
192.481
20
-137.002
11
192.426
21
-137.197
0
LINE
8
BLACK
6
CONTINUOUS
10
192.426
20
-137.197
11
192.335
21
-137.379
0
LINE
8
BLACK
6
CONTINUOUS
10
192.335
20
-137.379
11
192.213
21
-137.541
0
LINE
8
BLACK
6
CONTINUOUS
10
192.213
20
-137.541
11
192.063
21
-137.678
0
LINE
8
BLACK
6
CONTINUOUS
10
192.063
20
-137.678
11
191.89
21
-137.785
0
LINE
8
BLACK
6
CONTINUOUS
10
191.89
20
-137.785
11
191.701
21
-137.858
0
LINE
8
BLACK
6
CONTINUOUS
10
191.701
20
-137.858
11
191.501
21
-137.895
0
LINE
8
BLACK
6
CONTINUOUS
10
191.501
20
-137.895
11
191.299
21
-137.895
0
LINE
8
BLACK
6
CONTINUOUS
10
191.299
20
-137.895
11
191.099
21
-137.858
0
LINE
8
BLACK
6
CONTINUOUS
10
191.099
20
-137.858
11
190.91
21
-137.785
0
LINE
8
BLACK
6
CONTINUOUS
10
190.91
20
-137.785
11
190.737
21
-137.678
0
LINE
8
BLACK
6
CONTINUOUS
10
190.737
20
-137.678
11
190.587
21
-137.541
0
LINE
8
BLACK
6
CONTINUOUS
10
190.587
20
-137.541
11
190.465
21
-137.379
0
LINE
8
BLACK
6
CONTINUOUS
10
190.465
20
-137.379
11
190.374
21
-137.197
0
LINE
8
BLACK
6
CONTINUOUS
10
190.374
20
-137.197
11
190.319
21
-137.002
0
LINE
8
BLACK
6
CONTINUOUS
10
190.319
20
-137.002
11
190.3
21
-136.8
0
LINE
8
BLACK
6
CONTINUOUS
10
190.3
20
-136.8
11
190.319
21
-136.598
0
LINE
8
BLACK
6
CONTINUOUS
10
190.319
20
-136.598
11
190.374
21
-136.403
0
LINE
8
BLACK
6
CONTINUOUS
10
190.374
20
-136.403
11
190.465
21
-136.221
0
LINE
8
BLACK
6
CONTINUOUS
10
190.465
20
-136.221
11
190.587
21
-136.059
0
LINE
8
BLACK
6
CONTINUOUS
10
190.587
20
-136.059
11
190.737
21
-135.922
0
LINE
8
BLACK
6
CONTINUOUS
10
190.737
20
-135.922
11
190.91
21
-135.815
0
LINE
8
BLACK
6
CONTINUOUS
10
190.91
20
-135.815
11
191.099
21
-135.742
0
LINE
8
BLACK
6
CONTINUOUS
10
191.099
20
-135.742
11
191.299
21
-135.705
0
LINE
8
BLACK
6
CONTINUOUS
10
191.299
20
-135.705
11
191.501
21
-135.705
0
LINE
8
BLACK
6
CONTINUOUS
10
191.501
20
-135.705
11
191.701
21
-135.742
0
LINE
8
BLACK
6
CONTINUOUS
10
110.803
20
-135.942
11
110.965
21
-136.014
0
LINE
8
BLACK
6
CONTINUOUS
10
110.965
20
-136.014
11
111.109
21
-136.118
0
LINE
8
BLACK
6
CONTINUOUS
10
111.109
20
-136.118
11
111.228
21
-136.25
0
LINE
8
BLACK
6
CONTINUOUS
10
111.228
20
-136.25
11
111.317
21
-136.404
0
LINE
8
BLACK
6
CONTINUOUS
10
111.317
20
-136.404
11
111.371
21
-136.573
0
LINE
8
BLACK
6
CONTINUOUS
10
111.371
20
-136.573
11
111.39
21
-136.75
0
LINE
8
BLACK
6
CONTINUOUS
10
111.39
20
-136.75
11
111.371
21
-136.927
0
LINE
8
BLACK
6
CONTINUOUS
10
111.371
20
-136.927
11
111.317
21
-137.096
0
LINE
8
BLACK
6
CONTINUOUS
10
111.317
20
-137.096
11
111.228
21
-137.25
0
LINE
8
BLACK
6
CONTINUOUS
10
111.228
20
-137.25
11
111.109
21
-137.382
0
LINE
8
BLACK
6
CONTINUOUS
10
111.109
20
-137.382
11
110.965
21
-137.486
0
LINE
8
BLACK
6
CONTINUOUS
10
110.965
20
-137.486
11
110.803
21
-137.558
0
LINE
8
BLACK
6
CONTINUOUS
10
110.803
20
-137.558
11
110.629
21
-137.595
0
LINE
8
BLACK
6
CONTINUOUS
10
110.629
20
-137.595
11
110.451
21
-137.595
0
LINE
8
BLACK
6
CONTINUOUS
10
110.451
20
-137.595
11
110.277
21
-137.558
0
LINE
8
BLACK
6
CONTINUOUS
10
110.277
20
-137.558
11
110.115
21
-137.486
0
LINE
8
BLACK
6
CONTINUOUS
10
110.115
20
-137.486
11
109.971
21
-137.382
0
LINE
8
BLACK
6
CONTINUOUS
10
109.971
20
-137.382
11
109.852
21
-137.25
0
LINE
8
BLACK
6
CONTINUOUS
10
109.852
20
-137.25
11
109.763
21
-137.096
0
LINE
8
BLACK
6
CONTINUOUS
10
109.763
20
-137.096
11
109.709
21
-136.927
0
LINE
8
BLACK
6
CONTINUOUS
10
109.709
20
-136.927
11
109.69
21
-136.75
0
LINE
8
BLACK
6
CONTINUOUS
10
109.69
20
-136.75
11
109.709
21
-136.573
0
LINE
8
BLACK
6
CONTINUOUS
10
109.709
20
-136.573
11
109.763
21
-136.404
0
LINE
8
BLACK
6
CONTINUOUS
10
109.763
20
-136.404
11
109.852
21
-136.25
0
LINE
8
BLACK
6
CONTINUOUS
10
109.852
20
-136.25
11
109.971
21
-136.118
0
LINE
8
BLACK
6
CONTINUOUS
10
109.971
20
-136.118
11
110.115
21
-136.014
0
LINE
8
BLACK
6
CONTINUOUS
10
110.115
20
-136.014
11
110.277
21
-135.942
0
LINE
8
BLACK
6
CONTINUOUS
10
110.277
20
-135.942
11
110.451
21
-135.905
0
LINE
8
BLACK
6
CONTINUOUS
10
110.451
20
-135.905
11
110.629
21
-135.905
0
LINE
8
BLACK
6
CONTINUOUS
10
110.629
20
-135.905
11
110.803
21
-135.942
0
LINE
8
BLACK
6
CONTINUOUS
10
108.263
20
-135.942
11
108.425
21
-136.014
0
LINE
8
BLACK
6
CONTINUOUS
10
108.425
20
-136.014
11
108.569
21
-136.118
0
LINE
8
BLACK
6
CONTINUOUS
10
108.569
20
-136.118
11
108.688
21
-136.25
0
LINE
8
BLACK
6
CONTINUOUS
10
108.688
20
-136.25
11
108.777
21
-136.404
0
LINE
8
BLACK
6
CONTINUOUS
10
108.777
20
-136.404
11
108.831
21
-136.573
0
LINE
8
BLACK
6
CONTINUOUS
10
108.831
20
-136.573
11
108.85
21
-136.75
0
LINE
8
BLACK
6
CONTINUOUS
10
108.85
20
-136.75
11
108.831
21
-136.927
0
LINE
8
BLACK
6
CONTINUOUS
10
108.831
20
-136.927
11
108.777
21
-137.096
0
LINE
8
BLACK
6
CONTINUOUS
10
108.777
20
-137.096
11
108.688
21
-137.25
0
LINE
8
BLACK
6
CONTINUOUS
10
108.688
20
-137.25
11
108.569
21
-137.382
0
LINE
8
BLACK
6
CONTINUOUS
10
108.569
20
-137.382
11
108.425
21
-137.486
0
LINE
8
BLACK
6
CONTINUOUS
10
108.425
20
-137.486
11
108.263
21
-137.558
0
LINE
8
BLACK
6
CONTINUOUS
10
108.263
20
-137.558
11
108.089
21
-137.595
0
LINE
8
BLACK
6
CONTINUOUS
10
108.089
20
-137.595
11
107.911
21
-137.595
0
LINE
8
BLACK
6
CONTINUOUS
10
107.911
20
-137.595
11
107.737
21
-137.558
0
LINE
8
BLACK
6
CONTINUOUS
10
107.737
20
-137.558
11
107.575
21
-137.486
0
LINE
8
BLACK
6
CONTINUOUS
10
107.575
20
-137.486
11
107.431
21
-137.382
0
LINE
8
BLACK
6
CONTINUOUS
10
107.431
20
-137.382
11
107.312
21
-137.25
0
LINE
8
BLACK
6
CONTINUOUS
10
107.312
20
-137.25
11
107.223
21
-137.096
0
LINE
8
BLACK
6
CONTINUOUS
10
107.223
20
-137.096
11
107.169
21
-136.927
0
LINE
8
BLACK
6
CONTINUOUS
10
107.169
20
-136.927
11
107.15
21
-136.75
0
LINE
8
BLACK
6
CONTINUOUS
10
107.15
20
-136.75
11
107.169
21
-136.573
0
LINE
8
BLACK
6
CONTINUOUS
10
107.169
20
-136.573
11
107.223
21
-136.404
0
LINE
8
BLACK
6
CONTINUOUS
10
107.223
20
-136.404
11
107.312
21
-136.25
0
LINE
8
BLACK
6
CONTINUOUS
10
107.312
20
-136.25
11
107.431
21
-136.118
0
LINE
8
BLACK
6
CONTINUOUS
10
107.431
20
-136.118
11
107.575
21
-136.014
0
LINE
8
BLACK
6
CONTINUOUS
10
107.575
20
-136.014
11
107.737
21
-135.942
0
LINE
8
BLACK
6
CONTINUOUS
10
107.737
20
-135.942
11
107.911
21
-135.905
0
LINE
8
BLACK
6
CONTINUOUS
10
107.911
20
-135.905
11
108.089
21
-135.905
0
LINE
8
BLACK
6
CONTINUOUS
10
108.089
20
-135.905
11
108.263
21
-135.942
0
LINE
8
BLACK
6
CONTINUOUS
10
105.723
20
-135.942
11
105.885
21
-136.014
0
LINE
8
BLACK
6
CONTINUOUS
10
105.885
20
-136.014
11
106.029
21
-136.118
0
LINE
8
BLACK
6
CONTINUOUS
10
106.029
20
-136.118
11
106.148
21
-136.25
0
LINE
8
BLACK
6
CONTINUOUS
10
106.148
20
-136.25
11
106.237
21
-136.404
0
LINE
8
BLACK
6
CONTINUOUS
10
106.237
20
-136.404
11
106.291
21
-136.573
0
LINE
8
BLACK
6
CONTINUOUS
10
106.291
20
-136.573
11
106.31
21
-136.75
0
LINE
8
BLACK
6
CONTINUOUS
10
106.31
20
-136.75
11
106.291
21
-136.927
0
LINE
8
BLACK
6
CONTINUOUS
10
106.291
20
-136.927
11
106.237
21
-137.096
0
LINE
8
BLACK
6
CONTINUOUS
10
106.237
20
-137.096
11
106.148
21
-137.25
0
LINE
8
BLACK
6
CONTINUOUS
10
106.148
20
-137.25
11
106.029
21
-137.382
0
LINE
8
BLACK
6
CONTINUOUS
10
106.029
20
-137.382
11
105.885
21
-137.486
0
LINE
8
BLACK
6
CONTINUOUS
10
105.885
20
-137.486
11
105.723
21
-137.558
0
LINE
8
BLACK
6
CONTINUOUS
10
105.723
20
-137.558
11
105.549
21
-137.595
0
LINE
8
BLACK
6
CONTINUOUS
10
105.549
20
-137.595
11
105.371
21
-137.595
0
LINE
8
BLACK
6
CONTINUOUS
10
105.371
20
-137.595
11
105.197
21
-137.558
0
LINE
8
BLACK
6
CONTINUOUS
10
105.197
20
-137.558
11
105.035
21
-137.486
0
LINE
8
BLACK
6
CONTINUOUS
10
105.035
20
-137.486
11
104.891
21
-137.382
0
LINE
8
BLACK
6
CONTINUOUS
10
104.891
20
-137.382
11
104.772
21
-137.25
0
LINE
8
BLACK
6
CONTINUOUS
10
104.772
20
-137.25
11
104.683
21
-137.096
0
LINE
8
BLACK
6
CONTINUOUS
10
104.683
20
-137.096
11
104.629
21
-136.927
0
LINE
8
BLACK
6
CONTINUOUS
10
104.629
20
-136.927
11
104.61
21
-136.75
0
LINE
8
BLACK
6
CONTINUOUS
10
104.61
20
-136.75
11
104.629
21
-136.573
0
LINE
8
BLACK
6
CONTINUOUS
10
104.629
20
-136.573
11
104.683
21
-136.404
0
LINE
8
BLACK
6
CONTINUOUS
10
104.683
20
-136.404
11
104.772
21
-136.25
0
LINE
8
BLACK
6
CONTINUOUS
10
104.772
20
-136.25
11
104.891
21
-136.118
0
LINE
8
BLACK
6
CONTINUOUS
10
104.891
20
-136.118
11
105.035
21
-136.014
0
LINE
8
BLACK
6
CONTINUOUS
10
105.035
20
-136.014
11
105.197
21
-135.942
0
LINE
8
BLACK
6
CONTINUOUS
10
105.197
20
-135.942
11
105.371
21
-135.905
0
LINE
8
BLACK
6
CONTINUOUS
10
105.371
20
-135.905
11
105.549
21
-135.905
0
LINE
8
BLACK
6
CONTINUOUS
10
105.549
20
-135.905
11
105.723
21
-135.942
0
LINE
8
BLACK
6
CONTINUOUS
10
103.183
20
-135.942
11
103.345
21
-136.014
0
LINE
8
BLACK
6
CONTINUOUS
10
103.345
20
-136.014
11
103.489
21
-136.118
0
LINE
8
BLACK
6
CONTINUOUS
10
103.489
20
-136.118
11
103.608
21
-136.25
0
LINE
8
BLACK
6
CONTINUOUS
10
103.608
20
-136.25
11
103.697
21
-136.404
0
LINE
8
BLACK
6
CONTINUOUS
10
103.697
20
-136.404
11
103.751
21
-136.573
0
LINE
8
BLACK
6
CONTINUOUS
10
103.751
20
-136.573
11
103.77
21
-136.75
0
LINE
8
BLACK
6
CONTINUOUS
10
103.77
20
-136.75
11
103.751
21
-136.927
0
LINE
8
BLACK
6
CONTINUOUS
10
103.751
20
-136.927
11
103.697
21
-137.096
0
LINE
8
BLACK
6
CONTINUOUS
10
103.697
20
-137.096
11
103.608
21
-137.25
0
LINE
8
BLACK
6
CONTINUOUS
10
103.608
20
-137.25
11
103.489
21
-137.382
0
LINE
8
BLACK
6
CONTINUOUS
10
103.489
20
-137.382
11
103.345
21
-137.486
0
LINE
8
BLACK
6
CONTINUOUS
10
103.345
20
-137.486
11
103.183
21
-137.558
0
LINE
8
BLACK
6
CONTINUOUS
10
103.183
20
-137.558
11
103.009
21
-137.595
0
LINE
8
BLACK
6
CONTINUOUS
10
103.009
20
-137.595
11
102.831
21
-137.595
0
LINE
8
BLACK
6
CONTINUOUS
10
102.831
20
-137.595
11
102.657
21
-137.558
0
LINE
8
BLACK
6
CONTINUOUS
10
102.657
20
-137.558
11
102.495
21
-137.486
0
LINE
8
BLACK
6
CONTINUOUS
10
102.495
20
-137.486
11
102.351
21
-137.382
0
LINE
8
BLACK
6
CONTINUOUS
10
102.351
20
-137.382
11
102.232
21
-137.25
0
LINE
8
BLACK
6
CONTINUOUS
10
102.232
20
-137.25
11
102.143
21
-137.096
0
LINE
8
BLACK
6
CONTINUOUS
10
102.143
20
-137.096
11
102.089
21
-136.927
0
LINE
8
BLACK
6
CONTINUOUS
10
102.089
20
-136.927
11
102.07
21
-136.75
0
LINE
8
BLACK
6
CONTINUOUS
10
102.07
20
-136.75
11
102.089
21
-136.573
0
LINE
8
BLACK
6
CONTINUOUS
10
102.089
20
-136.573
11
102.143
21
-136.404
0
LINE
8
BLACK
6
CONTINUOUS
10
102.143
20
-136.404
11
102.232
21
-136.25
0
LINE
8
BLACK
6
CONTINUOUS
10
102.232
20
-136.25
11
102.351
21
-136.118
0
LINE
8
BLACK
6
CONTINUOUS
10
102.351
20
-136.118
11
102.495
21
-136.014
0
LINE
8
BLACK
6
CONTINUOUS
10
102.495
20
-136.014
11
102.657
21
-135.942
0
LINE
8
BLACK
6
CONTINUOUS
10
102.657
20
-135.942
11
102.831
21
-135.905
0
LINE
8
BLACK
6
CONTINUOUS
10
102.831
20
-135.905
11
103.009
21
-135.905
0
LINE
8
BLACK
6
CONTINUOUS
10
103.009
20
-135.905
11
103.183
21
-135.942
0
LINE
8
BLACK
6
CONTINUOUS
10
103.77
20
-135.06
11
102.07
21
-135.06
0
LINE
8
BLACK
6
CONTINUOUS
10
102.07
20
-135.06
11
102.07
21
-133.36
0
LINE
8
BLACK
6
CONTINUOUS
10
102.07
20
-133.36
11
103.77
21
-133.36
0
LINE
8
BLACK
6
CONTINUOUS
10
103.77
20
-133.36
11
103.77
21
-135.06
0
LINE
8
BLACK
6
CONTINUOUS
10
110.803
20
-133.402
11
110.965
21
-133.474
0
LINE
8
BLACK
6
CONTINUOUS
10
110.965
20
-133.474
11
111.109
21
-133.578
0
LINE
8
BLACK
6
CONTINUOUS
10
111.109
20
-133.578
11
111.228
21
-133.71
0
LINE
8
BLACK
6
CONTINUOUS
10
111.228
20
-133.71
11
111.317
21
-133.864
0
LINE
8
BLACK
6
CONTINUOUS
10
111.317
20
-133.864
11
111.371
21
-134.033
0
LINE
8
BLACK
6
CONTINUOUS
10
111.371
20
-134.033
11
111.39
21
-134.21
0
LINE
8
BLACK
6
CONTINUOUS
10
111.39
20
-134.21
11
111.371
21
-134.387
0
LINE
8
BLACK
6
CONTINUOUS
10
111.371
20
-134.387
11
111.317
21
-134.556
0
LINE
8
BLACK
6
CONTINUOUS
10
111.317
20
-134.556
11
111.228
21
-134.71
0
LINE
8
BLACK
6
CONTINUOUS
10
111.228
20
-134.71
11
111.109
21
-134.842
0
LINE
8
BLACK
6
CONTINUOUS
10
111.109
20
-134.842
11
110.965
21
-134.946
0
LINE
8
BLACK
6
CONTINUOUS
10
110.965
20
-134.946
11
110.803
21
-135.018
0
LINE
8
BLACK
6
CONTINUOUS
10
110.803
20
-135.018
11
110.629
21
-135.055
0
LINE
8
BLACK
6
CONTINUOUS
10
110.629
20
-135.055
11
110.451
21
-135.055
0
LINE
8
BLACK
6
CONTINUOUS
10
110.451
20
-135.055
11
110.277
21
-135.018
0
LINE
8
BLACK
6
CONTINUOUS
10
110.277
20
-135.018
11
110.115
21
-134.946
0
LINE
8
BLACK
6
CONTINUOUS
10
110.115
20
-134.946
11
109.971
21
-134.842
0
LINE
8
BLACK
6
CONTINUOUS
10
109.971
20
-134.842
11
109.852
21
-134.71
0
LINE
8
BLACK
6
CONTINUOUS
10
109.852
20
-134.71
11
109.763
21
-134.556
0
LINE
8
BLACK
6
CONTINUOUS
10
109.763
20
-134.556
11
109.709
21
-134.387
0
LINE
8
BLACK
6
CONTINUOUS
10
109.709
20
-134.387
11
109.69
21
-134.21
0
LINE
8
BLACK
6
CONTINUOUS
10
109.69
20
-134.21
11
109.709
21
-134.033
0
LINE
8
BLACK
6
CONTINUOUS
10
109.709
20
-134.033
11
109.763
21
-133.864
0
LINE
8
BLACK
6
CONTINUOUS
10
109.763
20
-133.864
11
109.852
21
-133.71
0
LINE
8
BLACK
6
CONTINUOUS
10
109.852
20
-133.71
11
109.971
21
-133.578
0
LINE
8
BLACK
6
CONTINUOUS
10
109.971
20
-133.578
11
110.115
21
-133.474
0
LINE
8
BLACK
6
CONTINUOUS
10
110.115
20
-133.474
11
110.277
21
-133.402
0
LINE
8
BLACK
6
CONTINUOUS
10
110.277
20
-133.402
11
110.451
21
-133.365
0
LINE
8
BLACK
6
CONTINUOUS
10
110.451
20
-133.365
11
110.629
21
-133.365
0
LINE
8
BLACK
6
CONTINUOUS
10
110.629
20
-133.365
11
110.803
21
-133.402
0
LINE
8
BLACK
6
CONTINUOUS
10
108.263
20
-133.402
11
108.425
21
-133.474
0
LINE
8
BLACK
6
CONTINUOUS
10
108.425
20
-133.474
11
108.569
21
-133.578
0
LINE
8
BLACK
6
CONTINUOUS
10
108.569
20
-133.578
11
108.688
21
-133.71
0
LINE
8
BLACK
6
CONTINUOUS
10
108.688
20
-133.71
11
108.777
21
-133.864
0
LINE
8
BLACK
6
CONTINUOUS
10
108.777
20
-133.864
11
108.831
21
-134.033
0
LINE
8
BLACK
6
CONTINUOUS
10
108.831
20
-134.033
11
108.85
21
-134.21
0
LINE
8
BLACK
6
CONTINUOUS
10
108.85
20
-134.21
11
108.831
21
-134.387
0
LINE
8
BLACK
6
CONTINUOUS
10
108.831
20
-134.387
11
108.777
21
-134.556
0
LINE
8
BLACK
6
CONTINUOUS
10
108.777
20
-134.556
11
108.688
21
-134.71
0
LINE
8
BLACK
6
CONTINUOUS
10
108.688
20
-134.71
11
108.569
21
-134.842
0
LINE
8
BLACK
6
CONTINUOUS
10
108.569
20
-134.842
11
108.425
21
-134.946
0
LINE
8
BLACK
6
CONTINUOUS
10
108.425
20
-134.946
11
108.263
21
-135.018
0
LINE
8
BLACK
6
CONTINUOUS
10
108.263
20
-135.018
11
108.089
21
-135.055
0
LINE
8
BLACK
6
CONTINUOUS
10
108.089
20
-135.055
11
107.911
21
-135.055
0
LINE
8
BLACK
6
CONTINUOUS
10
107.911
20
-135.055
11
107.737
21
-135.018
0
LINE
8
BLACK
6
CONTINUOUS
10
107.737
20
-135.018
11
107.575
21
-134.946
0
LINE
8
BLACK
6
CONTINUOUS
10
107.575
20
-134.946
11
107.431
21
-134.842
0
LINE
8
BLACK
6
CONTINUOUS
10
107.431
20
-134.842
11
107.312
21
-134.71
0
LINE
8
BLACK
6
CONTINUOUS
10
107.312
20
-134.71
11
107.223
21
-134.556
0
LINE
8
BLACK
6
CONTINUOUS
10
107.223
20
-134.556
11
107.169
21
-134.387
0
LINE
8
BLACK
6
CONTINUOUS
10
107.169
20
-134.387
11
107.15
21
-134.21
0
LINE
8
BLACK
6
CONTINUOUS
10
107.15
20
-134.21
11
107.169
21
-134.033
0
LINE
8
BLACK
6
CONTINUOUS
10
107.169
20
-134.033
11
107.223
21
-133.864
0
LINE
8
BLACK
6
CONTINUOUS
10
107.223
20
-133.864
11
107.312
21
-133.71
0
LINE
8
BLACK
6
CONTINUOUS
10
107.312
20
-133.71
11
107.431
21
-133.578
0
LINE
8
BLACK
6
CONTINUOUS
10
107.431
20
-133.578
11
107.575
21
-133.474
0
LINE
8
BLACK
6
CONTINUOUS
10
107.575
20
-133.474
11
107.737
21
-133.402
0
LINE
8
BLACK
6
CONTINUOUS
10
107.737
20
-133.402
11
107.911
21
-133.365
0
LINE
8
BLACK
6
CONTINUOUS
10
107.911
20
-133.365
11
108.089
21
-133.365
0
LINE
8
BLACK
6
CONTINUOUS
10
108.089
20
-133.365
11
108.263
21
-133.402
0
LINE
8
BLACK
6
CONTINUOUS
10
105.723
20
-133.402
11
105.885
21
-133.474
0
LINE
8
BLACK
6
CONTINUOUS
10
105.885
20
-133.474
11
106.029
21
-133.578
0
LINE
8
BLACK
6
CONTINUOUS
10
106.029
20
-133.578
11
106.148
21
-133.71
0
LINE
8
BLACK
6
CONTINUOUS
10
106.148
20
-133.71
11
106.237
21
-133.864
0
LINE
8
BLACK
6
CONTINUOUS
10
106.237
20
-133.864
11
106.291
21
-134.033
0
LINE
8
BLACK
6
CONTINUOUS
10
106.291
20
-134.033
11
106.31
21
-134.21
0
LINE
8
BLACK
6
CONTINUOUS
10
106.31
20
-134.21
11
106.291
21
-134.387
0
LINE
8
BLACK
6
CONTINUOUS
10
106.291
20
-134.387
11
106.237
21
-134.556
0
LINE
8
BLACK
6
CONTINUOUS
10
106.237
20
-134.556
11
106.148
21
-134.71
0
LINE
8
BLACK
6
CONTINUOUS
10
106.148
20
-134.71
11
106.029
21
-134.842
0
LINE
8
BLACK
6
CONTINUOUS
10
106.029
20
-134.842
11
105.885
21
-134.946
0
LINE
8
BLACK
6
CONTINUOUS
10
105.885
20
-134.946
11
105.723
21
-135.018
0
LINE
8
BLACK
6
CONTINUOUS
10
105.723
20
-135.018
11
105.549
21
-135.055
0
LINE
8
BLACK
6
CONTINUOUS
10
105.549
20
-135.055
11
105.371
21
-135.055
0
LINE
8
BLACK
6
CONTINUOUS
10
105.371
20
-135.055
11
105.197
21
-135.018
0
LINE
8
BLACK
6
CONTINUOUS
10
105.197
20
-135.018
11
105.035
21
-134.946
0
LINE
8
BLACK
6
CONTINUOUS
10
105.035
20
-134.946
11
104.891
21
-134.842
0
LINE
8
BLACK
6
CONTINUOUS
10
104.891
20
-134.842
11
104.772
21
-134.71
0
LINE
8
BLACK
6
CONTINUOUS
10
104.772
20
-134.71
11
104.683
21
-134.556
0
LINE
8
BLACK
6
CONTINUOUS
10
104.683
20
-134.556
11
104.629
21
-134.387
0
LINE
8
BLACK
6
CONTINUOUS
10
104.629
20
-134.387
11
104.61
21
-134.21
0
LINE
8
BLACK
6
CONTINUOUS
10
104.61
20
-134.21
11
104.629
21
-134.033
0
LINE
8
BLACK
6
CONTINUOUS
10
104.629
20
-134.033
11
104.683
21
-133.864
0
LINE
8
BLACK
6
CONTINUOUS
10
104.683
20
-133.864
11
104.772
21
-133.71
0
LINE
8
BLACK
6
CONTINUOUS
10
104.772
20
-133.71
11
104.891
21
-133.578
0
LINE
8
BLACK
6
CONTINUOUS
10
104.891
20
-133.578
11
105.035
21
-133.474
0
LINE
8
BLACK
6
CONTINUOUS
10
105.035
20
-133.474
11
105.197
21
-133.402
0
LINE
8
BLACK
6
CONTINUOUS
10
105.197
20
-133.402
11
105.371
21
-133.365
0
LINE
8
BLACK
6
CONTINUOUS
10
105.371
20
-133.365
11
105.549
21
-133.365
0
LINE
8
BLACK
6
CONTINUOUS
10
105.549
20
-133.365
11
105.723
21
-133.402
0
LINE
8
BLACK
6
CONTINUOUS
10
103.401
20
-124.842
11
103.59
21
-124.915
0
LINE
8
BLACK
6
CONTINUOUS
10
103.59
20
-124.915
11
103.763
21
-125.022
0
LINE
8
BLACK
6
CONTINUOUS
10
103.763
20
-125.022
11
103.913
21
-125.159
0
LINE
8
BLACK
6
CONTINUOUS
10
103.913
20
-125.159
11
104.035
21
-125.321
0
LINE
8
BLACK
6
CONTINUOUS
10
104.035
20
-125.321
11
104.126
21
-125.503
0
LINE
8
BLACK
6
CONTINUOUS
10
104.126
20
-125.503
11
104.181
21
-125.698
0
LINE
8
BLACK
6
CONTINUOUS
10
104.181
20
-125.698
11
104.2
21
-125.9
0
LINE
8
BLACK
6
CONTINUOUS
10
104.2
20
-125.9
11
104.181
21
-126.102
0
LINE
8
BLACK
6
CONTINUOUS
10
104.181
20
-126.102
11
104.126
21
-126.297
0
LINE
8
BLACK
6
CONTINUOUS
10
104.126
20
-126.297
11
104.035
21
-126.479
0
LINE
8
BLACK
6
CONTINUOUS
10
104.035
20
-126.479
11
103.913
21
-126.641
0
LINE
8
BLACK
6
CONTINUOUS
10
103.913
20
-126.641
11
103.763
21
-126.778
0
LINE
8
BLACK
6
CONTINUOUS
10
103.763
20
-126.778
11
103.59
21
-126.885
0
LINE
8
BLACK
6
CONTINUOUS
10
103.59
20
-126.885
11
103.401
21
-126.958
0
LINE
8
BLACK
6
CONTINUOUS
10
103.401
20
-126.958
11
103.201
21
-126.995
0
LINE
8
BLACK
6
CONTINUOUS
10
103.201
20
-126.995
11
102.999
21
-126.995
0
LINE
8
BLACK
6
CONTINUOUS
10
102.999
20
-126.995
11
102.799
21
-126.958
0
LINE
8
BLACK
6
CONTINUOUS
10
102.799
20
-126.958
11
102.61
21
-126.885
0
LINE
8
BLACK
6
CONTINUOUS
10
102.61
20
-126.885
11
102.437
21
-126.778
0
LINE
8
BLACK
6
CONTINUOUS
10
102.437
20
-126.778
11
102.287
21
-126.641
0
LINE
8
BLACK
6
CONTINUOUS
10
102.287
20
-126.641
11
102.165
21
-126.479
0
LINE
8
BLACK
6
CONTINUOUS
10
102.165
20
-126.479
11
102.074
21
-126.297
0
LINE
8
BLACK
6
CONTINUOUS
10
102.074
20
-126.297
11
102.019
21
-126.102
0
LINE
8
BLACK
6
CONTINUOUS
10
102.019
20
-126.102
11
102
21
-125.9
0
LINE
8
BLACK
6
CONTINUOUS
10
102
20
-125.9
11
102.019
21
-125.698
0
LINE
8
BLACK
6
CONTINUOUS
10
102.019
20
-125.698
11
102.074
21
-125.503
0
LINE
8
BLACK
6
CONTINUOUS
10
102.074
20
-125.503
11
102.165
21
-125.321
0
LINE
8
BLACK
6
CONTINUOUS
10
102.165
20
-125.321
11
102.287
21
-125.159
0
LINE
8
BLACK
6
CONTINUOUS
10
102.287
20
-125.159
11
102.437
21
-125.022
0
LINE
8
BLACK
6
CONTINUOUS
10
102.437
20
-125.022
11
102.61
21
-124.915
0
LINE
8
BLACK
6
CONTINUOUS
10
102.61
20
-124.915
11
102.799
21
-124.842
0
LINE
8
BLACK
6
CONTINUOUS
10
102.799
20
-124.842
11
102.999
21
-124.805
0
LINE
8
BLACK
6
CONTINUOUS
10
102.999
20
-124.805
11
103.201
21
-124.805
0
LINE
8
BLACK
6
CONTINUOUS
10
103.201
20
-124.805
11
103.401
21
-124.842
0
LINE
8
BLACK
6
CONTINUOUS
10
130.89
20
-126.89
11
129.19
21
-126.89
0
LINE
8
BLACK
6
CONTINUOUS
10
129.19
20
-126.89
11
129.19
21
-125.19
0
LINE
8
BLACK
6
CONTINUOUS
10
129.19
20
-125.19
11
130.89
21
-125.19
0
LINE
8
BLACK
6
CONTINUOUS
10
130.89
20
-125.19
11
130.89
21
-126.89
0
LINE
8
BLACK
6
CONTINUOUS
10
127.763
20
-125.232
11
127.925
21
-125.304
0
LINE
8
BLACK
6
CONTINUOUS
10
127.925
20
-125.304
11
128.069
21
-125.408
0
LINE
8
BLACK
6
CONTINUOUS
10
128.069
20
-125.408
11
128.188
21
-125.54
0
LINE
8
BLACK
6
CONTINUOUS
10
128.188
20
-125.54
11
128.277
21
-125.694
0
LINE
8
BLACK
6
CONTINUOUS
10
128.277
20
-125.694
11
128.331
21
-125.863
0
LINE
8
BLACK
6
CONTINUOUS
10
128.331
20
-125.863
11
128.35
21
-126.04
0
LINE
8
BLACK
6
CONTINUOUS
10
128.35
20
-126.04
11
128.331
21
-126.217
0
LINE
8
BLACK
6
CONTINUOUS
10
128.331
20
-126.217
11
128.277
21
-126.386
0
LINE
8
BLACK
6
CONTINUOUS
10
128.277
20
-126.386
11
128.188
21
-126.54
0
LINE
8
BLACK
6
CONTINUOUS
10
128.188
20
-126.54
11
128.069
21
-126.672
0
LINE
8
BLACK
6
CONTINUOUS
10
128.069
20
-126.672
11
127.925
21
-126.776
0
LINE
8
BLACK
6
CONTINUOUS
10
127.925
20
-126.776
11
127.763
21
-126.848
0
LINE
8
BLACK
6
CONTINUOUS
10
127.763
20
-126.848
11
127.589
21
-126.885
0
LINE
8
BLACK
6
CONTINUOUS
10
127.589
20
-126.885
11
127.411
21
-126.885
0
LINE
8
BLACK
6
CONTINUOUS
10
127.411
20
-126.885
11
127.237
21
-126.848
0
LINE
8
BLACK
6
CONTINUOUS
10
127.237
20
-126.848
11
127.075
21
-126.776
0
LINE
8
BLACK
6
CONTINUOUS
10
127.075
20
-126.776
11
126.931
21
-126.672
0
LINE
8
BLACK
6
CONTINUOUS
10
126.931
20
-126.672
11
126.812
21
-126.54
0
LINE
8
BLACK
6
CONTINUOUS
10
126.812
20
-126.54
11
126.723
21
-126.386
0
LINE
8
BLACK
6
CONTINUOUS
10
126.723
20
-126.386
11
126.669
21
-126.217
0
LINE
8
BLACK
6
CONTINUOUS
10
126.669
20
-126.217
11
126.65
21
-126.04
0
LINE
8
BLACK
6
CONTINUOUS
10
126.65
20
-126.04
11
126.669
21
-125.863
0
LINE
8
BLACK
6
CONTINUOUS
10
126.669
20
-125.863
11
126.723
21
-125.694
0
LINE
8
BLACK
6
CONTINUOUS
10
126.723
20
-125.694
11
126.812
21
-125.54
0
LINE
8
BLACK
6
CONTINUOUS
10
126.812
20
-125.54
11
126.931
21
-125.408
0
LINE
8
BLACK
6
CONTINUOUS
10
126.931
20
-125.408
11
127.075
21
-125.304
0
LINE
8
BLACK
6
CONTINUOUS
10
127.075
20
-125.304
11
127.237
21
-125.232
0
LINE
8
BLACK
6
CONTINUOUS
10
127.237
20
-125.232
11
127.411
21
-125.195
0
LINE
8
BLACK
6
CONTINUOUS
10
127.411
20
-125.195
11
127.589
21
-125.195
0
LINE
8
BLACK
6
CONTINUOUS
10
127.589
20
-125.195
11
127.763
21
-125.232
0
LINE
8
BLACK
6
CONTINUOUS
10
125.223
20
-125.232
11
125.385
21
-125.304
0
LINE
8
BLACK
6
CONTINUOUS
10
125.385
20
-125.304
11
125.529
21
-125.408
0
LINE
8
BLACK
6
CONTINUOUS
10
125.529
20
-125.408
11
125.648
21
-125.54
0
LINE
8
BLACK
6
CONTINUOUS
10
125.648
20
-125.54
11
125.737
21
-125.694
0
LINE
8
BLACK
6
CONTINUOUS
10
125.737
20
-125.694
11
125.791
21
-125.863
0
LINE
8
BLACK
6
CONTINUOUS
10
125.791
20
-125.863
11
125.81
21
-126.04
0
LINE
8
BLACK
6
CONTINUOUS
10
125.81
20
-126.04
11
125.791
21
-126.217
0
LINE
8
BLACK
6
CONTINUOUS
10
125.791
20
-126.217
11
125.737
21
-126.386
0
LINE
8
BLACK
6
CONTINUOUS
10
125.737
20
-126.386
11
125.648
21
-126.54
0
LINE
8
BLACK
6
CONTINUOUS
10
125.648
20
-126.54
11
125.529
21
-126.672
0
LINE
8
BLACK
6
CONTINUOUS
10
125.529
20
-126.672
11
125.385
21
-126.776
0
LINE
8
BLACK
6
CONTINUOUS
10
125.385
20
-126.776
11
125.223
21
-126.848
0
LINE
8
BLACK
6
CONTINUOUS
10
125.223
20
-126.848
11
125.049
21
-126.885
0
LINE
8
BLACK
6
CONTINUOUS
10
125.049
20
-126.885
11
124.871
21
-126.885
0
LINE
8
BLACK
6
CONTINUOUS
10
124.871
20
-126.885
11
124.697
21
-126.848
0
LINE
8
BLACK
6
CONTINUOUS
10
124.697
20
-126.848
11
124.535
21
-126.776
0
LINE
8
BLACK
6
CONTINUOUS
10
124.535
20
-126.776
11
124.391
21
-126.672
0
LINE
8
BLACK
6
CONTINUOUS
10
124.391
20
-126.672
11
124.272
21
-126.54
0
LINE
8
BLACK
6
CONTINUOUS
10
124.272
20
-126.54
11
124.183
21
-126.386
0
LINE
8
BLACK
6
CONTINUOUS
10
124.183
20
-126.386
11
124.129
21
-126.217
0
LINE
8
BLACK
6
CONTINUOUS
10
124.129
20
-126.217
11
124.11
21
-126.04
0
LINE
8
BLACK
6
CONTINUOUS
10
124.11
20
-126.04
11
124.129
21
-125.863
0
LINE
8
BLACK
6
CONTINUOUS
10
124.129
20
-125.863
11
124.183
21
-125.694
0
LINE
8
BLACK
6
CONTINUOUS
10
124.183
20
-125.694
11
124.272
21
-125.54
0
LINE
8
BLACK
6
CONTINUOUS
10
124.272
20
-125.54
11
124.391
21
-125.408
0
LINE
8
BLACK
6
CONTINUOUS
10
124.391
20
-125.408
11
124.535
21
-125.304
0
LINE
8
BLACK
6
CONTINUOUS
10
124.535
20
-125.304
11
124.697
21
-125.232
0
LINE
8
BLACK
6
CONTINUOUS
10
124.697
20
-125.232
11
124.871
21
-125.195
0
LINE
8
BLACK
6
CONTINUOUS
10
124.871
20
-125.195
11
125.049
21
-125.195
0
LINE
8
BLACK
6
CONTINUOUS
10
125.049
20
-125.195
11
125.223
21
-125.232
0
LINE
8
BLACK
6
CONTINUOUS
10
130.303
20
-122.692
11
130.465
21
-122.764
0
LINE
8
BLACK
6
CONTINUOUS
10
130.465
20
-122.764
11
130.609
21
-122.868
0
LINE
8
BLACK
6
CONTINUOUS
10
130.609
20
-122.868
11
130.728
21
-123
0
LINE
8
BLACK
6
CONTINUOUS
10
130.728
20
-123
11
130.817
21
-123.154
0
LINE
8
BLACK
6
CONTINUOUS
10
130.817
20
-123.154
11
130.871
21
-123.323
0
LINE
8
BLACK
6
CONTINUOUS
10
130.871
20
-123.323
11
130.89
21
-123.5
0
LINE
8
BLACK
6
CONTINUOUS
10
130.89
20
-123.5
11
130.871
21
-123.677
0
LINE
8
BLACK
6
CONTINUOUS
10
130.871
20
-123.677
11
130.817
21
-123.846
0
LINE
8
BLACK
6
CONTINUOUS
10
130.817
20
-123.846
11
130.728
21
-124
0
LINE
8
BLACK
6
CONTINUOUS
10
130.728
20
-124
11
130.609
21
-124.132
0
LINE
8
BLACK
6
CONTINUOUS
10
130.609
20
-124.132
11
130.465
21
-124.236
0
LINE
8
BLACK
6
CONTINUOUS
10
130.465
20
-124.236
11
130.303
21
-124.308
0
LINE
8
BLACK
6
CONTINUOUS
10
130.303
20
-124.308
11
130.129
21
-124.345
0
LINE
8
BLACK
6
CONTINUOUS
10
130.129
20
-124.345
11
129.951
21
-124.345
0
LINE
8
BLACK
6
CONTINUOUS
10
129.951
20
-124.345
11
129.777
21
-124.308
0
LINE
8
BLACK
6
CONTINUOUS
10
129.777
20
-124.308
11
129.615
21
-124.236
0
LINE
8
BLACK
6
CONTINUOUS
10
129.615
20
-124.236
11
129.471
21
-124.132
0
LINE
8
BLACK
6
CONTINUOUS
10
129.471
20
-124.132
11
129.352
21
-124
0
LINE
8
BLACK
6
CONTINUOUS
10
129.352
20
-124
11
129.263
21
-123.846
0
LINE
8
BLACK
6
CONTINUOUS
10
129.263
20
-123.846
11
129.209
21
-123.677
0
LINE
8
BLACK
6
CONTINUOUS
10
129.209
20
-123.677
11
129.19
21
-123.5
0
LINE
8
BLACK
6
CONTINUOUS
10
129.19
20
-123.5
11
129.209
21
-123.323
0
LINE
8
BLACK
6
CONTINUOUS
10
129.209
20
-123.323
11
129.263
21
-123.154
0
LINE
8
BLACK
6
CONTINUOUS
10
129.263
20
-123.154
11
129.352
21
-123
0
LINE
8
BLACK
6
CONTINUOUS
10
129.352
20
-123
11
129.471
21
-122.868
0
LINE
8
BLACK
6
CONTINUOUS
10
129.471
20
-122.868
11
129.615
21
-122.764
0
LINE
8
BLACK
6
CONTINUOUS
10
129.615
20
-122.764
11
129.777
21
-122.692
0
LINE
8
BLACK
6
CONTINUOUS
10
129.777
20
-122.692
11
129.951
21
-122.655
0
LINE
8
BLACK
6
CONTINUOUS
10
129.951
20
-122.655
11
130.129
21
-122.655
0
LINE
8
BLACK
6
CONTINUOUS
10
130.129
20
-122.655
11
130.303
21
-122.692
0
LINE
8
BLACK
6
CONTINUOUS
10
127.763
20
-122.692
11
127.925
21
-122.764
0
LINE
8
BLACK
6
CONTINUOUS
10
127.925
20
-122.764
11
128.069
21
-122.868
0
LINE
8
BLACK
6
CONTINUOUS
10
128.069
20
-122.868
11
128.188
21
-123
0
LINE
8
BLACK
6
CONTINUOUS
10
128.188
20
-123
11
128.277
21
-123.154
0
LINE
8
BLACK
6
CONTINUOUS
10
128.277
20
-123.154
11
128.331
21
-123.323
0
LINE
8
BLACK
6
CONTINUOUS
10
128.331
20
-123.323
11
128.35
21
-123.5
0
LINE
8
BLACK
6
CONTINUOUS
10
128.35
20
-123.5
11
128.331
21
-123.677
0
LINE
8
BLACK
6
CONTINUOUS
10
128.331
20
-123.677
11
128.277
21
-123.846
0
LINE
8
BLACK
6
CONTINUOUS
10
128.277
20
-123.846
11
128.188
21
-124
0
LINE
8
BLACK
6
CONTINUOUS
10
128.188
20
-124
11
128.069
21
-124.132
0
LINE
8
BLACK
6
CONTINUOUS
10
128.069
20
-124.132
11
127.925
21
-124.236
0
LINE
8
BLACK
6
CONTINUOUS
10
127.925
20
-124.236
11
127.763
21
-124.308
0
LINE
8
BLACK
6
CONTINUOUS
10
127.763
20
-124.308
11
127.589
21
-124.345
0
LINE
8
BLACK
6
CONTINUOUS
10
127.589
20
-124.345
11
127.411
21
-124.345
0
LINE
8
BLACK
6
CONTINUOUS
10
127.411
20
-124.345
11
127.237
21
-124.308
0
LINE
8
BLACK
6
CONTINUOUS
10
127.237
20
-124.308
11
127.075
21
-124.236
0
LINE
8
BLACK
6
CONTINUOUS
10
127.075
20
-124.236
11
126.931
21
-124.132
0
LINE
8
BLACK
6
CONTINUOUS
10
126.931
20
-124.132
11
126.812
21
-124
0
LINE
8
BLACK
6
CONTINUOUS
10
126.812
20
-124
11
126.723
21
-123.846
0
LINE
8
BLACK
6
CONTINUOUS
10
126.723
20
-123.846
11
126.669
21
-123.677
0
LINE
8
BLACK
6
CONTINUOUS
10
126.669
20
-123.677
11
126.65
21
-123.5
0
LINE
8
BLACK
6
CONTINUOUS
10
126.65
20
-123.5
11
126.669
21
-123.323
0
LINE
8
BLACK
6
CONTINUOUS
10
126.669
20
-123.323
11
126.723
21
-123.154
0
LINE
8
BLACK
6
CONTINUOUS
10
126.723
20
-123.154
11
126.812
21
-123
0
LINE
8
BLACK
6
CONTINUOUS
10
126.812
20
-123
11
126.931
21
-122.868
0
LINE
8
BLACK
6
CONTINUOUS
10
126.931
20
-122.868
11
127.075
21
-122.764
0
LINE
8
BLACK
6
CONTINUOUS
10
127.075
20
-122.764
11
127.237
21
-122.692
0
LINE
8
BLACK
6
CONTINUOUS
10
127.237
20
-122.692
11
127.411
21
-122.655
0
LINE
8
BLACK
6
CONTINUOUS
10
127.411
20
-122.655
11
127.589
21
-122.655
0
LINE
8
BLACK
6
CONTINUOUS
10
127.589
20
-122.655
11
127.763
21
-122.692
0
LINE
8
BLACK
6
CONTINUOUS
10
125.223
20
-122.692
11
125.385
21
-122.764
0
LINE
8
BLACK
6
CONTINUOUS
10
125.385
20
-122.764
11
125.529
21
-122.868
0
LINE
8
BLACK
6
CONTINUOUS
10
125.529
20
-122.868
11
125.648
21
-123
0
LINE
8
BLACK
6
CONTINUOUS
10
125.648
20
-123
11
125.737
21
-123.154
0
LINE
8
BLACK
6
CONTINUOUS
10
125.737
20
-123.154
11
125.791
21
-123.323
0
LINE
8
BLACK
6
CONTINUOUS
10
125.791
20
-123.323
11
125.81
21
-123.5
0
LINE
8
BLACK
6
CONTINUOUS
10
125.81
20
-123.5
11
125.791
21
-123.677
0
LINE
8
BLACK
6
CONTINUOUS
10
125.791
20
-123.677
11
125.737
21
-123.846
0
LINE
8
BLACK
6
CONTINUOUS
10
125.737
20
-123.846
11
125.648
21
-124
0
LINE
8
BLACK
6
CONTINUOUS
10
125.648
20
-124
11
125.529
21
-124.132
0
LINE
8
BLACK
6
CONTINUOUS
10
125.529
20
-124.132
11
125.385
21
-124.236
0
LINE
8
BLACK
6
CONTINUOUS
10
125.385
20
-124.236
11
125.223
21
-124.308
0
LINE
8
BLACK
6
CONTINUOUS
10
125.223
20
-124.308
11
125.049
21
-124.345
0
LINE
8
BLACK
6
CONTINUOUS
10
125.049
20
-124.345
11
124.871
21
-124.345
0
LINE
8
BLACK
6
CONTINUOUS
10
124.871
20
-124.345
11
124.697
21
-124.308
0
LINE
8
BLACK
6
CONTINUOUS
10
124.697
20
-124.308
11
124.535
21
-124.236
0
LINE
8
BLACK
6
CONTINUOUS
10
124.535
20
-124.236
11
124.391
21
-124.132
0
LINE
8
BLACK
6
CONTINUOUS
10
124.391
20
-124.132
11
124.272
21
-124
0
LINE
8
BLACK
6
CONTINUOUS
10
124.272
20
-124
11
124.183
21
-123.846
0
LINE
8
BLACK
6
CONTINUOUS
10
124.183
20
-123.846
11
124.129
21
-123.677
0
LINE
8
BLACK
6
CONTINUOUS
10
124.129
20
-123.677
11
124.11
21
-123.5
0
LINE
8
BLACK
6
CONTINUOUS
10
124.11
20
-123.5
11
124.129
21
-123.323
0
LINE
8
BLACK
6
CONTINUOUS
10
124.129
20
-123.323
11
124.183
21
-123.154
0
LINE
8
BLACK
6
CONTINUOUS
10
124.183
20
-123.154
11
124.272
21
-123
0
LINE
8
BLACK
6
CONTINUOUS
10
124.272
20
-123
11
124.391
21
-122.868
0
LINE
8
BLACK
6
CONTINUOUS
10
124.391
20
-122.868
11
124.535
21
-122.764
0
LINE
8
BLACK
6
CONTINUOUS
10
124.535
20
-122.764
11
124.697
21
-122.692
0
LINE
8
BLACK
6
CONTINUOUS
10
124.697
20
-122.692
11
124.871
21
-122.655
0
LINE
8
BLACK
6
CONTINUOUS
10
124.871
20
-122.655
11
125.049
21
-122.655
0
LINE
8
BLACK
6
CONTINUOUS
10
125.049
20
-122.655
11
125.223
21
-122.692
0
LINE
8
BLACK
6
CONTINUOUS
10
102.783
20
-116.745
11
102.902
21
-116.822
0
LINE
8
BLACK
6
CONTINUOUS
10
102.902
20
-116.822
11
102.996
21
-116.93
0
LINE
8
BLACK
6
CONTINUOUS
10
102.996
20
-116.93
11
103.055
21
-117.059
0
LINE
8
BLACK
6
CONTINUOUS
10
103.055
20
-117.059
11
103.075
21
-117.2
0
LINE
8
BLACK
6
CONTINUOUS
10
103.075
20
-117.2
11
103.055
21
-117.341
0
LINE
8
BLACK
6
CONTINUOUS
10
103.055
20
-117.341
11
102.996
21
-117.47
0
LINE
8
BLACK
6
CONTINUOUS
10
102.996
20
-117.47
11
102.902
21
-117.578
0
LINE
8
BLACK
6
CONTINUOUS
10
102.902
20
-117.578
11
102.783
21
-117.655
0
LINE
8
BLACK
6
CONTINUOUS
10
102.783
20
-117.655
11
102.646
21
-117.695
0
LINE
8
BLACK
6
CONTINUOUS
10
102.646
20
-117.695
11
102.504
21
-117.695
0
LINE
8
BLACK
6
CONTINUOUS
10
102.504
20
-117.695
11
102.367
21
-117.655
0
LINE
8
BLACK
6
CONTINUOUS
10
102.367
20
-117.655
11
102.248
21
-117.578
0
LINE
8
BLACK
6
CONTINUOUS
10
102.248
20
-117.578
11
102.154
21
-117.47
0
LINE
8
BLACK
6
CONTINUOUS
10
102.154
20
-117.47
11
102.095
21
-117.341
0
LINE
8
BLACK
6
CONTINUOUS
10
102.095
20
-117.341
11
102.075
21
-117.2
0
LINE
8
BLACK
6
CONTINUOUS
10
102.075
20
-117.2
11
102.095
21
-117.059
0
LINE
8
BLACK
6
CONTINUOUS
10
102.095
20
-117.059
11
102.154
21
-116.93
0
LINE
8
BLACK
6
CONTINUOUS
10
102.154
20
-116.93
11
102.248
21
-116.822
0
LINE
8
BLACK
6
CONTINUOUS
10
102.248
20
-116.822
11
102.367
21
-116.745
0
LINE
8
BLACK
6
CONTINUOUS
10
102.367
20
-116.745
11
102.504
21
-116.705
0
LINE
8
BLACK
6
CONTINUOUS
10
102.504
20
-116.705
11
102.646
21
-116.705
0
LINE
8
BLACK
6
CONTINUOUS
10
102.646
20
-116.705
11
102.783
21
-116.745
0
LINE
8
BLACK
6
CONTINUOUS
10
102.783
20
-112.345
11
102.902
21
-112.422
0
LINE
8
BLACK
6
CONTINUOUS
10
102.902
20
-112.422
11
102.996
21
-112.53
0
LINE
8
BLACK
6
CONTINUOUS
10
102.996
20
-112.53
11
103.055
21
-112.659
0
LINE
8
BLACK
6
CONTINUOUS
10
103.055
20
-112.659
11
103.075
21
-112.8
0
LINE
8
BLACK
6
CONTINUOUS
10
103.075
20
-112.8
11
103.055
21
-112.941
0
LINE
8
BLACK
6
CONTINUOUS
10
103.055
20
-112.941
11
102.996
21
-113.07
0
LINE
8
BLACK
6
CONTINUOUS
10
102.996
20
-113.07
11
102.902
21
-113.178
0
LINE
8
BLACK
6
CONTINUOUS
10
102.902
20
-113.178
11
102.783
21
-113.255
0
LINE
8
BLACK
6
CONTINUOUS
10
102.783
20
-113.255
11
102.646
21
-113.295
0
LINE
8
BLACK
6
CONTINUOUS
10
102.646
20
-113.295
11
102.504
21
-113.295
0
LINE
8
BLACK
6
CONTINUOUS
10
102.504
20
-113.295
11
102.367
21
-113.255
0
LINE
8
BLACK
6
CONTINUOUS
10
102.367
20
-113.255
11
102.248
21
-113.178
0
LINE
8
BLACK
6
CONTINUOUS
10
102.248
20
-113.178
11
102.154
21
-113.07
0
LINE
8
BLACK
6
CONTINUOUS
10
102.154
20
-113.07
11
102.095
21
-112.941
0
LINE
8
BLACK
6
CONTINUOUS
10
102.095
20
-112.941
11
102.075
21
-112.8
0
LINE
8
BLACK
6
CONTINUOUS
10
102.075
20
-112.8
11
102.095
21
-112.659
0
LINE
8
BLACK
6
CONTINUOUS
10
102.095
20
-112.659
11
102.154
21
-112.53
0
LINE
8
BLACK
6
CONTINUOUS
10
102.154
20
-112.53
11
102.248
21
-112.422
0
LINE
8
BLACK
6
CONTINUOUS
10
102.248
20
-112.422
11
102.367
21
-112.345
0
LINE
8
BLACK
6
CONTINUOUS
10
102.367
20
-112.345
11
102.504
21
-112.305
0
LINE
8
BLACK
6
CONTINUOUS
10
102.504
20
-112.305
11
102.646
21
-112.305
0
LINE
8
BLACK
6
CONTINUOUS
10
102.646
20
-112.305
11
102.783
21
-112.345
0
LINE
8
BLACK
6
CONTINUOUS
10
154.201
20
-101.342
11
154.39
21
-101.415
0
LINE
8
BLACK
6
CONTINUOUS
10
154.39
20
-101.415
11
154.563
21
-101.522
0
LINE
8
BLACK
6
CONTINUOUS
10
154.563
20
-101.522
11
154.713
21
-101.659
0
LINE
8
BLACK
6
CONTINUOUS
10
154.713
20
-101.659
11
154.835
21
-101.821
0
LINE
8
BLACK
6
CONTINUOUS
10
154.835
20
-101.821
11
154.926
21
-102.003
0
LINE
8
BLACK
6
CONTINUOUS
10
154.926
20
-102.003
11
154.981
21
-102.198
0
LINE
8
BLACK
6
CONTINUOUS
10
154.981
20
-102.198
11
155
21
-102.4
0
LINE
8
BLACK
6
CONTINUOUS
10
155
20
-102.4
11
154.981
21
-102.602
0
LINE
8
BLACK
6
CONTINUOUS
10
154.981
20
-102.602
11
154.926
21
-102.797
0
LINE
8
BLACK
6
CONTINUOUS
10
154.926
20
-102.797
11
154.835
21
-102.979
0
LINE
8
BLACK
6
CONTINUOUS
10
154.835
20
-102.979
11
154.713
21
-103.141
0
LINE
8
BLACK
6
CONTINUOUS
10
154.713
20
-103.141
11
154.563
21
-103.278
0
LINE
8
BLACK
6
CONTINUOUS
10
154.563
20
-103.278
11
154.39
21
-103.385
0
LINE
8
BLACK
6
CONTINUOUS
10
154.39
20
-103.385
11
154.201
21
-103.458
0
LINE
8
BLACK
6
CONTINUOUS
10
154.201
20
-103.458
11
154.001
21
-103.495
0
LINE
8
BLACK
6
CONTINUOUS
10
154.001
20
-103.495
11
153.799
21
-103.495
0
LINE
8
BLACK
6
CONTINUOUS
10
153.799
20
-103.495
11
153.599
21
-103.458
0
LINE
8
BLACK
6
CONTINUOUS
10
153.599
20
-103.458
11
153.41
21
-103.385
0
LINE
8
BLACK
6
CONTINUOUS
10
153.41
20
-103.385
11
153.237
21
-103.278
0
LINE
8
BLACK
6
CONTINUOUS
10
153.237
20
-103.278
11
153.087
21
-103.141
0
LINE
8
BLACK
6
CONTINUOUS
10
153.087
20
-103.141
11
152.965
21
-102.979
0
LINE
8
BLACK
6
CONTINUOUS
10
152.965
20
-102.979
11
152.874
21
-102.797
0
LINE
8
BLACK
6
CONTINUOUS
10
152.874
20
-102.797
11
152.819
21
-102.602
0
LINE
8
BLACK
6
CONTINUOUS
10
152.819
20
-102.602
11
152.8
21
-102.4
0
LINE
8
BLACK
6
CONTINUOUS
10
152.8
20
-102.4
11
152.819
21
-102.198
0
LINE
8
BLACK
6
CONTINUOUS
10
152.819
20
-102.198
11
152.874
21
-102.003
0
LINE
8
BLACK
6
CONTINUOUS
10
152.874
20
-102.003
11
152.965
21
-101.821
0
LINE
8
BLACK
6
CONTINUOUS
10
152.965
20
-101.821
11
153.087
21
-101.659
0
LINE
8
BLACK
6
CONTINUOUS
10
153.087
20
-101.659
11
153.237
21
-101.522
0
LINE
8
BLACK
6
CONTINUOUS
10
153.237
20
-101.522
11
153.41
21
-101.415
0
LINE
8
BLACK
6
CONTINUOUS
10
153.41
20
-101.415
11
153.599
21
-101.342
0
LINE
8
BLACK
6
CONTINUOUS
10
153.599
20
-101.342
11
153.799
21
-101.305
0
LINE
8
BLACK
6
CONTINUOUS
10
153.799
20
-101.305
11
154.001
21
-101.305
0
LINE
8
BLACK
6
CONTINUOUS
10
154.001
20
-101.305
11
154.201
21
-101.342
0
LINE
8
BLACK
6
CONTINUOUS
10
144.017
20
-69.0313
11
144.175
21
-69.0868
0
LINE
8
BLACK
6
CONTINUOUS
10
144.175
20
-69.0868
11
144.318
21
-69.1761
0
LINE
8
BLACK
6
CONTINUOUS
10
144.318
20
-69.1761
11
144.436
21
-69.2949
0
LINE
8
BLACK
6
CONTINUOUS
10
144.436
20
-69.2949
11
144.526
21
-69.4371
0
LINE
8
BLACK
6
CONTINUOUS
10
144.526
20
-69.4371
11
144.581
21
-69.5956
0
LINE
8
BLACK
6
CONTINUOUS
10
144.581
20
-69.5956
11
144.6
21
-69.7625
0
LINE
8
BLACK
6
CONTINUOUS
10
144.6
20
-69.7625
11
144.581
21
-69.9294
0
LINE
8
BLACK
6
CONTINUOUS
10
144.581
20
-69.9294
11
144.526
21
-70.0879
0
LINE
8
BLACK
6
CONTINUOUS
10
144.526
20
-70.0879
11
144.436
21
-70.2301
0
LINE
8
BLACK
6
CONTINUOUS
10
144.436
20
-70.2301
11
144.318
21
-70.3489
0
LINE
8
BLACK
6
CONTINUOUS
10
144.318
20
-70.3489
11
144.175
21
-70.4382
0
LINE
8
BLACK
6
CONTINUOUS
10
144.175
20
-70.4382
11
144.017
21
-70.4937
0
LINE
8
BLACK
6
CONTINUOUS
10
144.017
20
-70.4937
11
143.85
21
-70.5125
0
LINE
8
BLACK
6
CONTINUOUS
10
143.85
20
-70.5125
11
143.683
21
-70.4937
0
LINE
8
BLACK
6
CONTINUOUS
10
143.683
20
-70.4937
11
143.525
21
-70.4382
0
LINE
8
BLACK
6
CONTINUOUS
10
143.525
20
-70.4382
11
143.382
21
-70.3489
0
LINE
8
BLACK
6
CONTINUOUS
10
143.382
20
-70.3489
11
143.264
21
-70.2301
0
LINE
8
BLACK
6
CONTINUOUS
10
143.264
20
-70.2301
11
143.174
21
-70.0879
0
LINE
8
BLACK
6
CONTINUOUS
10
143.174
20
-70.0879
11
143.119
21
-69.9294
0
LINE
8
BLACK
6
CONTINUOUS
10
143.119
20
-69.9294
11
143.1
21
-69.7625
0
LINE
8
BLACK
6
CONTINUOUS
10
143.1
20
-69.7625
11
143.119
21
-69.5956
0
LINE
8
BLACK
6
CONTINUOUS
10
143.119
20
-69.5956
11
143.174
21
-69.4371
0
LINE
8
BLACK
6
CONTINUOUS
10
143.174
20
-69.4371
11
143.264
21
-69.2949
0
LINE
8
BLACK
6
CONTINUOUS
10
143.264
20
-69.2949
11
143.382
21
-69.1761
0
LINE
8
BLACK
6
CONTINUOUS
10
143.382
20
-69.1761
11
143.525
21
-69.0868
0
LINE
8
BLACK
6
CONTINUOUS
10
143.525
20
-69.0868
11
143.683
21
-69.0313
0
LINE
8
BLACK
6
CONTINUOUS
10
143.683
20
-69.0313
11
143.85
21
-69.0125
0
LINE
8
BLACK
6
CONTINUOUS
10
143.85
20
-69.0125
11
144.017
21
-69.0313
0
LINE
8
BLACK
6
CONTINUOUS
10
141.477
20
-69.0313
11
141.635
21
-69.0868
0
LINE
8
BLACK
6
CONTINUOUS
10
141.635
20
-69.0868
11
141.778
21
-69.1761
0
LINE
8
BLACK
6
CONTINUOUS
10
141.778
20
-69.1761
11
141.896
21
-69.2949
0
LINE
8
BLACK
6
CONTINUOUS
10
141.896
20
-69.2949
11
141.986
21
-69.4371
0
LINE
8
BLACK
6
CONTINUOUS
10
141.986
20
-69.4371
11
142.041
21
-69.5956
0
LINE
8
BLACK
6
CONTINUOUS
10
142.041
20
-69.5956
11
142.06
21
-69.7625
0
LINE
8
BLACK
6
CONTINUOUS
10
142.06
20
-69.7625
11
142.041
21
-69.9294
0
LINE
8
BLACK
6
CONTINUOUS
10
142.041
20
-69.9294
11
141.986
21
-70.0879
0
LINE
8
BLACK
6
CONTINUOUS
10
141.986
20
-70.0879
11
141.896
21
-70.2301
0
LINE
8
BLACK
6
CONTINUOUS
10
141.896
20
-70.2301
11
141.778
21
-70.3489
0
LINE
8
BLACK
6
CONTINUOUS
10
141.778
20
-70.3489
11
141.635
21
-70.4382
0
LINE
8
BLACK
6
CONTINUOUS
10
141.635
20
-70.4382
11
141.477
21
-70.4937
0
LINE
8
BLACK
6
CONTINUOUS
10
141.477
20
-70.4937
11
141.31
21
-70.5125
0
LINE
8
BLACK
6
CONTINUOUS
10
141.31
20
-70.5125
11
141.143
21
-70.4937
0
LINE
8
BLACK
6
CONTINUOUS
10
141.143
20
-70.4937
11
140.985
21
-70.4382
0
LINE
8
BLACK
6
CONTINUOUS
10
140.985
20
-70.4382
11
140.842
21
-70.3489
0
LINE
8
BLACK
6
CONTINUOUS
10
140.842
20
-70.3489
11
140.724
21
-70.2301
0
LINE
8
BLACK
6
CONTINUOUS
10
140.724
20
-70.2301
11
140.634
21
-70.0879
0
LINE
8
BLACK
6
CONTINUOUS
10
140.634
20
-70.0879
11
140.579
21
-69.9294
0
LINE
8
BLACK
6
CONTINUOUS
10
140.579
20
-69.9294
11
140.56
21
-69.7625
0
LINE
8
BLACK
6
CONTINUOUS
10
140.56
20
-69.7625
11
140.579
21
-69.5956
0
LINE
8
BLACK
6
CONTINUOUS
10
140.579
20
-69.5956
11
140.634
21
-69.4371
0
LINE
8
BLACK
6
CONTINUOUS
10
140.634
20
-69.4371
11
140.724
21
-69.2949
0
LINE
8
BLACK
6
CONTINUOUS
10
140.724
20
-69.2949
11
140.842
21
-69.1761
0
LINE
8
BLACK
6
CONTINUOUS
10
140.842
20
-69.1761
11
140.985
21
-69.0868
0
LINE
8
BLACK
6
CONTINUOUS
10
140.985
20
-69.0868
11
141.143
21
-69.0313
0
LINE
8
BLACK
6
CONTINUOUS
10
141.143
20
-69.0313
11
141.31
21
-69.0125
0
LINE
8
BLACK
6
CONTINUOUS
10
141.31
20
-69.0125
11
141.477
21
-69.0313
0
LINE
8
BLACK
6
CONTINUOUS
10
138.937
20
-69.0313
11
139.095
21
-69.0868
0
LINE
8
BLACK
6
CONTINUOUS
10
139.095
20
-69.0868
11
139.238
21
-69.1761
0
LINE
8
BLACK
6
CONTINUOUS
10
139.238
20
-69.1761
11
139.356
21
-69.2949
0
LINE
8
BLACK
6
CONTINUOUS
10
139.356
20
-69.2949
11
139.446
21
-69.4371
0
LINE
8
BLACK
6
CONTINUOUS
10
139.446
20
-69.4371
11
139.501
21
-69.5956
0
LINE
8
BLACK
6
CONTINUOUS
10
139.501
20
-69.5956
11
139.52
21
-69.7625
0
LINE
8
BLACK
6
CONTINUOUS
10
139.52
20
-69.7625
11
139.501
21
-69.9294
0
LINE
8
BLACK
6
CONTINUOUS
10
139.501
20
-69.9294
11
139.446
21
-70.0879
0
LINE
8
BLACK
6
CONTINUOUS
10
139.446
20
-70.0879
11
139.356
21
-70.2301
0
LINE
8
BLACK
6
CONTINUOUS
10
139.356
20
-70.2301
11
139.238
21
-70.3489
0
LINE
8
BLACK
6
CONTINUOUS
10
139.238
20
-70.3489
11
139.095
21
-70.4382
0
LINE
8
BLACK
6
CONTINUOUS
10
139.095
20
-70.4382
11
138.937
21
-70.4937
0
LINE
8
BLACK
6
CONTINUOUS
10
138.937
20
-70.4937
11
138.77
21
-70.5125
0
LINE
8
BLACK
6
CONTINUOUS
10
138.77
20
-70.5125
11
138.603
21
-70.4937
0
LINE
8
BLACK
6
CONTINUOUS
10
138.603
20
-70.4937
11
138.445
21
-70.4382
0
LINE
8
BLACK
6
CONTINUOUS
10
138.445
20
-70.4382
11
138.302
21
-70.3489
0
LINE
8
BLACK
6
CONTINUOUS
10
138.302
20
-70.3489
11
138.184
21
-70.2301
0
LINE
8
BLACK
6
CONTINUOUS
10
138.184
20
-70.2301
11
138.094
21
-70.0879
0
LINE
8
BLACK
6
CONTINUOUS
10
138.094
20
-70.0879
11
138.039
21
-69.9294
0
LINE
8
BLACK
6
CONTINUOUS
10
138.039
20
-69.9294
11
138.02
21
-69.7625
0
LINE
8
BLACK
6
CONTINUOUS
10
138.02
20
-69.7625
11
138.039
21
-69.5956
0
LINE
8
BLACK
6
CONTINUOUS
10
138.039
20
-69.5956
11
138.094
21
-69.4371
0
LINE
8
BLACK
6
CONTINUOUS
10
138.094
20
-69.4371
11
138.184
21
-69.2949
0
LINE
8
BLACK
6
CONTINUOUS
10
138.184
20
-69.2949
11
138.302
21
-69.1761
0
LINE
8
BLACK
6
CONTINUOUS
10
138.302
20
-69.1761
11
138.445
21
-69.0868
0
LINE
8
BLACK
6
CONTINUOUS
10
138.445
20
-69.0868
11
138.603
21
-69.0313
0
LINE
8
BLACK
6
CONTINUOUS
10
138.603
20
-69.0313
11
138.77
21
-69.0125
0
LINE
8
BLACK
6
CONTINUOUS
10
138.77
20
-69.0125
11
138.937
21
-69.0313
0
LINE
8
BLACK
6
CONTINUOUS
10
136.397
20
-69.0313
11
136.555
21
-69.0868
0
LINE
8
BLACK
6
CONTINUOUS
10
136.555
20
-69.0868
11
136.698
21
-69.1761
0
LINE
8
BLACK
6
CONTINUOUS
10
136.698
20
-69.1761
11
136.816
21
-69.2949
0
LINE
8
BLACK
6
CONTINUOUS
10
136.816
20
-69.2949
11
136.906
21
-69.4371
0
LINE
8
BLACK
6
CONTINUOUS
10
136.906
20
-69.4371
11
136.961
21
-69.5956
0
LINE
8
BLACK
6
CONTINUOUS
10
136.961
20
-69.5956
11
136.98
21
-69.7625
0
LINE
8
BLACK
6
CONTINUOUS
10
136.98
20
-69.7625
11
136.961
21
-69.9294
0
LINE
8
BLACK
6
CONTINUOUS
10
136.961
20
-69.9294
11
136.906
21
-70.0879
0
LINE
8
BLACK
6
CONTINUOUS
10
136.906
20
-70.0879
11
136.816
21
-70.2301
0
LINE
8
BLACK
6
CONTINUOUS
10
136.816
20
-70.2301
11
136.698
21
-70.3489
0
LINE
8
BLACK
6
CONTINUOUS
10
136.698
20
-70.3489
11
136.555
21
-70.4382
0
LINE
8
BLACK
6
CONTINUOUS
10
136.555
20
-70.4382
11
136.397
21
-70.4937
0
LINE
8
BLACK
6
CONTINUOUS
10
136.397
20
-70.4937
11
136.23
21
-70.5125
0
LINE
8
BLACK
6
CONTINUOUS
10
136.23
20
-70.5125
11
136.063
21
-70.4937
0
LINE
8
BLACK
6
CONTINUOUS
10
136.063
20
-70.4937
11
135.905
21
-70.4382
0
LINE
8
BLACK
6
CONTINUOUS
10
135.905
20
-70.4382
11
135.762
21
-70.3489
0
LINE
8
BLACK
6
CONTINUOUS
10
135.762
20
-70.3489
11
135.644
21
-70.2301
0
LINE
8
BLACK
6
CONTINUOUS
10
135.644
20
-70.2301
11
135.554
21
-70.0879
0
LINE
8
BLACK
6
CONTINUOUS
10
135.554
20
-70.0879
11
135.499
21
-69.9294
0
LINE
8
BLACK
6
CONTINUOUS
10
135.499
20
-69.9294
11
135.48
21
-69.7625
0
LINE
8
BLACK
6
CONTINUOUS
10
135.48
20
-69.7625
11
135.499
21
-69.5956
0
LINE
8
BLACK
6
CONTINUOUS
10
135.499
20
-69.5956
11
135.554
21
-69.4371
0
LINE
8
BLACK
6
CONTINUOUS
10
135.554
20
-69.4371
11
135.644
21
-69.2949
0
LINE
8
BLACK
6
CONTINUOUS
10
135.644
20
-69.2949
11
135.762
21
-69.1761
0
LINE
8
BLACK
6
CONTINUOUS
10
135.762
20
-69.1761
11
135.905
21
-69.0868
0
LINE
8
BLACK
6
CONTINUOUS
10
135.905
20
-69.0868
11
136.063
21
-69.0313
0
LINE
8
BLACK
6
CONTINUOUS
10
136.063
20
-69.0313
11
136.23
21
-69.0125
0
LINE
8
BLACK
6
CONTINUOUS
10
136.23
20
-69.0125
11
136.397
21
-69.0313
0
LINE
8
BLACK
6
CONTINUOUS
10
133.857
20
-69.0313
11
134.015
21
-69.0868
0
LINE
8
BLACK
6
CONTINUOUS
10
134.015
20
-69.0868
11
134.158
21
-69.1761
0
LINE
8
BLACK
6
CONTINUOUS
10
134.158
20
-69.1761
11
134.276
21
-69.2949
0
LINE
8
BLACK
6
CONTINUOUS
10
134.276
20
-69.2949
11
134.366
21
-69.4371
0
LINE
8
BLACK
6
CONTINUOUS
10
134.366
20
-69.4371
11
134.421
21
-69.5956
0
LINE
8
BLACK
6
CONTINUOUS
10
134.421
20
-69.5956
11
134.44
21
-69.7625
0
LINE
8
BLACK
6
CONTINUOUS
10
134.44
20
-69.7625
11
134.421
21
-69.9294
0
LINE
8
BLACK
6
CONTINUOUS
10
134.421
20
-69.9294
11
134.366
21
-70.0879
0
LINE
8
BLACK
6
CONTINUOUS
10
134.366
20
-70.0879
11
134.276
21
-70.2301
0
LINE
8
BLACK
6
CONTINUOUS
10
134.276
20
-70.2301
11
134.158
21
-70.3489
0
LINE
8
BLACK
6
CONTINUOUS
10
134.158
20
-70.3489
11
134.015
21
-70.4382
0
LINE
8
BLACK
6
CONTINUOUS
10
134.015
20
-70.4382
11
133.857
21
-70.4937
0
LINE
8
BLACK
6
CONTINUOUS
10
133.857
20
-70.4937
11
133.69
21
-70.5125
0
LINE
8
BLACK
6
CONTINUOUS
10
133.69
20
-70.5125
11
133.523
21
-70.4937
0
LINE
8
BLACK
6
CONTINUOUS
10
133.523
20
-70.4937
11
133.365
21
-70.4382
0
LINE
8
BLACK
6
CONTINUOUS
10
133.365
20
-70.4382
11
133.222
21
-70.3489
0
LINE
8
BLACK
6
CONTINUOUS
10
133.222
20
-70.3489
11
133.104
21
-70.2301
0
LINE
8
BLACK
6
CONTINUOUS
10
133.104
20
-70.2301
11
133.014
21
-70.0879
0
LINE
8
BLACK
6
CONTINUOUS
10
133.014
20
-70.0879
11
132.959
21
-69.9294
0
LINE
8
BLACK
6
CONTINUOUS
10
132.959
20
-69.9294
11
132.94
21
-69.7625
0
LINE
8
BLACK
6
CONTINUOUS
10
132.94
20
-69.7625
11
132.959
21
-69.5956
0
LINE
8
BLACK
6
CONTINUOUS
10
132.959
20
-69.5956
11
133.014
21
-69.4371
0
LINE
8
BLACK
6
CONTINUOUS
10
133.014
20
-69.4371
11
133.104
21
-69.2949
0
LINE
8
BLACK
6
CONTINUOUS
10
133.104
20
-69.2949
11
133.222
21
-69.1761
0
LINE
8
BLACK
6
CONTINUOUS
10
133.222
20
-69.1761
11
133.365
21
-69.0868
0
LINE
8
BLACK
6
CONTINUOUS
10
133.365
20
-69.0868
11
133.523
21
-69.0313
0
LINE
8
BLACK
6
CONTINUOUS
10
133.523
20
-69.0313
11
133.69
21
-69.0125
0
LINE
8
BLACK
6
CONTINUOUS
10
133.69
20
-69.0125
11
133.857
21
-69.0313
0
LINE
8
BLACK
6
CONTINUOUS
10
131.317
20
-69.0313
11
131.475
21
-69.0868
0
LINE
8
BLACK
6
CONTINUOUS
10
131.475
20
-69.0868
11
131.618
21
-69.1761
0
LINE
8
BLACK
6
CONTINUOUS
10
131.618
20
-69.1761
11
131.736
21
-69.2949
0
LINE
8
BLACK
6
CONTINUOUS
10
131.736
20
-69.2949
11
131.826
21
-69.4371
0
LINE
8
BLACK
6
CONTINUOUS
10
131.826
20
-69.4371
11
131.881
21
-69.5956
0
LINE
8
BLACK
6
CONTINUOUS
10
131.881
20
-69.5956
11
131.9
21
-69.7625
0
LINE
8
BLACK
6
CONTINUOUS
10
131.9
20
-69.7625
11
131.881
21
-69.9294
0
LINE
8
BLACK
6
CONTINUOUS
10
131.881
20
-69.9294
11
131.826
21
-70.0879
0
LINE
8
BLACK
6
CONTINUOUS
10
131.826
20
-70.0879
11
131.736
21
-70.2301
0
LINE
8
BLACK
6
CONTINUOUS
10
131.736
20
-70.2301
11
131.618
21
-70.3489
0
LINE
8
BLACK
6
CONTINUOUS
10
131.618
20
-70.3489
11
131.475
21
-70.4382
0
LINE
8
BLACK
6
CONTINUOUS
10
131.475
20
-70.4382
11
131.317
21
-70.4937
0
LINE
8
BLACK
6
CONTINUOUS
10
131.317
20
-70.4937
11
131.15
21
-70.5125
0
LINE
8
BLACK
6
CONTINUOUS
10
131.15
20
-70.5125
11
130.983
21
-70.4937
0
LINE
8
BLACK
6
CONTINUOUS
10
130.983
20
-70.4937
11
130.825
21
-70.4382
0
LINE
8
BLACK
6
CONTINUOUS
10
130.825
20
-70.4382
11
130.682
21
-70.3489
0
LINE
8
BLACK
6
CONTINUOUS
10
130.682
20
-70.3489
11
130.564
21
-70.2301
0
LINE
8
BLACK
6
CONTINUOUS
10
130.564
20
-70.2301
11
130.474
21
-70.0879
0
LINE
8
BLACK
6
CONTINUOUS
10
130.474
20
-70.0879
11
130.419
21
-69.9294
0
LINE
8
BLACK
6
CONTINUOUS
10
130.419
20
-69.9294
11
130.4
21
-69.7625
0
LINE
8
BLACK
6
CONTINUOUS
10
130.4
20
-69.7625
11
130.419
21
-69.5956
0
LINE
8
BLACK
6
CONTINUOUS
10
130.419
20
-69.5956
11
130.474
21
-69.4371
0
LINE
8
BLACK
6
CONTINUOUS
10
130.474
20
-69.4371
11
130.564
21
-69.2949
0
LINE
8
BLACK
6
CONTINUOUS
10
130.564
20
-69.2949
11
130.682
21
-69.1761
0
LINE
8
BLACK
6
CONTINUOUS
10
130.682
20
-69.1761
11
130.825
21
-69.0868
0
LINE
8
BLACK
6
CONTINUOUS
10
130.825
20
-69.0868
11
130.983
21
-69.0313
0
LINE
8
BLACK
6
CONTINUOUS
10
130.983
20
-69.0313
11
131.15
21
-69.0125
0
LINE
8
BLACK
6
CONTINUOUS
10
131.15
20
-69.0125
11
131.317
21
-69.0313
0
LINE
8
BLACK
6
CONTINUOUS
10
184.3
20
-67.5
11
182.3
21
-67.5
0
LINE
8
BLACK
6
CONTINUOUS
10
182.3
20
-67.5
11
182.3
21
-65.5
0
LINE
8
BLACK
6
CONTINUOUS
10
182.3
20
-65.5
11
184.3
21
-65.5
0
LINE
8
BLACK
6
CONTINUOUS
10
184.3
20
-65.5
11
184.3
21
-67.5
0
LINE
8
BLACK
6
CONTINUOUS
10
175.895
20
-65.5192
11
176.083
21
-65.5761
0
LINE
8
BLACK
6
CONTINUOUS
10
176.083
20
-65.5761
11
176.256
21
-65.6685
0
LINE
8
BLACK
6
CONTINUOUS
10
176.256
20
-65.6685
11
176.407
21
-65.7929
0
LINE
8
BLACK
6
CONTINUOUS
10
176.407
20
-65.7929
11
176.531
21
-65.9444
0
LINE
8
BLACK
6
CONTINUOUS
10
176.531
20
-65.9444
11
176.624
21
-66.1173
0
LINE
8
BLACK
6
CONTINUOUS
10
176.624
20
-66.1173
11
176.681
21
-66.3049
0
LINE
8
BLACK
6
CONTINUOUS
10
176.681
20
-66.3049
11
176.7
21
-66.5
0
LINE
8
BLACK
6
CONTINUOUS
10
176.7
20
-66.5
11
176.681
21
-66.6951
0
LINE
8
BLACK
6
CONTINUOUS
10
176.681
20
-66.6951
11
176.624
21
-66.8827
0
LINE
8
BLACK
6
CONTINUOUS
10
176.624
20
-66.8827
11
176.531
21
-67.0556
0
LINE
8
BLACK
6
CONTINUOUS
10
176.531
20
-67.0556
11
176.407
21
-67.2071
0
LINE
8
BLACK
6
CONTINUOUS
10
176.407
20
-67.2071
11
176.256
21
-67.3315
0
LINE
8
BLACK
6
CONTINUOUS
10
176.256
20
-67.3315
11
176.083
21
-67.4239
0
LINE
8
BLACK
6
CONTINUOUS
10
176.083
20
-67.4239
11
175.895
21
-67.4808
0
LINE
8
BLACK
6
CONTINUOUS
10
175.895
20
-67.4808
11
175.7
21
-67.5
0
LINE
8
BLACK
6
CONTINUOUS
10
175.7
20
-67.5
11
175.505
21
-67.4808
0
LINE
8
BLACK
6
CONTINUOUS
10
175.505
20
-67.4808
11
175.317
21
-67.4239
0
LINE
8
BLACK
6
CONTINUOUS
10
175.317
20
-67.4239
11
175.144
21
-67.3315
0
LINE
8
BLACK
6
CONTINUOUS
10
175.144
20
-67.3315
11
174.993
21
-67.2071
0
LINE
8
BLACK
6
CONTINUOUS
10
174.993
20
-67.2071
11
174.869
21
-67.0556
0
LINE
8
BLACK
6
CONTINUOUS
10
174.869
20
-67.0556
11
174.776
21
-66.8827
0
LINE
8
BLACK
6
CONTINUOUS
10
174.776
20
-66.8827
11
174.719
21
-66.6951
0
LINE
8
BLACK
6
CONTINUOUS
10
174.719
20
-66.6951
11
174.7
21
-66.5
0
LINE
8
BLACK
6
CONTINUOUS
10
174.7
20
-66.5
11
174.719
21
-66.3049
0
LINE
8
BLACK
6
CONTINUOUS
10
174.719
20
-66.3049
11
174.776
21
-66.1173
0
LINE
8
BLACK
6
CONTINUOUS
10
174.776
20
-66.1173
11
174.869
21
-65.9444
0
LINE
8
BLACK
6
CONTINUOUS
10
174.869
20
-65.9444
11
174.993
21
-65.7929
0
LINE
8
BLACK
6
CONTINUOUS
10
174.993
20
-65.7929
11
175.144
21
-65.6685
0
LINE
8
BLACK
6
CONTINUOUS
10
175.144
20
-65.6685
11
175.317
21
-65.5761
0
LINE
8
BLACK
6
CONTINUOUS
10
175.317
20
-65.5761
11
175.505
21
-65.5192
0
LINE
8
BLACK
6
CONTINUOUS
10
175.505
20
-65.5192
11
175.7
21
-65.5
0
LINE
8
BLACK
6
CONTINUOUS
10
175.7
20
-65.5
11
175.895
21
-65.5192
0
LINE
8
BLACK
6
CONTINUOUS
10
189.501
20
-58.942
11
189.69
21
-59.0153
0
LINE
8
BLACK
6
CONTINUOUS
10
189.69
20
-59.0153
11
189.863
21
-59.1222
0
LINE
8
BLACK
6
CONTINUOUS
10
189.863
20
-59.1222
11
190.013
21
-59.2589
0
LINE
8
BLACK
6
CONTINUOUS
10
190.013
20
-59.2589
11
190.135
21
-59.4209
0
LINE
8
BLACK
6
CONTINUOUS
10
190.135
20
-59.4209
11
190.226
21
-59.6026
0
LINE
8
BLACK
6
CONTINUOUS
10
190.226
20
-59.6026
11
190.281
21
-59.7979
0
LINE
8
BLACK
6
CONTINUOUS
10
190.281
20
-59.7979
11
190.3
21
-60
0
LINE
8
BLACK
6
CONTINUOUS
10
190.3
20
-60
11
190.281
21
-60.2021
0
LINE
8
BLACK
6
CONTINUOUS
10
190.281
20
-60.2021
11
190.226
21
-60.3974
0
LINE
8
BLACK
6
CONTINUOUS
10
190.226
20
-60.3974
11
190.135
21
-60.5791
0
LINE
8
BLACK
6
CONTINUOUS
10
190.135
20
-60.5791
11
190.013
21
-60.7411
0
LINE
8
BLACK
6
CONTINUOUS
10
190.013
20
-60.7411
11
189.863
21
-60.8778
0
LINE
8
BLACK
6
CONTINUOUS
10
189.863
20
-60.8778
11
189.69
21
-60.9847
0
LINE
8
BLACK
6
CONTINUOUS
10
189.69
20
-60.9847
11
189.501
21
-61.058
0
LINE
8
BLACK
6
CONTINUOUS
10
189.501
20
-61.058
11
189.301
21
-61.0953
0
LINE
8
BLACK
6
CONTINUOUS
10
189.301
20
-61.0953
11
189.099
21
-61.0953
0
LINE
8
BLACK
6
CONTINUOUS
10
189.099
20
-61.0953
11
188.899
21
-61.058
0
LINE
8
BLACK
6
CONTINUOUS
10
188.899
20
-61.058
11
188.71
21
-60.9847
0
LINE
8
BLACK
6
CONTINUOUS
10
188.71
20
-60.9847
11
188.537
21
-60.8778
0
LINE
8
BLACK
6
CONTINUOUS
10
188.537
20
-60.8778
11
188.387
21
-60.7411
0
LINE
8
BLACK
6
CONTINUOUS
10
188.387
20
-60.7411
11
188.265
21
-60.5791
0
LINE
8
BLACK
6
CONTINUOUS
10
188.265
20
-60.5791
11
188.174
21
-60.3974
0
LINE
8
BLACK
6
CONTINUOUS
10
188.174
20
-60.3974
11
188.119
21
-60.2021
0
LINE
8
BLACK
6
CONTINUOUS
10
188.119
20
-60.2021
11
188.1
21
-60
0
LINE
8
BLACK
6
CONTINUOUS
10
188.1
20
-60
11
188.119
21
-59.7979
0
LINE
8
BLACK
6
CONTINUOUS
10
188.119
20
-59.7979
11
188.174
21
-59.6026
0
LINE
8
BLACK
6
CONTINUOUS
10
188.174
20
-59.6026
11
188.265
21
-59.4209
0
LINE
8
BLACK
6
CONTINUOUS
10
188.265
20
-59.4209
11
188.387
21
-59.2589
0
LINE
8
BLACK
6
CONTINUOUS
10
188.387
20
-59.2589
11
188.537
21
-59.1222
0
LINE
8
BLACK
6
CONTINUOUS
10
188.537
20
-59.1222
11
188.71
21
-59.0153
0
LINE
8
BLACK
6
CONTINUOUS
10
188.71
20
-59.0153
11
188.899
21
-58.942
0
LINE
8
BLACK
6
CONTINUOUS
10
188.899
20
-58.942
11
189.099
21
-58.9047
0
LINE
8
BLACK
6
CONTINUOUS
10
189.099
20
-58.9047
11
189.301
21
-58.9047
0
LINE
8
BLACK
6
CONTINUOUS
10
189.301
20
-58.9047
11
189.501
21
-58.942
0
LINE
8
BLACK
6
CONTINUOUS
10
144.6
20
-55.2725
11
143.1
21
-55.2725
0
LINE
8
BLACK
6
CONTINUOUS
10
143.1
20
-55.2725
11
143.1
21
-53.7725
0
LINE
8
BLACK
6
CONTINUOUS
10
143.1
20
-53.7725
11
144.6
21
-53.7725
0
LINE
8
BLACK
6
CONTINUOUS
10
144.6
20
-53.7725
11
144.6
21
-55.2725
0
LINE
8
BLACK
6
CONTINUOUS
10
141.477
20
-53.7913
11
141.635
21
-53.8468
0
LINE
8
BLACK
6
CONTINUOUS
10
141.635
20
-53.8468
11
141.778
21
-53.9361
0
LINE
8
BLACK
6
CONTINUOUS
10
141.778
20
-53.9361
11
141.896
21
-54.0549
0
LINE
8
BLACK
6
CONTINUOUS
10
141.896
20
-54.0549
11
141.986
21
-54.1971
0
LINE
8
BLACK
6
CONTINUOUS
10
141.986
20
-54.1971
11
142.041
21
-54.3556
0
LINE
8
BLACK
6
CONTINUOUS
10
142.041
20
-54.3556
11
142.06
21
-54.5225
0
LINE
8
BLACK
6
CONTINUOUS
10
142.06
20
-54.5225
11
142.041
21
-54.6894
0
LINE
8
BLACK
6
CONTINUOUS
10
142.041
20
-54.6894
11
141.986
21
-54.8479
0
LINE
8
BLACK
6
CONTINUOUS
10
141.986
20
-54.8479
11
141.896
21
-54.9901
0
LINE
8
BLACK
6
CONTINUOUS
10
141.896
20
-54.9901
11
141.778
21
-55.1089
0
LINE
8
BLACK
6
CONTINUOUS
10
141.778
20
-55.1089
11
141.635
21
-55.1982
0
LINE
8
BLACK
6
CONTINUOUS
10
141.635
20
-55.1982
11
141.477
21
-55.2537
0
LINE
8
BLACK
6
CONTINUOUS
10
141.477
20
-55.2537
11
141.31
21
-55.2725
0
LINE
8
BLACK
6
CONTINUOUS
10
141.31
20
-55.2725
11
141.143
21
-55.2537
0
LINE
8
BLACK
6
CONTINUOUS
10
141.143
20
-55.2537
11
140.985
21
-55.1982
0
LINE
8
BLACK
6
CONTINUOUS
10
140.985
20
-55.1982
11
140.842
21
-55.1089
0
LINE
8
BLACK
6
CONTINUOUS
10
140.842
20
-55.1089
11
140.724
21
-54.9901
0
LINE
8
BLACK
6
CONTINUOUS
10
140.724
20
-54.9901
11
140.634
21
-54.8479
0
LINE
8
BLACK
6
CONTINUOUS
10
140.634
20
-54.8479
11
140.579
21
-54.6894
0
LINE
8
BLACK
6
CONTINUOUS
10
140.579
20
-54.6894
11
140.56
21
-54.5225
0
LINE
8
BLACK
6
CONTINUOUS
10
140.56
20
-54.5225
11
140.579
21
-54.3556
0
LINE
8
BLACK
6
CONTINUOUS
10
140.579
20
-54.3556
11
140.634
21
-54.1971
0
LINE
8
BLACK
6
CONTINUOUS
10
140.634
20
-54.1971
11
140.724
21
-54.0549
0
LINE
8
BLACK
6
CONTINUOUS
10
140.724
20
-54.0549
11
140.842
21
-53.9361
0
LINE
8
BLACK
6
CONTINUOUS
10
140.842
20
-53.9361
11
140.985
21
-53.8468
0
LINE
8
BLACK
6
CONTINUOUS
10
140.985
20
-53.8468
11
141.143
21
-53.7913
0
LINE
8
BLACK
6
CONTINUOUS
10
141.143
20
-53.7913
11
141.31
21
-53.7725
0
LINE
8
BLACK
6
CONTINUOUS
10
141.31
20
-53.7725
11
141.477
21
-53.7913
0
LINE
8
BLACK
6
CONTINUOUS
10
138.937
20
-53.7913
11
139.095
21
-53.8468
0
LINE
8
BLACK
6
CONTINUOUS
10
139.095
20
-53.8468
11
139.238
21
-53.9361
0
LINE
8
BLACK
6
CONTINUOUS
10
139.238
20
-53.9361
11
139.356
21
-54.0549
0
LINE
8
BLACK
6
CONTINUOUS
10
139.356
20
-54.0549
11
139.446
21
-54.1971
0
LINE
8
BLACK
6
CONTINUOUS
10
139.446
20
-54.1971
11
139.501
21
-54.3556
0
LINE
8
BLACK
6
CONTINUOUS
10
139.501
20
-54.3556
11
139.52
21
-54.5225
0
LINE
8
BLACK
6
CONTINUOUS
10
139.52
20
-54.5225
11
139.501
21
-54.6894
0
LINE
8
BLACK
6
CONTINUOUS
10
139.501
20
-54.6894
11
139.446
21
-54.8479
0
LINE
8
BLACK
6
CONTINUOUS
10
139.446
20
-54.8479
11
139.356
21
-54.9901
0
LINE
8
BLACK
6
CONTINUOUS
10
139.356
20
-54.9901
11
139.238
21
-55.1089
0
LINE
8
BLACK
6
CONTINUOUS
10
139.238
20
-55.1089
11
139.095
21
-55.1982
0
LINE
8
BLACK
6
CONTINUOUS
10
139.095
20
-55.1982
11
138.937
21
-55.2537
0
LINE
8
BLACK
6
CONTINUOUS
10
138.937
20
-55.2537
11
138.77
21
-55.2725
0
LINE
8
BLACK
6
CONTINUOUS
10
138.77
20
-55.2725
11
138.603
21
-55.2537
0
LINE
8
BLACK
6
CONTINUOUS
10
138.603
20
-55.2537
11
138.445
21
-55.1982
0
LINE
8
BLACK
6
CONTINUOUS
10
138.445
20
-55.1982
11
138.302
21
-55.1089
0
LINE
8
BLACK
6
CONTINUOUS
10
138.302
20
-55.1089
11
138.184
21
-54.9901
0
LINE
8
BLACK
6
CONTINUOUS
10
138.184
20
-54.9901
11
138.094
21
-54.8479
0
LINE
8
BLACK
6
CONTINUOUS
10
138.094
20
-54.8479
11
138.039
21
-54.6894
0
LINE
8
BLACK
6
CONTINUOUS
10
138.039
20
-54.6894
11
138.02
21
-54.5225
0
LINE
8
BLACK
6
CONTINUOUS
10
138.02
20
-54.5225
11
138.039
21
-54.3556
0
LINE
8
BLACK
6
CONTINUOUS
10
138.039
20
-54.3556
11
138.094
21
-54.1971
0
LINE
8
BLACK
6
CONTINUOUS
10
138.094
20
-54.1971
11
138.184
21
-54.0549
0
LINE
8
BLACK
6
CONTINUOUS
10
138.184
20
-54.0549
11
138.302
21
-53.9361
0
LINE
8
BLACK
6
CONTINUOUS
10
138.302
20
-53.9361
11
138.445
21
-53.8468
0
LINE
8
BLACK
6
CONTINUOUS
10
138.445
20
-53.8468
11
138.603
21
-53.7913
0
LINE
8
BLACK
6
CONTINUOUS
10
138.603
20
-53.7913
11
138.77
21
-53.7725
0
LINE
8
BLACK
6
CONTINUOUS
10
138.77
20
-53.7725
11
138.937
21
-53.7913
0
LINE
8
BLACK
6
CONTINUOUS
10
136.397
20
-53.7913
11
136.555
21
-53.8468
0
LINE
8
BLACK
6
CONTINUOUS
10
136.555
20
-53.8468
11
136.698
21
-53.9361
0
LINE
8
BLACK
6
CONTINUOUS
10
136.698
20
-53.9361
11
136.816
21
-54.0549
0
LINE
8
BLACK
6
CONTINUOUS
10
136.816
20
-54.0549
11
136.906
21
-54.1971
0
LINE
8
BLACK
6
CONTINUOUS
10
136.906
20
-54.1971
11
136.961
21
-54.3556
0
LINE
8
BLACK
6
CONTINUOUS
10
136.961
20
-54.3556
11
136.98
21
-54.5225
0
LINE
8
BLACK
6
CONTINUOUS
10
136.98
20
-54.5225
11
136.961
21
-54.6894
0
LINE
8
BLACK
6
CONTINUOUS
10
136.961
20
-54.6894
11
136.906
21
-54.8479
0
LINE
8
BLACK
6
CONTINUOUS
10
136.906
20
-54.8479
11
136.816
21
-54.9901
0
LINE
8
BLACK
6
CONTINUOUS
10
136.816
20
-54.9901
11
136.698
21
-55.1089
0
LINE
8
BLACK
6
CONTINUOUS
10
136.698
20
-55.1089
11
136.555
21
-55.1982
0
LINE
8
BLACK
6
CONTINUOUS
10
136.555
20
-55.1982
11
136.397
21
-55.2537
0
LINE
8
BLACK
6
CONTINUOUS
10
136.397
20
-55.2537
11
136.23
21
-55.2725
0
LINE
8
BLACK
6
CONTINUOUS
10
136.23
20
-55.2725
11
136.063
21
-55.2537
0
LINE
8
BLACK
6
CONTINUOUS
10
136.063
20
-55.2537
11
135.905
21
-55.1982
0
LINE
8
BLACK
6
CONTINUOUS
10
135.905
20
-55.1982
11
135.762
21
-55.1089
0
LINE
8
BLACK
6
CONTINUOUS
10
135.762
20
-55.1089
11
135.644
21
-54.9901
0
LINE
8
BLACK
6
CONTINUOUS
10
135.644
20
-54.9901
11
135.554
21
-54.8479
0
LINE
8
BLACK
6
CONTINUOUS
10
135.554
20
-54.8479
11
135.499
21
-54.6894
0
LINE
8
BLACK
6
CONTINUOUS
10
135.499
20
-54.6894
11
135.48
21
-54.5225
0
LINE
8
BLACK
6
CONTINUOUS
10
135.48
20
-54.5225
11
135.499
21
-54.3556
0
LINE
8
BLACK
6
CONTINUOUS
10
135.499
20
-54.3556
11
135.554
21
-54.1971
0
LINE
8
BLACK
6
CONTINUOUS
10
135.554
20
-54.1971
11
135.644
21
-54.0549
0
LINE
8
BLACK
6
CONTINUOUS
10
135.644
20
-54.0549
11
135.762
21
-53.9361
0
LINE
8
BLACK
6
CONTINUOUS
10
135.762
20
-53.9361
11
135.905
21
-53.8468
0
LINE
8
BLACK
6
CONTINUOUS
10
135.905
20
-53.8468
11
136.063
21
-53.7913
0
LINE
8
BLACK
6
CONTINUOUS
10
136.063
20
-53.7913
11
136.23
21
-53.7725
0
LINE
8
BLACK
6
CONTINUOUS
10
136.23
20
-53.7725
11
136.397
21
-53.7913
0
LINE
8
BLACK
6
CONTINUOUS
10
133.857
20
-53.7913
11
134.015
21
-53.8468
0
LINE
8
BLACK
6
CONTINUOUS
10
134.015
20
-53.8468
11
134.158
21
-53.9361
0
LINE
8
BLACK
6
CONTINUOUS
10
134.158
20
-53.9361
11
134.276
21
-54.0549
0
LINE
8
BLACK
6
CONTINUOUS
10
134.276
20
-54.0549
11
134.366
21
-54.1971
0
LINE
8
BLACK
6
CONTINUOUS
10
134.366
20
-54.1971
11
134.421
21
-54.3556
0
LINE
8
BLACK
6
CONTINUOUS
10
134.421
20
-54.3556
11
134.44
21
-54.5225
0
LINE
8
BLACK
6
CONTINUOUS
10
134.44
20
-54.5225
11
134.421
21
-54.6894
0
LINE
8
BLACK
6
CONTINUOUS
10
134.421
20
-54.6894
11
134.366
21
-54.8479
0
LINE
8
BLACK
6
CONTINUOUS
10
134.366
20
-54.8479
11
134.276
21
-54.9901
0
LINE
8
BLACK
6
CONTINUOUS
10
134.276
20
-54.9901
11
134.158
21
-55.1089
0
LINE
8
BLACK
6
CONTINUOUS
10
134.158
20
-55.1089
11
134.015
21
-55.1982
0
LINE
8
BLACK
6
CONTINUOUS
10
134.015
20
-55.1982
11
133.857
21
-55.2537
0
LINE
8
BLACK
6
CONTINUOUS
10
133.857
20
-55.2537
11
133.69
21
-55.2725
0
LINE
8
BLACK
6
CONTINUOUS
10
133.69
20
-55.2725
11
133.523
21
-55.2537
0
LINE
8
BLACK
6
CONTINUOUS
10
133.523
20
-55.2537
11
133.365
21
-55.1982
0
LINE
8
BLACK
6
CONTINUOUS
10
133.365
20
-55.1982
11
133.222
21
-55.1089
0
LINE
8
BLACK
6
CONTINUOUS
10
133.222
20
-55.1089
11
133.104
21
-54.9901
0
LINE
8
BLACK
6
CONTINUOUS
10
133.104
20
-54.9901
11
133.014
21
-54.8479
0
LINE
8
BLACK
6
CONTINUOUS
10
133.014
20
-54.8479
11
132.959
21
-54.6894
0
LINE
8
BLACK
6
CONTINUOUS
10
132.959
20
-54.6894
11
132.94
21
-54.5225
0
LINE
8
BLACK
6
CONTINUOUS
10
132.94
20
-54.5225
11
132.959
21
-54.3556
0
LINE
8
BLACK
6
CONTINUOUS
10
132.959
20
-54.3556
11
133.014
21
-54.1971
0
LINE
8
BLACK
6
CONTINUOUS
10
133.014
20
-54.1971
11
133.104
21
-54.0549
0
LINE
8
BLACK
6
CONTINUOUS
10
133.104
20
-54.0549
11
133.222
21
-53.9361
0
LINE
8
BLACK
6
CONTINUOUS
10
133.222
20
-53.9361
11
133.365
21
-53.8468
0
LINE
8
BLACK
6
CONTINUOUS
10
133.365
20
-53.8468
11
133.523
21
-53.7913
0
LINE
8
BLACK
6
CONTINUOUS
10
133.523
20
-53.7913
11
133.69
21
-53.7725
0
LINE
8
BLACK
6
CONTINUOUS
10
133.69
20
-53.7725
11
133.857
21
-53.7913
0
LINE
8
BLACK
6
CONTINUOUS
10
131.317
20
-53.7913
11
131.475
21
-53.8468
0
LINE
8
BLACK
6
CONTINUOUS
10
131.475
20
-53.8468
11
131.618
21
-53.9361
0
LINE
8
BLACK
6
CONTINUOUS
10
131.618
20
-53.9361
11
131.736
21
-54.0549
0
LINE
8
BLACK
6
CONTINUOUS
10
131.736
20
-54.0549
11
131.826
21
-54.1971
0
LINE
8
BLACK
6
CONTINUOUS
10
131.826
20
-54.1971
11
131.881
21
-54.3556
0
LINE
8
BLACK
6
CONTINUOUS
10
131.881
20
-54.3556
11
131.9
21
-54.5225
0
LINE
8
BLACK
6
CONTINUOUS
10
131.9
20
-54.5225
11
131.881
21
-54.6894
0
LINE
8
BLACK
6
CONTINUOUS
10
131.881
20
-54.6894
11
131.826
21
-54.8479
0
LINE
8
BLACK
6
CONTINUOUS
10
131.826
20
-54.8479
11
131.736
21
-54.9901
0
LINE
8
BLACK
6
CONTINUOUS
10
131.736
20
-54.9901
11
131.618
21
-55.1089
0
LINE
8
BLACK
6
CONTINUOUS
10
131.618
20
-55.1089
11
131.475
21
-55.1982
0
LINE
8
BLACK
6
CONTINUOUS
10
131.475
20
-55.1982
11
131.317
21
-55.2537
0
LINE
8
BLACK
6
CONTINUOUS
10
131.317
20
-55.2537
11
131.15
21
-55.2725
0
LINE
8
BLACK
6
CONTINUOUS
10
131.15
20
-55.2725
11
130.983
21
-55.2537
0
LINE
8
BLACK
6
CONTINUOUS
10
130.983
20
-55.2537
11
130.825
21
-55.1982
0
LINE
8
BLACK
6
CONTINUOUS
10
130.825
20
-55.1982
11
130.682
21
-55.1089
0
LINE
8
BLACK
6
CONTINUOUS
10
130.682
20
-55.1089
11
130.564
21
-54.9901
0
LINE
8
BLACK
6
CONTINUOUS
10
130.564
20
-54.9901
11
130.474
21
-54.8479
0
LINE
8
BLACK
6
CONTINUOUS
10
130.474
20
-54.8479
11
130.419
21
-54.6894
0
LINE
8
BLACK
6
CONTINUOUS
10
130.419
20
-54.6894
11
130.4
21
-54.5225
0
LINE
8
BLACK
6
CONTINUOUS
10
130.4
20
-54.5225
11
130.419
21
-54.3556
0
LINE
8
BLACK
6
CONTINUOUS
10
130.419
20
-54.3556
11
130.474
21
-54.1971
0
LINE
8
BLACK
6
CONTINUOUS
10
130.474
20
-54.1971
11
130.564
21
-54.0549
0
LINE
8
BLACK
6
CONTINUOUS
10
130.564
20
-54.0549
11
130.682
21
-53.9361
0
LINE
8
BLACK
6
CONTINUOUS
10
130.682
20
-53.9361
11
130.825
21
-53.8468
0
LINE
8
BLACK
6
CONTINUOUS
10
130.825
20
-53.8468
11
130.983
21
-53.7913
0
LINE
8
BLACK
6
CONTINUOUS
10
130.983
20
-53.7913
11
131.15
21
-53.7725
0
LINE
8
BLACK
6
CONTINUOUS
10
131.15
20
-53.7725
11
131.317
21
-53.7913
0
LINE
8
BLACK
6
CONTINUOUS
10
104.301
20
-51.142
11
104.49
21
-51.2153
0
LINE
8
BLACK
6
CONTINUOUS
10
104.49
20
-51.2153
11
104.663
21
-51.3222
0
LINE
8
BLACK
6
CONTINUOUS
10
104.663
20
-51.3222
11
104.813
21
-51.4589
0
LINE
8
BLACK
6
CONTINUOUS
10
104.813
20
-51.4589
11
104.935
21
-51.6209
0
LINE
8
BLACK
6
CONTINUOUS
10
104.935
20
-51.6209
11
105.026
21
-51.8026
0
LINE
8
BLACK
6
CONTINUOUS
10
105.026
20
-51.8026
11
105.081
21
-51.9979
0
LINE
8
BLACK
6
CONTINUOUS
10
105.081
20
-51.9979
11
105.1
21
-52.2
0
LINE
8
BLACK
6
CONTINUOUS
10
105.1
20
-52.2
11
105.081
21
-52.4021
0
LINE
8
BLACK
6
CONTINUOUS
10
105.081
20
-52.4021
11
105.026
21
-52.5974
0
LINE
8
BLACK
6
CONTINUOUS
10
105.026
20
-52.5974
11
104.935
21
-52.7791
0
LINE
8
BLACK
6
CONTINUOUS
10
104.935
20
-52.7791
11
104.813
21
-52.9411
0
LINE
8
BLACK
6
CONTINUOUS
10
104.813
20
-52.9411
11
104.663
21
-53.0778
0
LINE
8
BLACK
6
CONTINUOUS
10
104.663
20
-53.0778
11
104.49
21
-53.1847
0
LINE
8
BLACK
6
CONTINUOUS
10
104.49
20
-53.1847
11
104.301
21
-53.258
0
LINE
8
BLACK
6
CONTINUOUS
10
104.301
20
-53.258
11
104.101
21
-53.2953
0
LINE
8
BLACK
6
CONTINUOUS
10
104.101
20
-53.2953
11
103.899
21
-53.2953
0
LINE
8
BLACK
6
CONTINUOUS
10
103.899
20
-53.2953
11
103.699
21
-53.258
0
LINE
8
BLACK
6
CONTINUOUS
10
103.699
20
-53.258
11
103.51
21
-53.1847
0
LINE
8
BLACK
6
CONTINUOUS
10
103.51
20
-53.1847
11
103.337
21
-53.0778
0
LINE
8
BLACK
6
CONTINUOUS
10
103.337
20
-53.0778
11
103.187
21
-52.9411
0
LINE
8
BLACK
6
CONTINUOUS
10
103.187
20
-52.9411
11
103.065
21
-52.7791
0
LINE
8
BLACK
6
CONTINUOUS
10
103.065
20
-52.7791
11
102.974
21
-52.5974
0
LINE
8
BLACK
6
CONTINUOUS
10
102.974
20
-52.5974
11
102.919
21
-52.4021
0
LINE
8
BLACK
6
CONTINUOUS
10
102.919
20
-52.4021
11
102.9
21
-52.2
0
LINE
8
BLACK
6
CONTINUOUS
10
102.9
20
-52.2
11
102.919
21
-51.9979
0
LINE
8
BLACK
6
CONTINUOUS
10
102.919
20
-51.9979
11
102.974
21
-51.8026
0
LINE
8
BLACK
6
CONTINUOUS
10
102.974
20
-51.8026
11
103.065
21
-51.6209
0
LINE
8
BLACK
6
CONTINUOUS
10
103.065
20
-51.6209
11
103.187
21
-51.4589
0
LINE
8
BLACK
6
CONTINUOUS
10
103.187
20
-51.4589
11
103.337
21
-51.3222
0
LINE
8
BLACK
6
CONTINUOUS
10
103.337
20
-51.3222
11
103.51
21
-51.2153
0
LINE
8
BLACK
6
CONTINUOUS
10
103.51
20
-51.2153
11
103.699
21
-51.142
0
LINE
8
BLACK
6
CONTINUOUS
10
103.699
20
-51.142
11
103.899
21
-51.1047
0
LINE
8
BLACK
6
CONTINUOUS
10
103.899
20
-51.1047
11
104.101
21
-51.1047
0
LINE
8
BLACK
6
CONTINUOUS
10
104.101
20
-51.1047
11
104.301
21
-51.142
  0
ENDSEC
  0
EOF
