%TF.GenerationSoftware,KiCad,Pcbnew,(7.0.0)*%
%TF.CreationDate,2023-06-01T13:02:33-06:00*%
%TF.ProjectId,V1,56312e6b-6963-4616-945f-706362585858,rev?*%
%TF.SameCoordinates,Original*%
%TF.FileFunction,Paste,Top*%
%TF.FilePolarity,Positive*%
%FSLAX46Y46*%
G04 Gerber Fmt 4.6, Leading zero omitted, Abs format (unit mm)*
G04 Created by KiCad (PCBNEW (7.0.0)) date 2023-06-01 13:02:33*
%MOMM*%
%LPD*%
G01*
G04 APERTURE LIST*
G04 Aperture macros list*
%AMRoundRect*
0 Rectangle with rounded corners*
0 $1 Rounding radius*
0 $2 $3 $4 $5 $6 $7 $8 $9 X,Y pos of 4 corners*
0 Add a 4 corners polygon primitive as box body*
4,1,4,$2,$3,$4,$5,$6,$7,$8,$9,$2,$3,0*
0 Add four circle primitives for the rounded corners*
1,1,$1+$1,$2,$3*
1,1,$1+$1,$4,$5*
1,1,$1+$1,$6,$7*
1,1,$1+$1,$8,$9*
0 Add four rect primitives between the rounded corners*
20,1,$1+$1,$2,$3,$4,$5,0*
20,1,$1+$1,$4,$5,$6,$7,0*
20,1,$1+$1,$6,$7,$8,$9,0*
20,1,$1+$1,$8,$9,$2,$3,0*%
G04 Aperture macros list end*
%ADD10RoundRect,0.079500X-0.079500X-0.100500X0.079500X-0.100500X0.079500X0.100500X-0.079500X0.100500X0*%
%ADD11R,2.400000X0.740000*%
%ADD12R,2.500000X2.000000*%
%ADD13RoundRect,0.075000X-0.662500X-0.075000X0.662500X-0.075000X0.662500X0.075000X-0.662500X0.075000X0*%
%ADD14RoundRect,0.075000X-0.075000X-0.662500X0.075000X-0.662500X0.075000X0.662500X-0.075000X0.662500X0*%
G04 APERTURE END LIST*
D10*
%TO.C,R1*%
X144555000Y-106000000D03*
X145245000Y-106000000D03*
%TD*%
D11*
%TO.C,J3*%
X179499999Y-63509999D03*
X183399999Y-63509999D03*
X179499999Y-64779999D03*
X183399999Y-64779999D03*
X179499999Y-66049999D03*
X183399999Y-66049999D03*
X179499999Y-67319999D03*
X183399999Y-67319999D03*
X179499999Y-68589999D03*
X183399999Y-68589999D03*
X179499999Y-69859999D03*
X183399999Y-69859999D03*
X179499999Y-71129999D03*
X183399999Y-71129999D03*
X179499999Y-72399999D03*
X183399999Y-72399999D03*
X179499999Y-73669999D03*
X183399999Y-73669999D03*
X179499999Y-74939999D03*
X183399999Y-74939999D03*
X179499999Y-76209999D03*
X183399999Y-76209999D03*
X179499999Y-77479999D03*
X183399999Y-77479999D03*
X179499999Y-78749999D03*
X183399999Y-78749999D03*
X179499999Y-80019999D03*
X183399999Y-80019999D03*
X179499999Y-81289999D03*
X183399999Y-81289999D03*
X179499999Y-82559999D03*
X183399999Y-82559999D03*
X179499999Y-83829999D03*
X183399999Y-83829999D03*
X179499999Y-85099999D03*
X183399999Y-85099999D03*
X179499999Y-86369999D03*
X183399999Y-86369999D03*
X179499999Y-87639999D03*
X183399999Y-87639999D03*
X179499999Y-88909999D03*
X183399999Y-88909999D03*
X179499999Y-90179999D03*
X183399999Y-90179999D03*
X179499999Y-91449999D03*
X183399999Y-91449999D03*
X179499999Y-92719999D03*
X183399999Y-92719999D03*
X179499999Y-93989999D03*
X183399999Y-93989999D03*
X179499999Y-95259999D03*
X183399999Y-95259999D03*
X179499999Y-96529999D03*
X183399999Y-96529999D03*
X179499999Y-97799999D03*
X183399999Y-97799999D03*
X179499999Y-99069999D03*
X183399999Y-99069999D03*
X179499999Y-100339999D03*
X183399999Y-100339999D03*
X179499999Y-101609999D03*
X183399999Y-101609999D03*
X179499999Y-102879999D03*
X183399999Y-102879999D03*
X179499999Y-104149999D03*
X183399999Y-104149999D03*
X179499999Y-105419999D03*
X183399999Y-105419999D03*
X179499999Y-106689999D03*
X183399999Y-106689999D03*
X179499999Y-107959999D03*
X183399999Y-107959999D03*
X179499999Y-109229999D03*
X183399999Y-109229999D03*
X179499999Y-110499999D03*
X183399999Y-110499999D03*
X179499999Y-111769999D03*
X183399999Y-111769999D03*
X179499999Y-113039999D03*
X183399999Y-113039999D03*
%TD*%
%TO.C,J2*%
X118399999Y-63549999D03*
X122299999Y-63549999D03*
X118399999Y-64819999D03*
X122299999Y-64819999D03*
X118399999Y-66089999D03*
X122299999Y-66089999D03*
X118399999Y-67359999D03*
X122299999Y-67359999D03*
X118399999Y-68629999D03*
X122299999Y-68629999D03*
X118399999Y-69899999D03*
X122299999Y-69899999D03*
X118399999Y-71169999D03*
X122299999Y-71169999D03*
X118399999Y-72439999D03*
X122299999Y-72439999D03*
X118399999Y-73709999D03*
X122299999Y-73709999D03*
X118399999Y-74979999D03*
X122299999Y-74979999D03*
X118399999Y-76249999D03*
X122299999Y-76249999D03*
X118399999Y-77519999D03*
X122299999Y-77519999D03*
X118399999Y-78789999D03*
X122299999Y-78789999D03*
X118399999Y-80059999D03*
X122299999Y-80059999D03*
X118399999Y-81329999D03*
X122299999Y-81329999D03*
X118399999Y-82599999D03*
X122299999Y-82599999D03*
X118399999Y-83869999D03*
X122299999Y-83869999D03*
X118399999Y-85139999D03*
X122299999Y-85139999D03*
X118399999Y-86409999D03*
X122299999Y-86409999D03*
X118399999Y-87679999D03*
X122299999Y-87679999D03*
X118399999Y-88949999D03*
X122299999Y-88949999D03*
X118399999Y-90219999D03*
X122299999Y-90219999D03*
X118399999Y-91489999D03*
X122299999Y-91489999D03*
X118399999Y-92759999D03*
X122299999Y-92759999D03*
X118399999Y-94029999D03*
X122299999Y-94029999D03*
X118399999Y-95299999D03*
X122299999Y-95299999D03*
X118399999Y-96569999D03*
X122299999Y-96569999D03*
X118399999Y-97839999D03*
X122299999Y-97839999D03*
X118399999Y-99109999D03*
X122299999Y-99109999D03*
X118399999Y-100379999D03*
X122299999Y-100379999D03*
X118399999Y-101649999D03*
X122299999Y-101649999D03*
X118399999Y-102919999D03*
X122299999Y-102919999D03*
X118399999Y-104189999D03*
X122299999Y-104189999D03*
X118399999Y-105459999D03*
X122299999Y-105459999D03*
X118399999Y-106729999D03*
X122299999Y-106729999D03*
X118399999Y-107999999D03*
X122299999Y-107999999D03*
X118399999Y-109269999D03*
X122299999Y-109269999D03*
X118399999Y-110539999D03*
X122299999Y-110539999D03*
X118399999Y-111809999D03*
X122299999Y-111809999D03*
X118399999Y-113079999D03*
X122299999Y-113079999D03*
%TD*%
D12*
%TO.C,10K1*%
X148574999Y-68249999D03*
X157224999Y-66099999D03*
X148574999Y-63949999D03*
%TD*%
D13*
%TO.C,U1*%
X145987500Y-86212500D03*
X145987500Y-86712500D03*
X145987500Y-87212500D03*
X145987500Y-87712500D03*
X145987500Y-88212500D03*
X145987500Y-88712500D03*
X145987500Y-89212500D03*
X145987500Y-89712500D03*
X145987500Y-90212500D03*
X145987500Y-90712500D03*
X145987500Y-91212500D03*
X145987500Y-91712500D03*
D14*
X147400000Y-93125000D03*
X147900000Y-93125000D03*
X148400000Y-93125000D03*
X148900000Y-93125000D03*
X149400000Y-93125000D03*
X149900000Y-93125000D03*
X150400000Y-93125000D03*
X150900000Y-93125000D03*
X151400000Y-93125000D03*
X151900000Y-93125000D03*
X152400000Y-93125000D03*
X152900000Y-93125000D03*
D13*
X154312500Y-91712500D03*
X154312500Y-91212500D03*
X154312500Y-90712500D03*
X154312500Y-90212500D03*
X154312500Y-89712500D03*
X154312500Y-89212500D03*
X154312500Y-88712500D03*
X154312500Y-88212500D03*
X154312500Y-87712500D03*
X154312500Y-87212500D03*
X154312500Y-86712500D03*
X154312500Y-86212500D03*
D14*
X152900000Y-84800000D03*
X152400000Y-84800000D03*
X151900000Y-84800000D03*
X151400000Y-84800000D03*
X150900000Y-84800000D03*
X150400000Y-84800000D03*
X149900000Y-84800000D03*
X149400000Y-84800000D03*
X148900000Y-84800000D03*
X148400000Y-84800000D03*
X147900000Y-84800000D03*
X147400000Y-84800000D03*
%TD*%
M02*
