%TF.GenerationSoftware,KiCad,Pcbnew,(7.0.0)*%
%TF.CreationDate,2023-06-01T13:02:33-06:00*%
%TF.ProjectId,V1,56312e6b-6963-4616-945f-706362585858,rev?*%
%TF.SameCoordinates,Original*%
%TF.FileFunction,Copper,L1,Top*%
%TF.FilePolarity,Positive*%
%FSLAX46Y46*%
G04 Gerber Fmt 4.6, Leading zero omitted, Abs format (unit mm)*
G04 Created by KiCad (PCBNEW (7.0.0)) date 2023-06-01 13:02:33*
%MOMM*%
%LPD*%
G01*
G04 APERTURE LIST*
G04 Aperture macros list*
%AMRoundRect*
0 Rectangle with rounded corners*
0 $1 Rounding radius*
0 $2 $3 $4 $5 $6 $7 $8 $9 X,Y pos of 4 corners*
0 Add a 4 corners polygon primitive as box body*
4,1,4,$2,$3,$4,$5,$6,$7,$8,$9,$2,$3,0*
0 Add four circle primitives for the rounded corners*
1,1,$1+$1,$2,$3*
1,1,$1+$1,$4,$5*
1,1,$1+$1,$6,$7*
1,1,$1+$1,$8,$9*
0 Add four rect primitives between the rounded corners*
20,1,$1+$1,$2,$3,$4,$5,0*
20,1,$1+$1,$4,$5,$6,$7,0*
20,1,$1+$1,$6,$7,$8,$9,0*
20,1,$1+$1,$8,$9,$2,$3,0*%
G04 Aperture macros list end*
%TA.AperFunction,SMDPad,CuDef*%
%ADD10RoundRect,0.100000X-0.130000X-0.100000X0.130000X-0.100000X0.130000X0.100000X-0.130000X0.100000X0*%
%TD*%
%TA.AperFunction,SMDPad,CuDef*%
%ADD11R,2.400000X0.740000*%
%TD*%
%TA.AperFunction,SMDPad,CuDef*%
%ADD12R,2.500000X2.000000*%
%TD*%
%TA.AperFunction,SMDPad,CuDef*%
%ADD13RoundRect,0.075000X-0.662500X-0.075000X0.662500X-0.075000X0.662500X0.075000X-0.662500X0.075000X0*%
%TD*%
%TA.AperFunction,SMDPad,CuDef*%
%ADD14RoundRect,0.075000X-0.075000X-0.662500X0.075000X-0.662500X0.075000X0.662500X-0.075000X0.662500X0*%
%TD*%
%TA.AperFunction,Conductor*%
%ADD15C,0.250000*%
%TD*%
G04 APERTURE END LIST*
D10*
%TO.P,R1,1*%
%TO.N,+3.3V*%
X144580000Y-106000000D03*
%TO.P,R1,2*%
%TO.N,ADC_1*%
X145220000Y-106000000D03*
%TD*%
D11*
%TO.P,J3,1,Pin_1*%
%TO.N,unconnected-(J3-Pin_1-Pad1)*%
X179499999Y-63509999D03*
%TO.P,J3,2,Pin_2*%
%TO.N,unconnected-(J3-Pin_2-Pad2)*%
X183399999Y-63509999D03*
%TO.P,J3,3,Pin_3*%
%TO.N,unconnected-(J3-Pin_3-Pad3)*%
X179499999Y-64779999D03*
%TO.P,J3,4,Pin_4*%
%TO.N,unconnected-(J3-Pin_4-Pad4)*%
X183399999Y-64779999D03*
%TO.P,J3,5,Pin_5*%
%TO.N,unconnected-(J3-Pin_5-Pad5)*%
X179499999Y-66049999D03*
%TO.P,J3,6,Pin_6*%
%TO.N,unconnected-(J3-Pin_6-Pad6)*%
X183399999Y-66049999D03*
%TO.P,J3,7,Pin_7*%
%TO.N,unconnected-(J3-Pin_7-Pad7)*%
X179499999Y-67319999D03*
%TO.P,J3,8,Pin_8*%
%TO.N,unconnected-(J3-Pin_8-Pad8)*%
X183399999Y-67319999D03*
%TO.P,J3,9,Pin_9*%
%TO.N,unconnected-(J3-Pin_9-Pad9)*%
X179499999Y-68589999D03*
%TO.P,J3,10,Pin_10*%
%TO.N,unconnected-(J3-Pin_10-Pad10)*%
X183399999Y-68589999D03*
%TO.P,J3,11,Pin_11*%
%TO.N,unconnected-(J3-Pin_11-Pad11)*%
X179499999Y-69859999D03*
%TO.P,J3,12,Pin_12*%
%TO.N,unconnected-(J3-Pin_12-Pad12)*%
X183399999Y-69859999D03*
%TO.P,J3,13,Pin_13*%
%TO.N,unconnected-(J3-Pin_13-Pad13)*%
X179499999Y-71129999D03*
%TO.P,J3,14,Pin_14*%
%TO.N,unconnected-(J3-Pin_14-Pad14)*%
X183399999Y-71129999D03*
%TO.P,J3,15,Pin_15*%
%TO.N,unconnected-(J3-Pin_15-Pad15)*%
X179499999Y-72399999D03*
%TO.P,J3,16,Pin_16*%
%TO.N,unconnected-(J3-Pin_16-Pad16)*%
X183399999Y-72399999D03*
%TO.P,J3,17,Pin_17*%
%TO.N,unconnected-(J3-Pin_17-Pad17)*%
X179499999Y-73669999D03*
%TO.P,J3,18,Pin_18*%
%TO.N,unconnected-(J3-Pin_18-Pad18)*%
X183399999Y-73669999D03*
%TO.P,J3,19,Pin_19*%
%TO.N,unconnected-(J3-Pin_19-Pad19)*%
X179499999Y-74939999D03*
%TO.P,J3,20,Pin_20*%
%TO.N,unconnected-(J3-Pin_20-Pad20)*%
X183399999Y-74939999D03*
%TO.P,J3,21,Pin_21*%
%TO.N,unconnected-(J3-Pin_21-Pad21)*%
X179499999Y-76209999D03*
%TO.P,J3,22,Pin_22*%
%TO.N,unconnected-(J3-Pin_22-Pad22)*%
X183399999Y-76209999D03*
%TO.P,J3,23,Pin_23*%
%TO.N,unconnected-(J3-Pin_23-Pad23)*%
X179499999Y-77479999D03*
%TO.P,J3,24,Pin_24*%
%TO.N,unconnected-(J3-Pin_24-Pad24)*%
X183399999Y-77479999D03*
%TO.P,J3,25,Pin_25*%
%TO.N,unconnected-(J3-Pin_25-Pad25)*%
X179499999Y-78749999D03*
%TO.P,J3,26,Pin_26*%
%TO.N,unconnected-(J3-Pin_26-Pad26)*%
X183399999Y-78749999D03*
%TO.P,J3,27,Pin_27*%
%TO.N,unconnected-(J3-Pin_27-Pad27)*%
X179499999Y-80019999D03*
%TO.P,J3,28,Pin_28*%
%TO.N,unconnected-(J3-Pin_28-Pad28)*%
X183399999Y-80019999D03*
%TO.P,J3,29,Pin_29*%
%TO.N,unconnected-(J3-Pin_29-Pad29)*%
X179499999Y-81289999D03*
%TO.P,J3,30,Pin_30*%
%TO.N,unconnected-(J3-Pin_30-Pad30)*%
X183399999Y-81289999D03*
%TO.P,J3,31,Pin_31*%
%TO.N,unconnected-(J3-Pin_31-Pad31)*%
X179499999Y-82559999D03*
%TO.P,J3,32,Pin_32*%
%TO.N,unconnected-(J3-Pin_32-Pad32)*%
X183399999Y-82559999D03*
%TO.P,J3,33,Pin_33*%
%TO.N,unconnected-(J3-Pin_33-Pad33)*%
X179499999Y-83829999D03*
%TO.P,J3,34,Pin_34*%
%TO.N,unconnected-(J3-Pin_34-Pad34)*%
X183399999Y-83829999D03*
%TO.P,J3,35,Pin_35*%
%TO.N,unconnected-(J3-Pin_35-Pad35)*%
X179499999Y-85099999D03*
%TO.P,J3,36,Pin_36*%
%TO.N,unconnected-(J3-Pin_36-Pad36)*%
X183399999Y-85099999D03*
%TO.P,J3,37,Pin_37*%
%TO.N,unconnected-(J3-Pin_37-Pad37)*%
X179499999Y-86369999D03*
%TO.P,J3,38,Pin_38*%
%TO.N,unconnected-(J3-Pin_38-Pad38)*%
X183399999Y-86369999D03*
%TO.P,J3,39,Pin_39*%
%TO.N,unconnected-(J3-Pin_39-Pad39)*%
X179499999Y-87639999D03*
%TO.P,J3,40,Pin_40*%
%TO.N,unconnected-(J3-Pin_40-Pad40)*%
X183399999Y-87639999D03*
%TO.P,J3,41*%
%TO.N,N/C*%
X179499999Y-88909999D03*
%TO.P,J3,42*%
X183399999Y-88909999D03*
%TO.P,J3,43*%
X179499999Y-90179999D03*
%TO.P,J3,44*%
X183399999Y-90179999D03*
%TO.P,J3,45*%
X179499999Y-91449999D03*
%TO.P,J3,46*%
X183399999Y-91449999D03*
%TO.P,J3,47*%
X179499999Y-92719999D03*
%TO.P,J3,48*%
X183399999Y-92719999D03*
%TO.P,J3,49*%
X179499999Y-93989999D03*
%TO.P,J3,50*%
X183399999Y-93989999D03*
%TO.P,J3,51*%
X179499999Y-95259999D03*
%TO.P,J3,52*%
X183399999Y-95259999D03*
%TO.P,J3,53*%
X179499999Y-96529999D03*
%TO.P,J3,54*%
X183399999Y-96529999D03*
%TO.P,J3,55*%
X179499999Y-97799999D03*
%TO.P,J3,56*%
X183399999Y-97799999D03*
%TO.P,J3,57*%
X179499999Y-99069999D03*
%TO.P,J3,58*%
X183399999Y-99069999D03*
%TO.P,J3,59*%
X179499999Y-100339999D03*
%TO.P,J3,60*%
X183399999Y-100339999D03*
%TO.P,J3,61*%
X179499999Y-101609999D03*
%TO.P,J3,62*%
X183399999Y-101609999D03*
%TO.P,J3,63*%
X179499999Y-102879999D03*
%TO.P,J3,64*%
X183399999Y-102879999D03*
%TO.P,J3,65*%
X179499999Y-104149999D03*
%TO.P,J3,66*%
X183399999Y-104149999D03*
%TO.P,J3,67*%
X179499999Y-105419999D03*
%TO.P,J3,68*%
X183399999Y-105419999D03*
%TO.P,J3,69*%
X179499999Y-106689999D03*
%TO.P,J3,70*%
X183399999Y-106689999D03*
%TO.P,J3,71*%
X179499999Y-107959999D03*
%TO.P,J3,72*%
X183399999Y-107959999D03*
%TO.P,J3,73*%
X179499999Y-109229999D03*
%TO.P,J3,74*%
X183399999Y-109229999D03*
%TO.P,J3,75*%
X179499999Y-110499999D03*
%TO.P,J3,76*%
X183399999Y-110499999D03*
%TO.P,J3,77*%
X179499999Y-111769999D03*
%TO.P,J3,78*%
X183399999Y-111769999D03*
%TO.P,J3,79*%
X179499999Y-113039999D03*
%TO.P,J3,80*%
X183399999Y-113039999D03*
%TD*%
%TO.P,J2,1,Pin_1*%
%TO.N,unconnected-(J2-Pin_1-Pad1)*%
X118399999Y-63549999D03*
%TO.P,J2,2,Pin_2*%
%TO.N,unconnected-(J2-Pin_2-Pad2)*%
X122299999Y-63549999D03*
%TO.P,J2,3,Pin_3*%
%TO.N,unconnected-(J2-Pin_3-Pad3)*%
X118399999Y-64819999D03*
%TO.P,J2,4,Pin_4*%
%TO.N,unconnected-(J2-Pin_4-Pad4)*%
X122299999Y-64819999D03*
%TO.P,J2,5,Pin_5*%
%TO.N,unconnected-(J2-Pin_5-Pad5)*%
X118399999Y-66089999D03*
%TO.P,J2,6,Pin_6*%
%TO.N,unconnected-(J2-Pin_6-Pad6)*%
X122299999Y-66089999D03*
%TO.P,J2,7,Pin_7*%
%TO.N,unconnected-(J2-Pin_7-Pad7)*%
X118399999Y-67359999D03*
%TO.P,J2,8,Pin_8*%
%TO.N,unconnected-(J2-Pin_8-Pad8)*%
X122299999Y-67359999D03*
%TO.P,J2,9,Pin_9*%
%TO.N,unconnected-(J2-Pin_9-Pad9)*%
X118399999Y-68629999D03*
%TO.P,J2,10,Pin_10*%
%TO.N,unconnected-(J2-Pin_10-Pad10)*%
X122299999Y-68629999D03*
%TO.P,J2,11,Pin_11*%
%TO.N,unconnected-(J2-Pin_11-Pad11)*%
X118399999Y-69899999D03*
%TO.P,J2,12,Pin_12*%
%TO.N,unconnected-(J2-Pin_12-Pad12)*%
X122299999Y-69899999D03*
%TO.P,J2,13,Pin_13*%
%TO.N,unconnected-(J2-Pin_13-Pad13)*%
X118399999Y-71169999D03*
%TO.P,J2,14,Pin_14*%
%TO.N,unconnected-(J2-Pin_14-Pad14)*%
X122299999Y-71169999D03*
%TO.P,J2,15,Pin_15*%
%TO.N,unconnected-(J2-Pin_15-Pad15)*%
X118399999Y-72439999D03*
%TO.P,J2,16,Pin_16*%
%TO.N,unconnected-(J2-Pin_16-Pad16)*%
X122299999Y-72439999D03*
%TO.P,J2,17,Pin_17*%
%TO.N,unconnected-(J2-Pin_17-Pad17)*%
X118399999Y-73709999D03*
%TO.P,J2,18,Pin_18*%
%TO.N,unconnected-(J2-Pin_18-Pad18)*%
X122299999Y-73709999D03*
%TO.P,J2,19,Pin_19*%
%TO.N,unconnected-(J2-Pin_19-Pad19)*%
X118399999Y-74979999D03*
%TO.P,J2,20,Pin_20*%
%TO.N,unconnected-(J2-Pin_20-Pad20)*%
X122299999Y-74979999D03*
%TO.P,J2,21,Pin_21*%
%TO.N,unconnected-(J2-Pin_21-Pad21)*%
X118399999Y-76249999D03*
%TO.P,J2,22,Pin_22*%
%TO.N,unconnected-(J2-Pin_22-Pad22)*%
X122299999Y-76249999D03*
%TO.P,J2,23,Pin_23*%
%TO.N,unconnected-(J2-Pin_23-Pad23)*%
X118399999Y-77519999D03*
%TO.P,J2,24,Pin_24*%
%TO.N,unconnected-(J2-Pin_24-Pad24)*%
X122299999Y-77519999D03*
%TO.P,J2,25,Pin_25*%
%TO.N,unconnected-(J2-Pin_25-Pad25)*%
X118399999Y-78789999D03*
%TO.P,J2,26,Pin_26*%
%TO.N,unconnected-(J2-Pin_26-Pad26)*%
X122299999Y-78789999D03*
%TO.P,J2,27,Pin_27*%
%TO.N,unconnected-(J2-Pin_27-Pad27)*%
X118399999Y-80059999D03*
%TO.P,J2,28,Pin_28*%
%TO.N,unconnected-(J2-Pin_28-Pad28)*%
X122299999Y-80059999D03*
%TO.P,J2,29,Pin_29*%
%TO.N,unconnected-(J2-Pin_29-Pad29)*%
X118399999Y-81329999D03*
%TO.P,J2,30,Pin_30*%
%TO.N,unconnected-(J2-Pin_30-Pad30)*%
X122299999Y-81329999D03*
%TO.P,J2,31,Pin_31*%
%TO.N,unconnected-(J2-Pin_31-Pad31)*%
X118399999Y-82599999D03*
%TO.P,J2,32,Pin_32*%
%TO.N,unconnected-(J2-Pin_32-Pad32)*%
X122299999Y-82599999D03*
%TO.P,J2,33,Pin_33*%
%TO.N,unconnected-(J2-Pin_33-Pad33)*%
X118399999Y-83869999D03*
%TO.P,J2,34,Pin_34*%
%TO.N,unconnected-(J2-Pin_34-Pad34)*%
X122299999Y-83869999D03*
%TO.P,J2,35,Pin_35*%
%TO.N,unconnected-(J2-Pin_35-Pad35)*%
X118399999Y-85139999D03*
%TO.P,J2,36,Pin_36*%
%TO.N,unconnected-(J2-Pin_36-Pad36)*%
X122299999Y-85139999D03*
%TO.P,J2,37,Pin_37*%
%TO.N,unconnected-(J2-Pin_37-Pad37)*%
X118399999Y-86409999D03*
%TO.P,J2,38,Pin_38*%
%TO.N,unconnected-(J2-Pin_38-Pad38)*%
X122299999Y-86409999D03*
%TO.P,J2,39,Pin_39*%
%TO.N,unconnected-(J2-Pin_39-Pad39)*%
X118399999Y-87679999D03*
%TO.P,J2,40,Pin_40*%
%TO.N,unconnected-(J2-Pin_40-Pad40)*%
X122299999Y-87679999D03*
%TO.P,J2,41*%
%TO.N,N/C*%
X118399999Y-88949999D03*
%TO.P,J2,42*%
X122299999Y-88949999D03*
%TO.P,J2,43*%
X118399999Y-90219999D03*
%TO.P,J2,44*%
X122299999Y-90219999D03*
%TO.P,J2,45*%
X118399999Y-91489999D03*
%TO.P,J2,46*%
X122299999Y-91489999D03*
%TO.P,J2,47*%
X118399999Y-92759999D03*
%TO.P,J2,48*%
X122299999Y-92759999D03*
%TO.P,J2,49*%
X118399999Y-94029999D03*
%TO.P,J2,50*%
X122299999Y-94029999D03*
%TO.P,J2,51*%
X118399999Y-95299999D03*
%TO.P,J2,52*%
X122299999Y-95299999D03*
%TO.P,J2,53*%
X118399999Y-96569999D03*
%TO.P,J2,54*%
X122299999Y-96569999D03*
%TO.P,J2,55*%
X118399999Y-97839999D03*
%TO.P,J2,56*%
X122299999Y-97839999D03*
%TO.P,J2,57*%
X118399999Y-99109999D03*
%TO.P,J2,58*%
X122299999Y-99109999D03*
%TO.P,J2,59*%
X118399999Y-100379999D03*
%TO.P,J2,60*%
X122299999Y-100379999D03*
%TO.P,J2,61*%
X118399999Y-101649999D03*
%TO.P,J2,62*%
X122299999Y-101649999D03*
%TO.P,J2,63*%
X118399999Y-102919999D03*
%TO.P,J2,64*%
X122299999Y-102919999D03*
%TO.P,J2,65*%
X118399999Y-104189999D03*
%TO.P,J2,66*%
X122299999Y-104189999D03*
%TO.P,J2,67*%
X118399999Y-105459999D03*
%TO.P,J2,68*%
X122299999Y-105459999D03*
%TO.P,J2,69*%
X118399999Y-106729999D03*
%TO.P,J2,70*%
X122299999Y-106729999D03*
%TO.P,J2,71*%
X118399999Y-107999999D03*
%TO.P,J2,72*%
X122299999Y-107999999D03*
%TO.P,J2,73*%
X118399999Y-109269999D03*
%TO.P,J2,74*%
X122299999Y-109269999D03*
%TO.P,J2,75*%
X118399999Y-110539999D03*
%TO.P,J2,76*%
X122299999Y-110539999D03*
%TO.P,J2,77*%
X118399999Y-111809999D03*
%TO.P,J2,78*%
X122299999Y-111809999D03*
%TO.P,J2,79*%
X118399999Y-113079999D03*
%TO.P,J2,80*%
X122299999Y-113079999D03*
%TD*%
D12*
%TO.P,10K1,1,1*%
%TO.N,GND*%
X148574999Y-68249999D03*
%TO.P,10K1,2,2*%
%TO.N,ADC_2*%
X157224999Y-66099999D03*
%TO.P,10K1,3,3*%
%TO.N,+5V*%
X148574999Y-63949999D03*
%TD*%
D13*
%TO.P,U1,1,PC13*%
%TO.N,unconnected-(U1-PC13-Pad1)*%
X145987500Y-86212500D03*
%TO.P,U1,2,PC14*%
%TO.N,unconnected-(U1-PC14-Pad2)*%
X145987500Y-86712500D03*
%TO.P,U1,3,PC15*%
%TO.N,unconnected-(U1-PC15-Pad3)*%
X145987500Y-87212500D03*
%TO.P,U1,4,PF3*%
%TO.N,unconnected-(U1-PF3-Pad4)*%
X145987500Y-87712500D03*
%TO.P,U1,5,VREF+*%
%TO.N,unconnected-(U1-VREF+-Pad5)*%
X145987500Y-88212500D03*
%TO.P,U1,6,VDD*%
%TO.N,unconnected-(U1-VDD-Pad6)*%
X145987500Y-88712500D03*
%TO.P,U1,7,VSS*%
%TO.N,unconnected-(U1-VSS-Pad7)*%
X145987500Y-89212500D03*
%TO.P,U1,8,PF0*%
%TO.N,unconnected-(U1-PF0-Pad8)*%
X145987500Y-89712500D03*
%TO.P,U1,9,PF1*%
%TO.N,unconnected-(U1-PF1-Pad9)*%
X145987500Y-90212500D03*
%TO.P,U1,10,PF2*%
%TO.N,unconnected-(U1-PF2-Pad10)*%
X145987500Y-90712500D03*
%TO.P,U1,11,PA0*%
%TO.N,unconnected-(U1-PA0-Pad11)*%
X145987500Y-91212500D03*
%TO.P,U1,12,PA1*%
%TO.N,ADC_1*%
X145987500Y-91712500D03*
D14*
%TO.P,U1,13,PA2*%
%TO.N,Net-(J1-SSRX+)*%
X147400000Y-93125000D03*
%TO.P,U1,14,PA3*%
%TO.N,Net-(J1-SSRX-)*%
X147900000Y-93125000D03*
%TO.P,U1,15,PA4*%
%TO.N,ADC_2*%
X148400000Y-93125000D03*
%TO.P,U1,16,PA5*%
%TO.N,unconnected-(U1-PA5-Pad16)*%
X148900000Y-93125000D03*
%TO.P,U1,17,PA6*%
%TO.N,unconnected-(U1-PA6-Pad17)*%
X149400000Y-93125000D03*
%TO.P,U1,18,PA7*%
%TO.N,unconnected-(U1-PA7-Pad18)*%
X149900000Y-93125000D03*
%TO.P,U1,19,PB0*%
%TO.N,unconnected-(U1-PB0-Pad19)*%
X150400000Y-93125000D03*
%TO.P,U1,20,PB1*%
%TO.N,unconnected-(U1-PB1-Pad20)*%
X150900000Y-93125000D03*
%TO.P,U1,21,PB2*%
%TO.N,unconnected-(U1-PB2-Pad21)*%
X151400000Y-93125000D03*
%TO.P,U1,22,PB10*%
%TO.N,unconnected-(U1-PB10-Pad22)*%
X151900000Y-93125000D03*
%TO.P,U1,23,PB11*%
%TO.N,unconnected-(U1-PB11-Pad23)*%
X152400000Y-93125000D03*
%TO.P,U1,24,PB12*%
%TO.N,unconnected-(U1-PB12-Pad24)*%
X152900000Y-93125000D03*
D13*
%TO.P,U1,25,PB13*%
%TO.N,unconnected-(U1-PB13-Pad25)*%
X154312500Y-91712500D03*
%TO.P,U1,26,PB14*%
%TO.N,unconnected-(U1-PB14-Pad26)*%
X154312500Y-91212500D03*
%TO.P,U1,27,PB15*%
%TO.N,unconnected-(U1-PB15-Pad27)*%
X154312500Y-90712500D03*
%TO.P,U1,28,PA8*%
%TO.N,unconnected-(U1-PA8-Pad28)*%
X154312500Y-90212500D03*
%TO.P,U1,29,PA9/NC*%
%TO.N,unconnected-(U1-PA9{slash}NC-Pad29)*%
X154312500Y-89712500D03*
%TO.P,U1,30,PC6*%
%TO.N,unconnected-(U1-PC6-Pad30)*%
X154312500Y-89212500D03*
%TO.P,U1,31,PC7*%
%TO.N,unconnected-(U1-PC7-Pad31)*%
X154312500Y-88712500D03*
%TO.P,U1,32,PA10/NC*%
%TO.N,unconnected-(U1-PA10{slash}NC-Pad32)*%
X154312500Y-88212500D03*
%TO.P,U1,33,PA11/PA9*%
%TO.N,unconnected-(U1-PA11{slash}PA9-Pad33)*%
X154312500Y-87712500D03*
%TO.P,U1,34,PA12/PA10*%
%TO.N,unconnected-(U1-PA12{slash}PA10-Pad34)*%
X154312500Y-87212500D03*
%TO.P,U1,35,PA13*%
%TO.N,unconnected-(U1-PA13-Pad35)*%
X154312500Y-86712500D03*
%TO.P,U1,36,PA14*%
%TO.N,unconnected-(U1-PA14-Pad36)*%
X154312500Y-86212500D03*
D14*
%TO.P,U1,37,PA15*%
%TO.N,unconnected-(U1-PA15-Pad37)*%
X152900000Y-84800000D03*
%TO.P,U1,38,PD0*%
%TO.N,unconnected-(U1-PD0-Pad38)*%
X152400000Y-84800000D03*
%TO.P,U1,39,PD1*%
%TO.N,unconnected-(U1-PD1-Pad39)*%
X151900000Y-84800000D03*
%TO.P,U1,40,PD2*%
%TO.N,unconnected-(U1-PD2-Pad40)*%
X151400000Y-84800000D03*
%TO.P,U1,41,PD3*%
%TO.N,unconnected-(U1-PD3-Pad41)*%
X150900000Y-84800000D03*
%TO.P,U1,42,PB3*%
%TO.N,unconnected-(U1-PB3-Pad42)*%
X150400000Y-84800000D03*
%TO.P,U1,43,PB4*%
%TO.N,unconnected-(U1-PB4-Pad43)*%
X149900000Y-84800000D03*
%TO.P,U1,44,PB5*%
%TO.N,unconnected-(U1-PB5-Pad44)*%
X149400000Y-84800000D03*
%TO.P,U1,45,PB6*%
%TO.N,unconnected-(U1-PB6-Pad45)*%
X148900000Y-84800000D03*
%TO.P,U1,46,PB7*%
%TO.N,unconnected-(U1-PB7-Pad46)*%
X148400000Y-84800000D03*
%TO.P,U1,47,PB8*%
%TO.N,unconnected-(U1-PB8-Pad47)*%
X147900000Y-84800000D03*
%TO.P,U1,48,PB9*%
%TO.N,unconnected-(U1-PB9-Pad48)*%
X147400000Y-84800000D03*
%TD*%
D15*
%TO.N,ADC_2*%
X153190685Y-92062500D02*
X148659315Y-92062500D01*
X148400000Y-92321815D02*
X148400000Y-93125000D01*
X154228185Y-93100000D02*
X153190685Y-92062500D01*
X148659315Y-92062500D02*
X148400000Y-92321815D01*
X157225000Y-90103185D02*
X154228185Y-93100000D01*
X157225000Y-66100000D02*
X157225000Y-90103185D01*
%TO.N,ADC_1*%
X145220000Y-92480000D02*
X145987500Y-91712500D01*
X145220000Y-106000000D02*
X145220000Y-92480000D01*
%TD*%
M02*
